<svg width="41" height="42" viewBox="0 0 41 42" fill="none" xmlns="http://www.w3.org/2000/svg">
<path d="M32.2415 34.9929H27.6285V29.8942C27.6285 29.5429 27.3367 29.2581 26.9766 29.2581H19.0969C18.7369 29.2581 18.445 29.5429 18.445 29.8942C18.445 30.2456 18.7369 30.5304 19.0969 30.5304H26.3247V34.9929H17.0987V29.8942C17.0987 29.5429 16.8068 29.2581 16.4468 29.2581C16.0867 29.2581 15.7948 29.5429 15.7948 29.8942V34.9929H6.56883V34.1941C6.56883 33.8427 6.27696 33.5579 5.9169 33.5579C5.55685 33.5579 5.26497 33.8427 5.26497 34.1941V34.9929H3.68924C3.32918 34.9929 3.0373 35.2777 3.0373 35.629C3.0373 35.9804 3.32918 36.2652 3.68924 36.2652H10.5298V40.7277H1.30386V36.2652H1.50041C1.86046 36.2652 2.15234 35.9804 2.15234 35.629C2.15234 35.2777 1.86046 34.9929 1.50041 34.9929H0.651932C0.291877 34.9929 0 35.2777 0 35.629V41.3638C0 41.7152 0.291877 42 0.651932 42H32.2413C32.6014 42 32.8933 41.7152 32.8933 41.3638V35.629C32.8934 35.2777 32.6016 34.9929 32.2415 34.9929ZM21.0596 40.7277H11.8336V36.2652H21.0595V40.7277H21.0596ZM22.3636 40.7277V36.2652H31.5894V40.7277H22.3636Z" fill="#FCC21D"/>
<path d="M10.2558 29.2581H5.9169C5.55685 29.2581 5.26497 29.5429 5.26497 29.8942V31.2346C5.26497 31.586 5.55685 31.8708 5.9169 31.8708C6.27696 31.8708 6.56883 31.586 6.56883 31.2346V30.5304H10.2558C10.6159 30.5304 10.9077 30.2456 10.9077 29.8942C10.9077 29.5429 10.6159 29.2581 10.2558 29.2581Z" fill="#FCC21D"/>
<path d="M40.3065 2.23932L38.7052 0.676789C37.7804 -0.225555 36.2757 -0.225638 35.3509 0.676789L13.6582 21.8445C13.6567 21.846 13.6555 21.8476 13.654 21.8491C13.6374 21.8657 13.6215 21.8829 13.6067 21.9013C13.6062 21.9019 13.6055 21.9026 13.6049 21.9033C13.5894 21.9227 13.5751 21.9431 13.5618 21.9645C13.5594 21.9682 13.5576 21.9721 13.5553 21.976C13.5456 21.9924 13.5366 22.0091 13.5282 22.0266C13.5245 22.0343 13.5213 22.0421 13.518 22.05C13.5145 22.0583 13.5102 22.0665 13.5071 22.0751L11.165 28.2965C11.0774 28.5291 11.1363 28.7903 11.316 28.9657C11.4405 29.0872 11.6071 29.1521 11.7771 29.1521C11.8525 29.1521 11.9285 29.1394 12.0018 29.113L18.3775 26.8276C18.3815 26.8262 18.385 26.8244 18.3888 26.8229C18.3994 26.8189 18.4099 26.8144 18.4202 26.8098C18.43 26.8055 18.4398 26.8013 18.4492 26.7966C18.4582 26.7921 18.4669 26.7872 18.4755 26.7824C18.4859 26.7766 18.4963 26.7707 18.5063 26.7645C18.5135 26.76 18.5205 26.755 18.5275 26.7502C18.5382 26.7428 18.5489 26.7354 18.5592 26.7274C18.5652 26.7226 18.5712 26.7176 18.5771 26.7126C18.5875 26.7038 18.5977 26.695 18.6075 26.6857C18.6095 26.6838 18.6117 26.6823 18.6136 26.6803L40.3062 5.5127C41.2313 4.61003 41.2312 3.14175 40.3065 2.23932ZM32.0145 5.73181L33.1095 6.80043C33.1075 6.80223 33.1054 6.80371 33.1036 6.8056L16.7641 22.7496L15.2502 22.0903L32.0145 5.73181ZM12.875 27.4444L13.4782 25.8419L14.5173 26.8558L12.875 27.4444ZM15.8658 26.3723L13.9735 24.5258L14.4905 23.1526L16.4141 23.9905L17.2729 25.8677L15.8658 26.3723ZM18.3619 25.1266L17.6861 23.6493L34.0256 7.70524C34.0276 7.70335 34.0291 7.7013 34.0309 7.69949L35.1261 8.76812L18.3619 25.1266ZM36.0481 7.8684L32.9366 4.83209L33.8103 3.97945L36.9219 7.01568L36.0481 7.8684ZM39.3845 4.61282L37.8439 6.11612L34.7324 3.0799L36.273 1.57659C36.6893 1.17029 37.3668 1.17029 37.7832 1.57659L39.3845 3.13912C39.8009 3.54534 39.8009 4.20652 39.3845 4.61282Z" fill="#FCC21D"/>
</svg>
