<svg width="83" height="83" viewBox="0 0 83 83" fill="none" xmlns="http://www.w3.org/2000/svg">
<path d="M24.6735 27.0661C25.1899 27.0661 25.6085 26.6482 25.6085 26.1326C25.6085 25.6171 25.1899 25.1992 24.6735 25.1992C24.1572 25.1992 23.7386 25.6171 23.7386 26.1326C23.7386 26.6482 24.1572 27.0661 24.6735 27.0661Z" fill="#FCC217"/>
<path d="M30.2831 27.0661C30.7994 27.0661 31.218 26.6482 31.218 26.1326C31.218 25.6171 30.7994 25.1992 30.2831 25.1992C29.7667 25.1992 29.3481 25.6171 29.3481 26.1326C29.3481 26.6482 29.7667 27.0661 30.2831 27.0661Z" fill="#FCC217"/>
<path d="M33.0868 22.3992C32.5708 22.3992 32.1519 22.817 32.1519 23.3327C32.1519 23.8479 32.5708 24.2659 33.0868 24.2659C33.6038 24.2659 34.0217 23.8479 34.0217 23.3327C34.0217 22.817 33.6038 22.3992 33.0868 22.3992Z" fill="#FCC217"/>
<path d="M35.8915 27.0661C36.4079 27.0661 36.8265 26.6482 36.8265 26.1326C36.8265 25.6171 36.4079 25.1992 35.8915 25.1992C35.3752 25.1992 34.9566 25.6171 34.9566 26.1326C34.9566 26.6482 35.3752 27.0661 35.8915 27.0661Z" fill="#FCC217"/>
<path d="M38.6952 22.3992C38.1792 22.3992 37.7614 22.817 37.7614 23.3327C37.7614 23.8479 38.1792 24.2659 38.6952 24.2659C39.2123 24.2659 39.6302 23.8479 39.6302 23.3327C39.6302 22.817 39.2123 22.3992 38.6952 22.3992Z" fill="#FCC217"/>
<path d="M24.6735 32.6661C25.1898 32.6661 25.6083 32.2482 25.6083 31.7327C25.6083 31.2173 25.1898 30.7994 24.6735 30.7994C24.1573 30.7994 23.7388 31.2173 23.7388 31.7327C23.7388 32.2482 24.1573 32.6661 24.6735 32.6661Z" fill="#FCC217"/>
<path d="M27.4783 27.9993C26.9623 27.9993 26.5434 28.4174 26.5434 28.9326C26.5434 29.4483 26.9623 29.866 27.4783 29.866C27.9943 29.866 28.4132 29.4483 28.4132 28.9326C28.4132 28.4174 27.9943 27.9993 27.4783 27.9993Z" fill="#FCC217"/>
<path d="M30.2831 32.6661C30.7993 32.6661 31.2179 32.2482 31.2179 31.7327C31.2179 31.2173 30.7993 30.7994 30.2831 30.7994C29.7668 30.7994 29.3483 31.2173 29.3483 31.7327C29.3483 32.2482 29.7668 32.6661 30.2831 32.6661Z" fill="#FCC217"/>
<path d="M33.0868 27.9993C32.5708 27.9993 32.1519 28.4174 32.1519 28.9326C32.1519 29.4483 32.5708 29.866 33.0868 29.866C33.6038 29.866 34.0217 29.4483 34.0217 28.9326C34.0217 28.4174 33.6038 27.9993 33.0868 27.9993Z" fill="#FCC217"/>
<path d="M35.8915 32.6661C36.4078 32.6661 36.8263 32.2482 36.8263 31.7327C36.8263 31.2173 36.4078 30.7994 35.8915 30.7994C35.3753 30.7994 34.9567 31.2173 34.9567 31.7327C34.9567 32.2482 35.3753 32.6661 35.8915 32.6661Z" fill="#FCC217"/>
<path d="M38.6952 27.9993C38.1792 27.9993 37.7614 28.4174 37.7614 28.9326C37.7614 29.4483 38.1792 29.866 38.6952 29.866C39.2123 29.866 39.6302 29.4483 39.6302 28.9326C39.6302 28.4174 39.2123 27.9993 38.6952 27.9993Z" fill="#FCC217"/>
<path d="M24.6735 38.2663C25.1899 38.2663 25.6085 37.8484 25.6085 37.3328C25.6085 36.8173 25.1899 36.3994 24.6735 36.3994C24.1572 36.3994 23.7386 36.8173 23.7386 37.3328C23.7386 37.8484 24.1572 38.2663 24.6735 38.2663Z" fill="#FCC217"/>
<path d="M27.4783 33.5994C26.9623 33.5994 26.5434 34.0172 26.5434 34.5329C26.5434 35.0481 26.9623 35.4661 27.4783 35.4661C27.9943 35.4661 28.4132 35.0481 28.4132 34.5329C28.4132 34.0172 27.9943 33.5994 27.4783 33.5994Z" fill="#FCC217"/>
<path d="M30.2831 38.2663C30.7994 38.2663 31.218 37.8484 31.218 37.3328C31.218 36.8173 30.7994 36.3994 30.2831 36.3994C29.7667 36.3994 29.3481 36.8173 29.3481 37.3328C29.3481 37.8484 29.7667 38.2663 30.2831 38.2663Z" fill="#FCC217"/>
<path d="M33.0868 33.5994C32.5708 33.5994 32.1519 34.0172 32.1519 34.5329C32.1519 35.0481 32.5708 35.4661 33.0868 35.4661C33.6038 35.4661 34.0217 35.0481 34.0217 34.5329C34.0217 34.0172 33.6038 33.5994 33.0868 33.5994Z" fill="#FCC217"/>
<path d="M35.8915 38.2663C36.4079 38.2663 36.8265 37.8484 36.8265 37.3328C36.8265 36.8173 36.4079 36.3994 35.8915 36.3994C35.3752 36.3994 34.9566 36.8173 34.9566 37.3328C34.9566 37.8484 35.3752 38.2663 35.8915 38.2663Z" fill="#FCC217"/>
<path d="M38.6952 33.5994C38.1792 33.5994 37.7614 34.0172 37.7614 34.5329C37.7614 35.0481 38.1792 35.4661 38.6952 35.4661C39.2123 35.4661 39.6302 35.0481 39.6302 34.5329C39.6302 34.0172 39.2123 33.5994 38.6952 33.5994Z" fill="#FCC217"/>
<path d="M24.6735 43.8663C25.1898 43.8663 25.6083 43.4484 25.6083 42.933C25.6083 42.4175 25.1898 41.9996 24.6735 41.9996C24.1573 41.9996 23.7388 42.4175 23.7388 42.933C23.7388 43.4484 24.1573 43.8663 24.6735 43.8663Z" fill="#FCC217"/>
<path d="M27.4783 39.1996C26.9623 39.1996 26.5434 39.6176 26.5434 40.1328C26.5434 40.6485 26.9623 41.0663 27.4783 41.0663C27.9943 41.0663 28.4132 40.6485 28.4132 40.1328C28.4132 39.6176 27.9943 39.1996 27.4783 39.1996Z" fill="#FCC217"/>
<path d="M30.2831 43.8663C30.7993 43.8663 31.2179 43.4484 31.2179 42.933C31.2179 42.4175 30.7993 41.9996 30.2831 41.9996C29.7668 41.9996 29.3483 42.4175 29.3483 42.933C29.3483 43.4484 29.7668 43.8663 30.2831 43.8663Z" fill="#FCC217"/>
<path d="M33.0868 39.1996C32.5708 39.1996 32.1519 39.6176 32.1519 40.1328C32.1519 40.6485 32.5708 41.0663 33.0868 41.0663C33.6038 41.0663 34.0217 40.6485 34.0217 40.1328C34.0217 39.6176 33.6038 39.1996 33.0868 39.1996Z" fill="#FCC217"/>
<path d="M35.8915 43.8663C36.4078 43.8663 36.8263 43.4484 36.8263 42.933C36.8263 42.4175 36.4078 41.9996 35.8915 41.9996C35.3753 41.9996 34.9567 42.4175 34.9567 42.933C34.9567 43.4484 35.3753 43.8663 35.8915 43.8663Z" fill="#FCC217"/>
<path d="M38.6952 39.1996C38.1792 39.1996 37.7614 39.6176 37.7614 40.1328C37.7614 40.6485 38.1792 41.0663 38.6952 41.0663C39.2123 41.0663 39.6302 40.6485 39.6302 40.1328C39.6302 39.6176 39.2123 39.1996 38.6952 39.1996Z" fill="#FCC217"/>
<path d="M24.6735 47.5998C24.1575 47.5998 23.7386 48.0176 23.7386 48.5331C23.7386 49.0485 24.1575 49.4665 24.6735 49.4665C25.1906 49.4665 25.6085 49.0485 25.6085 48.5331C25.6085 48.0176 25.1906 47.5998 24.6735 47.5998Z" fill="#FCC217"/>
<path d="M27.4783 44.7997C26.9623 44.7997 26.5434 45.2174 26.5434 45.7331C26.5434 46.2483 26.9623 46.6664 27.4783 46.6664C27.9943 46.6664 28.4132 46.2483 28.4132 45.7331C28.4132 45.2174 27.9943 44.7997 27.4783 44.7997Z" fill="#FCC217"/>
<path d="M30.2831 47.5998C29.766 47.5998 29.3481 48.0176 29.3481 48.5331C29.3481 49.0485 29.766 49.4665 30.2831 49.4665C30.7991 49.4665 31.218 49.0485 31.218 48.5331C31.218 48.0176 30.7991 47.5998 30.2831 47.5998Z" fill="#FCC217"/>
<path d="M33.0868 44.7997C32.5708 44.7997 32.1519 45.2174 32.1519 45.7331C32.1519 46.2483 32.5708 46.6664 33.0868 46.6664C33.6038 46.6664 34.0217 46.2483 34.0217 45.7331C34.0217 45.2174 33.6038 44.7997 33.0868 44.7997Z" fill="#FCC217"/>
<path d="M35.8915 47.5998C35.3755 47.5998 34.9566 48.0176 34.9566 48.5331C34.9566 49.0485 35.3755 49.4665 35.8915 49.4665C36.4075 49.4665 36.8265 49.0485 36.8265 48.5331C36.8265 48.0176 36.4075 47.5998 35.8915 47.5998Z" fill="#FCC217"/>
<path d="M38.6952 44.7997C38.1792 44.7997 37.7614 45.2174 37.7614 45.7331C37.7614 46.2483 38.1792 46.6664 38.6952 46.6664C39.2123 46.6664 39.6302 46.2483 39.6302 45.7331C39.6302 45.2174 39.2123 44.7997 38.6952 44.7997Z" fill="#FCC217"/>
<path d="M27.4783 52.2666C27.9946 52.2666 28.4131 51.8487 28.4131 51.3332C28.4131 50.8178 27.9946 50.3999 27.4783 50.3999C26.962 50.3999 26.5435 50.8178 26.5435 51.3332C26.5435 51.8487 26.962 52.2666 27.4783 52.2666Z" fill="#FCC217"/>
<path d="M30.2831 53.1999C29.766 53.1999 29.3481 53.6177 29.3481 54.1334C29.3481 54.6486 29.766 55.0666 30.2831 55.0666C30.7991 55.0666 31.218 54.6486 31.218 54.1334C31.218 53.6177 30.7991 53.1999 30.2831 53.1999Z" fill="#FCC217"/>
<path d="M33.0868 52.2666C33.603 52.2666 34.0216 51.8487 34.0216 51.3332C34.0216 50.8178 33.603 50.3999 33.0868 50.3999C32.5705 50.3999 32.152 50.8178 32.152 51.3332C32.152 51.8487 32.5705 52.2666 33.0868 52.2666Z" fill="#FCC217"/>
<path d="M35.8915 53.1999C35.3755 53.1999 34.9566 53.6177 34.9566 54.1334C34.9566 54.6486 35.3755 55.0666 35.8915 55.0666C36.4075 55.0666 36.8265 54.6486 36.8265 54.1334C36.8265 53.6177 36.4075 53.1999 35.8915 53.1999Z" fill="#FCC217"/>
<path d="M38.6952 50.4C38.1792 50.4 37.7614 50.8178 37.7614 51.3332C37.7614 51.8487 38.1792 52.2665 38.6952 52.2665C39.2123 52.2665 39.6302 51.8487 39.6302 51.3332C39.6302 50.8178 39.2123 50.4 38.6952 50.4Z" fill="#FCC217"/>
<path d="M30.2831 58.8001C29.766 58.8001 29.3481 59.2178 29.3481 59.7333C29.3481 60.2487 29.766 60.6668 30.2831 60.6668C30.7991 60.6668 31.218 60.2487 31.218 59.7333C31.218 59.2178 30.7991 58.8001 30.2831 58.8001Z" fill="#FCC217"/>
<path d="M33.0868 57.8668C33.6031 57.8668 34.0217 57.4489 34.0217 56.9333C34.0217 56.4178 33.6031 55.9999 33.0868 55.9999C32.5704 55.9999 32.1519 56.4178 32.1519 56.9333C32.1519 57.4489 32.5704 57.8668 33.0868 57.8668Z" fill="#FCC217"/>
<path d="M35.8915 58.8001C35.3755 58.8001 34.9566 59.2178 34.9566 59.7333C34.9566 60.2487 35.3755 60.6668 35.8915 60.6668C36.4075 60.6668 36.8265 60.2487 36.8265 59.7333C36.8265 59.2178 36.4075 58.8001 35.8915 58.8001Z" fill="#FCC217"/>
<path d="M38.6952 55.9999C38.1792 55.9999 37.7614 56.4176 37.7614 56.9333C37.7614 57.4486 38.1792 57.8668 38.6952 57.8668C39.2123 57.8668 39.6302 57.4486 39.6302 56.9333C39.6302 56.4176 39.2123 55.9999 38.6952 55.9999Z" fill="#FCC217"/>
<path d="M38.6952 61.6002C38.1792 61.6002 37.7614 62.018 37.7614 62.5335C37.7614 63.0489 38.1792 63.4667 38.6952 63.4667C39.2123 63.4667 39.6302 63.0489 39.6302 62.5335C39.6302 62.018 39.2123 61.6002 38.6952 61.6002Z" fill="#FCC217"/>
<path d="M62.0661 21.4658C48.3916 21.4658 42.2766 14.4041 42.2175 14.3324C42.0382 14.1222 41.7765 14 41.5011 14C41.2256 14 40.9618 14.1222 40.7835 14.3324C40.7234 14.4041 34.6094 21.4658 20.9349 21.4658C20.4179 21.4658 20 21.883 20 22.3992V40.2123C20 49.9501 24.3844 59.2041 31.7277 64.9657C34.6886 67.2888 37.8869 68.9698 41.2351 69.9621C41.3217 69.9868 41.4093 70 41.4989 70C41.5886 70 41.6794 69.9868 41.7659 69.9621C45.1131 68.9698 48.3125 67.2888 51.2723 64.9657C58.6166 59.2041 63 49.9501 63 40.2123V22.3992C63 21.883 62.5821 21.4658 62.0661 21.4658ZM61.1302 27.9986C60.6142 27.9986 60.1952 28.4166 60.1952 28.9318C60.1952 29.447 60.6142 29.865 61.1302 29.865V33.5984C60.6142 33.5984 60.1952 34.0167 60.1952 34.5319C60.1952 35.0471 60.6142 35.4654 61.1302 35.4654V39.1988C60.6142 39.1988 60.1952 39.6168 60.1952 40.132C60.1952 40.639 60.6015 41.0478 61.1059 41.0607C61.07 42.3451 60.9571 43.6191 60.764 44.8734C60.4295 45.0151 60.1952 45.3457 60.1952 45.7321C60.1952 45.9981 60.3092 46.2352 60.4875 46.4051C59.999 48.7738 59.2434 51.0654 58.2294 53.2184C57.7609 53.269 57.3905 53.6506 57.3905 54.1324C57.3905 54.3049 57.4506 54.4579 57.5329 54.597C57.1731 55.2681 56.7837 55.9206 56.3754 56.5591C56.2308 56.2295 55.9037 55.9988 55.5206 55.9988C55.0046 55.9988 54.5868 56.4171 54.5868 56.9323C54.5868 57.438 54.9899 57.8442 55.4932 57.86C54.114 59.7762 52.5048 61.5112 50.692 63.0168C50.7817 62.874 50.8471 62.7144 50.8471 62.5335C50.8471 62.0182 50.4282 61.6002 49.9122 61.6002C49.3962 61.6002 48.9772 62.0182 48.9772 62.5335C48.9772 63.0487 49.3962 63.4667 49.9122 63.4667C50.0251 63.4667 50.1317 63.4388 50.2308 63.4024C50.1918 63.433 50.1549 63.4677 50.1158 63.4985C49.4183 64.0464 48.705 64.555 47.9811 65.0255C47.8524 64.6633 47.5158 64.4002 47.1085 64.4002C46.5925 64.4002 46.1746 64.8184 46.1746 65.3336C46.1746 65.577 46.2727 65.7946 46.4257 65.9605C44.8324 66.8537 43.1873 67.5704 41.5011 68.0912C39.8148 67.5704 38.1687 66.8537 36.5743 65.9605C36.7273 65.7946 36.8265 65.577 36.8265 65.3336C36.8265 64.8184 36.4075 64.4002 35.8915 64.4002C35.4853 64.4002 35.1476 64.6633 35.0189 65.0255C34.295 64.555 33.5827 64.0464 32.8842 63.4985C32.8451 63.4677 32.8082 63.433 32.7692 63.4024C32.8694 63.4388 32.9749 63.4667 33.0878 63.4667C33.6038 63.4667 34.0227 63.0487 34.0227 62.5335C34.0227 62.0182 33.6038 61.6002 33.0878 61.6002C32.5718 61.6002 32.1529 62.0182 32.1529 62.5335C32.1529 62.7144 32.2183 62.874 32.308 63.0168C30.4962 61.5112 28.886 59.7762 27.5079 57.86C28.0101 57.8442 28.4143 57.438 28.4143 56.9323C28.4143 56.4171 27.9954 55.9988 27.4794 55.9988C27.0974 55.9988 26.7692 56.2295 26.6246 56.5591C26.2163 55.9206 25.828 55.2681 25.4671 54.597C25.5494 54.4579 25.6095 54.3049 25.6095 54.1324C25.6095 53.6506 25.2391 53.269 24.7706 53.2184C23.7566 51.0654 23.0021 48.7738 22.5125 46.4051C22.6919 46.2352 22.8058 45.9981 22.8058 45.7321C22.8058 45.3457 22.5705 45.0151 22.236 44.8734C22.044 43.6191 21.93 42.3451 21.8941 41.0607C22.3985 41.0478 22.8058 40.639 22.8058 40.132C22.8058 39.6168 22.3869 39.1988 21.8709 39.1988V35.4654C22.3869 35.4654 22.8058 35.0471 22.8058 34.5319C22.8058 34.0167 22.3869 33.5984 21.8709 33.5984V29.865C22.3869 29.865 22.8058 29.447 22.8058 28.9318C22.8058 28.4166 22.3869 27.9986 21.8709 27.9986V24.2651C22.3869 24.2651 22.8058 23.8469 22.8058 23.3317C22.8058 23.3122 22.7963 23.2964 22.7942 23.2774C24.1586 23.2158 25.446 23.0909 26.6563 22.9108C26.5898 23.0388 26.5444 23.1778 26.5444 23.3317C26.5444 23.8469 26.9634 24.2651 27.4794 24.2651C27.9954 24.2651 28.4143 23.8469 28.4143 23.3317C28.4143 23.0693 28.3035 22.8344 28.1304 22.6642C30.8096 22.148 33.0783 21.3836 34.9598 20.5381C34.9629 21.0506 35.3798 21.465 35.8926 21.465C36.4086 21.465 36.8275 21.047 36.8275 20.5317C36.8275 20.2346 36.6798 19.9828 36.4645 19.8111C37.22 19.4144 37.8933 19.014 38.4947 18.6237C38.5623 18.639 38.6256 18.6648 38.6973 18.6648C39.1701 18.6648 39.5447 18.3084 39.6069 17.853C40.4342 17.2432 41.0705 16.6914 41.4989 16.28C41.9284 16.6914 42.5658 17.2432 43.3931 17.853C43.4553 18.3084 43.831 18.6648 44.3037 18.6648C44.3744 18.6648 44.4377 18.639 44.5053 18.6237C45.1067 19.014 45.781 19.4144 46.5355 19.8111C46.3213 19.9828 46.1735 20.2346 46.1735 20.5317C46.1735 21.047 46.5925 21.465 47.1074 21.465C47.6213 21.465 48.0371 21.0506 48.0413 20.5381C49.9217 21.3836 52.1904 22.148 54.8706 22.6642C54.6965 22.8344 54.5868 23.0693 54.5868 23.3317C54.5868 23.8469 55.0046 24.2651 55.5206 24.2651C56.0366 24.2651 56.4556 23.8469 56.4556 23.3317C56.4556 23.1778 56.4102 23.0388 56.3437 22.9108C57.554 23.0909 58.8414 23.2158 60.2058 23.2774C60.2047 23.2964 60.1952 23.3122 60.1952 23.3317C60.1952 23.8469 60.6142 24.2651 61.1302 24.2651V27.9986Z" fill="#FCC217"/>
<path d="M42.2598 20.0176C42.226 19.9694 42.2028 19.9141 42.1616 19.8727C42.1004 19.8119 42.0223 19.7705 41.9464 19.7281C41.9179 19.712 41.8957 19.686 41.8651 19.6731C41.7796 19.6367 41.6836 19.6262 41.5865 19.6167C41.557 19.6138 41.5317 19.5993 41.5011 19.5993C41.4789 19.5993 41.4588 19.6104 41.4367 19.612C41.3322 19.6193 41.2278 19.6338 41.136 19.6731C41.1053 19.686 41.0832 19.712 41.0536 19.7279C40.9777 19.7705 40.9006 19.8116 40.8394 19.8727C40.7972 19.9141 40.774 19.9694 40.7413 20.0176C40.7065 20.0682 40.6632 20.1124 40.6389 20.1693C40.5915 20.281 40.5651 20.4037 40.5651 20.5325C40.5651 20.6613 40.5915 20.7841 40.6389 20.8958C40.6516 20.925 40.6759 20.9461 40.6917 20.9737C40.7339 21.0514 40.7772 21.1302 40.8394 21.1923C40.9006 21.2535 40.9777 21.2945 41.0536 21.3372C41.0832 21.353 41.1053 21.3791 41.136 21.392C41.2278 21.4312 41.3322 21.4457 41.4367 21.4531C41.4588 21.4547 41.4768 21.4658 41.4989 21.4658C41.5295 21.4658 41.557 21.4513 41.5865 21.4484C41.6836 21.4392 41.7796 21.4284 41.8651 21.392C41.8957 21.3791 41.9179 21.353 41.9464 21.3367C42.0223 21.2945 42.1004 21.2532 42.1616 21.1923C42.2239 21.1302 42.2661 21.0514 42.3093 20.9737C42.3241 20.9461 42.3484 20.925 42.3611 20.8958C42.4085 20.7841 42.4349 20.6613 42.4349 20.5325C42.4349 20.4037 42.4085 20.281 42.3611 20.1693C42.3368 20.1124 42.2935 20.0682 42.2598 20.0176Z" fill="#FCC217"/>
<path d="M58.3265 27.0661C58.8428 27.0661 59.2614 26.6482 59.2614 26.1326C59.2614 25.6171 58.8428 25.1992 58.3265 25.1992C57.8101 25.1992 57.3915 25.6171 57.3915 26.1326C57.3915 26.6482 57.8101 27.0661 58.3265 27.0661Z" fill="#FCC217"/>
<path d="M52.718 27.0661C53.2343 27.0661 53.6529 26.6482 53.6529 26.1326C53.6529 25.6171 53.2343 25.1992 52.718 25.1992C52.2016 25.1992 51.7831 25.6171 51.7831 26.1326C51.7831 26.6482 52.2016 27.0661 52.718 27.0661Z" fill="#FCC217"/>
<path d="M49.9132 22.3992C49.3972 22.3992 48.9783 22.817 48.9783 23.3327C48.9783 23.8479 49.3972 24.2659 49.9132 24.2659C50.4292 24.2659 50.8481 23.8479 50.8481 23.3327C50.8481 22.817 50.4292 22.3992 49.9132 22.3992Z" fill="#FCC217"/>
<path d="M47.1085 25.1992C46.5925 25.1992 46.1746 25.6172 46.1746 26.1326C46.1746 26.6481 46.5925 27.0661 47.1085 27.0661C47.6255 27.0661 48.0434 26.6481 48.0434 26.1326C48.0434 25.6172 47.6255 25.1992 47.1085 25.1992Z" fill="#FCC217"/>
<path d="M44.3048 22.3992C43.7877 22.3992 43.3698 22.817 43.3698 23.3327C43.3698 23.8479 43.7877 24.2659 44.3048 24.2659C44.8208 24.2659 45.2397 23.8479 45.2397 23.3327C45.2397 22.817 44.8208 22.3992 44.3048 22.3992Z" fill="#FCC217"/>
<path d="M42.2598 25.618C42.226 25.5695 42.2028 25.5142 42.1616 25.4731C41.9928 25.3043 41.7596 25.1997 41.5011 25.1997C41.2436 25.1999 41.0083 25.304 40.8394 25.4731C40.7972 25.5142 40.774 25.5695 40.7413 25.618C40.7065 25.6685 40.6632 25.7125 40.6389 25.7697C40.5915 25.8811 40.5651 26.0038 40.5651 26.1326C40.5651 26.2614 40.5915 26.3842 40.6389 26.4959C40.6516 26.5251 40.6759 26.5462 40.6917 26.5738C40.7339 26.6515 40.7772 26.73 40.8394 26.7922C40.9006 26.8533 40.9777 26.8949 41.0536 26.9371C41.0832 26.9534 41.1053 26.9792 41.136 26.9924C41.2278 27.0314 41.3322 27.0458 41.4367 27.0532C41.4588 27.0548 41.4768 27.0659 41.4989 27.0659C41.5295 27.0659 41.557 27.0514 41.5865 27.0485C41.6836 27.0393 41.7796 27.0282 41.8651 26.9924C41.8957 26.9792 41.9179 26.9531 41.9464 26.9371C42.0223 26.8944 42.1004 26.8533 42.1616 26.7922C42.2239 26.73 42.2661 26.6515 42.3093 26.5738C42.3241 26.5462 42.3484 26.5251 42.3611 26.4959C42.4085 26.3842 42.4349 26.2614 42.4349 26.1326C42.4349 26.0038 42.4085 25.8811 42.3611 25.7697C42.3368 25.7125 42.2935 25.6685 42.2598 25.618Z" fill="#FCC217"/>
<path d="M58.3265 32.6661C58.8427 32.6661 59.2612 32.2482 59.2612 31.7327C59.2612 31.2173 58.8427 30.7994 58.3265 30.7994C57.8102 30.7994 57.3917 31.2173 57.3917 31.7327C57.3917 32.2482 57.8102 32.6661 58.3265 32.6661Z" fill="#FCC217"/>
<path d="M55.5217 27.9993C55.0057 27.9993 54.5868 28.4174 54.5868 28.9326C54.5868 29.4483 55.0057 29.866 55.5217 29.866C56.0387 29.866 56.4566 29.4483 56.4566 28.9326C56.4566 28.4174 56.0387 27.9993 55.5217 27.9993Z" fill="#FCC217"/>
<path d="M52.718 32.6661C53.2343 32.6661 53.6528 32.2482 53.6528 31.7327C53.6528 31.2173 53.2343 30.7994 52.718 30.7994C52.2017 30.7994 51.7832 31.2173 51.7832 31.7327C51.7832 32.2482 52.2017 32.6661 52.718 32.6661Z" fill="#FCC217"/>
<path d="M49.9132 27.9993C49.3972 27.9993 48.9783 28.4174 48.9783 28.9326C48.9783 29.4483 49.3972 29.866 49.9132 29.866C50.4292 29.866 50.8481 29.4483 50.8481 28.9326C50.8481 28.4174 50.4292 27.9993 49.9132 27.9993Z" fill="#FCC217"/>
<path d="M47.1085 30.7995C46.5925 30.7995 46.1746 31.2173 46.1746 31.7327C46.1746 32.2482 46.5925 32.666 47.1085 32.666C47.6255 32.666 48.0434 32.2482 48.0434 31.7327C48.0434 31.2173 47.6255 30.7995 47.1085 30.7995Z" fill="#FCC217"/>
<path d="M44.3048 27.9993C43.7877 27.9993 43.3698 28.4174 43.3698 28.9326C43.3698 29.4483 43.7877 29.866 44.3048 29.866C44.8208 29.866 45.2397 29.4483 45.2397 28.9326C45.2397 28.4174 44.8208 27.9993 44.3048 27.9993Z" fill="#FCC217"/>
<path d="M42.2598 31.2178C42.226 31.1696 42.2028 31.1143 42.1616 31.0729C41.9928 30.9044 41.7596 30.8001 41.5011 30.7995C41.2436 30.7998 41.0083 30.9044 40.8394 31.0729C40.7972 31.1143 40.774 31.1696 40.7413 31.2178C40.7065 31.2684 40.6632 31.3126 40.6389 31.3695C40.5915 31.4812 40.5651 31.6039 40.5651 31.7327C40.5651 31.8615 40.5915 31.9843 40.6389 32.096C40.6516 32.1252 40.6759 32.1463 40.6917 32.1739C40.7339 32.2516 40.7772 32.3304 40.8394 32.3926C40.9006 32.4537 40.9777 32.4948 41.0536 32.5374C41.0832 32.5532 41.1053 32.5793 41.136 32.5922C41.2278 32.6315 41.3322 32.6459 41.4367 32.6533C41.4588 32.6549 41.4768 32.666 41.4989 32.666C41.5295 32.666 41.557 32.6515 41.5865 32.6486C41.6836 32.6394 41.7796 32.6286 41.8651 32.5922C41.8957 32.5793 41.9179 32.5532 41.9464 32.5369C42.0223 32.4948 42.1004 32.4534 42.1616 32.3926C42.2239 32.3304 42.2661 32.2516 42.3093 32.1739C42.3241 32.1463 42.3484 32.1252 42.3611 32.096C42.4085 31.9843 42.4349 31.8615 42.4349 31.7327C42.4349 31.6039 42.4085 31.4812 42.3611 31.3695C42.3368 31.3126 42.2935 31.2684 42.2598 31.2178Z" fill="#FCC217"/>
<path d="M58.3265 38.2663C58.8428 38.2663 59.2614 37.8484 59.2614 37.3328C59.2614 36.8173 58.8428 36.3994 58.3265 36.3994C57.8101 36.3994 57.3915 36.8173 57.3915 37.3328C57.3915 37.8484 57.8101 38.2663 58.3265 38.2663Z" fill="#FCC217"/>
<path d="M55.5217 33.5994C55.0057 33.5994 54.5868 34.0172 54.5868 34.5329C54.5868 35.0481 55.0057 35.4661 55.5217 35.4661C56.0387 35.4661 56.4566 35.0481 56.4566 34.5329C56.4566 34.0172 56.0387 33.5994 55.5217 33.5994Z" fill="#FCC217"/>
<path d="M52.718 38.2663C53.2343 38.2663 53.6529 37.8484 53.6529 37.3328C53.6529 36.8173 53.2343 36.3994 52.718 36.3994C52.2016 36.3994 51.7831 36.8173 51.7831 37.3328C51.7831 37.8484 52.2016 38.2663 52.718 38.2663Z" fill="#FCC217"/>
<path d="M49.9132 33.5994C49.3972 33.5994 48.9783 34.0172 48.9783 34.5329C48.9783 35.0481 49.3972 35.4661 49.9132 35.4661C50.4292 35.4661 50.8481 35.0481 50.8481 34.5329C50.8481 34.0172 50.4292 33.5994 49.9132 33.5994Z" fill="#FCC217"/>
<path d="M47.1085 36.3994C46.5925 36.3994 46.1746 36.8174 46.1746 37.3328C46.1746 37.8483 46.5925 38.2663 47.1085 38.2663C47.6255 38.2663 48.0434 37.8483 48.0434 37.3328C48.0434 36.8174 47.6255 36.3994 47.1085 36.3994Z" fill="#FCC217"/>
<path d="M44.3048 33.5994C43.7877 33.5994 43.3698 34.0172 43.3698 34.5329C43.3698 35.0481 43.7877 35.4661 44.3048 35.4661C44.8208 35.4661 45.2397 35.0481 45.2397 34.5329C45.2397 34.0172 44.8208 33.5994 44.3048 33.5994Z" fill="#FCC217"/>
<path d="M42.2598 36.8182C42.226 36.7697 42.2028 36.7144 42.1616 36.6733C41.9928 36.5045 41.7596 36.3999 41.5011 36.3999C41.2436 36.4002 41.0083 36.5042 40.8394 36.6733C40.7972 36.7144 40.774 36.7697 40.7413 36.8182C40.7065 36.8687 40.6632 36.9127 40.6389 36.9699C40.5915 37.0813 40.5651 37.204 40.5651 37.3328C40.5651 37.4617 40.5915 37.5844 40.6389 37.6961C40.6516 37.7253 40.6759 37.7464 40.6917 37.774C40.7339 37.8517 40.7772 37.9302 40.8394 37.9924C40.9006 38.0535 40.9777 38.0951 41.0536 38.1373C41.0832 38.1536 41.1053 38.1794 41.136 38.1926C41.2278 38.2316 41.3322 38.2461 41.4367 38.2534C41.4588 38.255 41.4768 38.2661 41.4989 38.2661C41.5295 38.2661 41.557 38.2516 41.5865 38.2487C41.6836 38.2395 41.7796 38.2284 41.8651 38.1926C41.8957 38.1794 41.9179 38.1533 41.9464 38.1373C42.0223 38.0949 42.1004 38.0535 42.1616 37.9924C42.2239 37.9302 42.2661 37.8517 42.3093 37.774C42.3241 37.7464 42.3484 37.7253 42.3611 37.6961C42.4085 37.5844 42.4349 37.4617 42.4349 37.3328C42.4349 37.204 42.4085 37.0813 42.3611 36.9699C42.3368 36.9127 42.2935 36.8687 42.2598 36.8182Z" fill="#FCC217"/>
<path d="M58.3265 43.8663C58.8427 43.8663 59.2612 43.4484 59.2612 42.933C59.2612 42.4175 58.8427 41.9996 58.3265 41.9996C57.8102 41.9996 57.3917 42.4175 57.3917 42.933C57.3917 43.4484 57.8102 43.8663 58.3265 43.8663Z" fill="#FCC217"/>
<path d="M55.5217 39.1996C55.0057 39.1996 54.5868 39.6176 54.5868 40.1328C54.5868 40.6485 55.0057 41.0663 55.5217 41.0663C56.0387 41.0663 56.4566 40.6485 56.4566 40.1328C56.4566 39.6176 56.0387 39.1996 55.5217 39.1996Z" fill="#FCC217"/>
<path d="M52.718 43.8663C53.2343 43.8663 53.6528 43.4484 53.6528 42.933C53.6528 42.4175 53.2343 41.9996 52.718 41.9996C52.2017 41.9996 51.7832 42.4175 51.7832 42.933C51.7832 43.4484 52.2017 43.8663 52.718 43.8663Z" fill="#FCC217"/>
<path d="M49.9132 39.1996C49.3972 39.1996 48.9783 39.6176 48.9783 40.1328C48.9783 40.6485 49.3972 41.0663 49.9132 41.0663C50.4292 41.0663 50.8481 40.6485 50.8481 40.1328C50.8481 39.6176 50.4292 39.1996 49.9132 39.1996Z" fill="#FCC217"/>
<path d="M47.1085 41.9997C46.5925 41.9997 46.1746 42.4175 46.1746 42.933C46.1746 43.4484 46.5925 43.8662 47.1085 43.8662C47.6255 43.8662 48.0434 43.4484 48.0434 42.933C48.0434 42.4175 47.6255 41.9997 47.1085 41.9997Z" fill="#FCC217"/>
<path d="M44.3048 39.1996C43.7877 39.1996 43.3698 39.6176 43.3698 40.1328C43.3698 40.6485 43.7877 41.0663 44.3048 41.0663C44.8208 41.0663 45.2397 40.6485 45.2397 40.1328C45.2397 39.6176 44.8208 39.1996 44.3048 39.1996Z" fill="#FCC217"/>
<path d="M42.2598 42.418C42.226 42.3698 42.2028 42.3145 42.1616 42.2731C41.9928 42.1046 41.7596 42.0003 41.5011 41.9997C41.2436 42 41.0083 42.1046 40.8394 42.2731C40.7972 42.3145 40.774 42.3698 40.7413 42.418C40.7065 42.4686 40.6632 42.5128 40.6389 42.5697C40.5915 42.6814 40.5651 42.8042 40.5651 42.933C40.5651 43.0618 40.5915 43.1845 40.6389 43.2962C40.6516 43.3254 40.6759 43.3465 40.6917 43.3741C40.7339 43.4518 40.7772 43.5306 40.8394 43.5928C40.9006 43.6539 40.9777 43.695 41.0536 43.7376C41.0832 43.7534 41.1053 43.7795 41.136 43.7924C41.2278 43.8317 41.3322 43.8462 41.4367 43.8535C41.4588 43.8551 41.4768 43.8662 41.4989 43.8662C41.5295 43.8662 41.557 43.8517 41.5865 43.8488C41.6836 43.8396 41.7796 43.8288 41.8651 43.7924C41.8957 43.7795 41.9179 43.7534 41.9464 43.7371C42.0223 43.695 42.1004 43.6536 42.1616 43.5928C42.2239 43.5306 42.2661 43.4518 42.3093 43.3741C42.3241 43.3465 42.3484 43.3254 42.3611 43.2962C42.4085 43.1845 42.4349 43.0618 42.4349 42.933C42.4349 42.8042 42.4085 42.6814 42.3611 42.5697C42.3368 42.5128 42.2935 42.4686 42.2598 42.418Z" fill="#FCC217"/>
<path d="M58.3265 47.5998C57.8105 47.5998 57.3915 48.0176 57.3915 48.5331C57.3915 49.0485 57.8105 49.4665 58.3265 49.4665C58.8425 49.4665 59.2614 49.0485 59.2614 48.5331C59.2614 48.0176 58.8425 47.5998 58.3265 47.5998Z" fill="#FCC217"/>
<path d="M55.5217 44.7997C55.0057 44.7997 54.5868 45.2174 54.5868 45.7331C54.5868 46.2483 55.0057 46.6664 55.5217 46.6664C56.0387 46.6664 56.4566 46.2483 56.4566 45.7331C56.4566 45.2174 56.0387 44.7997 55.5217 44.7997Z" fill="#FCC217"/>
<path d="M52.718 47.5998C52.2009 47.5998 51.7831 48.0176 51.7831 48.5331C51.7831 49.0485 52.2009 49.4665 52.718 49.4665C53.234 49.4665 53.6529 49.0485 53.6529 48.5331C53.6529 48.0176 53.234 47.5998 52.718 47.5998Z" fill="#FCC217"/>
<path d="M49.9132 44.7997C49.3972 44.7997 48.9783 45.2174 48.9783 45.7331C48.9783 46.2483 49.3972 46.6664 49.9132 46.6664C50.4292 46.6664 50.8481 46.2483 50.8481 45.7331C50.8481 45.2174 50.4292 44.7997 49.9132 44.7997Z" fill="#FCC217"/>
<path d="M47.1085 47.5998C46.5925 47.5998 46.1746 48.0176 46.1746 48.5331C46.1746 49.0485 46.5925 49.4665 47.1085 49.4665C47.6255 49.4665 48.0434 49.0485 48.0434 48.5331C48.0434 48.0176 47.6255 47.5998 47.1085 47.5998Z" fill="#FCC217"/>
<path d="M44.3048 44.7997C43.7877 44.7997 43.3698 45.2174 43.3698 45.7331C43.3698 46.2483 43.7877 46.6664 44.3048 46.6664C44.8208 46.6664 45.2397 46.2483 45.2397 45.7331C45.2397 45.2174 44.8208 44.7997 44.3048 44.7997Z" fill="#FCC217"/>
<path d="M42.3093 48.0921C42.2661 48.0142 42.2239 47.9357 42.1616 47.8735C42.1004 47.8124 42.0223 47.7708 41.9464 47.7286C41.9179 47.7123 41.8957 47.6865 41.8651 47.6736C41.7796 47.6375 41.6836 47.6264 41.5865 47.6175C41.557 47.6143 41.5317 47.6001 41.5011 47.6001C41.4789 47.6001 41.4588 47.6112 41.4367 47.6127C41.3322 47.6201 41.2278 47.6343 41.136 47.6736C41.1053 47.6865 41.0832 47.7123 41.0547 47.7281C40.9777 47.7708 40.9006 47.8121 40.8394 47.8735C40.7772 47.9357 40.7339 48.0142 40.6917 48.0921C40.6759 48.1198 40.6516 48.1406 40.6389 48.1701C40.5915 48.2818 40.5651 48.4045 40.5651 48.5331C40.5651 48.6621 40.5915 48.7846 40.6389 48.8963C40.6516 48.9255 40.6759 48.9466 40.6917 48.974C40.7339 49.052 40.7772 49.1304 40.8394 49.1929C40.9239 49.2774 41.0241 49.3454 41.136 49.3928C41.2478 49.4402 41.3702 49.4663 41.4989 49.4665C41.7575 49.4663 41.9928 49.3617 42.1616 49.1929C42.2239 49.1304 42.2661 49.052 42.3093 48.974C42.3241 48.9466 42.3494 48.9255 42.3611 48.8963C42.4085 48.7846 42.4349 48.6621 42.4349 48.5331C42.4349 48.4045 42.4085 48.2818 42.3611 48.1701C42.3494 48.1406 42.3241 48.1198 42.3093 48.0921Z" fill="#FCC217"/>
<path d="M55.5217 52.2666C56.038 52.2666 56.4565 51.8487 56.4565 51.3332C56.4565 50.8178 56.038 50.3999 55.5217 50.3999C55.0054 50.3999 54.5869 50.8178 54.5869 51.3332C54.5869 51.8487 55.0054 52.2666 55.5217 52.2666Z" fill="#FCC217"/>
<path d="M52.718 53.1999C52.2009 53.1999 51.7831 53.6177 51.7831 54.1334C51.7831 54.6486 52.2009 55.0666 52.718 55.0666C53.234 55.0666 53.6529 54.6486 53.6529 54.1334C53.6529 53.6177 53.234 53.1999 52.718 53.1999Z" fill="#FCC217"/>
<path d="M49.9132 52.2666C50.4295 52.2666 50.848 51.8487 50.848 51.3332C50.848 50.8178 50.4295 50.3999 49.9132 50.3999C49.397 50.3999 48.9784 50.8178 48.9784 51.3332C48.9784 51.8487 49.397 52.2666 49.9132 52.2666Z" fill="#FCC217"/>
<path d="M47.1085 53.1999C46.5925 53.1999 46.1746 53.6177 46.1746 54.1334C46.1746 54.6486 46.5925 55.0666 47.1085 55.0666C47.6255 55.0666 48.0434 54.6486 48.0434 54.1334C48.0434 53.6177 47.6255 53.1999 47.1085 53.1999Z" fill="#FCC217"/>
<path d="M44.3048 52.2666C44.821 52.2666 45.2395 51.8487 45.2395 51.3332C45.2395 50.8178 44.821 50.3999 44.3048 50.3999C43.7885 50.3999 43.37 50.8178 43.37 51.3332C43.37 51.8487 43.7885 52.2666 44.3048 52.2666Z" fill="#FCC217"/>
<path d="M42.3093 53.6922C42.2661 53.6145 42.2239 53.5358 42.1616 53.4734C42.1004 53.4122 42.0223 53.3712 41.9464 53.3285C41.9179 53.3127 41.8957 53.2866 41.8651 53.2737C41.7796 53.2376 41.6836 53.2268 41.5865 53.2173C41.557 53.2147 41.5317 53.1999 41.5011 53.1999C41.4789 53.1999 41.4588 53.211 41.4367 53.2126C41.3322 53.22 41.2278 53.2347 41.136 53.2737C41.1053 53.2866 41.0832 53.3124 41.0547 53.3285C40.9777 53.3706 40.9006 53.4122 40.8394 53.4734C40.7772 53.5358 40.7339 53.6145 40.6917 53.6922C40.6759 53.7199 40.6516 53.741 40.6389 53.7699C40.5915 53.8816 40.5651 54.0044 40.5651 54.1334C40.5651 54.262 40.5915 54.3847 40.6389 54.4964C40.6516 54.5256 40.6759 54.5464 40.6917 54.5744C40.7339 54.6518 40.7772 54.7308 40.8394 54.793C41.0083 54.9618 41.2415 55.0664 41.4989 55.0664C41.7575 55.0661 41.9928 54.9616 42.1616 54.793C42.2239 54.7308 42.2661 54.6518 42.3093 54.5744C42.3241 54.5464 42.3494 54.5256 42.3611 54.4964C42.4085 54.3847 42.4349 54.262 42.4349 54.1334C42.4349 54.0044 42.4085 53.8816 42.3611 53.7699C42.3494 53.741 42.3241 53.7199 42.3093 53.6922Z" fill="#FCC217"/>
<path d="M52.718 58.8001C52.2009 58.8001 51.7831 59.2178 51.7831 59.7333C51.7831 60.2487 52.2009 60.6668 52.718 60.6668C53.234 60.6668 53.6529 60.2487 53.6529 59.7333C53.6529 59.2178 53.234 58.8001 52.718 58.8001Z" fill="#FCC217"/>
<path d="M49.9132 57.8668C50.4296 57.8668 50.8481 57.4489 50.8481 56.9333C50.8481 56.4178 50.4296 55.9999 49.9132 55.9999C49.3969 55.9999 48.9783 56.4178 48.9783 56.9333C48.9783 57.4489 49.3969 57.8668 49.9132 57.8668Z" fill="#FCC217"/>
<path d="M47.1085 58.8001C46.5925 58.8001 46.1746 59.2178 46.1746 59.7333C46.1746 60.2487 46.5925 60.6668 47.1085 60.6668C47.6255 60.6668 48.0434 60.2487 48.0434 59.7333C48.0434 59.2178 47.6255 58.8001 47.1085 58.8001Z" fill="#FCC217"/>
<path d="M44.3048 57.8668C44.8211 57.8668 45.2397 57.4489 45.2397 56.9333C45.2397 56.4178 44.8211 55.9999 44.3048 55.9999C43.7884 55.9999 43.3698 56.4178 43.3698 56.9333C43.3698 57.4489 43.7884 57.8668 44.3048 57.8668Z" fill="#FCC217"/>
<path d="M42.3093 59.2923C42.2661 59.2144 42.2239 59.1359 42.1616 59.0737C42.1004 59.0126 42.0223 58.971 41.9464 58.9289C41.9179 58.9125 41.8957 58.8867 41.8651 58.8738C41.7796 58.8377 41.6836 58.8267 41.5865 58.8177C41.557 58.8145 41.5317 58.8003 41.5011 58.8003C41.4789 58.8003 41.4588 58.8114 41.4367 58.813C41.3322 58.8203 41.2278 58.8346 41.136 58.8738C41.1053 58.8867 41.0832 58.9125 41.0547 58.9283C40.9777 58.971 40.9006 59.0124 40.8394 59.0737C40.7772 59.1359 40.7339 59.2144 40.6917 59.2923C40.6759 59.32 40.6516 59.3408 40.6389 59.3703C40.5915 59.482 40.5651 59.6047 40.5651 59.7333C40.5651 59.8623 40.5915 59.9848 40.6389 60.0965C40.6516 60.1257 40.6759 60.1468 40.6917 60.1742C40.7339 60.2522 40.7772 60.3307 40.8394 60.3931C40.9239 60.4776 41.0241 60.5456 41.136 60.593C41.2478 60.6404 41.3702 60.6665 41.4989 60.6668C41.7575 60.6665 41.9928 60.5619 42.1616 60.3931C42.2239 60.3307 42.2661 60.2522 42.3093 60.1742C42.3241 60.1468 42.3494 60.1257 42.3611 60.0965C42.4085 59.9848 42.4349 59.8623 42.4349 59.7333C42.4349 59.6047 42.4085 59.482 42.3611 59.3703C42.3494 59.3408 42.3241 59.32 42.3093 59.2923Z" fill="#FCC217"/>
<path d="M44.3048 63.4668C44.821 63.4668 45.2395 63.0489 45.2395 62.5335C45.2395 62.018 44.821 61.6001 44.3048 61.6001C43.7885 61.6001 43.37 62.018 43.37 62.5335C43.37 63.0489 43.7885 63.4668 44.3048 63.4668Z" fill="#FCC217"/>
<path d="M42.3262 64.9185C42.227 64.7223 42.0688 64.5603 41.8651 64.4739C41.7796 64.4378 41.6836 64.427 41.5865 64.4175C41.557 64.4149 41.5317 64.4002 41.5011 64.4002C41.4789 64.4002 41.4588 64.4112 41.4367 64.4128C41.3322 64.4202 41.2278 64.4349 41.136 64.4739C40.9323 64.5603 40.773 64.7223 40.6738 64.9185C40.6643 64.9375 40.6474 64.9509 40.6389 64.9701C40.5915 65.0818 40.5651 65.2046 40.5651 65.3336C40.5651 65.4622 40.5915 65.5849 40.6389 65.6966C40.6516 65.7258 40.6759 65.7466 40.6917 65.7746C40.7339 65.852 40.7772 65.931 40.8394 65.9932C41.0083 66.162 41.2415 66.2666 41.4989 66.2666C41.7575 66.2663 41.9928 66.1618 42.1616 65.9932C42.2239 65.931 42.2661 65.852 42.3093 65.7746C42.3241 65.7466 42.3494 65.7258 42.3611 65.6966C42.4085 65.5849 42.4349 65.4622 42.4349 65.3336C42.4349 65.2046 42.4085 65.0818 42.3611 64.9701C42.3526 64.9509 42.3357 64.9375 42.3262 64.9185Z" fill="#FCC217"/>
<path d="M41.4989 16.28C41.0705 16.6914 40.4342 17.2432 39.6069 17.853C39.5447 18.3084 39.1701 18.6648 38.6973 18.6648C38.6256 18.6648 38.5623 18.639 38.4947 18.6237C37.8933 19.014 37.22 19.4144 36.4645 19.8111C36.6798 19.9828 36.8275 20.2346 36.8275 20.5317C36.8275 21.047 36.4086 21.465 35.8926 21.465C35.3798 21.465 34.9629 21.0506 34.9598 20.5381C33.0783 21.3836 30.8096 22.148 28.1304 22.6642C28.3035 22.8344 28.4143 23.0693 28.4143 23.3317C28.4143 23.8469 27.9954 24.2651 27.4794 24.2651C26.9634 24.2651 26.5444 23.8469 26.5444 23.3317C26.5444 23.1778 26.5898 23.0388 26.6563 22.9108C25.446 23.0909 24.1586 23.2158 22.7942 23.2774C22.7963 23.2964 22.8058 23.3122 22.8058 23.3317C22.8058 23.8469 22.3869 24.2651 21.8709 24.2651V27.9986C22.3869 27.9986 22.8058 28.4166 22.8058 28.9318C22.8058 29.447 22.3869 29.865 21.8709 29.865V33.5984C22.3869 33.5984 22.8058 34.0167 22.8058 34.5319C22.8058 35.0471 22.3869 35.4654 21.8709 35.4654V39.1988C22.3869 39.1988 22.8058 39.6168 22.8058 40.132C22.8058 40.639 22.3985 41.0478 21.8941 41.0607C21.93 42.3451 22.044 43.6191 22.236 44.8734C22.5705 45.0151 22.8058 45.3457 22.8058 45.7321C22.8058 45.9981 22.6919 46.2352 22.5125 46.4051C23.0021 48.7738 23.7566 51.0654 24.7706 53.2184C25.2391 53.269 25.6095 53.6506 25.6095 54.1324C25.6095 54.3049 25.5494 54.4579 25.4671 54.597C25.828 55.2681 26.2163 55.9206 26.6246 56.5591C26.7692 56.2296 27.0974 55.9988 27.4794 55.9988C27.9954 55.9988 28.4143 56.4171 28.4143 56.9323C28.4143 57.438 28.0101 57.8442 27.5079 57.86C28.886 59.7762 30.4962 61.5112 32.308 63.0168C32.2183 62.874 32.1529 62.7144 32.1529 62.5335C32.1529 62.0182 32.5718 61.6002 33.0878 61.6002C33.6038 61.6002 34.0227 62.0182 34.0227 62.5335C34.0227 63.0487 33.6038 63.4667 33.0878 63.4667C32.9749 63.4667 32.8694 63.4388 32.7692 63.4024C32.8082 63.433 32.8451 63.4677 32.8842 63.4985C33.5827 64.0464 34.295 64.555 35.0189 65.0255C35.1476 64.6633 35.4853 64.4002 35.8915 64.4002C36.4075 64.4002 36.8265 64.8184 36.8265 65.3336C36.8265 65.577 36.7273 65.7946 36.5743 65.9605C38.1687 66.8537 39.8148 67.5704 41.5011 68.0912C43.1873 67.5704 44.8324 66.8537 46.4257 65.9605C46.2727 65.7946 46.1746 65.577 46.1746 65.3336C46.1746 64.8184 46.5925 64.4002 47.1085 64.4002C47.5158 64.4002 47.8524 64.6633 47.9811 65.0255C48.705 64.555 49.4183 64.0464 50.1158 63.4985C50.1549 63.4677 50.1918 63.433 50.2308 63.4024C50.1317 63.4388 50.0251 63.4667 49.9122 63.4667C49.3962 63.4667 48.9773 63.0487 48.9773 62.5335C48.9773 62.0182 49.3962 61.6002 49.9122 61.6002C50.4282 61.6002 50.8471 62.0182 50.8471 62.5335C50.8471 62.7144 50.7817 62.874 50.692 63.0168C52.5048 61.5112 54.114 59.7762 55.4932 57.86C54.9899 57.8442 54.5868 57.438 54.5868 56.9323C54.5868 56.4171 55.0046 55.9988 55.5206 55.9988C55.9037 55.9988 56.2308 56.2296 56.3754 56.5591C56.7837 55.9206 57.1731 55.2681 57.5329 54.597C57.4506 54.4579 57.3905 54.3049 57.3905 54.1324C57.3905 53.6506 57.7609 53.269 58.2294 53.2184C59.2434 51.0654 59.999 48.7738 60.4875 46.4051C60.3092 46.2352 60.1952 45.9981 60.1952 45.7321C60.1952 45.3457 60.4295 45.0151 60.764 44.8734C60.9571 43.6191 61.07 42.3451 61.1059 41.0607C60.6015 41.0478 60.1952 40.639 60.1952 40.132C60.1952 39.6168 60.6142 39.1988 61.1302 39.1988V35.4654C60.6142 35.4654 60.1952 35.0471 60.1952 34.5319C60.1952 34.0167 60.6142 33.5984 61.1302 33.5984V29.865C60.6142 29.865 60.1952 29.447 60.1952 28.9318C60.1952 28.4166 60.6142 27.9986 61.1302 27.9986V24.2651C60.6142 24.2651 60.1952 23.8469 60.1952 23.3317C60.1952 23.3122 60.2047 23.2964 60.2058 23.2774C58.8414 23.2158 57.554 23.0909 56.3437 22.9108C56.4102 23.0388 56.4556 23.1778 56.4556 23.3317C56.4556 23.8469 56.0366 24.2651 55.5206 24.2651C55.0046 24.2651 54.5868 23.8469 54.5868 23.3317C54.5868 23.0693 54.6965 22.8344 54.8706 22.6642C52.1904 22.148 49.9217 21.3836 48.0413 20.5381C48.0371 21.0506 47.6213 21.465 47.1074 21.465C46.5925 21.465 46.1735 21.047 46.1735 20.5317C46.1735 20.2346 46.3213 19.9828 46.5355 19.8111C45.781 19.4144 45.1067 19.014 44.5053 18.6237C44.4377 18.639 44.3744 18.6648 44.3037 18.6648C43.831 18.6648 43.4553 18.3084 43.3931 17.853C42.5658 17.2432 41.9284 16.6914 41.4989 16.28ZM41.4989 16.28C41.5 16.2797 41.4989 16.2802 41.4989 16.28ZM25.6085 26.1326C25.6085 26.6482 25.1899 27.0661 24.6735 27.0661C24.1572 27.0661 23.7386 26.6482 23.7386 26.1326C23.7386 25.6171 24.1572 25.1992 24.6735 25.1992C25.1899 25.1992 25.6085 25.6171 25.6085 26.1326ZM31.218 26.1326C31.218 26.6482 30.7994 27.0661 30.2831 27.0661C29.7667 27.0661 29.3481 26.6482 29.3481 26.1326C29.3481 25.6171 29.7667 25.1992 30.2831 25.1992C30.7994 25.1992 31.218 25.6171 31.218 26.1326ZM33.0868 22.3992C32.5708 22.3992 32.1519 22.817 32.1519 23.3327C32.1519 23.8479 32.5708 24.2659 33.0868 24.2659C33.6038 24.2659 34.0217 23.8479 34.0217 23.3327C34.0217 22.817 33.6038 22.3992 33.0868 22.3992ZM36.8265 26.1326C36.8265 26.6482 36.4079 27.0661 35.8915 27.0661C35.3752 27.0661 34.9566 26.6482 34.9566 26.1326C34.9566 25.6171 35.3752 25.1992 35.8915 25.1992C36.4079 25.1992 36.8265 25.6171 36.8265 26.1326ZM38.6952 22.3992C38.1792 22.3992 37.7614 22.817 37.7614 23.3327C37.7614 23.8479 38.1792 24.2659 38.6952 24.2659C39.2123 24.2659 39.6302 23.8479 39.6302 23.3327C39.6302 22.817 39.2123 22.3992 38.6952 22.3992ZM25.6083 31.7327C25.6083 32.2482 25.1898 32.6661 24.6735 32.6661C24.1573 32.6661 23.7388 32.2482 23.7388 31.7327C23.7388 31.2173 24.1573 30.7994 24.6735 30.7994C25.1898 30.7994 25.6083 31.2173 25.6083 31.7327ZM27.4783 27.9993C26.9623 27.9993 26.5434 28.4174 26.5434 28.9326C26.5434 29.4483 26.9623 29.866 27.4783 29.866C27.9943 29.866 28.4132 29.4483 28.4132 28.9326C28.4132 28.4174 27.9943 27.9993 27.4783 27.9993ZM31.2179 31.7327C31.2179 32.2482 30.7993 32.6661 30.2831 32.6661C29.7668 32.6661 29.3483 32.2482 29.3483 31.7327C29.3483 31.2173 29.7668 30.7994 30.2831 30.7994C30.7993 30.7994 31.2179 31.2173 31.2179 31.7327ZM33.0868 27.9993C32.5708 27.9993 32.1519 28.4174 32.1519 28.9326C32.1519 29.4483 32.5708 29.866 33.0868 29.866C33.6038 29.866 34.0217 29.4483 34.0217 28.9326C34.0217 28.4174 33.6038 27.9993 33.0868 27.9993ZM36.8263 31.7327C36.8263 32.2482 36.4078 32.6661 35.8915 32.6661C35.3753 32.6661 34.9567 32.2482 34.9567 31.7327C34.9567 31.2173 35.3753 30.7994 35.8915 30.7994C36.4078 30.7994 36.8263 31.2173 36.8263 31.7327ZM38.6952 27.9993C38.1792 27.9993 37.7614 28.4174 37.7614 28.9326C37.7614 29.4483 38.1792 29.866 38.6952 29.866C39.2123 29.866 39.6302 29.4483 39.6302 28.9326C39.6302 28.4174 39.2123 27.9993 38.6952 27.9993ZM25.6085 37.3329C25.6085 37.8484 25.1899 38.2663 24.6735 38.2663C24.1572 38.2663 23.7386 37.8484 23.7386 37.3329C23.7386 36.8173 24.1572 36.3994 24.6735 36.3994C25.1899 36.3994 25.6085 36.8173 25.6085 37.3329ZM27.4783 33.5994C26.9623 33.5994 26.5434 34.0172 26.5434 34.5329C26.5434 35.0481 26.9623 35.4661 27.4783 35.4661C27.9943 35.4661 28.4132 35.0481 28.4132 34.5329C28.4132 34.0172 27.9943 33.5994 27.4783 33.5994ZM31.218 37.3329C31.218 37.8484 30.7994 38.2663 30.2831 38.2663C29.7667 38.2663 29.3481 37.8484 29.3481 37.3329C29.3481 36.8173 29.7667 36.3994 30.2831 36.3994C30.7994 36.3994 31.218 36.8173 31.218 37.3329ZM33.0868 33.5994C32.5708 33.5994 32.1519 34.0172 32.1519 34.5329C32.1519 35.0481 32.5708 35.4661 33.0868 35.4661C33.6038 35.4661 34.0217 35.0481 34.0217 34.5329C34.0217 34.0172 33.6038 33.5994 33.0868 33.5994ZM36.8265 37.3329C36.8265 37.8484 36.4079 38.2663 35.8915 38.2663C35.3752 38.2663 34.9566 37.8484 34.9566 37.3329C34.9566 36.8173 35.3752 36.3994 35.8915 36.3994C36.4079 36.3994 36.8265 36.8173 36.8265 37.3329ZM38.6952 33.5994C38.1792 33.5994 37.7614 34.0172 37.7614 34.5329C37.7614 35.0481 38.1792 35.4661 38.6952 35.4661C39.2123 35.4661 39.6302 35.0481 39.6302 34.5329C39.6302 34.0172 39.2123 33.5994 38.6952 33.5994ZM25.6083 42.933C25.6083 43.4484 25.1898 43.8663 24.6735 43.8663C24.1573 43.8663 23.7388 43.4484 23.7388 42.933C23.7388 42.4175 24.1573 41.9996 24.6735 41.9996C25.1898 41.9996 25.6083 42.4175 25.6083 42.933ZM27.4783 39.1996C26.9623 39.1996 26.5434 39.6176 26.5434 40.1328C26.5434 40.6485 26.9623 41.0663 27.4783 41.0663C27.9943 41.0663 28.4132 40.6485 28.4132 40.1328C28.4132 39.6176 27.9943 39.1996 27.4783 39.1996ZM31.2179 42.933C31.2179 43.4484 30.7993 43.8663 30.2831 43.8663C29.7668 43.8663 29.3483 43.4484 29.3483 42.933C29.3483 42.4175 29.7668 41.9996 30.2831 41.9996C30.7993 41.9996 31.2179 42.4175 31.2179 42.933ZM33.0868 39.1996C32.5708 39.1996 32.1519 39.6176 32.1519 40.1328C32.1519 40.6485 32.5708 41.0663 33.0868 41.0663C33.6038 41.0663 34.0217 40.6485 34.0217 40.1328C34.0217 39.6176 33.6038 39.1996 33.0868 39.1996ZM36.8263 42.933C36.8263 43.4484 36.4078 43.8663 35.8915 43.8663C35.3753 43.8663 34.9567 43.4484 34.9567 42.933C34.9567 42.4175 35.3753 41.9996 35.8915 41.9996C36.4078 41.9996 36.8263 42.4175 36.8263 42.933ZM38.6952 39.1996C38.1792 39.1996 37.7614 39.6176 37.7614 40.1328C37.7614 40.6485 38.1792 41.0663 38.6952 41.0663C39.2123 41.0663 39.6302 40.6485 39.6302 40.1328C39.6302 39.6176 39.2123 39.1996 38.6952 39.1996ZM24.6735 47.5998C24.1575 47.5998 23.7386 48.0176 23.7386 48.5331C23.7386 49.0485 24.1575 49.4665 24.6735 49.4665C25.1906 49.4665 25.6085 49.0485 25.6085 48.5331C25.6085 48.0176 25.1906 47.5998 24.6735 47.5998ZM27.4783 44.7997C26.9623 44.7997 26.5434 45.2174 26.5434 45.7331C26.5434 46.2483 26.9623 46.6664 27.4783 46.6664C27.9943 46.6664 28.4132 46.2483 28.4132 45.7331C28.4132 45.2174 27.9943 44.7997 27.4783 44.7997ZM30.2831 47.5998C29.766 47.5998 29.3481 48.0176 29.3481 48.5331C29.3481 49.0485 29.766 49.4665 30.2831 49.4665C30.7991 49.4665 31.218 49.0485 31.218 48.5331C31.218 48.0176 30.7991 47.5998 30.2831 47.5998ZM33.0868 44.7997C32.5708 44.7997 32.1519 45.2174 32.1519 45.7331C32.1519 46.2483 32.5708 46.6664 33.0868 46.6664C33.6038 46.6664 34.0217 46.2483 34.0217 45.7331C34.0217 45.2174 33.6038 44.7997 33.0868 44.7997ZM35.8915 47.5998C35.3755 47.5998 34.9566 48.0176 34.9566 48.5331C34.9566 49.0485 35.3755 49.4665 35.8915 49.4665C36.4075 49.4665 36.8265 49.0485 36.8265 48.5331C36.8265 48.0176 36.4075 47.5998 35.8915 47.5998ZM38.6952 44.7997C38.1792 44.7997 37.7614 45.2174 37.7614 45.7331C37.7614 46.2483 38.1792 46.6664 38.6952 46.6664C39.2123 46.6664 39.6302 46.2483 39.6302 45.7331C39.6302 45.2174 39.2123 44.7997 38.6952 44.7997ZM28.4131 51.3332C28.4131 51.8487 27.9946 52.2666 27.4783 52.2666C26.962 52.2666 26.5435 51.8487 26.5435 51.3332C26.5435 50.8178 26.962 50.3999 27.4783 50.3999C27.9946 50.3999 28.4131 50.8178 28.4131 51.3332ZM30.2831 53.1999C29.766 53.1999 29.3481 53.6177 29.3481 54.1334C29.3481 54.6486 29.766 55.0666 30.2831 55.0666C30.7991 55.0666 31.218 54.6486 31.218 54.1334C31.218 53.6177 30.7991 53.1999 30.2831 53.1999ZM34.0216 51.3332C34.0216 51.8487 33.603 52.2666 33.0868 52.2666C32.5705 52.2666 32.152 51.8487 32.152 51.3332C32.152 50.8178 32.5705 50.3999 33.0868 50.3999C33.603 50.3999 34.0216 50.8178 34.0216 51.3332ZM35.8915 53.1999C35.3755 53.1999 34.9566 53.6177 34.9566 54.1334C34.9566 54.6486 35.3755 55.0666 35.8915 55.0666C36.4075 55.0666 36.8265 54.6486 36.8265 54.1334C36.8265 53.6177 36.4075 53.1999 35.8915 53.1999ZM38.6952 50.4C38.1792 50.4 37.7614 50.8178 37.7614 51.3332C37.7614 51.8487 38.1792 52.2665 38.6952 52.2665C39.2123 52.2665 39.6302 51.8487 39.6302 51.3332C39.6302 50.8178 39.2123 50.4 38.6952 50.4ZM30.2831 58.8001C29.766 58.8001 29.3481 59.2178 29.3481 59.7333C29.3481 60.2487 29.766 60.6668 30.2831 60.6668C30.7991 60.6668 31.218 60.2487 31.218 59.7333C31.218 59.2178 30.7991 58.8001 30.2831 58.8001ZM34.0217 56.9334C34.0217 57.4489 33.6031 57.8668 33.0868 57.8668C32.5704 57.8668 32.1519 57.4489 32.1519 56.9334C32.1519 56.4178 32.5704 55.9999 33.0868 55.9999C33.6031 55.9999 34.0217 56.4178 34.0217 56.9334ZM35.8915 58.8001C35.3755 58.8001 34.9566 59.2178 34.9566 59.7333C34.9566 60.2487 35.3755 60.6668 35.8915 60.6668C36.4075 60.6668 36.8265 60.2487 36.8265 59.7333C36.8265 59.2178 36.4075 58.8001 35.8915 58.8001ZM38.6952 55.9999C38.1792 55.9999 37.7614 56.4176 37.7614 56.9334C37.7614 57.4486 38.1792 57.8668 38.6952 57.8668C39.2123 57.8668 39.6302 57.4486 39.6302 56.9334C39.6302 56.4176 39.2123 55.9999 38.6952 55.9999ZM38.6952 61.6002C38.1792 61.6002 37.7614 62.018 37.7614 62.5335C37.7614 63.0489 38.1792 63.4667 38.6952 63.4667C39.2123 63.4667 39.6302 63.0489 39.6302 62.5335C39.6302 62.018 39.2123 61.6002 38.6952 61.6002ZM62.0661 21.4658C48.3916 21.4658 42.2766 14.4041 42.2175 14.3324C42.0382 14.1222 41.7765 14 41.5011 14C41.2256 14 40.9618 14.1222 40.7835 14.3324C40.7234 14.4041 34.6094 21.4658 20.9349 21.4658C20.4179 21.4658 20 21.883 20 22.3992V40.2123C20 49.9501 24.3844 59.2041 31.7277 64.9657C34.6886 67.2888 37.8869 68.9698 41.2351 69.9621C41.3217 69.9868 41.4093 70 41.4989 70C41.5886 70 41.6794 69.9868 41.7659 69.9621C45.1131 68.9698 48.3125 67.2888 51.2723 64.9657C58.6166 59.2041 63 49.9501 63 40.2123V22.3992C63 21.883 62.5821 21.4658 62.0661 21.4658ZM42.2598 20.0176C42.226 19.9694 42.2028 19.9141 42.1616 19.8727C42.1004 19.8119 42.0223 19.7705 41.9464 19.7281C41.9179 19.712 41.8957 19.686 41.8651 19.6731C41.7796 19.6367 41.6836 19.6262 41.5865 19.6167C41.557 19.6138 41.5317 19.5993 41.5011 19.5993C41.4789 19.5993 41.4588 19.6104 41.4367 19.612C41.3322 19.6193 41.2278 19.6338 41.1359 19.6731C41.1053 19.686 41.0832 19.712 41.0536 19.7279C40.9777 19.7705 40.9006 19.8116 40.8394 19.8727C40.7972 19.9141 40.774 19.9694 40.7413 20.0176C40.7065 20.0682 40.6632 20.1124 40.6389 20.1693C40.5915 20.281 40.5651 20.4037 40.5651 20.5325C40.5651 20.6613 40.5915 20.7841 40.6389 20.8958C40.6516 20.925 40.6759 20.9461 40.6917 20.9737C40.7339 21.0514 40.7772 21.1302 40.8394 21.1923C40.9006 21.2535 40.9777 21.2945 41.0536 21.3372C41.0832 21.353 41.1053 21.3791 41.1359 21.392C41.2278 21.4312 41.3322 21.4457 41.4367 21.4531C41.4588 21.4547 41.4768 21.4658 41.4989 21.4658C41.5295 21.4658 41.557 21.4513 41.5865 21.4484C41.6836 21.4392 41.7796 21.4284 41.8651 21.392C41.8957 21.3791 41.9179 21.353 41.9464 21.3367C42.0223 21.2945 42.1004 21.2532 42.1616 21.1923C42.2239 21.1302 42.2661 21.0514 42.3093 20.9737C42.3241 20.9461 42.3484 20.925 42.3611 20.8958C42.4085 20.7841 42.4349 20.6613 42.4349 20.5325C42.4349 20.4037 42.4085 20.281 42.3611 20.1693C42.3368 20.1124 42.2935 20.0682 42.2598 20.0176ZM59.2614 26.1326C59.2614 26.6482 58.8428 27.0661 58.3265 27.0661C57.8101 27.0661 57.3915 26.6482 57.3915 26.1326C57.3915 25.6171 57.8101 25.1992 58.3265 25.1992C58.8428 25.1992 59.2614 25.6171 59.2614 26.1326ZM53.6529 26.1326C53.6529 26.6482 53.2343 27.0661 52.718 27.0661C52.2016 27.0661 51.7831 26.6482 51.7831 26.1326C51.7831 25.6171 52.2016 25.1992 52.718 25.1992C53.2343 25.1992 53.6529 25.6171 53.6529 26.1326ZM49.9132 22.3992C49.3972 22.3992 48.9783 22.817 48.9783 23.3327C48.9783 23.8479 49.3972 24.2659 49.9132 24.2659C50.4292 24.2659 50.8481 23.8479 50.8481 23.3327C50.8481 22.817 50.4292 22.3992 49.9132 22.3992ZM47.1085 25.1992C46.5925 25.1992 46.1746 25.6172 46.1746 26.1326C46.1746 26.6481 46.5925 27.0661 47.1085 27.0661C47.6255 27.0661 48.0434 26.6481 48.0434 26.1326C48.0434 25.6172 47.6255 25.1992 47.1085 25.1992ZM44.3048 22.3992C43.7877 22.3992 43.3698 22.817 43.3698 23.3327C43.3698 23.8479 43.7877 24.2659 44.3048 24.2659C44.8208 24.2659 45.2397 23.8479 45.2397 23.3327C45.2397 22.817 44.8208 22.3992 44.3048 22.3992ZM42.2598 25.618C42.226 25.5695 42.2028 25.5142 42.1616 25.4731C41.9928 25.3043 41.7596 25.1997 41.5011 25.1997C41.2436 25.1999 41.0083 25.304 40.8394 25.4731C40.7972 25.5142 40.774 25.5695 40.7413 25.618C40.7065 25.6685 40.6632 25.7125 40.6389 25.7697C40.5915 25.8811 40.5651 26.0038 40.5651 26.1326C40.5651 26.2614 40.5915 26.3842 40.6389 26.4959C40.6516 26.5251 40.6759 26.5462 40.6917 26.5738C40.7339 26.6515 40.7772 26.73 40.8394 26.7922C40.9006 26.8533 40.9777 26.8949 41.0536 26.9371C41.0832 26.9534 41.1053 26.9792 41.1359 26.9924C41.2278 27.0314 41.3322 27.0458 41.4367 27.0532C41.4588 27.0548 41.4768 27.0659 41.4989 27.0659C41.5295 27.0659 41.557 27.0514 41.5865 27.0485C41.6836 27.0393 41.7796 27.0282 41.8651 26.9924C41.8957 26.9792 41.9179 26.9531 41.9464 26.9371C42.0223 26.8944 42.1004 26.8533 42.1616 26.7922C42.2239 26.73 42.2661 26.6515 42.3093 26.5738C42.3241 26.5462 42.3484 26.5251 42.3611 26.4959C42.4085 26.3842 42.4349 26.2614 42.4349 26.1326C42.4349 26.0038 42.4085 25.8811 42.3611 25.7697C42.3368 25.7125 42.2935 25.6685 42.2598 25.618ZM59.2612 31.7327C59.2612 32.2482 58.8427 32.6661 58.3265 32.6661C57.8102 32.6661 57.3917 32.2482 57.3917 31.7327C57.3917 31.2173 57.8102 30.7994 58.3265 30.7994C58.8427 30.7994 59.2612 31.2173 59.2612 31.7327ZM55.5217 27.9993C55.0057 27.9993 54.5868 28.4174 54.5868 28.9326C54.5868 29.4483 55.0057 29.866 55.5217 29.866C56.0387 29.866 56.4566 29.4483 56.4566 28.9326C56.4566 28.4174 56.0387 27.9993 55.5217 27.9993ZM53.6528 31.7327C53.6528 32.2482 53.2343 32.6661 52.718 32.6661C52.2017 32.6661 51.7832 32.2482 51.7832 31.7327C51.7832 31.2173 52.2017 30.7994 52.718 30.7994C53.2343 30.7994 53.6528 31.2173 53.6528 31.7327ZM49.9132 27.9993C49.3972 27.9993 48.9783 28.4174 48.9783 28.9326C48.9783 29.4483 49.3972 29.866 49.9132 29.866C50.4292 29.866 50.8481 29.4483 50.8481 28.9326C50.8481 28.4174 50.4292 27.9993 49.9132 27.9993ZM47.1085 30.7995C46.5925 30.7995 46.1746 31.2173 46.1746 31.7327C46.1746 32.2482 46.5925 32.666 47.1085 32.666C47.6255 32.666 48.0434 32.2482 48.0434 31.7327C48.0434 31.2173 47.6255 30.7995 47.1085 30.7995ZM44.3048 27.9993C43.7877 27.9993 43.3698 28.4174 43.3698 28.9326C43.3698 29.4483 43.7877 29.866 44.3048 29.866C44.8208 29.866 45.2397 29.4483 45.2397 28.9326C45.2397 28.4174 44.8208 27.9993 44.3048 27.9993ZM42.2598 31.2178C42.226 31.1696 42.2028 31.1143 42.1616 31.0729C41.9928 30.9044 41.7596 30.8001 41.5011 30.7995C41.2436 30.7998 41.0083 30.9044 40.8394 31.0729C40.7972 31.1143 40.774 31.1696 40.7413 31.2178C40.7065 31.2684 40.6632 31.3126 40.6389 31.3695C40.5915 31.4812 40.5651 31.6039 40.5651 31.7327C40.5651 31.8615 40.5915 31.9843 40.6389 32.096C40.6516 32.1252 40.6759 32.1463 40.6917 32.1739C40.7339 32.2516 40.7772 32.3304 40.8394 32.3926C40.9006 32.4537 40.9777 32.4948 41.0536 32.5374C41.0832 32.5532 41.1053 32.5793 41.1359 32.5922C41.2278 32.6315 41.3322 32.6459 41.4367 32.6533C41.4588 32.6549 41.4768 32.666 41.4989 32.666C41.5295 32.666 41.557 32.6515 41.5865 32.6486C41.6836 32.6394 41.7796 32.6286 41.8651 32.5922C41.8957 32.5793 41.9179 32.5532 41.9464 32.5369C42.0223 32.4948 42.1004 32.4534 42.1616 32.3926C42.2239 32.3304 42.2661 32.2516 42.3093 32.1739C42.3241 32.1463 42.3484 32.1252 42.3611 32.096C42.4085 31.9843 42.4349 31.8615 42.4349 31.7327C42.4349 31.6039 42.4085 31.4812 42.3611 31.3695C42.3368 31.3126 42.2935 31.2684 42.2598 31.2178ZM59.2614 37.3329C59.2614 37.8484 58.8428 38.2663 58.3265 38.2663C57.8101 38.2663 57.3915 37.8484 57.3915 37.3329C57.3915 36.8173 57.8101 36.3994 58.3265 36.3994C58.8428 36.3994 59.2614 36.8173 59.2614 37.3329ZM55.5217 33.5994C55.0057 33.5994 54.5868 34.0172 54.5868 34.5329C54.5868 35.0481 55.0057 35.4661 55.5217 35.4661C56.0387 35.4661 56.4566 35.0481 56.4566 34.5329C56.4566 34.0172 56.0387 33.5994 55.5217 33.5994ZM53.6529 37.3329C53.6529 37.8484 53.2343 38.2663 52.718 38.2663C52.2016 38.2663 51.7831 37.8484 51.7831 37.3329C51.7831 36.8173 52.2016 36.3994 52.718 36.3994C53.2343 36.3994 53.6529 36.8173 53.6529 37.3329ZM49.9132 33.5994C49.3972 33.5994 48.9783 34.0172 48.9783 34.5329C48.9783 35.0481 49.3972 35.4661 49.9132 35.4661C50.4292 35.4661 50.8481 35.0481 50.8481 34.5329C50.8481 34.0172 50.4292 33.5994 49.9132 33.5994ZM47.1085 36.3994C46.5925 36.3994 46.1746 36.8174 46.1746 37.3329C46.1746 37.8483 46.5925 38.2663 47.1085 38.2663C47.6255 38.2663 48.0434 37.8483 48.0434 37.3329C48.0434 36.8174 47.6255 36.3994 47.1085 36.3994ZM44.3048 33.5994C43.7877 33.5994 43.3698 34.0172 43.3698 34.5329C43.3698 35.0481 43.7877 35.4661 44.3048 35.4661C44.8208 35.4661 45.2397 35.0481 45.2397 34.5329C45.2397 34.0172 44.8208 33.5994 44.3048 33.5994ZM42.2598 36.8182C42.226 36.7697 42.2028 36.7144 42.1616 36.6733C41.9928 36.5045 41.7596 36.3999 41.5011 36.3999C41.2436 36.4002 41.0083 36.5042 40.8394 36.6733C40.7972 36.7144 40.774 36.7697 40.7413 36.8182C40.7065 36.8687 40.6632 36.9127 40.6389 36.9699C40.5915 37.0813 40.5651 37.204 40.5651 37.3329C40.5651 37.4617 40.5915 37.5844 40.6389 37.6961C40.6516 37.7253 40.6759 37.7464 40.6917 37.774C40.7339 37.8517 40.7772 37.9302 40.8394 37.9924C40.9006 38.0535 40.9777 38.0951 41.0536 38.1373C41.0832 38.1536 41.1053 38.1794 41.1359 38.1926C41.2278 38.2316 41.3322 38.2461 41.4367 38.2534C41.4588 38.255 41.4768 38.2661 41.4989 38.2661C41.5295 38.2661 41.557 38.2516 41.5865 38.2487C41.6836 38.2395 41.7796 38.2284 41.8651 38.1926C41.8957 38.1794 41.9179 38.1533 41.9464 38.1373C42.0223 38.0949 42.1004 38.0535 42.1616 37.9924C42.2239 37.9302 42.2661 37.8517 42.3093 37.774C42.3241 37.7464 42.3484 37.7253 42.3611 37.6961C42.4085 37.5844 42.4349 37.4617 42.4349 37.3329C42.4349 37.204 42.4085 37.0813 42.3611 36.9699C42.3368 36.9127 42.2935 36.8687 42.2598 36.8182ZM59.2612 42.933C59.2612 43.4484 58.8427 43.8663 58.3265 43.8663C57.8102 43.8663 57.3917 43.4484 57.3917 42.933C57.3917 42.4175 57.8102 41.9996 58.3265 41.9996C58.8427 41.9996 59.2612 42.4175 59.2612 42.933ZM55.5217 39.1996C55.0057 39.1996 54.5868 39.6176 54.5868 40.1328C54.5868 40.6485 55.0057 41.0663 55.5217 41.0663C56.0387 41.0663 56.4566 40.6485 56.4566 40.1328C56.4566 39.6176 56.0387 39.1996 55.5217 39.1996ZM53.6528 42.933C53.6528 43.4484 53.2343 43.8663 52.718 43.8663C52.2017 43.8663 51.7832 43.4484 51.7832 42.933C51.7832 42.4175 52.2017 41.9996 52.718 41.9996C53.2343 41.9996 53.6528 42.4175 53.6528 42.933ZM49.9132 39.1996C49.3972 39.1996 48.9783 39.6176 48.9783 40.1328C48.9783 40.6485 49.3972 41.0663 49.9132 41.0663C50.4292 41.0663 50.8481 40.6485 50.8481 40.1328C50.8481 39.6176 50.4292 39.1996 49.9132 39.1996ZM47.1085 41.9997C46.5925 41.9997 46.1746 42.4175 46.1746 42.933C46.1746 43.4484 46.5925 43.8662 47.1085 43.8662C47.6255 43.8662 48.0434 43.4484 48.0434 42.933C48.0434 42.4175 47.6255 41.9997 47.1085 41.9997ZM44.3048 39.1996C43.7877 39.1996 43.3698 39.6176 43.3698 40.1328C43.3698 40.6485 43.7877 41.0663 44.3048 41.0663C44.8208 41.0663 45.2397 40.6485 45.2397 40.1328C45.2397 39.6176 44.8208 39.1996 44.3048 39.1996ZM42.2598 42.418C42.226 42.3698 42.2028 42.3145 42.1616 42.2731C41.9928 42.1046 41.7596 42.0003 41.5011 41.9997C41.2436 42 41.0083 42.1046 40.8394 42.2731C40.7972 42.3145 40.774 42.3698 40.7413 42.418C40.7065 42.4686 40.6632 42.5128 40.6389 42.5697C40.5915 42.6814 40.5651 42.8042 40.5651 42.933C40.5651 43.0618 40.5915 43.1845 40.6389 43.2962C40.6516 43.3254 40.6759 43.3465 40.6917 43.3741C40.7339 43.4518 40.7772 43.5306 40.8394 43.5928C40.9006 43.6539 40.9777 43.695 41.0536 43.7376C41.0832 43.7534 41.1053 43.7795 41.1359 43.7924C41.2278 43.8317 41.3322 43.8462 41.4367 43.8535C41.4588 43.8551 41.4768 43.8662 41.4989 43.8662C41.5295 43.8662 41.557 43.8517 41.5865 43.8488C41.6836 43.8396 41.7796 43.8288 41.8651 43.7924C41.8957 43.7795 41.9179 43.7534 41.9464 43.7371C42.0223 43.695 42.1004 43.6536 42.1616 43.5928C42.2239 43.5306 42.2661 43.4518 42.3093 43.3741C42.3241 43.3465 42.3484 43.3254 42.3611 43.2962C42.4085 43.1845 42.4349 43.0618 42.4349 42.933C42.4349 42.8042 42.4085 42.6814 42.3611 42.5697C42.3368 42.5128 42.2935 42.4686 42.2598 42.418ZM58.3265 47.5998C57.8105 47.5998 57.3915 48.0176 57.3915 48.5331C57.3915 49.0485 57.8105 49.4665 58.3265 49.4665C58.8425 49.4665 59.2614 49.0485 59.2614 48.5331C59.2614 48.0176 58.8425 47.5998 58.3265 47.5998ZM55.5217 44.7997C55.0057 44.7997 54.5868 45.2174 54.5868 45.7331C54.5868 46.2483 55.0057 46.6664 55.5217 46.6664C56.0387 46.6664 56.4566 46.2483 56.4566 45.7331C56.4566 45.2174 56.0387 44.7997 55.5217 44.7997ZM52.718 47.5998C52.2009 47.5998 51.7831 48.0176 51.7831 48.5331C51.7831 49.0485 52.2009 49.4665 52.718 49.4665C53.234 49.4665 53.6529 49.0485 53.6529 48.5331C53.6529 48.0176 53.234 47.5998 52.718 47.5998ZM49.9132 44.7997C49.3972 44.7997 48.9783 45.2174 48.9783 45.7331C48.9783 46.2483 49.3972 46.6664 49.9132 46.6664C50.4292 46.6664 50.8481 46.2483 50.8481 45.7331C50.8481 45.2174 50.4292 44.7997 49.9132 44.7997ZM47.1085 47.5998C46.5925 47.5998 46.1746 48.0176 46.1746 48.5331C46.1746 49.0485 46.5925 49.4665 47.1085 49.4665C47.6255 49.4665 48.0434 49.0485 48.0434 48.5331C48.0434 48.0176 47.6255 47.5998 47.1085 47.5998ZM44.3048 44.7997C43.7877 44.7997 43.3698 45.2174 43.3698 45.7331C43.3698 46.2483 43.7877 46.6664 44.3048 46.6664C44.8208 46.6664 45.2397 46.2483 45.2397 45.7331C45.2397 45.2174 44.8208 44.7997 44.3048 44.7997ZM42.3093 48.0921C42.2661 48.0142 42.2239 47.9357 42.1616 47.8735C42.1004 47.8124 42.0223 47.7708 41.9464 47.7286C41.9179 47.7123 41.8957 47.6865 41.8651 47.6736C41.7796 47.6375 41.6836 47.6264 41.5865 47.6175C41.557 47.6143 41.5317 47.6001 41.5011 47.6001C41.4789 47.6001 41.4588 47.6112 41.4367 47.6127C41.3322 47.6201 41.2278 47.6343 41.1359 47.6736C41.1053 47.6865 41.0832 47.7123 41.0547 47.7281C40.9777 47.7708 40.9006 47.8121 40.8394 47.8735C40.7772 47.9357 40.7339 48.0142 40.6917 48.0921C40.6759 48.1198 40.6516 48.1406 40.6389 48.1701C40.5915 48.2818 40.5651 48.4045 40.5651 48.5331C40.5651 48.6621 40.5915 48.7846 40.6389 48.8963C40.6516 48.9255 40.6759 48.9466 40.6917 48.974C40.7339 49.052 40.7772 49.1304 40.8394 49.1929C40.9239 49.2774 41.0241 49.3454 41.1359 49.3928C41.2478 49.4402 41.3702 49.4663 41.4989 49.4665C41.7575 49.4663 41.9928 49.3617 42.1616 49.1929C42.2239 49.1304 42.2661 49.052 42.3093 48.974C42.3241 48.9466 42.3494 48.9255 42.3611 48.8963C42.4085 48.7846 42.4349 48.6621 42.4349 48.5331C42.4349 48.4045 42.4085 48.2818 42.3611 48.1701C42.3494 48.1406 42.3241 48.1198 42.3093 48.0921ZM56.4565 51.3332C56.4565 51.8487 56.038 52.2666 55.5217 52.2666C55.0054 52.2666 54.5869 51.8487 54.5869 51.3332C54.5869 50.8178 55.0054 50.3999 55.5217 50.3999C56.038 50.3999 56.4565 50.8178 56.4565 51.3332ZM52.718 53.1999C52.2009 53.1999 51.7831 53.6177 51.7831 54.1334C51.7831 54.6486 52.2009 55.0666 52.718 55.0666C53.234 55.0666 53.6529 54.6486 53.6529 54.1334C53.6529 53.6177 53.234 53.1999 52.718 53.1999ZM50.848 51.3332C50.848 51.8487 50.4295 52.2666 49.9132 52.2666C49.397 52.2666 48.9784 51.8487 48.9784 51.3332C48.9784 50.8178 49.397 50.3999 49.9132 50.3999C50.4295 50.3999 50.848 50.8178 50.848 51.3332ZM47.1085 53.1999C46.5925 53.1999 46.1746 53.6177 46.1746 54.1334C46.1746 54.6486 46.5925 55.0666 47.1085 55.0666C47.6255 55.0666 48.0434 54.6486 48.0434 54.1334C48.0434 53.6177 47.6255 53.1999 47.1085 53.1999ZM45.2395 51.3332C45.2395 51.8487 44.821 52.2666 44.3048 52.2666C43.7885 52.2666 43.37 51.8487 43.37 51.3332C43.37 50.8178 43.7885 50.3999 44.3048 50.3999C44.821 50.3999 45.2395 50.8178 45.2395 51.3332ZM42.3093 53.6922C42.2661 53.6145 42.2239 53.5358 42.1616 53.4734C42.1004 53.4122 42.0223 53.3712 41.9464 53.3285C41.9179 53.3127 41.8957 53.2866 41.8651 53.2737C41.7796 53.2376 41.6836 53.2268 41.5865 53.2173C41.557 53.2147 41.5317 53.1999 41.5011 53.1999C41.4789 53.1999 41.4588 53.211 41.4367 53.2126C41.3322 53.22 41.2278 53.2347 41.1359 53.2737C41.1053 53.2866 41.0832 53.3124 41.0547 53.3285C40.9777 53.3706 40.9006 53.4122 40.8394 53.4734C40.7772 53.5358 40.7339 53.6145 40.6917 53.6922C40.6759 53.7199 40.6516 53.741 40.6389 53.7699C40.5915 53.8816 40.5651 54.0044 40.5651 54.1334C40.5651 54.262 40.5915 54.3847 40.6389 54.4964C40.6516 54.5256 40.6759 54.5464 40.6917 54.5744C40.7339 54.6518 40.7772 54.7308 40.8394 54.793C41.0083 54.9618 41.2415 55.0664 41.4989 55.0664C41.7575 55.0661 41.9928 54.9616 42.1616 54.793C42.2239 54.7308 42.2661 54.6518 42.3093 54.5744C42.3241 54.5464 42.3494 54.5256 42.3611 54.4964C42.4085 54.3847 42.4349 54.262 42.4349 54.1334C42.4349 54.0044 42.4085 53.8816 42.3611 53.7699C42.3494 53.741 42.3241 53.7199 42.3093 53.6922ZM52.718 58.8001C52.2009 58.8001 51.7831 59.2178 51.7831 59.7333C51.7831 60.2487 52.2009 60.6668 52.718 60.6668C53.234 60.6668 53.6529 60.2487 53.6529 59.7333C53.6529 59.2178 53.234 58.8001 52.718 58.8001ZM50.8481 56.9334C50.8481 57.4489 50.4296 57.8668 49.9132 57.8668C49.3969 57.8668 48.9783 57.4489 48.9783 56.9334C48.9783 56.4178 49.3969 55.9999 49.9132 55.9999C50.4296 55.9999 50.8481 56.4178 50.8481 56.9334ZM47.1085 58.8001C46.5925 58.8001 46.1746 59.2178 46.1746 59.7333C46.1746 60.2487 46.5925 60.6668 47.1085 60.6668C47.6255 60.6668 48.0434 60.2487 48.0434 59.7333C48.0434 59.2178 47.6255 58.8001 47.1085 58.8001ZM45.2397 56.9334C45.2397 57.4489 44.8211 57.8668 44.3048 57.8668C43.7884 57.8668 43.3698 57.4489 43.3698 56.9334C43.3698 56.4178 43.7884 55.9999 44.3048 55.9999C44.8211 55.9999 45.2397 56.4178 45.2397 56.9334ZM42.3093 59.2923C42.2661 59.2144 42.2239 59.1359 42.1616 59.0737C42.1004 59.0126 42.0223 58.971 41.9464 58.9289C41.9179 58.9125 41.8957 58.8867 41.8651 58.8738C41.7796 58.8377 41.6836 58.8267 41.5865 58.8177C41.557 58.8145 41.5317 58.8003 41.5011 58.8003C41.4789 58.8003 41.4588 58.8114 41.4367 58.813C41.3322 58.8203 41.2278 58.8346 41.1359 58.8738C41.1053 58.8867 41.0832 58.9125 41.0547 58.9283C40.9777 58.971 40.9006 59.0124 40.8394 59.0737C40.7772 59.1359 40.7339 59.2144 40.6917 59.2923C40.6759 59.32 40.6516 59.3408 40.6389 59.3703C40.5915 59.482 40.5651 59.6047 40.5651 59.7333C40.5651 59.8623 40.5915 59.9848 40.6389 60.0965C40.6516 60.1257 40.6759 60.1468 40.6917 60.1742C40.7339 60.2522 40.7772 60.3307 40.8394 60.3931C40.9239 60.4776 41.0241 60.5456 41.1359 60.593C41.2478 60.6404 41.3702 60.6665 41.4989 60.6668C41.7575 60.6665 41.9928 60.5619 42.1616 60.3931C42.2239 60.3307 42.2661 60.2522 42.3093 60.1742C42.3241 60.1468 42.3494 60.1257 42.3611 60.0965C42.4085 59.9848 42.4349 59.8623 42.4349 59.7333C42.4349 59.6047 42.4085 59.482 42.3611 59.3703C42.3494 59.3408 42.3241 59.32 42.3093 59.2923ZM45.2395 62.5335C45.2395 63.0489 44.821 63.4668 44.3048 63.4668C43.7885 63.4668 43.37 63.0489 43.37 62.5335C43.37 62.018 43.7885 61.6001 44.3048 61.6001C44.821 61.6001 45.2395 62.018 45.2395 62.5335ZM42.3262 64.9185C42.227 64.7223 42.0688 64.5603 41.8651 64.4739C41.7796 64.4378 41.6836 64.427 41.5865 64.4175C41.557 64.4149 41.5317 64.4002 41.5011 64.4002C41.4789 64.4002 41.4588 64.4112 41.4367 64.4128C41.3322 64.4202 41.2278 64.4349 41.1359 64.4739C40.9323 64.5603 40.773 64.7223 40.6738 64.9185C40.6643 64.9375 40.6474 64.9509 40.6389 64.9702C40.5915 65.0818 40.5651 65.2046 40.5651 65.3336C40.5651 65.4622 40.5915 65.5849 40.6389 65.6966C40.6516 65.7258 40.6759 65.7466 40.6917 65.7746C40.7339 65.852 40.7772 65.931 40.8394 65.9932C41.0083 66.162 41.2415 66.2666 41.4989 66.2666C41.7575 66.2663 41.9928 66.1618 42.1616 65.9932C42.2239 65.931 42.2661 65.852 42.3093 65.7746C42.3241 65.7466 42.3494 65.7258 42.3611 65.6966C42.4085 65.5849 42.4349 65.4622 42.4349 65.3336C42.4349 65.2046 42.4085 65.0818 42.3611 64.9702C42.3526 64.9509 42.3357 64.9375 42.3262 64.9185Z" stroke="#FCC217" stroke-width="0.25" stroke-miterlimit="10"/>
<circle cx="41.5" cy="41.5" r="40.5" stroke="#FCC21D" stroke-width="2"/>
</svg>
