<svg width="83" height="83" viewBox="0 0 83 83" fill="none" xmlns="http://www.w3.org/2000/svg">
<path d="M60.7817 47.937L62.9593 42.3979C63.0516 42.1625 62.9835 41.8956 62.7889 41.7306L60.511 39.8006C60.7091 38.0756 60.6632 36.3324 60.3743 34.6198L62.5658 32.5567C62.7501 32.3832 62.8044 32.1156 62.7021 31.886L60.2768 26.4442C60.1737 26.2119 59.9324 26.0688 59.6748 26.0878L56.64 26.3068C55.5597 24.9285 54.2693 23.7221 52.8145 22.7296L52.9037 19.7531C52.9116 19.4998 52.7555 19.2691 52.5145 19.1781L46.8721 17.0399C46.6323 16.9493 46.36 17.0162 46.192 17.2072L44.226 19.4442C42.4688 19.2493 40.6926 19.2944 38.9481 19.578L36.8462 17.427C36.6694 17.2461 36.3968 17.1925 36.163 17.2928L30.6196 19.6737C30.383 19.7757 30.2375 20.0126 30.2566 20.2651L30.4797 23.2443C29.076 24.3045 27.8471 25.5712 26.8365 26.9993L23.8041 26.9118C23.5457 26.9028 23.3103 27.0565 23.2183 27.2938L21.0407 32.8333C20.9484 33.0687 21.0165 33.3356 21.2111 33.5005L23.4894 35.431C23.2913 37.1556 23.3372 38.8992 23.6261 40.6114L21.4346 42.6745C21.2503 42.848 21.196 43.1156 21.2983 43.3452L23.7236 48.787C23.8267 49.02 24.0684 49.1632 24.326 49.1434L27.3608 48.9244C28.4411 50.3027 29.7315 51.5091 31.1863 52.5012L31.0971 55.4781C31.0896 55.7314 31.2453 55.9617 31.4863 56.0531L35.8182 57.6944V61.1044C35.8202 62.4668 36.9445 63.5705 38.3323 63.572H41.3913V65.4024C41.3913 65.7328 41.6635 66 42 66C42.3361 66 42.6087 65.7328 42.6087 65.4024V63.5724H45.6673C47.0552 63.5709 48.1798 62.4668 48.1814 61.1044V57.7897L53.38 55.5571C53.6162 55.4555 53.7621 55.2186 53.743 54.9661L53.5199 51.9865C54.9236 50.9263 56.1525 49.6596 57.1631 48.2315L60.1955 48.319C60.4543 48.3284 60.6901 48.1747 60.7817 47.937ZM46.964 53.0431V54.4374H44.9758V46.5633C44.9766 45.8937 45.529 45.3514 46.211 45.3506C47.5652 45.3495 48.6629 44.2718 48.6641 42.9425V42.6215C49.723 42.3492 50.4629 41.4116 50.4673 40.3367C50.4716 39.2622 49.7393 38.3188 48.6827 38.0383C47.6258 37.7574 46.5091 38.2095 45.9606 39.1396C45.4125 40.0702 45.5698 41.2459 46.3446 42.0053C46.6489 42.3041 47.0298 42.5169 47.4467 42.6215V42.9429C47.4459 43.6124 46.8931 44.1547 46.211 44.1555C44.8569 44.1571 43.76 45.2343 43.7584 46.5637V54.4374H42.6503V36.9373C43.8333 36.6366 44.6041 35.5196 44.4495 34.3296C44.295 33.1395 43.2638 32.2478 42.0416 32.2478C40.8198 32.2478 39.7883 33.1395 39.6337 34.3296C39.4796 35.5196 40.25 36.6366 41.4329 36.9373V54.4374H40.3253V46.5633C40.3237 45.2343 39.2263 44.1571 37.8722 44.1555C37.1902 44.1547 36.6377 43.612 36.6369 42.9425V42.6215C37.0538 42.5169 37.4343 42.3041 37.739 42.0057C38.5205 41.2436 38.6818 40.0605 38.1314 39.1237C37.5813 38.1869 36.4574 37.7313 35.3941 38.0138C34.3309 38.2962 33.5946 39.2459 33.6005 40.3274C33.6064 41.4085 34.3531 42.3504 35.4195 42.6215V42.9429C35.4207 44.2722 36.5184 45.3499 37.8726 45.351C38.5546 45.3518 39.107 45.8941 39.1078 46.5637V54.4374H37.0356V53.0431C37.0419 50.4758 35.9545 48.0226 34.0364 46.2773C30.461 43.0545 29.2662 38.0083 31.0274 33.5679C32.7889 29.1274 37.145 26.203 41.9992 26.2026C42.0361 26.2026 42.0733 26.2026 42.1098 26.203C46.6616 26.245 50.7811 28.8581 52.6901 32.915C54.599 36.9719 53.9551 41.7454 51.0363 45.1744C50.7217 45.5436 50.384 45.8934 50.0254 46.2213C48.0879 47.9817 46.9795 50.4513 46.964 53.0431ZM47.2053 41.1599C46.7361 40.6993 46.7361 39.952 47.2053 39.4913C47.675 39.0303 48.4358 39.0303 48.9055 39.4913C49.3747 39.952 49.3747 40.6993 48.9051 41.1599C48.6808 41.3832 48.3748 41.5089 48.0554 41.5089C47.736 41.5093 47.43 41.3832 47.2053 41.1599ZM41.192 35.4761C40.7223 35.0155 40.7223 34.2681 41.192 33.8075C41.6612 33.3465 42.4225 33.3465 42.8917 33.8075C43.3613 34.2681 43.3613 35.0155 42.8917 35.4761C42.4221 35.9363 41.6616 35.9359 41.192 35.4761ZM35.1782 41.1603C34.7089 40.6997 34.7089 39.9527 35.1782 39.4917C35.6478 39.0311 36.4087 39.0311 36.8779 39.4917C37.3475 39.9527 37.3475 40.6997 36.8779 41.1603C36.6536 41.3836 36.3476 41.5093 36.0282 41.5093C35.7088 41.5093 35.4025 41.3836 35.1782 41.1603ZM45.6673 62.3773H38.3327C37.617 62.3761 37.0368 61.8069 37.036 61.1044V60.8978H42.3701C42.7062 60.8978 42.9789 60.6301 42.9789 60.3002C42.9789 59.9699 42.7062 59.7027 42.3701 59.7027H37.036V58.2231H38.6172C38.9533 58.2231 39.2259 57.9555 39.2259 57.6256C39.2259 57.2953 38.9533 57.028 38.6172 57.028H37.0356V55.6325H46.964V57.0276H42.0896C41.7535 57.0276 41.4809 57.2949 41.4809 57.6252C41.4809 57.9551 41.7535 58.2228 42.0896 58.2228H46.964V59.7023H45.5425C45.2064 59.7023 44.9338 59.9699 44.9338 60.2998C44.9338 60.6297 45.2064 60.8974 45.5425 60.8974H46.964V61.104C46.9632 61.8066 46.3834 62.3761 45.6673 62.3773ZM56.8659 47.0274C56.6562 47.0216 56.4581 47.1219 56.3416 47.2935C55.3116 48.8111 54.0208 50.142 52.5268 51.2255C52.3588 51.3477 52.2664 51.5453 52.2819 51.7499L52.4975 54.6323L48.1818 56.4857V53.0342C48.1985 50.777 49.1662 48.6271 50.8556 47.0955C53.5821 44.6033 55.0873 41.0821 54.9886 37.4259C54.8329 31.6293 50.7138 26.6651 44.9623 25.3432C39.2109 24.0212 33.2747 26.6741 30.5138 31.8004C27.7528 36.9268 28.862 43.2366 33.2133 47.1581C34.8805 48.6765 35.8249 50.8104 35.8182 53.0431V56.413L32.3268 55.0902L32.4132 52.209C32.4191 52.0028 32.3169 51.8083 32.1421 51.6939C30.5958 50.6832 29.2405 49.4161 28.1368 47.9494C28.0127 47.7841 27.811 47.693 27.6026 47.7086L24.6664 47.9206L22.5839 43.2483L24.7025 41.2537C24.8499 41.1148 24.9165 40.9125 24.88 40.7149C24.544 38.916 24.4956 37.077 24.7362 35.2637C24.7627 35.0641 24.6854 34.8653 24.5305 34.7338L22.331 32.8707L24.1988 28.119L27.1341 28.2038C27.3442 28.2112 27.5427 28.1104 27.6584 27.9381C28.688 26.4201 29.9788 25.0895 31.4728 24.0057C31.6408 23.8839 31.7336 23.6859 31.7181 23.4816L31.5025 20.5993L36.262 18.5553L38.2938 20.6351C38.4353 20.7802 38.6414 20.8455 38.8427 20.8093C40.6752 20.4798 42.5489 20.4324 44.3968 20.6685C44.5997 20.6938 44.8022 20.6179 44.9358 20.4658L46.8336 18.3067L51.674 20.1406L51.5876 23.0218C51.5816 23.2276 51.6839 23.4221 51.8587 23.5365C53.4046 24.5472 54.7599 25.8147 55.864 27.2814C55.9881 27.4467 56.1898 27.5374 56.3982 27.5218L59.334 27.3102L61.4165 31.9825L59.2975 33.9771C59.1497 34.116 59.0831 34.3187 59.12 34.5159C59.4557 36.3148 59.504 38.1538 59.2635 39.9675C59.2373 40.1667 59.3146 40.3655 59.4695 40.497L61.6686 42.3601L59.8004 47.1118L56.8659 47.0274Z" fill="#FCC217" stroke="#FCC217" stroke-miterlimit="10"/>
<circle cx="41.5" cy="41.5" r="40.5" stroke="#FCC21D" stroke-width="2"/>
</svg>
