<svg width="19" height="19" viewBox="0 0 19 19" fill="none" xmlns="http://www.w3.org/2000/svg">
<g clip-path="url(#clip0)">
<path d="M9.5 5.64062C7.35137 5.64062 5.60352 7.38848 5.60352 9.53711C5.60352 11.6857 7.35137 13.4336 9.5 13.4336C11.6486 13.4336 13.3965 11.6857 13.3965 9.53711C13.3965 7.38848 11.6486 5.64062 9.5 5.64062ZM9.5 5.64062C7.35137 5.64062 5.60352 7.38848 5.60352 9.53711C5.60352 11.6857 7.35137 13.4336 9.5 13.4336C11.6486 13.4336 13.3965 11.6857 13.3965 9.53711C13.3965 7.38848 11.6486 5.64062 9.5 5.64062ZM16.2168 -1.41772e-06L2.7832 -2.43315e-07C1.24687 -1.09005e-07 1.09005e-07 1.24688 2.43315e-07 2.7832L1.41772e-06 16.2168C1.55203e-06 17.7531 1.24688 19 2.7832 19L16.2168 19C17.7531 19 19 17.7531 19 16.2168L19 2.7832C19 1.24687 17.7531 -1.55203e-06 16.2168 -1.41772e-06ZM9.5 14.5469C6.7391 14.5469 4.49023 12.298 4.49023 9.53711C4.49023 6.77614 6.7391 4.52734 9.5 4.52734C12.2609 4.52734 14.5098 6.77613 14.5098 9.53711C14.5098 12.298 12.2609 14.5469 9.5 14.5469ZM15.623 4.52734C15.0107 4.52734 14.5098 4.02637 14.5098 3.41406C14.5098 2.80176 15.0107 2.30078 15.623 2.30078C16.2353 2.30078 16.7363 2.80176 16.7363 3.41406C16.7363 4.02637 16.2354 4.52734 15.623 4.52734ZM9.5 5.64062C7.35137 5.64062 5.60352 7.38848 5.60352 9.53711C5.60352 11.6857 7.35137 13.4336 9.5 13.4336C11.6486 13.4336 13.3965 11.6857 13.3965 9.53711C13.3965 7.38848 11.6486 5.64062 9.5 5.64062ZM9.5 5.64062C7.35137 5.64062 5.60352 7.38848 5.60352 9.53711C5.60352 11.6857 7.35137 13.4336 9.5 13.4336C11.6486 13.4336 13.3965 11.6857 13.3965 9.53711C13.3965 7.38848 11.6486 5.64062 9.5 5.64062ZM9.5 5.64062C7.35137 5.64062 5.60352 7.38848 5.60352 9.53711C5.60352 11.6857 7.35137 13.4336 9.5 13.4336C11.6486 13.4336 13.3965 11.6857 13.3965 9.53711C13.3965 7.38848 11.6486 5.64062 9.5 5.64062Z" fill="#FCC21D"/>
</g>
<defs>
<clipPath id="clip0">
<rect width="19" height="19" fill="white"/>
</clipPath>
</defs>
</svg>
