<svg width="15" height="15" viewBox="0 0 15 15" fill="none" xmlns="http://www.w3.org/2000/svg">
<g clip-path="url(#clip0)">
<path d="M7.5 4.45312C5.80371 4.45312 4.42383 5.83301 4.42383 7.5293C4.42383 9.22559 5.80371 10.6055 7.5 10.6055C9.19629 10.6055 10.5762 9.22559 10.5762 7.5293C10.5762 5.83301 9.19629 4.45312 7.5 4.45312ZM7.5 4.45312C5.80371 4.45312 4.42383 5.83301 4.42383 7.5293C4.42383 9.22559 5.80371 10.6055 7.5 10.6055C9.19629 10.6055 10.5762 9.22559 10.5762 7.5293C10.5762 5.83301 9.19629 4.45312 7.5 4.45312ZM12.8027 -1.11925e-06L2.19727 -1.92091e-07C0.984375 -8.60568e-08 8.60568e-08 0.984375 1.92091e-07 2.19727L1.11925e-06 12.8027C1.22528e-06 14.0156 0.984376 15 2.19727 15L12.8027 15C14.0156 15 15 14.0156 15 12.8027L15 2.19726C15 0.984374 14.0156 -1.22528e-06 12.8027 -1.11925e-06ZM7.5 11.4844C5.32034 11.4844 3.54492 9.70896 3.54492 7.5293C3.54492 5.34958 5.32034 3.57422 7.5 3.57422C9.67966 3.57422 11.4551 5.34958 11.4551 7.5293C11.4551 9.70895 9.67966 11.4844 7.5 11.4844ZM12.334 3.57422C11.8506 3.57422 11.4551 3.17871 11.4551 2.69531C11.4551 2.21191 11.8506 1.81641 12.334 1.81641C12.8174 1.81641 13.2129 2.21191 13.2129 2.69531C13.2129 3.17871 12.8174 3.57422 12.334 3.57422ZM7.5 4.45312C5.80371 4.45312 4.42383 5.83301 4.42383 7.5293C4.42383 9.22559 5.80371 10.6055 7.5 10.6055C9.19629 10.6055 10.5762 9.22559 10.5762 7.5293C10.5762 5.83301 9.19629 4.45312 7.5 4.45312ZM7.5 4.45312C5.80371 4.45312 4.42383 5.83301 4.42383 7.5293C4.42383 9.22559 5.80371 10.6055 7.5 10.6055C9.19629 10.6055 10.5762 9.22559 10.5762 7.5293C10.5762 5.83301 9.19629 4.45312 7.5 4.45312ZM7.5 4.45312C5.80371 4.45312 4.42383 5.83301 4.42383 7.5293C4.42383 9.22559 5.80371 10.6055 7.5 10.6055C9.19629 10.6055 10.5762 9.22559 10.5762 7.5293C10.5762 5.83301 9.19629 4.45312 7.5 4.45312Z" fill="white"/>
</g>
<defs>
<clipPath id="clip0">
<rect width="15" height="15" fill="white"/>
</clipPath>
</defs>
</svg>
