<svg width="160" height="160" viewBox="0 0 160 160" fill="none" xmlns="http://www.w3.org/2000/svg">
<g filter="url(#filter0_d)">
<path d="M105.854 101.543V99.277H117.588L116.456 101.543H112.689V110.683H110.384V101.543H105.854ZM98.6271 99.277H104.899L103.787 101.543H99.8022L99.1964 102.148V110.683H96.9307V100.976L98.6271 99.277ZM84.7435 108.378H92.6927V106.132H84.7435V108.378ZM82.4392 105.56L84.1187 103.867H92.6927V101.543H83.5717L82.4784 99.277H93.262L94.9584 100.976V109.004L93.262 110.683H84.1546L82.4392 108.967V105.56ZM65.0959 99.277H70.2324L71.9511 100.976L73.6699 99.277H78.8064L80.4859 100.976V110.683H78.2202V102.109L77.6928 101.602H74.2169L73.1033 102.695V110.683H70.8376V102.695L69.728 101.602H66.2061L65.6814 102.109V110.683H63.4164V100.976L65.0959 99.277ZM98.0686 68.1292L100.129 66.0414L100.15 66.019H113.574L113.52 66.1272L112.133 68.9102L112.112 68.9514H100.98V71.6093H111.4L113.528 73.733V78.0291L113.506 78.0507L111.422 80.1102L111.4 80.1318H100.199L100.177 80.1102L98.0693 77.9987L98.0476 77.977V68.1509L98.0686 68.1292ZM98.0686 51.4269L100.129 49.339L100.15 49.3167H113.574L113.52 49.4249L112.133 52.2078L112.112 52.2491H100.98V54.9069H111.4L113.506 57.0083L113.528 57.0306V61.3267L113.506 61.349L111.422 63.4078L111.4 63.4295H100.199L100.177 63.4078L98.0693 61.2963L98.0476 61.2747V51.4485L98.0686 51.4269ZM110.596 57.8393H100.98V60.4971H110.596V57.8393ZM110.596 74.5416H100.98V77.1995H110.596V74.5416ZM48.6532 72.2982L54.8357 66.0441H86.2499V57.7054H52.8222L48.7248 49.3667H88.4906L94.5885 55.4769V68.2726L88.4906 74.3834H56.9918V82.8654H113.518L117.676 91.2041H54.9668L48.6532 84.8783V72.2982ZM58.6118 108.418L59.1588 107.845V106.643L58.6504 106.113H50.5842L48.9047 104.414V100.976L50.5808 99.277H61.4435L60.3137 101.543H51.7559L51.2096 102.109V103.32L51.7174 103.847H59.7281L61.4239 105.547V109.004L59.7281 110.683H48.9047L50.0372 108.418H58.6118Z" fill="#FCC21D"/>
<path d="M79.6596 1.89173C36.5905 2.07953 1.70393 37.2714 1.89173 80.3413C2.07953 123.41 37.2714 158.296 80.3404 158.108C123.409 157.92 158.296 122.729 158.107 79.6596C157.92 36.5897 122.728 1.70394 79.6596 1.89173ZM80.3447 158.999C36.7843 159.19 1.19114 123.905 1.00077 80.3456C0.810397 36.7843 36.0949 1.19027 79.6553 1.00077C123.216 0.810397 158.809 36.0957 158.999 79.6561C159.189 123.216 123.904 158.809 80.3447 158.999Z" fill="#FCC21D"/>
<path d="M79.7227 16.5241C44.7221 16.6767 16.3706 45.2768 16.5233 80.2774C16.6768 115.278 45.276 143.629 80.2766 143.476C115.278 143.323 143.629 114.724 143.476 79.7234C143.323 44.7228 114.724 16.3714 79.7227 16.5241ZM80.2809 144.367C44.7881 144.522 15.7875 115.773 15.6323 80.2817C15.478 44.7888 44.2264 15.7883 79.7192 15.6331C115.211 15.4779 144.212 44.2272 144.367 79.72C144.522 115.211 115.773 144.212 80.2809 144.367Z" fill="#FCC21D"/>
<path d="M51.8863 11.2861L54.667 17.32L53.9024 17.6725L52.637 14.9275L49.3141 16.4589L50.5795 19.204L49.8145 19.5565L47.0338 13.5227L47.7984 13.1701L49.0009 15.7791L52.3238 14.2477L51.1213 11.6387L51.8863 11.2861Z" fill="#FCC21D"/>
<path d="M60.1002 14.5636L60.3497 15.2695L56.0964 16.7713L53.8844 10.5065L58.0581 9.03283L58.3072 9.73878L54.9278 10.9319L55.6447 12.9614L58.5828 11.924L58.8164 12.5858L55.8783 13.6232L56.6416 15.785L60.1002 14.5636Z" fill="#FCC21D"/>
<path d="M61.4296 14.9603L59.7392 8.53519L60.5536 8.32102L62.0535 14.0222L65.6372 13.0793L65.8277 13.8032L61.4296 14.9603Z" fill="#FCC21D"/>
<path d="M66.7003 13.6389L65.5321 7.09859L66.3612 6.95037L67.3979 12.7539L71.0457 12.1022L71.1772 12.8391L66.7003 13.6389Z" fill="#FCC21D"/>
<path d="M74.5353 12.5542C74.0692 12.5954 73.6384 12.54 73.2427 12.3871C72.847 12.2343 72.497 12.0103 72.1922 11.7149C71.8869 11.4195 71.6424 11.0778 71.4577 10.6903C71.2727 10.3028 71.1617 9.89768 71.124 9.4752C71.0851 9.03409 71.127 8.60595 71.2496 8.19101C71.3727 7.77628 71.5612 7.39944 71.8162 7.06028C72.0712 6.72154 72.3797 6.44352 72.7428 6.22662C73.1054 6.00973 73.5107 5.88119 73.9579 5.84141C74.4239 5.80016 74.8552 5.85899 75.2513 6.01789C75.6474 6.1768 75.9966 6.40583 76.2985 6.70458C76.6008 7.00354 76.844 7.34521 77.0287 7.72959C77.2129 8.11397 77.3235 8.51447 77.3607 8.93067C77.3997 9.37199 77.3595 9.7997 77.2397 10.2144C77.12 10.629 76.9328 11.0058 76.6778 11.3445C76.4228 11.6835 76.1138 11.96 75.7508 12.1738C75.3878 12.3878 74.9829 12.5144 74.5353 12.5542ZM71.9723 9.39983C72.0021 9.73543 72.0854 10.0553 72.2219 10.3593C72.3584 10.6635 72.5372 10.9279 72.7574 11.1526C72.9777 11.3772 73.2343 11.5487 73.5266 11.6667C73.8189 11.785 74.1358 11.8288 74.4775 11.7984C74.8317 11.7668 75.142 11.6642 75.4083 11.4903C75.675 11.3163 75.8948 11.0962 76.0686 10.8304C76.2424 10.5645 76.3663 10.2716 76.4412 9.95169C76.5162 9.63201 76.5396 9.31358 76.5116 8.99661C76.4819 8.66122 76.3985 8.343 76.2625 8.04174C76.126 7.74089 75.9459 7.47669 75.7223 7.24891C75.4983 7.02155 75.2421 6.85009 74.9531 6.73473C74.6642 6.61958 74.3519 6.57688 74.0165 6.6066C73.6623 6.63801 73.352 6.73934 73.0853 6.91017C72.8186 7.081 72.5983 7.29936 72.425 7.56525C72.2512 7.83134 72.1252 8.12276 72.0469 8.43973C71.9686 8.75669 71.9439 9.0768 71.9723 9.39983Z" fill="#FCC21D"/>
<path d="M85.2945 7.11199C85.2229 7.02197 85.1266 6.93404 85.0047 6.8482C84.8833 6.76257 84.7456 6.68386 84.5923 6.61247C84.4391 6.54108 84.2712 6.48183 84.089 6.43409C83.9065 6.38678 83.7155 6.35915 83.5162 6.35161C83.005 6.33214 82.6239 6.41421 82.3736 6.5976C82.1232 6.781 81.9917 7.0406 81.9787 7.37599C81.9699 7.61214 82.0252 7.80098 82.1445 7.9423C82.2639 8.08382 82.4514 8.20315 82.7069 8.29988C82.9623 8.39681 83.2876 8.49918 83.6833 8.60763C84.1405 8.72466 84.535 8.86116 84.8661 9.01671C85.1973 9.17247 85.4486 9.37345 85.6207 9.61945C85.7923 9.86565 85.8706 10.1874 85.8556 10.5852C85.8434 10.9022 85.7722 11.175 85.6416 11.4034C85.5114 11.6318 85.3343 11.8179 85.1103 11.9619C84.8862 12.106 84.6262 12.2081 84.3306 12.2684C84.035 12.3285 83.7155 12.3522 83.3726 12.3392C83.036 12.3264 82.7085 12.2781 82.3903 12.1941C82.0721 12.1104 81.7719 11.9944 81.4905 11.8464C81.2091 11.6984 80.9474 11.5166 80.7058 11.3014L81.135 10.6061C81.2305 10.7158 81.3561 10.8251 81.511 10.934C81.6664 11.0429 81.8435 11.145 82.0428 11.2399C82.2417 11.3349 82.459 11.4134 82.6939 11.4754C82.9288 11.5374 83.1708 11.5729 83.4203 11.5826C83.8939 11.6006 84.2649 11.5294 84.5333 11.3686C84.8017 11.2078 84.9419 10.9633 84.9545 10.6344C84.9641 10.3859 84.8984 10.1841 84.7577 10.0294C84.6166 9.87465 84.4047 9.74213 84.1217 9.6318C83.8386 9.52126 83.4936 9.40862 83.0858 9.29348C82.6411 9.16452 82.2689 9.02739 81.9682 8.88209C81.668 8.73701 81.4457 8.55257 81.3012 8.32919C81.1568 8.1058 81.091 7.82003 81.1044 7.47187C81.1204 7.04918 81.2368 6.69558 81.4536 6.41127C81.6705 6.12697 81.9624 5.91699 82.3296 5.78153C82.6968 5.64608 83.108 5.58683 83.5631 5.60421C83.8625 5.61551 84.1401 5.65738 84.3964 5.7294C84.6526 5.80163 84.8913 5.89814 85.1111 6.01894C85.3313 6.13953 85.5319 6.28147 85.7132 6.44435L85.2945 7.11199Z" fill="#FCC21D"/>
<path d="M92.5202 13.2317L93.2211 8.2086L90.5129 11.7706L90.0033 11.6994L88.3645 7.53091L87.6636 12.554L86.8295 12.4376L87.7477 5.85753L88.6283 5.98042L90.4141 10.5852L93.4012 6.64638L94.2725 6.76802L93.3543 13.3481L92.5202 13.2317Z" fill="#FCC21D"/>
<path d="M98.4023 7.72812L99.0923 7.90063L100.115 15.0041L99.243 14.7864L98.9918 12.7173L96.2195 12.0247L95.0216 13.7316L94.1503 13.5139L98.4023 7.72812ZM98.9077 12.0212L98.5116 8.75857L96.6223 11.4503L98.9077 12.0212Z" fill="#FCC21D"/>
<path d="M100.911 15.2804L103.106 9.0098L105.791 9.9496C106.068 10.0465 106.3 10.1925 106.49 10.3878C106.679 10.5829 106.826 10.8061 106.93 11.0573C107.034 11.3083 107.091 11.5696 107.101 11.8411C107.112 12.1125 107.074 12.3719 106.988 12.6193C106.887 12.9078 106.736 13.1624 106.537 13.3835C106.337 13.6043 106.107 13.7716 105.846 13.8851C105.584 13.9985 105.309 14.0442 105.02 14.0222L105.698 16.9561L104.797 16.6408L104.155 13.8878L102.494 13.3066L101.705 15.5587L100.911 15.2804ZM102.741 12.6L104.64 13.2648C104.858 13.341 105.069 13.347 105.273 13.2832C105.477 13.2191 105.66 13.1029 105.821 12.9346C105.983 12.7665 106.104 12.5676 106.184 12.3379C106.267 12.1024 106.289 11.8675 106.252 11.633C106.215 11.3988 106.132 11.1928 106.003 11.0152C105.873 10.8377 105.705 10.7129 105.499 10.6407L103.653 9.99461L102.741 12.6Z" fill="#FCC21D"/>
<path d="M113.388 13.9437L111.298 13.0016L108.876 18.376L108.108 18.0299L110.531 12.6555L108.44 11.7134L108.748 11.0309L113.696 13.2612L113.388 13.9437Z" fill="#FCC21D"/>
<path d="M125.995 20.9307L122.141 26.3424L121.455 25.8538L123.208 23.3919L120.228 21.2693L118.475 23.7311L117.789 23.2425L121.643 17.831L122.329 18.3197L120.663 20.6594L123.643 22.7821L125.309 20.4423L125.995 20.9307Z" fill="#FCC21D"/>
<path d="M127.242 29.6894L126.754 30.2569L123.335 27.3153L127.668 22.279L131.023 25.1656L130.535 25.7332L127.818 23.3957L126.415 25.0272L128.776 27.0594L128.319 27.5914L125.957 25.5592L124.462 27.2971L127.242 29.6894Z" fill="#FCC21D"/>
<path d="M127.553 31.0326L132.279 26.3629L132.871 26.9619L128.678 31.1057L131.282 33.7414L130.749 34.2676L127.553 31.0326Z" fill="#FCC21D"/>
<path d="M131.338 34.9522L136.421 30.6738L136.963 31.3179L132.453 35.1144L134.839 37.9493L134.267 38.4314L131.338 34.9522Z" fill="#FCC21D"/>
<path d="M136.178 41.179C135.91 40.7961 135.742 40.395 135.677 39.9761C135.611 39.5571 135.63 39.1418 135.734 38.73C135.837 38.3182 136.011 37.9353 136.254 37.5817C136.497 37.2278 136.792 36.9291 137.139 36.6854C137.502 36.4308 137.894 36.2531 138.314 36.152C138.735 36.0511 139.156 36.0261 139.577 36.0774C139.998 36.1287 140.393 36.2571 140.762 36.4629C141.131 36.6684 141.445 36.9551 141.703 37.3227C141.972 37.7056 142.136 38.1084 142.197 38.5309C142.257 38.9536 142.233 39.3704 142.126 39.7814C142.018 40.1923 141.844 40.574 141.603 40.9259C141.363 41.2778 141.071 41.5741 140.729 41.814C140.366 42.0686 139.976 42.2476 139.557 42.3512C139.138 42.4548 138.718 42.481 138.297 42.4297C137.876 42.3784 137.482 42.249 137.116 42.0416C136.749 41.8341 136.436 41.5467 136.178 41.179ZM137.628 37.3821C137.353 37.5758 137.118 37.8078 136.923 38.0783C136.727 38.3485 136.588 38.6353 136.503 38.9385C136.419 39.2416 136.399 39.5494 136.442 39.8615C136.486 40.1739 136.607 40.4704 136.804 40.7511C137.008 41.0421 137.252 41.2594 137.536 41.4032C137.82 41.5469 138.12 41.6275 138.438 41.6448C138.755 41.6624 139.071 41.6237 139.385 41.5286C139.699 41.4336 139.987 41.2946 140.248 41.1118C140.523 40.9182 140.757 40.687 140.95 40.4186C141.142 40.15 141.281 39.862 141.366 39.5544C141.451 39.2469 141.472 38.9391 141.427 38.6314C141.382 38.3234 141.263 38.0318 141.07 37.7561C140.866 37.465 140.622 37.2467 140.341 37.1012C140.06 36.9557 139.761 36.8742 139.444 36.8569C139.127 36.8395 138.811 36.8759 138.497 36.9666C138.184 37.0572 137.894 37.1958 137.628 37.3821Z" fill="#FCC21D"/>
<path d="M146.272 47.7991C146.314 47.6921 146.342 47.5646 146.356 47.4164C146.37 47.2681 146.37 47.1099 146.355 46.9413C146.34 46.7728 146.308 46.5976 146.259 46.4159C146.209 46.2341 146.138 46.0547 146.045 45.878C145.807 45.4252 145.546 45.1361 145.262 45.0102C144.979 44.8844 144.688 44.8997 144.391 45.0557C144.182 45.1656 144.045 45.3075 143.982 45.4817C143.919 45.6557 143.909 45.8776 143.952 46.1473C143.996 46.4169 144.069 46.7502 144.172 47.1471C144.299 47.6021 144.377 48.012 144.407 48.3767C144.437 48.7414 144.388 49.0596 144.26 49.3311C144.132 49.6025 143.892 49.8309 143.54 50.0159C143.259 50.1633 142.987 50.2374 142.724 50.2383C142.461 50.2389 142.211 50.178 141.975 50.0557C141.739 49.933 141.52 49.7589 141.321 49.5325C141.121 49.306 140.941 49.041 140.782 48.7374C140.625 48.4391 140.504 48.1309 140.418 47.8133C140.332 47.4955 140.284 47.1775 140.271 46.8597C140.26 46.5419 140.287 46.2245 140.353 45.908L141.17 45.9335C141.122 46.0713 141.09 46.2343 141.073 46.4232C141.056 46.6118 141.056 46.8161 141.072 47.0364C141.089 47.2564 141.129 47.4838 141.193 47.7183C141.256 47.9527 141.346 48.1805 141.462 48.4014C141.682 48.8211 141.929 49.1073 142.202 49.26C142.475 49.4126 142.757 49.4124 143.048 49.2593C143.269 49.1436 143.41 48.9861 143.475 48.787C143.539 48.5877 143.548 48.338 143.503 48.0377C143.457 47.7373 143.383 47.3818 143.28 46.9709C143.17 46.5212 143.104 46.1299 143.08 45.7972C143.056 45.4643 143.105 45.1796 143.227 44.943C143.348 44.7065 143.563 44.5074 143.872 44.3453C144.246 44.1485 144.611 44.0734 144.966 44.1196C145.32 44.1659 145.648 44.3145 145.948 44.5656C146.249 44.8164 146.505 45.1434 146.716 45.5466C146.856 45.8117 146.958 46.0733 147.023 46.3315C147.088 46.5896 147.123 46.8444 147.128 47.0954C147.133 47.3464 147.11 47.5912 147.059 47.8292L146.272 47.7991Z" fill="#FCC21D"/>
<path d="M144.554 57.0987L149.26 55.2073L144.823 54.6308L144.631 54.1532L147.432 50.6576L142.725 52.5489L142.411 51.7674L148.576 49.2901L148.908 50.115L145.802 53.955L150.705 54.5864L151.033 55.4027L144.868 57.88L144.554 57.0987Z" fill="#FCC21D"/>
<path d="M152.263 59.4979L152.456 60.1823L146.8 64.5991L146.555 63.7346L148.226 62.4885L147.45 59.7382L145.373 59.5471L145.129 58.6824L152.263 59.4979ZM148.788 62.0694L151.423 60.1046L148.149 59.8027L148.788 62.0694Z" fill="#FCC21D"/>
<path d="M146.954 65.4239L153.487 64.2122L154.006 67.0092C154.059 67.2974 154.048 67.5723 153.973 67.8336C153.898 68.0951 153.777 68.3331 153.61 68.5481C153.444 68.7629 153.246 68.9424 153.016 69.0868C152.785 69.2309 152.542 69.327 152.284 69.3747C151.983 69.4306 151.688 69.4266 151.397 69.3632C151.106 69.2997 150.846 69.1829 150.618 69.0129C150.39 68.8425 150.213 68.6264 150.088 68.3639L147.879 70.4108L147.705 69.4722L149.775 67.5466L149.454 65.8169L147.108 66.2521L146.954 65.4239ZM150.19 65.6804L150.557 67.6584C150.599 67.8853 150.699 68.0714 150.856 68.2169C151.013 68.3622 151.204 68.4629 151.43 68.5195C151.657 68.5758 151.889 68.5818 152.128 68.5375C152.374 68.492 152.589 68.3949 152.774 68.2465C152.959 68.0978 153.097 67.9232 153.186 67.7227C153.276 67.5219 153.301 67.3144 153.261 67.0998L152.904 65.1769L150.19 65.6804Z" fill="#FCC21D"/>
<path d="M154.318 75.58L154.095 73.2982L148.228 73.8708L148.146 73.0325L154.014 72.4602L153.791 70.1784L154.536 70.1055L155.063 75.5073L154.318 75.58Z" fill="#FCC21D"/>
<path d="M154.56 89.9567L147.946 89.3244L148.026 88.4862L151.035 88.7736L151.384 85.1314L148.375 84.8438L148.455 84.0055L155.069 84.6378L154.988 85.476L152.128 85.2026L151.781 88.8448L154.64 89.1182L154.56 89.9567Z" fill="#FCC21D"/>
<path d="M147.595 95.4175L146.86 95.2781L147.7 90.8466L154.228 92.0842L153.403 96.4327L152.668 96.2933L153.336 92.7721L151.221 92.3712L150.64 95.4328L149.951 95.302L150.531 92.2405L148.279 91.8135L147.595 95.4175Z" fill="#FCC21D"/>
<path d="M146.586 96.3638L152.99 98.1318L152.766 98.9437L147.083 97.3748L146.097 100.947L145.375 100.748L146.586 96.3638Z" fill="#FCC21D"/>
<path d="M145.074 101.599L151.315 103.878L151.026 104.669L145.489 102.647L144.217 106.127L143.514 105.87L145.074 101.599Z" fill="#FCC21D"/>
<path d="M142.077 108.901C142.276 108.477 142.54 108.133 142.872 107.868C143.203 107.603 143.572 107.413 143.981 107.298C144.39 107.183 144.809 107.144 145.236 107.179C145.664 107.215 146.07 107.322 146.454 107.502C146.855 107.691 147.204 107.942 147.5 108.257C147.797 108.572 148.028 108.925 148.193 109.316C148.357 109.706 148.442 110.113 148.447 110.536C148.452 110.958 148.359 111.373 148.168 111.78C147.969 112.203 147.701 112.546 147.365 112.809C147.028 113.071 146.655 113.257 146.244 113.368C145.834 113.479 145.417 113.517 144.992 113.483C144.567 113.449 144.165 113.343 143.786 113.166C143.385 112.978 143.036 112.728 142.738 112.415C142.44 112.103 142.208 111.752 142.044 111.361C141.879 110.97 141.796 110.564 141.794 110.143C141.792 109.721 141.886 109.307 142.077 108.901ZM146.092 108.273C145.787 108.13 145.469 108.041 145.138 108.006C144.806 107.971 144.488 107.992 144.183 108.07C143.878 108.147 143.601 108.282 143.351 108.476C143.102 108.669 142.905 108.921 142.759 109.231C142.608 109.553 142.54 109.873 142.557 110.191C142.573 110.509 142.653 110.809 142.795 111.093C142.937 111.377 143.128 111.632 143.366 111.858C143.605 112.083 143.869 112.264 144.157 112.399C144.461 112.542 144.778 112.63 145.107 112.664C145.436 112.698 145.755 112.675 146.064 112.596C146.373 112.517 146.65 112.382 146.895 112.19C147.14 111.999 147.334 111.75 147.477 111.445C147.629 111.123 147.697 110.804 147.684 110.488C147.67 110.171 147.593 109.871 147.45 109.587C147.307 109.303 147.119 109.048 146.885 108.821C146.65 108.594 146.386 108.411 146.092 108.273Z" fill="#FCC21D"/>
<path d="M141.361 120.922C141.475 120.906 141.6 120.867 141.735 120.805C141.871 120.744 142.008 120.665 142.147 120.568C142.286 120.472 142.422 120.357 142.555 120.223C142.688 120.09 142.808 119.939 142.916 119.771C143.191 119.339 143.312 118.969 143.28 118.66C143.248 118.352 143.09 118.107 142.807 117.927C142.608 117.8 142.417 117.752 142.235 117.784C142.052 117.815 141.855 117.917 141.642 118.089C141.43 118.26 141.177 118.49 140.884 118.776C140.552 119.112 140.235 119.384 139.933 119.591C139.632 119.798 139.331 119.914 139.032 119.938C138.733 119.962 138.416 119.867 138.08 119.653C137.813 119.483 137.613 119.284 137.482 119.056C137.35 118.828 137.279 118.581 137.268 118.315C137.257 118.049 137.299 117.773 137.396 117.487C137.494 117.202 137.635 116.914 137.819 116.625C138 116.341 138.207 116.082 138.44 115.85C138.673 115.617 138.925 115.417 139.194 115.249C139.465 115.08 139.753 114.946 140.061 114.846L140.445 115.568C140.302 115.595 140.144 115.648 139.972 115.727C139.799 115.806 139.622 115.907 139.439 116.032C139.257 116.155 139.079 116.303 138.908 116.475C138.736 116.646 138.582 116.837 138.448 117.048C138.194 117.448 138.068 117.804 138.071 118.117C138.074 118.429 138.215 118.674 138.492 118.851C138.702 118.985 138.909 119.03 139.114 118.986C139.319 118.943 139.54 118.826 139.778 118.638C140.016 118.449 140.288 118.208 140.593 117.915C140.929 117.596 141.235 117.343 141.512 117.157C141.789 116.971 142.061 116.873 142.326 116.861C142.592 116.848 142.872 116.936 143.166 117.123C143.523 117.351 143.769 117.63 143.905 117.96C144.041 118.291 144.075 118.649 144.007 119.035C143.938 119.42 143.782 119.805 143.537 120.189C143.376 120.441 143.2 120.66 143.008 120.845C142.816 121.03 142.613 121.187 142.398 121.316C142.182 121.445 141.958 121.546 141.726 121.621L141.361 120.922Z" fill="#FCC21D"/>
<path d="M132.418 124.082L136.398 127.225L134.692 123.089L135.012 122.684L139.437 123.377L135.456 120.234L135.978 119.573L141.193 123.69L140.642 124.387L135.766 123.602L137.655 128.17L137.11 128.86L131.896 124.743L132.418 124.082Z" fill="#FCC21D"/>
<path d="M134.198 131.94L133.702 132.449L127.052 129.749L127.68 129.106L129.593 129.933L131.589 127.888L130.72 125.993L131.347 125.35L134.198 131.94ZM130.237 130.211L133.254 131.514L131.882 128.526L130.237 130.211Z" fill="#FCC21D"/>
<path d="M126.399 130.311L130.711 135.365L128.547 137.211C128.324 137.402 128.081 137.529 127.816 137.595C127.552 137.66 127.286 137.674 127.017 137.638C126.747 137.601 126.493 137.519 126.253 137.391C126.013 137.264 125.808 137.101 125.638 136.901C125.439 136.669 125.295 136.41 125.204 136.127C125.114 135.843 125.086 135.56 125.119 135.277C125.153 134.994 125.252 134.733 125.417 134.494L122.541 133.603L123.267 132.983L125.969 133.814L127.307 132.672L125.758 130.857L126.399 130.311ZM127.792 133.242L126.262 134.548C126.087 134.698 125.975 134.877 125.928 135.085C125.88 135.294 125.889 135.51 125.953 135.735C126.017 135.959 126.128 136.163 126.286 136.349C126.448 136.538 126.639 136.676 126.86 136.762C127.081 136.848 127.301 136.88 127.52 136.858C127.738 136.835 127.931 136.753 128.097 136.611L129.585 135.342L127.792 133.242Z" fill="#FCC21D"/>
<path d="M121.29 141.757L123.155 140.424L119.726 135.629L120.411 135.139L123.84 139.934L125.705 138.601L126.14 139.21L121.725 142.366L121.29 141.757Z" fill="#FCC21D"/>
<path d="M108.917 149.148L106.176 143.097L106.943 142.749L108.19 145.502L111.523 143.992L110.276 141.239L111.043 140.892L113.784 146.943L113.017 147.291L111.832 144.674L108.499 146.184L109.684 148.801L108.917 149.148Z" fill="#FCC21D"/>
<path d="M100.721 145.819L100.477 145.111L104.739 143.637L106.91 149.916L102.727 151.363L102.483 150.655L105.87 149.484L105.167 147.45L102.221 148.468L101.992 147.805L104.937 146.787L104.188 144.62L100.721 145.819Z" fill="#FCC21D"/>
<path d="M99.3909 145.414L101.039 151.85L100.223 152.059L98.7607 146.348L95.1707 147.268L94.9852 146.542L99.3909 145.414Z" fill="#FCC21D"/>
<path d="M94.1063 146.702L95.2309 153.25L94.4006 153.393L93.4028 147.582L89.7508 148.21L89.624 147.472L94.1063 146.702Z" fill="#FCC21D"/>
<path d="M86.2827 147.733C86.7491 147.695 87.1795 147.753 87.574 147.908C87.9688 148.063 88.3176 148.29 88.6207 148.587C88.9239 148.884 89.1663 149.227 89.3485 149.616C89.531 150.005 89.6395 150.411 89.6742 150.833C89.7106 151.275 89.6663 151.703 89.5406 152.117C89.415 152.531 89.2241 152.906 88.967 153.244C88.7099 153.581 88.3997 153.857 88.0354 154.072C87.6711 154.286 87.2654 154.412 86.8178 154.449C86.3513 154.488 85.9205 154.426 85.5256 154.265C85.1304 154.103 84.7828 153.872 84.4826 153.571C84.1824 153.271 83.9412 152.927 83.7591 152.542C83.5769 152.156 83.4689 151.755 83.4346 151.338C83.3981 150.897 83.4413 150.469 83.5635 150.056C83.6858 149.642 83.8755 149.266 84.1326 148.929C84.3897 148.592 84.7003 148.317 85.0646 148.106C85.4289 147.894 85.8351 147.77 86.2827 147.733ZM88.8255 150.903C88.7979 150.568 88.717 150.247 88.5822 149.942C88.4474 149.637 88.2707 149.372 88.0517 149.146C87.8327 148.92 87.5773 148.747 87.2859 148.627C86.9945 148.507 86.6775 148.461 86.3358 148.489C85.9812 148.518 85.6705 148.619 85.4029 148.791C85.1354 148.964 84.9139 149.182 84.7384 149.447C84.5634 149.712 84.437 150.004 84.3603 150.323C84.2833 150.643 84.2578 150.961 84.2841 151.278C84.3118 151.613 84.393 151.932 84.527 152.234C84.6618 152.536 84.8402 152.801 85.0621 153.03C85.2844 153.259 85.5399 153.432 85.8279 153.549C86.1164 153.667 86.4284 153.711 86.7638 153.684C87.1184 153.654 87.4295 153.555 87.6971 153.386C87.9646 153.217 88.1865 153 88.3616 152.735C88.537 152.47 88.6647 152.18 88.7451 151.863C88.8255 151.546 88.8523 151.227 88.8255 150.903Z" fill="#FCC21D"/>
<path d="M75.4862 153.107C75.5569 153.198 75.6528 153.286 75.7738 153.373C75.8952 153.459 76.0322 153.539 76.185 153.611C76.3378 153.683 76.5053 153.744 76.6874 153.793C76.8696 153.841 77.0601 153.87 77.2594 153.879C77.7707 153.902 78.1521 153.822 78.4037 153.64C78.655 153.458 78.7885 153.2 78.8032 152.864C78.8137 152.628 78.7597 152.439 78.6412 152.297C78.5227 152.154 78.3359 152.034 78.0809 151.936C77.8263 151.837 77.5014 151.733 77.1066 151.622C76.6502 151.502 76.2566 151.363 75.9262 151.205C75.5963 151.047 75.3459 150.845 75.1759 150.598C75.0059 150.35 74.9293 150.028 74.9473 149.63C74.9611 149.314 75.034 149.041 75.1658 148.814C75.2977 148.586 75.4761 148.401 75.701 148.259C75.9262 148.116 76.1867 148.016 76.4827 147.957C76.7787 147.899 77.0982 147.877 77.4407 147.892C77.7774 147.907 78.1044 147.958 78.4222 148.043C78.74 148.129 79.0393 148.247 79.3199 148.397C79.6004 148.547 79.8609 148.73 80.1008 148.947L79.6674 149.639C79.5728 149.529 79.4476 149.419 79.2935 149.309C79.139 149.199 78.9627 149.096 78.7638 149C78.5654 148.904 78.3489 148.824 78.114 148.76C77.8795 148.697 77.6379 148.66 77.3884 148.649C76.9148 148.628 76.5434 148.696 76.2742 148.855C76.0045 149.014 75.8626 149.258 75.8483 149.587C75.837 149.835 75.9015 150.037 76.0414 150.193C76.1812 150.349 76.3923 150.483 76.6745 150.595C76.9571 150.707 77.3013 150.822 77.7083 150.94C78.1521 151.071 78.5239 151.211 78.8233 151.358C79.1227 151.505 79.3442 151.691 79.487 151.915C79.6301 152.14 79.6938 152.426 79.6783 152.774C79.6595 153.196 79.541 153.549 79.3224 153.832C79.1038 154.115 78.8103 154.323 78.4423 154.456C78.0742 154.589 77.6626 154.646 77.2079 154.626C76.9085 154.613 76.6309 154.569 76.3751 154.495C76.1192 154.421 75.8818 154.324 75.6624 154.201C75.443 154.079 75.2433 153.936 75.0633 153.772L75.4862 153.107Z" fill="#FCC21D"/>
<path d="M68.3078 146.943L67.5754 151.961L70.3059 148.417L70.815 148.491L72.4275 152.67L73.1598 147.651L73.993 147.773L73.0338 154.347L72.1541 154.219L70.3971 149.603L67.3853 153.522L66.5148 153.396L67.4745 146.821L68.3078 146.943Z" fill="#FCC21D"/>
<path d="M62.3704 152.404L61.6816 152.227L60.706 145.117L61.5761 145.34L61.814 147.411L64.5816 148.122L65.7909 146.423L66.661 146.647L62.3704 152.404ZM61.8935 148.108L62.2683 151.373L64.1747 148.694L61.8935 148.108Z" fill="#FCC21D"/>
<path d="M59.9159 144.837L57.68 151.093L55.0011 150.135C54.7252 150.037 54.4928 149.889 54.3048 149.693C54.1168 149.496 53.9715 149.272 53.8693 149.02C53.7672 148.769 53.7119 148.507 53.7027 148.235C53.6939 147.964 53.7332 147.705 53.8216 147.458C53.9246 147.17 54.0766 146.916 54.2776 146.697C54.4785 146.477 54.7101 146.311 54.9718 146.2C55.2339 146.088 55.5094 146.044 55.7992 146.068L55.1401 143.13L56.0391 143.451L56.6634 146.208L58.3198 146.8L59.1229 144.553L59.9159 144.837ZM58.0677 147.505L56.1735 146.828C55.9562 146.75 55.7451 146.743 55.5404 146.805C55.3361 146.868 55.1527 146.983 54.9898 147.15C54.8277 147.317 54.7055 147.516 54.6234 147.745C54.5397 147.979 54.5154 148.214 54.5506 148.449C54.5862 148.684 54.6678 148.89 54.7963 149.068C54.9245 149.247 55.0915 149.373 55.2971 149.446L57.1386 150.104L58.0677 147.505Z" fill="#FCC21D"/>
<path d="M47.4337 146.093L49.5176 147.049L51.9746 141.69L52.7405 142.042L50.283 147.4L52.367 148.356L52.055 149.036L47.1214 146.774L47.4337 146.093Z" fill="#FCC21D"/>
<path d="M34.8765 139.028L38.7651 133.641L39.448 134.134L37.679 136.585L40.6456 138.726L42.4146 136.276L43.0975 136.769L39.2085 142.156L38.5256 141.663L40.2072 139.333L37.2406 137.192L35.5595 139.521L34.8765 139.028Z" fill="#FCC21D"/>
<path d="M33.6853 130.262L34.1773 129.698L37.5777 132.661L33.2126 137.67L29.8759 134.762L30.3678 134.198L33.0694 136.552L34.4834 134.93L32.1344 132.883L32.5954 132.354L34.9448 134.401L36.4509 132.672L33.6853 130.262Z" fill="#FCC21D"/>
<path d="M33.3826 128.918L28.6273 133.557L28.0394 132.955L32.2588 128.838L29.6711 126.185L30.2066 125.663L33.3826 128.918Z" fill="#FCC21D"/>
<path d="M29.623 124.974L24.513 129.22L23.975 128.572L28.5088 124.805L26.1405 121.955L26.7167 121.476L29.623 124.974Z" fill="#FCC21D"/>
<path d="M24.8212 118.716C25.0879 119.101 25.2524 119.502 25.3153 119.922C25.3781 120.341 25.3567 120.757 25.2504 121.168C25.1444 121.579 24.9686 121.961 24.7232 122.313C24.4774 122.665 24.1805 122.962 23.8318 123.203C23.4675 123.456 23.0747 123.631 22.6535 123.729C22.2323 123.828 21.8115 123.85 21.3907 123.796C20.9703 123.742 20.5759 123.611 20.2078 123.403C19.8398 123.195 19.5278 122.906 19.272 122.537C19.0057 122.152 18.8436 121.748 18.7859 121.326C18.7285 120.903 18.7549 120.486 18.865 120.075C18.9755 119.665 19.1522 119.285 19.3951 118.934C19.6379 118.584 19.931 118.29 20.2748 118.052C20.6391 117.8 21.0306 117.623 21.4501 117.522C21.8697 117.421 22.2901 117.398 22.7104 117.452C23.1313 117.506 23.5244 117.638 23.8895 117.847C24.2551 118.057 24.5653 118.347 24.8212 118.716ZM23.3469 122.503C23.6237 122.311 23.8606 122.081 24.0574 121.812C24.2542 121.543 24.3958 121.257 24.482 120.954C24.5687 120.652 24.5909 120.344 24.5486 120.032C24.5071 119.719 24.3882 119.422 24.1927 119.14C23.9904 118.847 23.7476 118.629 23.465 118.483C23.1819 118.337 22.8821 118.255 22.5647 118.235C22.2478 118.216 21.9321 118.253 21.6168 118.346C21.3019 118.439 21.0134 118.576 20.7521 118.757C20.4749 118.949 20.2396 119.179 20.0453 119.446C19.8511 119.713 19.7104 120 19.6233 120.307C19.5362 120.614 19.514 120.922 19.5563 121.23C19.599 121.538 19.7162 121.831 19.9084 122.108C20.1107 122.4 20.3523 122.62 20.6324 122.767C20.9129 122.914 21.2115 122.998 21.5284 123.017C21.8458 123.037 22.1611 123.002 22.4755 122.913C22.7896 122.825 23.0802 122.688 23.3469 122.503Z" fill="#FCC21D"/>
<path d="M14.7692 112.028C14.726 112.135 14.6967 112.263 14.6821 112.411C14.6674 112.559 14.6666 112.717 14.68 112.886C14.6938 113.054 14.7248 113.23 14.7729 113.412C14.8215 113.594 14.8918 113.773 14.9831 113.951C15.2184 114.405 15.4772 114.696 15.7602 114.824C16.0433 114.951 16.3339 114.938 16.632 114.784C16.8422 114.675 16.9791 114.534 17.0432 114.36C17.1077 114.187 17.119 113.965 17.0775 113.695C17.0361 113.425 16.9649 113.091 16.8644 112.694C16.7409 112.238 16.6651 111.828 16.6374 111.463C16.6098 111.098 16.6609 110.78 16.7903 110.509C16.9201 110.239 17.1613 110.012 17.5151 109.829C17.7969 109.684 18.069 109.611 18.3324 109.612C18.5953 109.613 18.8445 109.676 19.0802 109.8C19.3159 109.924 19.5328 110.099 19.7309 110.327C19.9289 110.555 20.1069 110.821 20.2643 111.126C20.4193 111.425 20.5386 111.734 20.6223 112.052C20.7061 112.37 20.753 112.689 20.763 113.006C20.7726 113.324 20.7438 113.642 20.6751 113.958L19.8586 113.927C19.9072 113.789 19.9407 113.626 19.9587 113.438C19.9771 113.249 19.9788 113.045 19.9633 112.825C19.9478 112.604 19.9093 112.377 19.8473 112.142C19.7853 111.907 19.6974 111.679 19.5827 111.457C19.3649 111.036 19.12 110.748 18.8482 110.594C18.5761 110.439 18.2939 110.438 18.0016 110.589C17.7805 110.703 17.6377 110.86 17.5724 111.059C17.5071 111.257 17.4962 111.507 17.5394 111.808C17.5829 112.108 17.6545 112.464 17.7554 112.876C17.8622 113.326 17.9262 113.718 17.948 114.051C17.9698 114.384 17.9187 114.668 17.7956 114.904C17.6721 115.14 17.456 115.338 17.1462 115.498C16.7706 115.692 16.4055 115.765 16.0512 115.716C15.697 115.667 15.3704 115.517 15.0715 115.264C14.7729 115.011 14.5188 114.682 14.3098 114.278C14.1721 114.012 14.072 113.75 14.0084 113.491C13.9447 113.232 13.9112 112.977 13.9079 112.726C13.9045 112.475 13.9292 112.231 13.9816 111.993L14.7692 112.028Z" fill="#FCC21D"/>
<path d="M16.5462 102.737L11.8281 104.597L16.2614 105.203L16.4503 105.682L13.6269 109.159L18.345 107.298L18.654 108.082L12.4734 110.519L12.1472 109.692L15.2783 105.872L10.3794 105.209L10.0565 104.391L16.2376 101.953L16.5462 102.737Z" fill="#FCC21D"/>
<path d="M8.85945 100.31L8.67019 99.6241L14.3542 95.2425L14.5929 96.1086L12.9147 97.3442L13.6738 100.099L15.7494 100.303L15.988 101.169L8.85945 100.31ZM12.3498 97.7598L9.70315 99.7083L12.9754 100.03L12.3498 97.7598Z" fill="#FCC21D"/>
<path d="M14.2031 94.4111L7.66319 95.5821L7.16199 92.7819C7.11049 92.4932 7.12305 92.2186 7.19968 91.9575C7.27672 91.6966 7.39898 91.4594 7.56647 91.2455C7.73437 91.0317 7.93368 90.8534 8.16481 90.7106C8.39594 90.568 8.64046 90.4734 8.89839 90.4271C9.19944 90.3733 9.49506 90.379 9.78564 90.4443C10.0762 90.5096 10.335 90.6279 10.5619 90.7995C10.7893 90.9712 10.9643 91.1885 11.0874 91.4517L13.3095 89.4188L13.4774 90.3584L11.396 92.2711L11.7059 94.0027L14.0548 93.5821L14.2031 94.4111ZM10.9689 94.1346L10.6143 92.1543C10.5737 91.9271 10.4757 91.7404 10.3191 91.5941C10.1633 91.4477 9.97239 91.3456 9.74628 91.2878C9.5206 91.23 9.28779 91.2225 9.04829 91.2654C8.80292 91.3093 8.58729 91.405 8.40096 91.5524C8.21505 91.6998 8.07688 91.8735 7.9856 92.0735C7.89474 92.2736 7.86878 92.4811 7.9073 92.6961L8.2519 94.6211L10.9689 94.1346Z" fill="#FCC21D"/>
<path d="M6.90281 84.2027L7.11091 86.4858L12.9821 85.9504L13.0583 86.7891L7.18753 87.3244L7.39563 89.6077L6.65033 89.6757L6.15708 84.2708L6.90281 84.2027Z" fill="#FCC21D"/>
<path d="M6.75124 69.8256L13.361 70.4995L13.2756 71.3374L10.2688 71.0309L9.89744 74.6708L12.9046 74.9773L12.8192 75.8151L6.20942 75.1414L6.29484 74.3036L9.15297 74.5948L9.52395 70.9549L6.66582 70.6635L6.75124 69.8256Z" fill="#FCC21D"/>
<path d="M13.7546 64.3891L14.489 64.5333L13.6194 68.9591L7.10044 67.6783L7.95378 63.3352L8.6882 63.4794L7.99732 66.9962L10.1089 67.4111L10.7097 64.3535L11.3985 64.4887L10.7977 67.5464L13.0474 67.9883L13.7546 64.3891Z" fill="#FCC21D"/>
<path d="M14.77 63.4543L8.37751 61.644L8.60697 60.8338L14.2788 62.44L15.2888 58.8746L16.009 59.0786L14.77 63.4543Z" fill="#FCC21D"/>
<path d="M16.3062 58.2579L10.0796 55.9399L10.3735 55.1506L15.8984 57.2073L17.1914 53.7345L17.8927 53.9958L16.3062 58.2579Z" fill="#FCC21D"/>
<path d="M19.3582 50.9539C19.1568 51.3761 18.8893 51.7186 18.5568 51.9814C18.2239 52.2443 17.853 52.4319 17.4435 52.5439C17.034 52.6563 16.6153 52.6932 16.1877 52.6551C15.7598 52.6168 15.3549 52.5064 14.9718 52.3237C14.5719 52.133 14.2248 51.8792 13.9305 51.5625C13.6357 51.2455 13.4071 50.8913 13.245 50.4993C13.083 50.1076 13.0009 49.7002 12.9988 49.2775C12.9967 48.8549 13.0922 48.4408 13.2857 48.0354C13.4871 47.6132 13.7571 47.2719 14.0954 47.0117C14.4338 46.7517 14.8085 46.5676 15.2197 46.4594C15.6304 46.3516 16.0483 46.3158 16.4733 46.3526C16.8979 46.3895 17.299 46.4979 17.6763 46.678C18.0761 46.8687 18.4237 47.1212 18.7197 47.435C19.0157 47.749 19.2448 48.1022 19.4068 48.4939C19.5688 48.8858 19.6497 49.2924 19.6492 49.7136C19.6488 50.1351 19.5517 50.5483 19.3582 50.9539ZM15.3386 51.5553C15.6426 51.7002 15.9604 51.7915 16.2916 51.8285C16.6228 51.8658 16.9414 51.8468 17.2471 51.7712C17.5523 51.6958 17.8304 51.5622 18.0807 51.3707C18.3311 51.1793 18.5304 50.9285 18.6782 50.6189C18.8311 50.2979 18.9006 49.9787 18.8863 49.6609C18.8721 49.3429 18.7946 49.0416 18.6544 48.7569C18.5137 48.4719 18.3249 48.2159 18.0874 47.9888C17.8505 47.7616 17.5883 47.5795 17.3011 47.4423C16.9971 47.2972 16.681 47.207 16.3523 47.171C16.0236 47.1354 15.7046 47.1559 15.3947 47.2326C15.0853 47.3096 14.8073 47.4432 14.5611 47.6331C14.3148 47.8232 14.1193 48.0702 13.974 48.3744C13.8208 48.6951 13.75 49.014 13.7613 49.3305C13.773 49.6469 13.8488 49.9477 13.9895 50.2324C14.1302 50.5171 14.3169 50.774 14.5497 51.0026C14.783 51.2315 15.0459 51.4155 15.3386 51.5553Z" fill="#FCC21D"/>
<path d="M20.1643 38.9176C20.0504 38.9331 19.9256 38.9712 19.7895 39.0319C19.6538 39.0928 19.5161 39.1709 19.3762 39.2661C19.2368 39.3616 19.0999 39.4757 18.9659 39.608C18.8319 39.7408 18.7109 39.8907 18.6025 40.0583C18.3249 40.4879 18.2009 40.8572 18.2306 41.1663C18.2604 41.4753 18.4166 41.7208 18.6983 41.9032C18.8968 42.0315 19.0873 42.0803 19.2699 42.0497C19.4529 42.0194 19.6509 41.9191 19.8645 41.7489C20.0784 41.5789 20.3326 41.3513 20.6278 41.0666C20.9619 40.7331 21.2805 40.4637 21.5837 40.2583C21.8864 40.0531 22.1875 39.9394 22.4869 39.9174C22.7862 39.8955 23.1028 39.9924 23.4369 40.2085C23.7036 40.3808 23.9017 40.5813 24.0315 40.8099C24.1613 41.0388 24.2308 41.2862 24.2404 41.5523C24.2496 41.8184 24.2048 42.0941 24.106 42.3791C24.0064 42.6642 23.864 42.9508 23.6777 43.2389C23.4947 43.5217 23.2858 43.7786 23.0513 44.0095C22.8168 44.2404 22.5639 44.4391 22.2926 44.6056C22.0217 44.772 21.7319 44.9043 21.4237 45.0019L21.0448 44.2779C21.188 44.2517 21.3463 44.1996 21.5188 44.1219C21.6917 44.0443 21.8697 43.944 22.0535 43.8211C22.2369 43.6984 22.4148 43.5519 22.5882 43.3815C22.7615 43.2112 22.9156 43.0212 23.0513 42.8116C23.3088 42.4136 23.4369 42.0581 23.4357 41.7453C23.4344 41.4326 23.2958 41.187 23.0195 41.0084C22.8105 40.8732 22.6037 40.8269 22.3985 40.8688C22.1938 40.9108 21.9714 41.0256 21.7323 41.2123C21.4928 41.3993 21.2194 41.6386 20.9125 41.9304C20.5746 42.2467 20.2664 42.4971 19.988 42.6812C19.71 42.8654 19.4378 42.9625 19.1719 42.9726C18.906 42.9826 18.6267 42.8932 18.3345 42.704C17.979 42.4743 17.7345 42.1938 17.6009 41.8622C17.4669 41.5305 17.4355 41.1723 17.5067 40.7873C17.5775 40.4025 17.7366 40.0188 17.984 39.6363C18.1465 39.3846 18.3244 39.1673 18.517 38.9837C18.7101 38.8003 18.9148 38.6446 19.1309 38.5169C19.3473 38.3891 19.5718 38.2893 19.8042 38.2166L20.1643 38.9176Z" fill="#FCC21D"/>
<path d="M29.1121 35.8386L25.1515 32.6706L26.831 36.8179L26.5094 37.2197L22.0887 36.4997L26.0493 39.6677L25.5233 40.3253L20.3347 36.1754L20.8903 35.4812L25.7612 36.2977L23.9004 31.7178L24.4498 31.0309L29.638 35.1808L29.1121 35.8386Z" fill="#FCC21D"/>
<path d="M27.3808 27.9701L27.8807 27.4643L34.5127 30.2065L33.8813 30.8452L31.9732 30.0065L29.9638 32.0385L30.8217 33.9391L30.1899 34.5778L27.3808 27.9701ZM31.3313 29.7241L28.3224 28.4016L29.6753 31.3988L31.3313 29.7241Z" fill="#FCC21D"/>
<path d="M35.1705 29.6483L30.89 24.567L33.0656 22.7343C33.29 22.5455 33.5346 22.4193 33.7988 22.3554C34.0634 22.2918 34.3301 22.2794 34.5989 22.3177C34.8682 22.3562 35.1219 22.44 35.361 22.569C35.6001 22.6979 35.804 22.8625 35.9731 23.0628C36.1699 23.2967 36.3127 23.5556 36.4011 23.84C36.4898 24.1245 36.5166 24.4077 36.481 24.6901C36.4459 24.9728 36.345 25.233 36.1787 25.4713L39.0494 26.3809L38.3196 26.9958L35.6227 26.1475L34.2774 27.2809L35.8145 29.1059L35.1705 29.6483ZM33.795 26.7083L35.3338 25.4122C35.5101 25.2636 35.6227 25.085 35.6717 24.8767C35.7207 24.6684 35.7135 24.4519 35.6507 24.2273C35.5883 24.0028 35.4786 23.7975 35.3216 23.6115C35.1608 23.4206 34.9703 23.2816 34.7497 23.1939C34.5294 23.1066 34.3096 23.0733 34.091 23.0944C33.872 23.1156 33.6794 23.1964 33.5124 23.3371L32.0167 24.597L33.795 26.7083Z" fill="#FCC21D"/>
<path d="M40.352 18.2338L38.4787 19.5555L41.8774 24.3726L41.189 24.8581L37.7908 20.041L35.9175 21.3626L35.4858 20.7509L39.9208 17.6223L40.352 18.2338Z" fill="#FCC21D"/>
<path d="M56.1563 25.3825L58.0363 29.3655L57.5314 29.6037L56.6759 27.7918L54.4827 28.8272L55.3382 30.6392L54.8332 30.8775L52.9532 26.8945L53.4581 26.6562L54.2709 28.3784L56.4645 27.3431L55.6514 25.6207L56.1563 25.3825Z" fill="#FCC21D"/>
<path d="M62.2846 27.2116L62.4563 27.6772L59.6501 28.7096L58.1293 24.576L60.8832 23.563L61.0544 24.0288L58.8248 24.8491L59.3172 26.1881L61.2558 25.475L61.4166 25.9115L59.478 26.6248L60.0026 28.0512L62.2846 27.2116Z" fill="#FCC21D"/>
<path d="M63.8577 27.2393L62.6723 22.9975L63.2104 22.8472L64.2618 26.6112L66.6279 25.9501L66.7615 26.428L63.8577 27.2393Z" fill="#FCC21D"/>
<path d="M68.044 26.1418L67.1965 21.8199L67.7442 21.7125L68.4962 25.5475L70.9067 25.0747L71.0022 25.5617L68.044 26.1418Z" fill="#FCC21D"/>
<path d="M73.9541 25.219C73.6455 25.2525 73.3591 25.2211 73.0953 25.125C72.8311 25.0291 72.5958 24.8851 72.3898 24.6933C72.1838 24.5013 72.0171 24.2781 71.8898 24.0238C71.7621 23.7694 71.6834 23.5025 71.6529 23.2228C71.621 22.9309 71.6432 22.6466 71.719 22.3701C71.7952 22.0935 71.9154 21.8412 72.0799 21.6132C72.2445 21.3853 72.4455 21.197 72.6829 21.0484C72.9207 20.9 73.1874 20.8095 73.4835 20.7773C73.7921 20.7438 74.0785 20.7773 74.3431 20.8774C74.6077 20.9774 74.8422 21.1246 75.0461 21.3187C75.2504 21.513 75.4162 21.7361 75.5435 21.9886C75.6708 22.2409 75.7491 22.5049 75.7793 22.7804C75.8111 23.0722 75.7897 23.3563 75.716 23.6327C75.6419 23.909 75.5226 24.1613 75.358 24.3891C75.1935 24.6171 74.9925 24.8045 74.7547 24.9508C74.5168 25.0973 74.2501 25.1867 73.9541 25.219ZM72.2139 23.1616C72.2382 23.3838 72.2973 23.5948 72.3919 23.7945C72.4865 23.9942 72.6084 24.1672 72.7574 24.3131C72.9061 24.4592 73.0786 24.5696 73.2737 24.6439C73.4688 24.7184 73.6798 24.7433 73.9059 24.7186C74.14 24.6933 74.3443 24.6211 74.5189 24.5024C74.6931 24.3834 74.8359 24.2348 74.9477 24.0562C75.0591 23.8778 75.1378 23.6821 75.1834 23.4692C75.2287 23.2563 75.24 23.0448 75.2174 22.8353C75.1931 22.6131 75.134 22.4034 75.0398 22.2055C74.9452 22.0079 74.8225 21.835 74.6713 21.6871C74.5202 21.5393 74.3477 21.429 74.1551 21.3564C73.9616 21.2837 73.7544 21.2596 73.5325 21.2837C73.298 21.3093 73.0936 21.3802 72.919 21.4971C72.7444 21.6139 72.6017 21.7615 72.4899 21.9398C72.3781 22.1184 72.2985 22.3133 72.2508 22.5244C72.203 22.7354 72.1909 22.9481 72.2139 23.1616Z" fill="#FCC21D"/>
<path d="M82.4556 21.4185C82.4071 21.3597 82.3422 21.3026 82.2605 21.2471C82.1789 21.1916 82.0867 21.1409 81.9846 21.0955C81.882 21.0499 81.7698 21.0126 81.6488 20.9831C81.5269 20.9538 81.4005 20.9377 81.2682 20.9349C80.929 20.928 80.6774 20.9869 80.5136 21.1112C80.3495 21.2356 80.2653 21.4091 80.2607 21.6317C80.2578 21.7883 80.2963 21.9128 80.3771 22.0052C80.4579 22.0977 80.5836 22.1745 80.754 22.2357C80.9244 22.297 81.1413 22.3611 81.4047 22.4285C81.7095 22.5007 81.9724 22.5865 82.1935 22.686C82.415 22.7854 82.5837 22.9156 82.7006 23.0766C82.8174 23.2378 82.8727 23.4503 82.8672 23.7141C82.863 23.9243 82.8191 24.1058 82.7353 24.2589C82.6516 24.4117 82.536 24.5373 82.3895 24.6353C82.2425 24.7333 82.0713 24.804 81.8761 24.8474C81.6806 24.8907 81.4696 24.91 81.2422 24.9054C81.019 24.9008 80.8013 24.8725 80.5894 24.8206C80.3771 24.7687 80.177 24.6954 79.989 24.6003C79.8006 24.5055 79.6251 24.388 79.4627 24.2482L79.739 23.7824C79.8035 23.8542 79.8881 23.9252 79.9919 23.9955C80.0962 24.0658 80.2147 24.1314 80.3478 24.1921C80.481 24.2528 80.6259 24.3022 80.782 24.3405C80.9386 24.379 81.0994 24.3998 81.2648 24.4033C81.5788 24.4098 81.8242 24.3583 82.0001 24.2486C82.1763 24.1391 82.2664 23.9752 82.271 23.7573C82.2743 23.5923 82.2283 23.4593 82.1332 23.3584C82.0382 23.2575 81.8962 23.1721 81.7074 23.1022C81.5185 23.0323 81.2883 22.9615 81.0169 22.8899C80.7205 22.8095 80.4722 22.723 80.2712 22.6301C80.0706 22.5373 79.9212 22.4178 79.8228 22.2712C79.7244 22.1249 79.6775 21.9363 79.6825 21.7054C79.6879 21.425 79.7612 21.1893 79.9015 20.9984C80.0422 20.8072 80.2331 20.6649 80.4751 20.5709C80.7167 20.4767 80.9889 20.4329 81.2908 20.439C81.4892 20.4432 81.6735 20.4676 81.8443 20.5125C82.0151 20.5575 82.1742 20.6186 82.3216 20.6961C82.4686 20.7735 82.6034 20.8652 82.7253 20.9711L82.4556 21.4185Z" fill="#FCC21D"/>
<path d="M88.0471 25.4185L88.4344 22.0786L86.6947 24.481L86.3555 24.4419L85.2053 21.7043L84.818 25.0442L84.2636 24.9799L84.7707 20.6048L85.356 20.6726L86.6105 23.697L88.5295 21.0404L89.109 21.1076L88.6019 25.4828L88.0471 25.4185Z" fill="#FCC21D"/>
<path d="M92.5667 21.7822L93.0273 21.8829L93.8446 26.5697L93.263 26.4427L93.0557 25.0766L91.205 24.6721L90.4446 25.827L89.8631 25.6997L92.5667 21.7822ZM92.9858 24.6169L92.6592 22.4628L91.4604 24.2836L92.9858 24.6169Z" fill="#FCC21D"/>
<path d="M95.0752 26.92L96.3895 22.7163L98.1896 23.2793C98.3751 23.3373 98.5329 23.4288 98.6627 23.554C98.7925 23.679 98.8947 23.8236 98.9688 23.9876C99.0433 24.1517 99.0869 24.3236 99.1003 24.5032C99.1132 24.6828 99.094 24.8555 99.0421 25.0214C98.9818 25.2146 98.888 25.3869 98.7607 25.5376C98.633 25.6886 98.4843 25.8043 98.3139 25.8854C98.1431 25.9664 97.9618 26.0028 97.7692 25.9946L98.2842 27.9234L97.68 27.7346L97.193 25.9249L96.0801 25.5768L95.6078 27.0866L95.0752 26.92ZM96.2283 25.1032L97.5012 25.5012C97.6473 25.5468 97.7872 25.5462 97.9212 25.4993C98.0547 25.4524 98.1732 25.3714 98.2767 25.2562C98.3797 25.1413 98.4555 25.0067 98.5036 24.8528C98.5526 24.695 98.5626 24.5388 98.5329 24.3843C98.5032 24.2298 98.4433 24.0954 98.3537 23.9804C98.2641 23.8657 98.1498 23.7868 98.012 23.7437L96.7743 23.3566L96.2283 25.1032Z" fill="#FCC21D"/>
<path d="M103.994 25.99L102.586 25.4164L101.111 29.0351L100.594 28.8245L102.069 25.2056L100.662 24.6317L100.849 24.1722L104.181 25.5305L103.994 25.99Z" fill="#FCC21D"/>
<path d="M115.054 31.7999L112.572 35.4383L112.111 35.1236L113.24 33.4684L111.237 32.1016L110.107 33.7567L109.646 33.4421L112.128 29.8037L112.589 30.1183L111.516 31.6916L113.52 33.0585L114.593 31.4852L115.054 31.7999Z" fill="#FCC21D"/>
<path d="M116.597 38.0196L116.282 38.4034L113.97 36.5081L116.762 33.1017L119.031 34.9618L118.716 35.3455L116.879 33.8394L115.974 34.9429L117.572 36.2523L117.277 36.6121L115.679 35.3026L114.716 36.4781L116.597 38.0196Z" fill="#FCC21D"/>
<path d="M117.372 39.3905L120.425 36.2154L120.827 36.6023L118.119 39.4198L119.89 41.1221L119.546 41.4799L117.372 39.3905Z" fill="#FCC21D"/>
<path d="M120.447 42.441L123.737 39.513L124.108 39.93L121.189 42.5281L122.822 44.3631L122.451 44.6931L120.447 42.441Z" fill="#FCC21D"/>
<path d="M124.237 47.0427C124.051 46.7944 123.932 46.5321 123.88 46.2557C123.828 45.9796 123.832 45.7038 123.892 45.429C123.952 45.1539 124.059 44.8968 124.213 44.6575C124.367 44.418 124.557 44.2141 124.782 44.0455C125.017 43.8695 125.273 43.7436 125.549 43.6683C125.826 43.5927 126.105 43.5676 126.384 43.5931C126.664 43.6184 126.929 43.6955 127.178 43.8242C127.427 43.953 127.641 44.1366 127.819 44.3748C128.005 44.6231 128.122 44.8867 128.171 45.1654C128.219 45.4442 128.212 45.7208 128.149 45.9955C128.086 46.2699 127.978 46.5264 127.826 46.7644C127.674 47.0025 127.487 47.2047 127.265 47.3707C127.03 47.5468 126.775 47.6733 126.499 47.7505C126.224 47.8278 125.946 47.8537 125.666 47.8282C125.386 47.8028 125.122 47.7252 124.875 47.5952C124.628 47.4652 124.415 47.2809 124.237 47.0427ZM125.12 44.4973C124.941 44.6311 124.79 44.7898 124.666 44.9728C124.543 45.156 124.456 45.3488 124.406 45.5514C124.357 45.7541 124.349 45.9584 124.385 46.1642C124.42 46.3702 124.506 46.5643 124.643 46.7464C124.784 46.9351 124.95 47.0741 125.141 47.1635C125.332 47.2529 125.533 47.3002 125.743 47.3054C125.954 47.3104 126.162 47.2784 126.368 47.2089C126.575 47.1396 126.762 47.0416 126.932 46.9152C127.11 46.7814 127.261 46.6235 127.383 46.4416C127.505 46.2597 127.591 46.066 127.641 45.8604C127.691 45.6551 127.698 45.4507 127.663 45.2477C127.627 45.0446 127.542 44.8536 127.408 44.6749C127.267 44.4862 127.101 44.3466 126.912 44.2559C126.723 44.1653 126.523 44.1173 126.312 44.1121C126.102 44.1071 125.894 44.1379 125.688 44.2042C125.482 44.2706 125.292 44.3684 125.12 44.4973Z" fill="#FCC21D"/>
<path d="M131.839 52.4353C131.866 52.3635 131.882 52.2785 131.888 52.1801C131.894 52.0817 131.891 51.9766 131.878 51.8652C131.865 51.7538 131.841 51.6385 131.805 51.5189C131.768 51.3994 131.717 51.2819 131.653 51.1666C131.486 50.871 131.308 50.6844 131.117 50.6063C130.927 50.5285 130.735 50.5442 130.541 50.6532C130.404 50.7301 130.316 50.8268 130.278 50.9434C130.239 51.0598 130.237 51.2072 130.271 51.3849C130.305 51.5629 130.36 51.7823 130.436 52.0434C130.528 52.3423 130.588 52.6126 130.615 52.8536C130.641 53.0947 130.615 53.3064 130.536 53.4887C130.456 53.6711 130.301 53.8271 130.072 53.9562C129.888 54.0594 129.709 54.1137 129.535 54.1193C129.361 54.1248 129.194 54.0892 129.035 54.0126C128.876 53.9359 128.728 53.8246 128.592 53.6784C128.455 53.5321 128.331 53.36 128.22 53.1617C128.11 52.967 128.024 52.7652 127.961 52.5563C127.898 52.3473 127.859 52.1378 127.846 51.9274C127.831 51.717 127.844 51.5061 127.881 51.2951L128.423 51.2964C128.394 51.3885 128.376 51.4973 128.368 51.6228C128.36 51.7482 128.364 51.8834 128.38 52.0291C128.395 52.1746 128.426 52.3243 128.472 52.4786C128.519 52.6329 128.583 52.782 128.664 52.9262C128.818 53.2 128.987 53.3851 129.17 53.481C129.354 53.5769 129.541 53.5714 129.732 53.4645C129.875 53.3836 129.966 53.2765 130.005 53.1433C130.043 53.0099 130.045 52.8443 130.009 52.6463C129.974 52.448 129.917 52.2138 129.841 51.9435C129.76 51.6477 129.708 51.3895 129.686 51.1695C129.664 50.9495 129.691 50.76 129.767 50.6009C129.843 50.4418 129.982 50.3057 130.183 50.1924C130.428 50.0549 130.668 49.9981 130.904 50.022C131.14 50.0459 131.36 50.1382 131.563 50.2986C131.767 50.4592 131.943 50.671 132.091 50.9342C132.189 51.1071 132.261 51.2786 132.309 51.4484C132.357 51.6184 132.385 51.7865 132.394 51.9527C132.402 52.1189 132.391 52.2814 132.362 52.4403L131.839 52.4353Z" fill="#FCC21D"/>
<path d="M131.234 59.294L134.309 57.9344L131.357 57.6526L131.219 57.3407L132.995 54.9616L129.92 56.3209L129.694 55.8103L133.723 54.0295L133.961 54.5686L131.99 57.1828L135.253 57.4904L135.488 58.0238L131.46 59.8046L131.234 59.294Z" fill="#FCC21D"/>
<path d="M136.655 61.3371L136.801 61.7851L133.175 64.8645L132.99 64.2986L134.062 63.4277L133.473 61.6273L132.092 61.5571L131.907 60.9912L136.655 61.3371ZM134.423 63.1348L136.115 61.7617L133.938 61.6509L134.423 63.1348Z" fill="#FCC21D"/>
<path d="M133.499 66.1152L137.789 65.1197L138.215 66.9566C138.259 67.1459 138.261 67.3282 138.218 67.5037C138.176 67.6789 138.103 67.8403 137.999 67.9875C137.896 68.1347 137.77 68.2594 137.621 68.3618C137.474 68.464 137.315 68.535 137.145 68.5741C136.948 68.6199 136.752 68.6262 136.557 68.5927C136.363 68.5592 136.188 68.4897 136.031 68.3838C135.875 68.2777 135.752 68.1397 135.661 67.9697L134.259 69.3904L134.116 68.774L135.43 67.4375L135.166 66.3015L133.625 66.6591L133.499 66.1152ZM135.65 66.1893L135.951 67.4886C135.985 67.6374 136.057 67.7578 136.165 67.8495C136.274 67.9412 136.403 68.0023 136.555 68.0329C136.706 68.0637 136.861 68.0608 137.018 68.0243C137.179 67.9869 137.319 67.9163 137.437 67.8125C137.555 67.7086 137.641 67.5889 137.694 67.4534C137.747 67.3178 137.758 67.1796 137.725 67.0387L137.432 65.7756L135.65 66.1893Z" fill="#FCC21D"/>
<path d="M138.818 73.3181L138.599 71.8141L134.732 72.3771L134.651 71.8246L138.519 71.2616L138.3 69.7578L138.791 69.6862L139.309 73.2467L138.818 73.3181Z" fill="#FCC21D"/>
<path d="M139.436 85.7987L135.04 85.5148L135.076 84.9577L137.076 85.0869L137.232 82.6663L135.233 82.5373L135.269 81.98L139.664 82.2639L139.628 82.821L137.727 82.6983L137.571 85.1189L139.472 85.2416L139.436 85.7987Z" fill="#FCC21D"/>
<path d="M134.868 90.2889L134.378 90.2136L134.832 87.2581L139.185 87.9268L138.74 90.827L138.249 90.7516L138.61 88.4033L137.2 88.1868L136.886 90.2284L136.426 90.1579L136.74 88.116L135.238 87.8853L134.868 90.2889Z" fill="#FCC21D"/>
<path d="M134.083 91.6567L138.369 92.6708L138.24 93.2141L134.437 92.3142L133.872 94.7047L133.389 94.5904L134.083 91.6567Z" fill="#FCC21D"/>
<path d="M133.019 95.8515L137.212 97.2002L137.041 97.7317L133.32 96.5349L132.568 98.8734L132.096 98.7214L133.019 95.8515Z" fill="#FCC21D"/>
<path d="M130.975 101.454C131.094 101.167 131.26 100.932 131.472 100.747C131.684 100.563 131.924 100.426 132.191 100.339C132.459 100.252 132.735 100.214 133.019 100.225C133.304 100.237 133.575 100.297 133.835 100.405C134.105 100.519 134.344 100.676 134.549 100.876C134.754 101.076 134.917 101.304 135.037 101.558C135.157 101.812 135.224 102.079 135.239 102.359C135.254 102.639 135.204 102.916 135.089 103.191C134.969 103.477 134.802 103.711 134.586 103.895C134.37 104.078 134.128 104.212 133.859 104.297C133.591 104.381 133.315 104.418 133.033 104.407C132.75 104.397 132.481 104.338 132.225 104.231C131.955 104.117 131.716 103.961 131.51 103.763C131.304 103.565 131.141 103.338 131.021 103.084C130.901 102.83 130.835 102.563 130.821 102.284C130.808 102.005 130.86 101.728 130.975 101.454ZM133.617 100.926C133.411 100.84 133.197 100.79 132.977 100.776C132.756 100.762 132.546 100.785 132.346 100.844C132.146 100.904 131.967 101.001 131.807 101.136C131.647 101.271 131.524 101.444 131.436 101.653C131.344 101.871 131.309 102.085 131.329 102.295C131.348 102.505 131.409 102.702 131.511 102.886C131.613 103.07 131.747 103.233 131.911 103.376C132.076 103.519 132.255 103.631 132.449 103.713C132.655 103.799 132.868 103.848 133.086 103.862C133.305 103.875 133.516 103.851 133.719 103.79C133.921 103.729 134.101 103.632 134.258 103.498C134.414 103.364 134.536 103.194 134.623 102.988C134.713 102.771 134.75 102.558 134.733 102.349C134.715 102.139 134.655 101.943 134.553 101.759C134.45 101.575 134.319 101.411 134.157 101.267C133.995 101.123 133.815 101.009 133.617 100.926Z" fill="#FCC21D"/>
<path d="M130.17 110.744C130.245 110.73 130.327 110.701 130.414 110.657C130.502 110.612 130.592 110.556 130.681 110.489C130.771 110.421 130.858 110.342 130.942 110.25C131.027 110.158 131.103 110.055 131.169 109.941C131.34 109.648 131.411 109.399 131.382 109.195C131.353 108.992 131.242 108.834 131.05 108.722C130.914 108.643 130.787 108.616 130.667 108.642C130.547 108.668 130.419 108.74 130.282 108.859C130.146 108.979 129.984 109.137 129.798 109.334C129.586 109.566 129.384 109.754 129.189 109.899C128.995 110.044 128.799 110.129 128.601 110.152C128.404 110.176 128.191 110.121 127.963 109.988C127.782 109.882 127.644 109.756 127.551 109.608C127.458 109.461 127.405 109.299 127.391 109.123C127.376 108.947 127.397 108.763 127.454 108.571C127.512 108.38 127.597 108.186 127.712 107.989C127.824 107.796 127.955 107.62 128.103 107.459C128.251 107.3 128.413 107.16 128.587 107.042C128.761 106.923 128.949 106.827 129.15 106.753L129.423 107.221C129.33 107.242 129.226 107.282 129.114 107.338C129.002 107.395 128.887 107.467 128.77 107.554C128.652 107.641 128.538 107.743 128.429 107.861C128.319 107.979 128.223 108.11 128.14 108.253C127.981 108.524 127.907 108.764 127.917 108.971C127.928 109.178 128.027 109.336 128.215 109.446C128.358 109.529 128.496 109.553 128.631 109.52C128.765 109.485 128.909 109.403 129.062 109.272C129.214 109.141 129.388 108.974 129.583 108.771C129.797 108.551 129.993 108.376 130.172 108.246C130.35 108.115 130.528 108.043 130.703 108.028C130.879 108.013 131.067 108.064 131.267 108.18C131.509 108.322 131.679 108.5 131.778 108.715C131.877 108.931 131.908 109.167 131.873 109.424C131.838 109.681 131.744 109.94 131.592 110.201C131.492 110.373 131.381 110.522 131.259 110.65C131.136 110.777 131.006 110.886 130.866 110.977C130.727 111.069 130.582 111.142 130.43 111.197L130.17 110.744Z" fill="#FCC21D"/>
<path d="M123.955 113.684L126.685 115.647L125.433 112.958L125.632 112.681L128.583 113.007L125.853 111.044L126.179 110.591L129.755 113.163L129.411 113.641L126.158 113.266L127.546 116.235L127.205 116.708L123.63 114.137L123.955 113.684Z" fill="#FCC21D"/>
<path d="M124.937 119.399L124.625 119.753L120.132 118.191L120.526 117.744L121.82 118.226L123.073 116.805L122.433 115.58L122.827 115.133L124.937 119.399ZM122.256 118.389L124.298 119.15L123.288 117.218L122.256 118.389Z" fill="#FCC21D"/>
<path d="M119.226 119.099L122.266 122.286L120.9 123.588C120.76 123.722 120.604 123.815 120.431 123.868C120.259 123.921 120.083 123.94 119.903 123.926C119.724 123.911 119.552 123.866 119.389 123.791C119.225 123.715 119.084 123.614 118.964 123.489C118.824 123.342 118.719 123.176 118.649 122.992C118.578 122.808 118.549 122.621 118.561 122.433C118.573 122.244 118.629 122.068 118.729 121.904L116.793 121.419L117.251 120.982L119.07 121.434L119.914 120.629L118.822 119.484L119.226 119.099ZM120.256 120.988L119.291 121.908C119.18 122.014 119.113 122.137 119.089 122.276C119.065 122.416 119.079 122.559 119.129 122.705C119.18 122.851 119.261 122.983 119.372 123.099C119.487 123.219 119.618 123.303 119.768 123.352C119.917 123.401 120.064 123.414 120.208 123.391C120.352 123.368 120.476 123.307 120.581 123.207L121.519 122.312L120.256 120.988Z" fill="#FCC21D"/>
<path d="M115.729 127.346L116.912 126.392L114.458 123.35L114.893 123L117.346 126.041L118.529 125.087L118.841 125.474L116.041 127.732L115.729 127.346Z" fill="#FCC21D"/>
<path d="M105.307 134.219L103.32 130.288L103.818 130.036L104.722 131.824L106.887 130.73L105.983 128.942L106.481 128.69L108.468 132.621L107.97 132.873L107.111 131.173L104.946 132.267L105.805 133.967L105.307 134.219Z" fill="#FCC21D"/>
<path d="M99.122 132.56L98.9382 132.099L101.716 130.992L103.347 135.083L100.621 136.17L100.438 135.709L102.645 134.829L102.116 133.503L100.197 134.269L100.025 133.836L101.944 133.071L101.381 131.659L99.122 132.56Z" fill="#FCC21D"/>
<path d="M97.541 132.577L98.839 136.786L98.3055 136.95L97.1537 133.216L94.8064 133.94L94.6598 133.466L97.541 132.577Z" fill="#FCC21D"/>
<path d="M93.3794 133.788L94.3416 138.086L93.7969 138.208L92.9431 134.394L90.546 134.931L90.4375 134.447L93.3794 133.788Z" fill="#FCC21D"/>
<path d="M87.5153 134.865C87.8227 134.823 88.1099 134.847 88.3766 134.936C88.6433 135.025 88.882 135.162 89.093 135.349C89.3041 135.535 89.4766 135.754 89.611 136.004C89.7454 136.255 89.8312 136.52 89.8693 136.799C89.9087 137.09 89.8945 137.374 89.8258 137.653C89.7571 137.931 89.6437 138.187 89.4854 138.419C89.3271 138.651 89.1311 138.845 88.8975 139C88.6643 139.155 88.3997 139.252 88.1049 139.292C87.7976 139.334 87.5103 139.308 87.2428 139.215C86.9756 139.122 86.7374 138.982 86.528 138.793C86.3187 138.604 86.147 138.386 86.013 138.137C85.879 137.888 85.7936 137.626 85.7563 137.352C85.7166 137.061 85.7304 136.776 85.7965 136.498C85.8631 136.22 85.9757 135.964 86.134 135.732C86.2923 135.5 86.4882 135.307 86.7223 135.154C86.9559 135.002 87.2206 134.905 87.5153 134.865ZM89.3099 136.875C89.2798 136.654 89.2149 136.444 89.1152 136.247C89.0152 136.05 88.8887 135.88 88.7359 135.738C88.5831 135.596 88.408 135.491 88.2108 135.421C88.0136 135.352 87.8026 135.333 87.5769 135.364C87.3433 135.396 87.141 135.473 86.9702 135.596C86.7989 135.72 86.6599 135.872 86.5531 136.054C86.4464 136.235 86.3731 136.433 86.3333 136.647C86.2935 136.861 86.2881 137.073 86.3166 137.282C86.3463 137.503 86.4112 137.711 86.5108 137.906C86.6105 138.101 86.7378 138.271 86.8931 138.415C87.0481 138.558 87.2235 138.664 87.4182 138.731C87.6129 138.799 87.821 138.818 88.0425 138.788C88.2761 138.756 88.4784 138.679 88.6496 138.558C88.8209 138.436 88.9599 138.285 89.0671 138.104C89.1739 137.922 89.248 137.725 89.2903 137.513C89.3326 137.301 89.3388 137.088 89.3099 136.875Z" fill="#FCC21D"/>
<path d="M79.1436 138.902C79.1943 138.959 79.2613 139.013 79.345 139.066C79.4287 139.118 79.5225 139.165 79.6264 139.207C79.7306 139.249 79.8437 139.282 79.9664 139.307C80.0886 139.332 80.2159 139.343 80.3482 139.341C80.6874 139.336 80.9365 139.268 81.0956 139.137C81.2548 139.007 81.3326 138.83 81.3293 138.608C81.3264 138.451 81.2832 138.328 81.1991 138.239C81.1149 138.149 80.9864 138.077 80.8139 138.022C80.6413 137.967 80.4224 137.911 80.1569 137.854C79.8496 137.793 79.5837 137.716 79.3588 137.625C79.134 137.534 78.9606 137.41 78.8379 137.254C78.7153 137.097 78.652 136.887 78.6479 136.623C78.6445 136.412 78.6818 136.229 78.7597 136.073C78.8379 135.918 78.9485 135.788 79.0917 135.685C79.2349 135.581 79.4032 135.504 79.5967 135.454C79.7901 135.403 80.0007 135.376 80.2281 135.372C80.4512 135.369 80.6698 135.389 80.8838 135.433C81.0973 135.477 81.3 135.543 81.4917 135.631C81.6835 135.719 81.8631 135.83 82.0306 135.963L81.7719 136.439C81.7045 136.37 81.6174 136.302 81.511 136.236C81.4042 136.169 81.2832 136.108 81.148 136.052C81.0127 135.997 80.8662 135.952 80.7083 135.92C80.5509 135.887 80.3893 135.872 80.2239 135.875C79.9099 135.88 79.6666 135.94 79.4949 136.057C79.3228 136.173 79.2387 136.34 79.2424 136.558C79.2449 136.723 79.2956 136.854 79.3944 136.951C79.4932 137.049 79.6385 137.129 79.8295 137.192C80.0208 137.254 80.2536 137.317 80.5275 137.378C80.8264 137.448 81.0781 137.525 81.282 137.61C81.4859 137.696 81.64 137.81 81.7434 137.953C81.8472 138.095 81.9008 138.282 81.9046 138.513C81.9092 138.793 81.8447 139.031 81.7116 139.228C81.578 139.424 81.3925 139.573 81.1543 139.676C80.916 139.779 80.6459 139.833 80.3441 139.837C80.1456 139.841 79.9601 139.823 79.788 139.784C79.6155 139.746 79.4543 139.691 79.3044 139.619C79.1541 139.547 79.0163 139.46 78.8907 139.359L79.1436 138.902Z" fill="#FCC21D"/>
<path d="M73.4056 135.038L73.107 138.386L74.7827 135.939L75.1223 135.969L76.3445 138.675L76.6435 135.326L77.1995 135.376L76.808 139.763L76.221 139.711L74.8874 136.72L73.0388 139.427L72.458 139.375L72.8495 134.988L73.4056 135.038Z" fill="#FCC21D"/>
<path d="M68.9815 138.792L68.5184 138.704L67.5767 134.04L68.1616 134.152L68.4053 135.512L70.2661 135.867L70.9951 134.692L71.58 134.804L68.9815 138.792ZM68.487 135.969L68.8709 138.114L70.0207 136.262L68.487 135.969Z" fill="#FCC21D"/>
<path d="M66.3419 133.724L65.1406 137.961L63.3263 137.447C63.1392 137.394 62.9792 137.306 62.8461 137.185C62.7129 137.063 62.607 136.921 62.5283 136.759C62.4496 136.597 62.401 136.427 62.383 136.248C62.3654 136.068 62.3801 135.895 62.4274 135.728C62.4826 135.533 62.5718 135.359 62.6949 135.204C62.8185 135.05 62.9642 134.93 63.1325 134.845C63.3008 134.759 63.4809 134.718 63.6735 134.721L63.1074 132.807L63.7162 132.979L64.2513 134.775L65.3734 135.093L65.8051 133.572L66.3419 133.724ZM65.2382 135.571L63.9548 135.207C63.8079 135.165 63.668 135.17 63.5353 135.22C63.403 135.271 63.2866 135.355 63.1865 135.473C63.0864 135.59 63.0144 135.727 62.9704 135.882C62.9252 136.041 62.9194 136.198 62.9533 136.351C62.9872 136.505 63.0504 136.638 63.1434 136.75C63.2363 136.862 63.3523 136.938 63.4913 136.978L64.7387 137.331L65.2382 135.571Z" fill="#FCC21D"/>
<path d="M57.4598 134.896L58.8821 135.431L60.2597 131.774L60.7823 131.971L59.4047 135.628L60.8266 136.164L60.652 136.628L57.2848 135.36L57.4598 134.896Z" fill="#FCC21D"/>
<path d="M46.2303 129.371L48.6157 125.669L49.0851 125.971L47.9998 127.655L50.0389 128.969L51.1242 127.285L51.5932 127.587L49.2078 131.29L48.7384 130.987L49.7701 129.386L47.731 128.072L46.6997 129.673L46.2303 129.371Z" fill="#FCC21D"/>
<path d="M44.5371 123.205L44.8415 122.813L47.2034 124.646L44.5027 128.125L42.1852 126.326L42.4891 125.934L44.3662 127.391L45.2409 126.264L43.6092 124.997L43.8943 124.63L45.5261 125.896L46.4581 124.696L44.5371 123.205Z" fill="#FCC21D"/>
<path d="M43.7239 121.854L40.7569 125.109L40.3441 124.733L42.9774 121.844L41.1618 120.19L41.496 119.823L43.7239 121.854Z" fill="#FCC21D"/>
<path d="M40.5706 118.886L37.3591 121.9L36.9772 121.493L39.8266 118.818L38.1454 117.027L38.5076 116.688L40.5706 118.886Z" fill="#FCC21D"/>
<path d="M36.6611 114.388C36.8537 114.631 36.9793 114.89 37.0388 115.165C37.0978 115.44 37.1012 115.715 37.0484 115.992C36.9956 116.268 36.8951 116.528 36.7478 116.771C36.6 117.015 36.4161 117.224 36.1955 117.398C35.9652 117.58 35.7127 117.713 35.438 117.796C35.1638 117.879 34.8862 117.911 34.6056 117.893C34.3251 117.875 34.0588 117.805 33.8063 117.683C33.5542 117.561 33.3357 117.383 33.151 117.15C32.9584 116.906 32.8341 116.646 32.7784 116.369C32.7223 116.091 32.7223 115.814 32.778 115.538C32.8336 115.262 32.9346 115.003 33.0803 114.761C33.2264 114.519 33.4081 114.312 33.625 114.14C33.8553 113.958 34.1074 113.825 34.3804 113.74C34.6538 113.656 34.931 113.622 35.2115 113.64C35.492 113.658 35.7575 113.729 36.0079 113.852C36.2587 113.976 36.4764 114.154 36.6611 114.388ZM35.8454 116.956C36.0205 116.817 36.1674 116.655 36.2863 116.468C36.4053 116.282 36.4869 116.087 36.5309 115.883C36.5753 115.679 36.5773 115.475 36.5363 115.27C36.4953 115.065 36.4044 114.873 36.2633 114.695C36.1168 114.51 35.9472 114.375 35.7537 114.291C35.5603 114.207 35.3585 114.165 35.1479 114.165C34.9377 114.166 34.73 114.203 34.5252 114.278C34.3209 114.353 34.1358 114.456 33.9704 114.587C33.7954 114.725 33.6493 114.887 33.5321 115.072C33.4148 115.257 33.334 115.453 33.2892 115.66C33.2444 115.867 33.2427 116.071 33.2838 116.273C33.3252 116.475 33.4152 116.664 33.5538 116.839C33.7 117.024 33.8691 117.159 34.0605 117.245C34.2522 117.33 34.4536 117.373 34.6638 117.372C34.8744 117.372 35.0817 117.335 35.286 117.264C35.4904 117.192 35.6767 117.089 35.8454 116.956Z" fill="#FCC21D"/>
<path d="M28.9212 109.206C28.8969 109.278 28.8831 109.364 28.8793 109.462C28.876 109.561 28.8818 109.666 28.8978 109.777C28.9137 109.888 28.9413 110.003 28.9807 110.121C29.0204 110.24 29.074 110.356 29.1423 110.469C29.316 110.76 29.4994 110.942 29.692 111.015C29.8847 111.088 30.0764 111.067 30.2674 110.953C30.4018 110.872 30.4868 110.773 30.5219 110.656C30.5575 110.538 30.5559 110.391 30.5173 110.214C30.4788 110.037 30.4177 109.819 30.3348 109.56C30.2347 109.264 30.1677 108.995 30.1342 108.755C30.1011 108.515 30.1216 108.302 30.1962 108.118C30.2707 107.933 30.4214 107.774 30.6475 107.638C30.828 107.53 31.0055 107.471 31.1797 107.461C31.3535 107.451 31.521 107.482 31.6822 107.554C31.8434 107.627 31.9941 107.734 32.1344 107.876C32.2747 108.019 32.4036 108.188 32.5204 108.383C32.6348 108.575 32.7265 108.774 32.7951 108.981C32.8638 109.188 32.9078 109.397 32.9274 109.607C32.9471 109.817 32.9408 110.028 32.9086 110.24L32.3668 110.253C32.3932 110.16 32.4087 110.051 32.4133 109.925C32.4174 109.8 32.4099 109.664 32.3906 109.519C32.3714 109.374 32.3366 109.225 32.286 109.072C32.2353 108.92 32.1675 108.772 32.0829 108.63C31.9213 108.361 31.7475 108.18 31.5612 108.089C31.3749 107.998 31.1881 108.009 31.0009 108.121C30.8594 108.205 30.7711 108.315 30.7363 108.449C30.7011 108.583 30.7041 108.749 30.7451 108.946C30.7861 109.143 30.8485 109.376 30.9319 109.644C31.021 109.938 31.0797 110.194 31.1077 110.413C31.1358 110.633 31.114 110.823 31.042 110.984C30.97 111.145 30.8351 111.285 30.6367 111.404C30.3963 111.548 30.1577 111.611 29.9215 111.593C29.6849 111.576 29.4626 111.489 29.2545 111.334C29.0464 111.18 28.8651 110.972 28.7097 110.713C28.608 110.543 28.5305 110.374 28.4782 110.205C28.4254 110.037 28.3928 109.869 28.3802 109.703C28.3677 109.537 28.3739 109.375 28.3991 109.215L28.9212 109.206Z" fill="#FCC21D"/>
<path d="M29.3378 102.323L26.3001 103.764L29.2591 103.967L29.4052 104.275L27.6931 106.701L30.7309 105.26L30.97 105.764L26.9905 107.652L26.738 107.12L28.6386 104.454L25.3688 104.233L25.1189 103.706L29.0983 101.819L29.3378 102.323Z" fill="#FCC21D"/>
<path d="M23.8615 100.419L23.7032 99.9746L27.2464 96.7995L27.4465 97.3603L26.3972 98.2593L27.0341 100.044L28.4162 100.077L28.6164 100.638L23.8615 100.419ZM26.0442 98.5618L24.3899 99.9796L26.5693 100.032L26.0442 98.5618Z" fill="#FCC21D"/>
<path d="M26.8921 95.572L22.6305 96.6827L22.1548 94.8579C22.1058 94.6699 22.1 94.4876 22.1372 94.3111C22.1745 94.1348 22.2432 93.9715 22.3428 93.8216C22.4429 93.6717 22.5656 93.5436 22.7109 93.4372C22.8562 93.3311 23.0128 93.2559 23.1811 93.2122C23.377 93.1611 23.573 93.1496 23.7681 93.1776C23.9636 93.2059 24.1408 93.2708 24.2999 93.3725C24.459 93.4743 24.5859 93.6089 24.6805 93.7764L26.0442 92.3184L26.2038 92.9308L24.9267 94.3021L25.2206 95.4307L26.7514 95.0317L26.8921 95.572ZM24.7404 95.5559L24.4041 94.2652C24.3656 94.1172 24.2911 93.9989 24.1801 93.9102C24.0696 93.8214 23.9381 93.7638 23.7857 93.7372C23.6337 93.7106 23.4796 93.7178 23.3234 93.7584C23.1635 93.8 23.0257 93.8744 22.9102 93.9813C22.795 94.0883 22.7125 94.2104 22.6627 94.3473C22.6129 94.4842 22.6062 94.6228 22.6426 94.7627L22.9696 96.0173L24.7404 95.5559Z" fill="#FCC21D"/>
<path d="M21.3781 88.4883L21.6364 89.9858L25.4878 89.3213L25.5828 89.8715L21.7315 90.536L21.9898 92.0337L21.5012 92.1181L20.889 88.5726L21.3781 88.4883Z" fill="#FCC21D"/>
<path d="M20.4347 76.0582L24.8358 76.2254L24.8149 76.7834L22.8126 76.7074L22.7205 79.1311L24.7224 79.2071L24.7014 79.765L20.3003 79.5977L20.3213 79.0398L22.2243 79.1123L22.3164 76.6885L20.4134 76.6161L20.4347 76.0582Z" fill="#FCC21D"/>
<path d="M24.8802 71.4452L25.3726 71.5074L24.9979 74.4738L20.6282 73.9219L20.9958 71.0108L21.4882 71.073L21.1905 73.4301L22.6062 73.6089L22.8649 71.5595L23.3264 71.6177L23.0676 73.6673L24.5754 73.8576L24.8802 71.4452Z" fill="#FCC21D"/>
<path d="M25.6289 70.0601L21.317 69.162L21.4309 68.6153L25.2566 69.4124L25.7578 67.0075L26.2435 67.1086L25.6289 70.0601Z" fill="#FCC21D"/>
<path d="M26.5827 65.824L22.3554 64.5878L22.5124 64.0518L26.2632 65.1488L26.9528 62.7911L27.4289 62.9303L26.5827 65.824Z" fill="#FCC21D"/>
<path d="M28.474 60.177C28.3618 60.4662 28.2023 60.7061 27.9954 60.8964C27.7886 61.0867 27.5524 61.2293 27.2874 61.3237C27.0223 61.4183 26.7477 61.4637 26.4629 61.4598C26.1782 61.456 25.9048 61.4032 25.6427 61.3015C25.3688 61.1954 25.1268 61.045 24.9162 60.8503C24.7056 60.6554 24.5369 60.4327 24.4104 60.1816C24.2835 59.9308 24.209 59.6658 24.1864 59.3863C24.1638 59.107 24.2061 58.8286 24.3141 58.551C24.4259 58.2616 24.5875 58.0228 24.7981 57.8339C25.0088 57.6451 25.2474 57.5046 25.5137 57.4127C25.78 57.3208 26.0543 57.2764 26.3369 57.2793C26.62 57.2825 26.8904 57.3342 27.1488 57.4343C27.4222 57.5406 27.6651 57.6901 27.8761 57.8827C28.0875 58.0757 28.2567 58.2977 28.3832 58.5485C28.51 58.7995 28.5837 59.0641 28.6042 59.3428C28.6252 59.6212 28.5816 59.8994 28.474 60.177ZM25.8466 60.7752C26.0551 60.856 26.2695 60.9004 26.4906 60.9083C26.7112 60.9165 26.921 60.8878 27.1191 60.8227C27.3171 60.7576 27.4942 60.6554 27.6504 60.5164C27.8062 60.3772 27.9255 60.2017 28.0076 59.9895C28.093 59.7698 28.1227 59.5553 28.0976 59.3457C28.0721 59.1363 28.0059 58.941 27.8987 58.7597C27.7919 58.5786 27.6542 58.4187 27.4859 58.2803C27.3179 58.1421 27.1354 58.0347 26.9386 57.9585C26.7305 57.8777 26.517 57.8339 26.298 57.8264C26.079 57.8193 25.8692 57.8488 25.6682 57.915C25.4672 57.9813 25.2901 58.0835 25.1369 58.2212C24.9836 58.3594 24.8668 58.5323 24.786 58.7407C24.7006 58.9605 24.67 59.1746 24.693 59.3832C24.7165 59.5919 24.7818 59.7868 24.889 59.9681C24.9962 60.1494 25.1323 60.3098 25.2977 60.4492C25.4631 60.5888 25.6465 60.6975 25.8466 60.7752Z" fill="#FCC21D"/>
<path d="M29.0259 50.8749C28.9513 50.8906 28.8705 50.922 28.7834 50.9687C28.6968 51.0154 28.6093 51.0736 28.5213 51.1435C28.4338 51.2133 28.3488 51.2953 28.2668 51.3893C28.1847 51.4835 28.1114 51.5884 28.0482 51.7046C27.8853 52.0021 27.8212 52.2521 27.8556 52.4549C27.8903 52.6578 28.0051 52.8127 28.2006 52.9197C28.3379 52.9949 28.4661 53.0181 28.5854 52.989C28.7047 52.9601 28.8312 52.8843 28.9639 52.7614C29.0971 52.6388 29.2541 52.4761 29.4358 52.2734C29.6405 52.0369 29.8382 51.8434 30.0287 51.6929C30.2192 51.5426 30.4127 51.4532 30.6094 51.4241C30.8062 51.3952 31.0202 51.444 31.2517 51.5706C31.4364 51.6717 31.5771 51.7946 31.6738 51.9397C31.7705 52.0848 31.8287 52.245 31.8476 52.4204C31.8668 52.5961 31.8505 52.7803 31.7986 52.9735C31.7467 53.1668 31.6663 53.3631 31.557 53.5626C31.4498 53.7584 31.3242 53.9384 31.1801 54.1024C31.0361 54.2665 30.8783 54.4099 30.7074 54.533C30.5362 54.6563 30.3507 54.7576 30.1518 54.837L29.8662 54.3766C29.96 54.3525 30.0618 54.3105 30.1723 54.2506C30.2829 54.1909 30.3959 54.1162 30.511 54.026C30.6266 53.9359 30.7372 53.8304 30.8435 53.7094C30.9499 53.5886 31.0428 53.4555 31.1224 53.3104C31.2731 53.0349 31.3409 52.7935 31.325 52.5868C31.3091 52.3802 31.2057 52.2244 31.0143 52.1196C30.8695 52.0404 30.7305 52.0197 30.5969 52.0574C30.4637 52.0951 30.3222 52.1815 30.1727 52.3166C30.0237 52.4518 29.8545 52.6233 29.6657 52.8309C29.4576 53.0564 29.2658 53.2367 29.0908 53.3719C28.9158 53.507 28.7403 53.5844 28.5649 53.6039C28.3899 53.6234 28.201 53.5777 27.9984 53.4668C27.7526 53.3321 27.5771 53.1584 27.4729 52.9455C27.3682 52.7328 27.3301 52.4974 27.3586 52.2393C27.387 51.9816 27.4737 51.7201 27.6186 51.4553C27.7141 51.2813 27.8212 51.1289 27.9397 50.9982C28.0587 50.8676 28.1864 50.7548 28.3233 50.6599C28.4598 50.5651 28.6034 50.488 28.7537 50.429L29.0259 50.8749Z" fill="#FCC21D"/>
<path d="M35.1634 47.7643L32.3823 45.8749L33.7062 48.5293L33.5145 48.8115L30.5554 48.5636L33.3365 50.4531L33.0229 50.9149L29.3797 48.4397L29.7109 47.9523L32.9722 48.2406L31.5063 45.3096L31.8342 44.8275L35.477 47.3025L35.1634 47.7643Z" fill="#FCC21D"/>
<path d="M34.0324 42.0738L34.3347 41.712L38.8681 43.1549L38.4863 43.612L37.1795 43.1639L35.9648 44.6179L36.6372 45.8259L36.2554 46.2829L34.0324 42.0738ZM36.7398 43.013L34.6789 42.3064L35.7387 44.2113L36.7398 43.013Z" fill="#FCC21D"/>
<path d="M39.7495 42.2229L36.6272 39.1167L37.957 37.7797C38.0943 37.642 38.248 37.5444 38.4193 37.4868C38.5901 37.4295 38.7655 37.4056 38.9452 37.4154C39.1252 37.4251 39.2977 37.4657 39.4631 37.5369C39.6285 37.608 39.773 37.705 39.8961 37.8274C40.0397 37.9702 40.149 38.1331 40.2239 38.3157C40.2993 38.4982 40.3332 38.6839 40.3265 38.8723C40.3194 39.0612 40.2683 39.2389 40.172 39.4058L42.1207 39.8394L41.6747 40.288L39.8446 39.8848L39.0218 40.7115L40.1435 41.8272L39.7495 42.2229ZM38.6701 40.3615L39.6105 39.416C39.7185 39.3076 39.7826 39.1832 39.8027 39.0428C39.8228 38.9023 39.8056 38.7597 39.7512 38.615C39.6968 38.4706 39.6122 38.3414 39.4979 38.2275C39.3806 38.1109 39.2466 38.0301 39.0959 37.9851C38.9452 37.9403 38.7982 37.9313 38.655 37.9579C38.5118 37.9847 38.3891 38.0492 38.2869 38.1517L37.3725 39.071L38.6701 40.3615Z" fill="#FCC21D"/>
<path d="M43.0444 33.8723L41.8866 34.8569L44.419 37.8337L43.994 38.1955L41.4616 35.2187L40.3039 36.2035L39.9823 35.8256L42.7228 33.4942L43.0444 33.8723Z" fill="#FCC21D"/>
</g>
<defs>
<filter id="filter0_d" x="0" y="0" width="160" height="160" filterUnits="userSpaceOnUse" color-interpolation-filters="sRGB">
<feFlood flood-opacity="0" result="BackgroundImageFix"/>
<feColorMatrix in="SourceAlpha" type="matrix" values="0 0 0 0 0 0 0 0 0 0 0 0 0 0 0 0 0 0 127 0"/>
<feOffset/>
<feGaussianBlur stdDeviation="0.5"/>
<feColorMatrix type="matrix" values="0 0 0 0 0 0 0 0 0 0 0 0 0 0 0 0 0 0 0.25 0"/>
<feBlend mode="normal" in2="BackgroundImageFix" result="effect1_dropShadow"/>
<feBlend mode="normal" in="SourceGraphic" in2="effect1_dropShadow" result="shape"/>
</filter>
</defs>
</svg>
