<svg width="327" height="327" viewBox="0 0 327 327" fill="none" xmlns="http://www.w3.org/2000/svg">
<g filter="url(#filter0_d)">
<path d="M215.698 202.995V198.42H239.39L237.104 202.995H229.499V221.449H224.845V202.995H215.698ZM201.108 198.42H213.772L211.525 202.995H203.48L202.257 204.216V221.449H197.683V201.851L201.108 198.42ZM173.077 216.796H189.126V212.261H173.077V216.796ZM168.425 211.104L171.816 207.686H189.126V202.995H170.711L168.504 198.42H190.276L193.701 201.851V218.058L190.276 221.449H171.888L168.425 217.985V211.104ZM133.409 198.42H143.779L147.249 201.851L150.72 198.42H161.09L164.481 201.851V221.449H159.907V204.137L158.842 203.113H151.824L149.576 205.321V221.449H145.001V205.321L142.761 203.113H135.65L134.591 204.137V221.449H130.018V201.851L133.409 198.42ZM199.98 135.533L204.14 131.318L204.183 131.273H231.286L231.177 131.491L228.375 137.11L228.333 137.193H205.858V142.559H226.897L231.193 146.847V155.521L231.148 155.564L226.941 159.722L226.896 159.766H204.282L204.237 159.722L199.982 155.459L199.938 155.416V135.577L199.98 135.533ZM199.98 101.811L204.14 97.5958L204.183 97.5508H231.286L231.177 97.7692L228.375 103.388L228.333 103.471H205.858V108.837H226.897L231.148 113.08L231.193 113.125V121.799L231.148 121.844L226.941 126.001L226.896 126.044H204.282L204.237 126.001L199.982 121.737L199.938 121.694V101.855L199.98 101.811ZM225.273 114.758H205.858V120.124H225.273V114.758ZM225.273 148.48H205.858V153.846H225.273V148.48ZM100.211 143.95L112.694 131.323H176.118V114.487H108.628L100.356 97.6518H180.642L192.954 109.988V135.822L180.642 148.16H117.047V165.285H231.173L239.566 182.121H112.958L100.211 169.349V143.95ZM120.318 216.875L121.422 215.718V213.293L120.395 212.221H104.11L100.719 208.791V201.851L104.103 198.42H126.035L123.754 202.995H106.476L105.373 204.137V206.583L106.398 207.647H122.571L125.995 211.079V218.058L122.571 221.449H100.719L103.005 216.875H120.318Z" fill="white"/>
<path d="M162.813 1.8004C75.8568 2.17955 5.42124 73.2315 5.8004 160.189C6.17956 247.145 77.2315 317.579 164.187 317.2C251.143 316.82 321.579 245.769 321.198 158.813C320.819 71.8551 249.767 1.42125 162.813 1.8004ZM164.196 318.998C76.2481 319.383 4.3859 248.144 4.00155 160.198C3.61719 72.2481 74.8561 0.384159 162.804 0.00154796C250.752 -0.382807 322.614 70.8578 322.998 158.806C323.381 246.752 252.142 318.614 164.196 318.998Z" fill="white"/>
<path d="M162.94 31.3429C92.2743 31.651 35.0331 89.3942 35.3413 160.06C35.6512 230.726 93.3927 287.965 164.059 287.657C234.726 287.349 291.965 229.607 291.657 158.942C291.349 88.2758 233.608 31.0347 162.94 31.3429ZM164.067 289.456C92.4076 289.769 33.8558 231.725 33.5425 160.069C33.2308 88.4091 91.2736 29.8574 162.933 29.544C234.591 29.2306 293.143 87.2751 293.456 158.935C293.77 230.591 235.725 289.143 164.067 289.456Z" fill="white"/>
<path d="M106.739 20.7676L112.353 32.9498L110.809 33.6616L108.255 28.1194L101.546 31.2113L104.1 36.7536L102.556 37.4654L96.9417 25.2831L98.4854 24.5713L100.913 29.8389L107.622 26.7469L105.194 21.4794L106.739 20.7676Z" fill="white"/>
<path d="M123.323 27.3847L123.826 28.81L115.239 31.842L110.773 19.1935L119.2 16.2182L119.703 17.6435L112.88 20.0524L114.327 24.1499L120.259 22.0555L120.731 23.3916L114.799 25.486L116.34 29.8507L123.323 27.3847Z" fill="white"/>
<path d="M126.007 28.1857L122.594 15.2135L124.238 14.781L127.266 26.2917L134.502 24.3879L134.886 25.8495L126.007 28.1857Z" fill="white"/>
<path d="M136.648 25.5177L134.29 12.313L135.963 12.0137L138.057 23.731L145.421 22.4152L145.687 23.9031L136.648 25.5177Z" fill="white"/>
<path d="M152.467 23.3278C151.526 23.411 150.656 23.299 149.857 22.9905C149.058 22.6819 148.352 22.2296 147.736 21.6332C147.12 21.0368 146.626 20.347 146.253 19.5646C145.88 18.7822 145.656 17.9643 145.58 17.1113C145.501 16.2207 145.585 15.3563 145.833 14.5186C146.082 13.6812 146.462 12.9204 146.977 12.2356C147.492 11.5517 148.115 10.9904 148.848 10.5525C149.58 10.1146 150.398 9.85505 151.301 9.77474C152.242 9.69147 153.113 9.81025 153.912 10.1311C154.712 10.4519 155.417 10.9143 156.027 11.5175C156.637 12.1211 157.128 12.8109 157.501 13.587C157.873 14.363 158.096 15.1716 158.171 16.0119C158.25 16.9029 158.169 17.7665 157.927 18.6038C157.685 19.4408 157.307 20.2016 156.793 20.8855C156.278 21.5698 155.654 22.1282 154.921 22.5598C154.188 22.9917 153.37 23.2475 152.467 23.3278ZM147.292 16.9592C147.352 17.6367 147.52 18.2826 147.796 18.8963C148.072 19.5105 148.433 20.0443 148.877 20.4979C149.322 20.9514 149.84 21.2976 150.43 21.536C151.02 21.7748 151.66 21.8632 152.35 21.8019C153.065 21.7381 153.692 21.5309 154.229 21.1797C154.768 20.8284 155.212 20.3842 155.563 19.8474C155.913 19.3106 156.164 18.7192 156.315 18.0734C156.466 17.4279 156.514 16.785 156.457 16.1451C156.397 15.4679 156.229 14.8254 155.954 14.2172C155.678 13.6098 155.315 13.0763 154.863 12.6165C154.411 12.1574 153.894 11.8112 153.31 11.5783C152.727 11.3459 152.097 11.2596 151.419 11.3197C150.704 11.3831 150.078 11.5876 149.539 11.9326C149.001 12.2775 148.556 12.7183 148.206 13.2551C147.855 13.7924 147.601 14.3808 147.443 15.0207C147.285 15.6607 147.235 16.3069 147.292 16.9592Z" fill="white"/>
<path d="M174.19 12.34C174.045 12.1583 173.851 11.9807 173.605 11.8074C173.359 11.6346 173.081 11.4756 172.772 11.3315C172.462 11.1874 172.123 11.0677 171.756 10.9714C171.387 10.8758 171.002 10.82 170.599 10.8048C169.567 10.7655 168.798 10.9312 168.292 11.3015C167.787 11.6718 167.521 12.1959 167.495 12.873C167.477 13.3498 167.589 13.7311 167.83 14.0164C168.071 14.3021 168.449 14.5431 168.965 14.7384C169.481 14.9341 170.138 15.1408 170.937 15.3597C171.86 15.596 172.656 15.8716 173.325 16.1856C173.993 16.5001 174.501 16.9059 174.848 17.4026C175.195 17.8996 175.353 18.5493 175.322 19.3524C175.298 19.9924 175.154 20.5431 174.89 21.0043C174.627 21.4654 174.27 21.8412 173.818 22.132C173.365 22.4228 172.84 22.6291 172.243 22.7508C171.647 22.8721 171.002 22.9199 170.309 22.8937C169.63 22.8679 168.968 22.7703 168.326 22.6008C167.684 22.4317 167.077 22.1975 166.509 21.8987C165.941 21.5998 165.413 21.2329 164.925 20.7984L165.792 19.3947C165.984 19.6162 166.238 19.8368 166.551 20.0566C166.864 20.2764 167.222 20.4827 167.624 20.6742C168.026 20.8661 168.465 21.0246 168.939 21.1497C169.413 21.2748 169.902 21.3466 170.406 21.3661C171.362 21.4024 172.111 21.2587 172.653 20.9341C173.195 20.6095 173.478 20.1158 173.503 19.4517C173.523 18.95 173.39 18.5425 173.106 18.2302C172.821 17.9178 172.393 17.6502 171.822 17.4275C171.25 17.2043 170.554 16.9769 169.73 16.7444C168.832 16.4841 168.081 16.2072 167.474 15.9138C166.868 15.6209 166.419 15.2485 166.127 14.7975C165.836 14.3465 165.703 13.7696 165.73 13.0666C165.762 12.2132 165.997 11.4993 166.435 10.9253C166.873 10.3513 167.462 9.92733 168.203 9.65385C168.945 9.38037 169.775 9.26075 170.694 9.29584C171.298 9.31866 171.859 9.4032 172.376 9.5486C172.894 9.69443 173.375 9.88929 173.819 10.1332C174.264 10.3766 174.669 10.6632 175.035 10.9921L174.19 12.34Z" fill="white"/>
<path d="M188.778 24.6956L190.193 14.5541L184.725 21.7457L183.697 21.6019L180.388 13.1858L178.973 23.3274L177.289 23.0923L179.143 9.80729L180.92 10.0554L184.526 19.3524L190.557 11.4L192.316 11.6456L190.462 24.9306L188.778 24.6956Z" fill="white"/>
<path d="M200.654 13.584L202.047 13.9323L204.112 28.2741L202.351 27.8345L201.844 23.6571L196.247 22.2588L193.828 25.705L192.069 25.2654L200.654 13.584ZM201.674 22.2516L200.875 15.6645L197.06 21.099L201.674 22.2516Z" fill="white"/>
<path d="M205.719 28.832L210.15 16.1717L215.571 18.0691C216.13 18.2648 216.6 18.5594 216.983 18.9538C217.365 19.3478 217.661 19.7983 217.871 20.3056C218.081 20.8124 218.196 21.3399 218.217 21.8881C218.239 22.4359 218.163 22.9596 217.988 23.4592C217.784 24.0417 217.48 24.5557 217.078 25.002C216.675 25.448 216.21 25.7857 215.682 26.0148C215.155 26.2439 214.599 26.336 214.014 26.2917L215.384 32.2152L213.565 31.5786L212.268 26.0203L208.915 24.8469L207.323 29.3938L205.719 28.832ZM209.415 23.4203L213.248 24.7624C213.688 24.9162 214.114 24.9285 214.527 24.7996C214.938 24.6702 215.308 24.4356 215.633 24.0958C215.959 23.7564 216.203 23.3548 216.365 22.8911C216.532 22.4156 216.577 21.9414 216.503 21.468C216.429 20.995 216.26 20.579 215.999 20.2206C215.737 19.8622 215.399 19.6102 214.983 19.4644L211.256 18.16L209.415 23.4203Z" fill="white"/>
<path d="M230.911 26.1332L226.691 24.2311L221.8 35.0819L220.25 34.3832L225.141 23.5324L220.921 21.6303L221.542 20.2523L231.532 24.7552L230.911 26.1332Z" fill="white"/>
<path d="M256.364 40.2399L248.582 51.166L247.197 50.1794L250.737 45.209L244.72 40.9234L241.18 45.8938L239.795 44.9072L247.577 33.9816L248.962 34.9682L245.597 39.6921L251.614 43.9777L254.979 39.2538L256.364 40.2399Z" fill="white"/>
<path d="M258.882 57.9235L257.896 59.0694L250.993 53.1302L259.741 42.962L266.515 48.79L265.53 49.9359L260.044 45.2166L257.21 48.5106L261.979 52.6137L261.055 53.6877L256.286 49.5847L253.268 53.0934L258.882 57.9235Z" fill="white"/>
<path d="M259.509 60.6354L269.051 51.2074L270.246 52.4167L261.78 60.7829L267.038 66.1046L265.962 67.1668L259.509 60.6354Z" fill="white"/>
<path d="M267.15 68.549L277.413 59.9109L278.508 61.2115L269.401 68.8765L274.219 74.6002L273.064 75.5736L267.15 68.549Z" fill="white"/>
<path d="M276.924 81.1209C276.381 80.3478 276.043 79.538 275.911 78.6922C275.778 77.8464 275.816 77.0078 276.026 76.1763C276.234 75.3449 276.585 74.5718 277.076 73.8579C277.567 73.1436 278.162 72.5404 278.864 72.0484C279.595 71.5344 280.386 71.1755 281.236 70.9714C282.085 70.7676 282.934 70.7173 283.785 70.8209C284.634 70.9245 285.432 71.1836 286.178 71.5991C286.923 72.0141 287.557 72.5928 288.077 73.335C288.62 74.1081 288.952 74.9214 289.075 75.7744C289.197 76.6278 289.149 77.4693 288.931 78.2991C288.714 79.1288 288.362 79.8994 287.876 80.6099C287.39 81.3204 286.802 81.9185 286.111 82.4029C285.379 82.9169 284.59 83.2783 283.745 83.4876C282.899 83.6968 282.051 83.7496 281.201 83.6461C280.351 83.5425 279.556 83.2813 278.816 82.8624C278.075 82.4435 277.444 81.8632 276.924 81.1209ZM279.851 73.4551C279.295 73.8461 278.82 74.3144 278.426 74.8605C278.032 75.4062 277.75 75.9853 277.58 76.5973C277.409 77.2094 277.368 77.8307 277.456 78.461C277.545 79.0916 277.788 79.6901 278.187 80.257C278.599 80.8445 279.092 81.2832 279.665 81.5736C280.238 81.8636 280.844 82.0263 281.485 82.0614C282.125 82.0969 282.763 82.0187 283.397 81.8268C284.032 81.6349 284.613 81.3543 285.139 80.9853C285.695 80.5943 286.168 80.1276 286.557 79.5857C286.946 79.0434 287.225 78.4618 287.398 77.8409C287.569 77.22 287.611 76.5986 287.52 75.9773C287.43 75.3555 287.19 74.7667 286.799 74.21C286.387 73.6225 285.896 73.1816 285.328 72.8878C284.76 72.5941 284.156 72.4296 283.516 72.3946C282.876 72.3595 282.238 72.433 281.605 72.6161C280.972 72.7991 280.387 73.0789 279.851 73.4551Z" fill="white"/>
<path d="M297.301 94.4867C297.388 94.2707 297.444 94.0133 297.472 93.7141C297.499 93.4148 297.499 93.0952 297.47 92.755C297.44 92.4147 297.376 92.0609 297.275 91.694C297.175 91.3271 297.031 90.9649 296.844 90.6081C296.364 89.6939 295.837 89.1101 295.264 88.8561C294.691 88.6021 294.104 88.6329 293.504 88.9478C293.082 89.1697 292.807 89.4563 292.68 89.808C292.552 90.1593 292.532 90.6073 292.619 91.1517C292.707 91.6961 292.855 92.3691 293.063 93.1705C293.318 94.089 293.476 94.9166 293.536 95.6529C293.597 96.3892 293.498 97.0317 293.24 97.5799C292.982 98.1278 292.497 98.5889 291.786 98.9626C291.219 99.2601 290.67 99.4098 290.139 99.4115C289.608 99.4127 289.104 99.2897 288.626 99.0429C288.149 98.7952 287.709 98.4435 287.306 97.9866C286.902 97.5292 286.54 96.9941 286.219 96.3812C285.902 95.7789 285.657 95.1567 285.484 94.5155C285.31 93.8738 285.212 93.2318 285.187 92.5901C285.163 91.9485 285.218 91.3077 285.352 90.6686L287.001 90.7202C286.905 90.9983 286.84 91.3276 286.805 91.7088C286.771 92.0897 286.771 92.5022 286.804 92.9469C286.838 93.3911 286.919 93.8502 287.048 94.3236C287.175 94.797 287.356 95.2569 287.591 95.7028C288.035 96.5503 288.533 97.1281 289.084 97.4362C289.636 97.7444 290.205 97.744 290.794 97.435C291.238 97.2012 291.525 96.8834 291.654 96.4814C291.784 96.079 291.802 95.5747 291.711 94.9686C291.62 94.362 291.47 93.6443 291.261 92.8146C291.04 91.9066 290.905 91.1166 290.857 90.445C290.809 89.7729 290.908 89.1981 291.154 88.7204C291.4 88.2428 291.833 87.8408 292.457 87.5137C293.212 87.1163 293.949 86.9646 294.665 87.058C295.381 87.1514 296.042 87.4515 296.648 87.9583C297.255 88.4647 297.772 89.1249 298.199 89.939C298.481 90.4742 298.687 91.0025 298.819 91.5237C298.95 92.0449 299.021 92.5593 299.031 93.0661C299.041 93.5729 298.995 94.067 298.892 94.5476L297.301 94.4867Z" fill="white"/>
<path d="M293.834 113.263L303.335 109.444L294.376 108.28L293.989 107.316L299.644 100.258L290.142 104.077L289.508 102.499L301.954 97.4971L302.624 99.1625L296.353 106.915L306.252 108.19L306.914 109.838L294.468 114.84L293.834 113.263Z" fill="white"/>
<path d="M309.398 118.106L309.788 119.488L298.367 128.406L297.875 126.66L301.248 124.145L299.68 118.592L295.488 118.206L294.995 116.46L309.398 118.106ZM302.383 123.298L307.702 119.331L301.091 118.722L302.383 123.298Z" fill="white"/>
<path d="M298.679 130.071L311.869 127.625L312.916 133.272C313.024 133.854 313.003 134.409 312.85 134.936C312.698 135.464 312.454 135.945 312.118 136.379C311.783 136.813 311.383 137.175 310.918 137.466C310.453 137.757 309.961 137.951 309.44 138.048C308.833 138.16 308.236 138.152 307.649 138.024C307.061 137.896 306.537 137.66 306.076 137.317C305.616 136.973 305.26 136.537 305.007 136.007L300.548 140.139L300.196 138.245L304.375 134.357L303.727 130.864L298.99 131.743L298.679 130.071ZM305.212 130.589L305.954 134.582C306.038 135.041 306.24 135.416 306.557 135.71C306.874 136.003 307.261 136.207 307.717 136.321C308.174 136.435 308.644 136.447 309.126 136.357C309.622 136.266 310.056 136.069 310.43 135.77C310.804 135.47 311.081 135.117 311.262 134.712C311.443 134.307 311.493 133.888 311.413 133.455L310.693 129.572L305.212 130.589Z" fill="white"/>
<path d="M313.547 150.576L313.097 145.969L301.251 147.125L301.086 145.433L312.932 144.277L312.483 139.67L313.987 139.523L315.051 150.429L313.547 150.576Z" fill="white"/>
<path d="M314.036 179.602L300.683 178.326L300.844 176.633L306.919 177.214L307.623 169.86L301.548 169.28L301.709 167.587L315.063 168.864L314.9 170.556L309.126 170.004L308.424 177.358L314.198 177.91L314.036 179.602Z" fill="white"/>
<path d="M299.974 190.628L298.49 190.346L300.186 181.399L313.365 183.898L311.701 192.677L310.215 192.396L311.564 185.287L307.294 184.477L306.122 190.659L304.73 190.394L305.902 184.214L301.354 183.351L299.974 190.628Z" fill="white"/>
<path d="M297.936 192.538L310.866 196.108L310.414 197.747L298.941 194.579L296.95 201.791L295.492 201.389L297.936 192.538Z" fill="white"/>
<path d="M294.884 203.108L307.484 207.71L306.901 209.307L295.721 205.223L293.154 212.25L291.735 211.732L294.884 203.108Z" fill="white"/>
<path d="M288.832 217.851C289.234 216.995 289.768 216.3 290.437 215.765C291.106 215.23 291.852 214.846 292.677 214.615C293.503 214.383 294.348 214.303 295.211 214.374C296.075 214.446 296.895 214.663 297.67 215.027C298.48 215.407 299.184 215.915 299.783 216.551C300.382 217.186 300.848 217.899 301.18 218.688C301.512 219.477 301.684 220.298 301.694 221.152C301.703 222.005 301.516 222.842 301.131 223.663C300.729 224.518 300.188 225.21 299.509 225.74C298.829 226.27 298.075 226.646 297.246 226.87C296.419 227.093 295.575 227.171 294.717 227.102C293.859 227.033 293.047 226.82 292.284 226.461C291.474 226.081 290.769 225.576 290.167 224.946C289.565 224.316 289.098 223.606 288.766 222.818C288.433 222.028 288.265 221.208 288.261 220.358C288.257 219.507 288.447 218.671 288.832 217.851ZM296.94 216.584C296.324 216.295 295.682 216.115 295.012 216.044C294.343 215.973 293.7 216.016 293.084 216.172C292.468 216.329 291.909 216.602 291.406 216.992C290.903 217.382 290.504 217.89 290.21 218.518C289.904 219.168 289.768 219.813 289.801 220.455C289.834 221.096 289.995 221.704 290.282 222.277C290.57 222.85 290.954 223.364 291.436 223.82C291.918 224.276 292.45 224.64 293.031 224.913C293.647 225.202 294.287 225.38 294.95 225.448C295.614 225.516 296.258 225.47 296.883 225.311C297.507 225.152 298.066 224.879 298.561 224.492C299.056 224.105 299.447 223.604 299.736 222.988C300.041 222.338 300.18 221.694 300.153 221.054C300.126 220.416 299.969 219.81 299.681 219.237C299.393 218.663 299.012 218.147 298.539 217.689C298.066 217.23 297.532 216.862 296.94 216.584Z" fill="white"/>
<path d="M287.388 242.121C287.618 242.089 287.87 242.01 288.143 241.885C288.416 241.761 288.694 241.601 288.974 241.407C289.255 241.212 289.53 240.98 289.798 240.711C290.067 240.441 290.309 240.137 290.526 239.797C291.081 238.926 291.325 238.178 291.261 237.555C291.197 236.931 290.878 236.438 290.307 236.073C289.904 235.817 289.52 235.721 289.151 235.785C288.783 235.849 288.384 236.054 287.955 236.401C287.525 236.747 287.016 237.21 286.423 237.789C285.754 238.467 285.114 239.015 284.505 239.434C283.895 239.852 283.289 240.086 282.686 240.135C282.081 240.183 281.44 239.991 280.763 239.56C280.223 239.216 279.82 238.813 279.555 238.353C279.29 237.893 279.145 237.395 279.123 236.857C279.1 236.32 279.187 235.764 279.383 235.187C279.58 234.61 279.864 234.029 280.236 233.445C280.601 232.871 281.019 232.35 281.489 231.88C281.96 231.411 282.468 231.006 283.013 230.667C283.558 230.327 284.141 230.056 284.763 229.854L285.537 231.311C285.248 231.366 284.93 231.473 284.582 231.632C284.234 231.792 283.876 231.997 283.507 232.247C283.139 232.497 282.78 232.796 282.434 233.142C282.086 233.488 281.777 233.874 281.506 234.299C280.992 235.106 280.738 235.826 280.745 236.457C280.751 237.088 281.035 237.582 281.595 237.939C282.019 238.209 282.437 238.3 282.851 238.212C283.264 238.125 283.711 237.89 284.191 237.51C284.672 237.129 285.221 236.642 285.837 236.049C286.514 235.406 287.133 234.896 287.693 234.52C288.252 234.145 288.799 233.945 289.336 233.921C289.873 233.897 290.438 234.074 291.031 234.452C291.751 234.911 292.249 235.474 292.523 236.141C292.798 236.809 292.867 237.532 292.729 238.31C292.59 239.088 292.275 239.865 291.78 240.641C291.456 241.15 291.1 241.592 290.712 241.965C290.325 242.338 289.914 242.655 289.48 242.916C289.045 243.177 288.593 243.382 288.125 243.531L287.388 242.121Z" fill="white"/>
<path d="M269.33 248.502L277.367 254.847L273.923 246.495L274.568 245.679L283.502 247.077L275.465 240.731L276.519 239.397L287.047 247.709L285.934 249.118L276.09 247.532L279.905 256.754L278.805 258.148L268.277 249.836L269.33 248.502Z" fill="white"/>
<path d="M272.926 264.366L271.923 265.393L258.498 259.942L259.765 258.644L263.628 260.313L267.658 256.185L265.902 252.359L267.17 251.061L272.926 264.366ZM264.928 260.875L271.019 263.507L268.25 257.473L264.928 260.875Z" fill="white"/>
<path d="M257.178 261.077L265.885 271.281L261.516 275.009C261.065 275.393 260.574 275.651 260.041 275.783C259.507 275.915 258.97 275.944 258.426 275.869C257.882 275.795 257.368 275.629 256.884 275.372C256.4 275.115 255.985 274.785 255.642 274.383C255.241 273.913 254.95 273.392 254.767 272.819C254.585 272.246 254.528 271.674 254.596 271.104C254.663 270.533 254.863 270.006 255.196 269.523L249.389 267.723L250.855 266.472L256.31 268.151L259.012 265.845L255.885 262.18L257.178 261.077ZM259.992 266.995L256.903 269.631C256.548 269.934 256.324 270.295 256.227 270.717C256.132 271.138 256.149 271.575 256.278 272.028C256.407 272.48 256.631 272.893 256.95 273.267C257.277 273.65 257.663 273.928 258.11 274.103C258.556 274.276 259 274.34 259.441 274.295C259.883 274.249 260.271 274.084 260.607 273.798L263.611 271.235L259.992 266.995Z" fill="white"/>
<path d="M246.864 284.187L250.629 281.495L243.705 271.814L245.089 270.825L252.012 280.506L255.777 277.814L256.657 279.043L247.743 285.417L246.864 284.187Z" fill="white"/>
<path d="M221.884 299.11L216.348 286.891L217.897 286.19L220.415 291.748L227.144 288.7L224.626 283.141L226.175 282.44L231.71 294.658L230.162 295.359L227.768 290.076L221.039 293.125L223.433 298.408L221.884 299.11Z" fill="white"/>
<path d="M205.336 292.387L204.842 290.958L213.449 287.983L217.831 300.66L209.386 303.58L208.892 302.152L215.73 299.788L214.311 295.681L208.365 297.737L207.902 296.397L213.848 294.342L212.335 289.967L205.336 292.387Z" fill="white"/>
<path d="M202.65 291.571L205.977 304.565L204.33 304.987L201.378 293.457L194.129 295.313L193.755 293.848L202.65 291.571Z" fill="white"/>
<path d="M191.98 294.17L194.251 307.391L192.575 307.679L190.56 295.948L183.187 297.214L182.931 295.725L191.98 294.17Z" fill="white"/>
<path d="M176.185 296.252C177.126 296.174 177.995 296.292 178.792 296.606C179.589 296.919 180.293 297.376 180.905 297.976C181.517 298.577 182.007 299.269 182.374 300.054C182.743 300.839 182.962 301.658 183.032 302.512C183.106 303.403 183.016 304.267 182.762 305.102C182.509 305.939 182.123 306.697 181.604 307.378C181.085 308.059 180.459 308.616 179.723 309.05C178.988 309.483 178.169 309.737 177.265 309.812C176.323 309.889 175.453 309.765 174.656 309.439C173.858 309.113 173.156 308.646 172.55 308.039C171.944 307.432 171.457 306.739 171.09 305.961C170.722 305.182 170.504 304.372 170.434 303.531C170.361 302.64 170.448 301.777 170.695 300.941C170.942 300.106 171.325 299.348 171.844 298.667C172.363 297.986 172.99 297.432 173.725 297.004C174.461 296.577 175.281 296.326 176.185 296.252ZM181.319 302.653C181.263 301.975 181.1 301.328 180.827 300.712C180.555 300.097 180.198 299.561 179.756 299.104C179.314 298.648 178.798 298.298 178.21 298.056C177.622 297.814 176.982 297.721 176.292 297.779C175.576 297.838 174.949 298.041 174.408 298.389C173.868 298.737 173.421 299.178 173.067 299.713C172.713 300.247 172.458 300.837 172.303 301.482C172.148 302.126 172.096 302.769 172.15 303.409C172.205 304.087 172.369 304.73 172.64 305.34C172.912 305.949 173.272 306.485 173.72 306.947C174.169 307.41 174.685 307.759 175.267 307.995C175.849 308.232 176.479 308.322 177.156 308.266C177.872 308.207 178.5 308.007 179.04 307.665C179.58 307.324 180.029 306.885 180.382 306.351C180.736 305.816 180.994 305.23 181.156 304.591C181.319 303.951 181.373 303.306 181.319 302.653Z" fill="white"/>
<path d="M154.387 307.102C154.529 307.285 154.723 307.464 154.967 307.639C155.213 307.813 155.489 307.974 155.798 308.12C156.106 308.266 156.444 308.388 156.812 308.486C157.18 308.585 157.564 308.642 157.967 308.661C158.999 308.706 159.769 308.545 160.277 308.178C160.784 307.811 161.054 307.289 161.084 306.612C161.105 306.135 160.996 305.753 160.757 305.466C160.517 305.179 160.14 304.936 159.625 304.737C159.111 304.538 158.455 304.327 157.658 304.103C156.737 303.861 155.942 303.581 155.275 303.262C154.609 302.944 154.103 302.535 153.76 302.036C153.417 301.537 153.262 300.886 153.299 300.083C153.327 299.443 153.474 298.894 153.74 298.434C154.006 297.975 154.366 297.601 154.82 297.313C155.275 297.025 155.801 296.822 156.399 296.704C156.996 296.587 157.641 296.543 158.333 296.573C159.012 296.603 159.673 296.706 160.314 296.879C160.956 297.052 161.56 297.29 162.127 297.593C162.693 297.895 163.219 298.265 163.703 298.703L162.829 300.101C162.637 299.878 162.385 299.656 162.074 299.434C161.762 299.212 161.406 299.004 161.004 298.81C160.603 298.615 160.166 298.454 159.692 298.326C159.219 298.198 158.731 298.123 158.227 298.101C157.271 298.058 156.521 298.197 155.978 298.518C155.433 298.839 155.147 299.331 155.118 299.995C155.095 300.497 155.225 300.905 155.508 301.219C155.79 301.533 156.216 301.804 156.786 302.03C157.356 302.257 158.051 302.489 158.873 302.727C159.769 302.992 160.52 303.274 161.124 303.571C161.729 303.868 162.176 304.243 162.464 304.696C162.753 305.149 162.882 305.727 162.85 306.43C162.812 307.283 162.573 307.995 162.132 308.566C161.691 309.137 161.098 309.558 160.355 309.826C159.612 310.095 158.781 310.209 157.863 310.169C157.258 310.142 156.698 310.054 156.181 309.905C155.665 309.756 155.185 309.558 154.743 309.312C154.3 309.065 153.896 308.776 153.533 308.445L154.387 307.102Z" fill="white"/>
<path d="M139.894 294.657L138.415 304.789L143.928 297.632L144.956 297.782L148.211 306.219L149.69 296.087L151.372 296.332L149.435 309.605L147.659 309.346L144.112 300.027L138.031 307.941L136.274 307.685L138.211 294.411L139.894 294.657Z" fill="white"/>
<path d="M127.906 305.683L126.515 305.325L124.546 290.97L126.302 291.421L126.783 295.602L132.371 297.038L134.812 293.607L136.569 294.058L127.906 305.683ZM126.943 297.009L127.7 303.601L131.549 298.192L126.943 297.009Z" fill="white"/>
<path d="M122.951 290.404L118.436 303.035L113.028 301.103C112.47 300.903 112.001 300.605 111.622 300.209C111.242 299.812 110.949 299.359 110.742 298.851C110.536 298.343 110.425 297.814 110.406 297.266C110.388 296.718 110.468 296.195 110.646 295.697C110.854 295.116 111.161 294.603 111.567 294.16C111.973 293.717 112.44 293.382 112.968 293.156C113.498 292.931 114.054 292.842 114.639 292.891L113.308 286.958L115.123 287.607L116.384 293.173L119.728 294.369L121.349 289.832L122.951 290.404ZM119.219 295.792L115.395 294.425C114.956 294.268 114.53 294.253 114.116 294.379C113.704 294.506 113.334 294.738 113.005 295.075C112.678 295.413 112.431 295.813 112.265 296.275C112.096 296.75 112.047 297.224 112.118 297.698C112.19 298.171 112.355 298.588 112.614 298.948C112.873 299.308 113.21 299.563 113.625 299.711L117.343 301.04L119.219 295.792Z" fill="white"/>
<path d="M97.7491 292.942L101.957 294.871L106.917 284.052L108.463 284.761L103.502 295.58L107.709 297.509L107.079 298.883L97.1184 294.315L97.7491 292.942Z" fill="white"/>
<path d="M72.3963 278.677L80.2473 267.801L81.6261 268.796L78.0544 273.744L84.0439 278.068L87.6156 273.12L88.9944 274.115L81.1425 284.991L79.7637 283.996L83.1588 279.293L77.1693 274.969L73.7751 279.672L72.3963 278.677Z" fill="white"/>
<path d="M69.9912 260.979L70.9845 259.84L77.8498 265.823L69.0368 275.935L62.3 270.064L63.2933 268.925L68.7477 273.679L71.6025 270.403L66.8599 266.269L67.7907 265.201L72.5341 269.334L75.5749 265.845L69.9912 260.979Z" fill="white"/>
<path d="M69.38 258.264L59.7791 267.632L58.5922 266.415L67.111 258.103L61.8866 252.748L62.9678 251.692L69.38 258.264Z" fill="white"/>
<path d="M61.7894 250.302L51.4724 258.875L50.3861 257.567L59.5399 249.96L54.7584 244.206L55.9216 243.24L61.7894 250.302Z" fill="white"/>
<path d="M52.0946 237.667C52.6331 238.443 52.9654 239.255 53.0922 240.102C53.219 240.949 53.1759 241.787 52.9612 242.617C52.7473 243.447 52.3922 244.218 51.8968 244.929C51.4006 245.64 50.8012 246.239 50.097 246.727C49.3615 247.236 48.5686 247.59 47.7181 247.789C46.8677 247.987 46.0181 248.032 45.1685 247.923C44.3197 247.814 43.5234 247.55 42.7803 247.13C42.0372 246.709 41.4074 246.127 40.8909 245.381C40.3532 244.605 40.0261 243.79 39.9094 242.936C39.7936 242.082 39.8469 241.241 40.0692 240.412C40.2924 239.583 40.6491 238.815 41.1394 238.108C41.6298 237.401 42.2215 236.806 42.9156 236.326C43.651 235.817 44.4415 235.461 45.2885 235.257C46.1356 235.053 46.9844 235.005 47.8331 235.114C48.6827 235.223 49.4765 235.49 50.2137 235.913C50.9517 236.337 51.5781 236.921 52.0946 237.667ZM49.1181 245.313C49.6769 244.926 50.1554 244.461 50.5527 243.918C50.95 243.374 51.2357 242.797 51.4099 242.186C51.5849 241.575 51.6297 240.954 51.5443 240.323C51.4606 239.692 51.2205 239.092 50.8257 238.522C50.4174 237.932 49.9271 237.491 49.3565 237.196C48.785 236.903 48.1797 236.736 47.5389 236.697C46.899 236.658 46.2616 236.732 45.625 236.92C44.9893 237.107 44.4068 237.384 43.8793 237.75C43.3197 238.137 42.8446 238.601 42.4523 239.141C42.0601 239.681 41.776 240.26 41.6002 240.88C41.4243 241.5 41.3795 242.121 41.4649 242.743C41.5511 243.365 41.7878 243.956 42.1759 244.515C42.5842 245.105 43.072 245.548 43.6375 245.846C44.2039 246.143 44.8067 246.312 45.4466 246.351C46.0874 246.39 46.724 246.321 47.3589 246.141C47.9929 245.963 48.5796 245.687 49.1181 245.313Z" fill="white"/>
<path d="M31.7997 224.165C31.7127 224.38 31.6535 224.638 31.6239 224.936C31.5943 225.235 31.5926 225.555 31.6197 225.896C31.6476 226.236 31.7101 226.59 31.8074 226.958C31.9054 227.325 32.0474 227.688 32.2317 228.046C32.7068 228.964 33.2293 229.551 33.8007 229.809C34.3722 230.066 34.9589 230.039 35.5608 229.728C35.9852 229.509 36.2616 229.224 36.391 228.873C36.5212 228.523 36.544 228.075 36.4603 227.53C36.3766 226.985 36.2329 226.311 36.03 225.508C35.7806 224.588 35.6276 223.76 35.5718 223.023C35.516 222.286 35.6191 221.645 35.8804 221.098C36.1424 220.552 36.6294 220.094 37.3437 219.725C37.9126 219.431 38.4621 219.285 38.9939 219.287C39.5248 219.288 40.0278 219.415 40.5037 219.665C40.9797 219.915 41.4176 220.27 41.8174 220.73C42.2173 221.19 42.5766 221.727 42.8944 222.342C43.2072 222.946 43.4482 223.57 43.6172 224.212C43.7863 224.855 43.881 225.498 43.9013 226.139C43.9207 226.781 43.8624 227.422 43.7237 228.06L42.0753 227.998C42.1733 227.72 42.241 227.391 42.2773 227.011C42.3145 226.63 42.3179 226.217 42.2866 225.773C42.2553 225.328 42.1776 224.868 42.0524 224.394C41.9273 223.92 41.7498 223.459 41.5182 223.012C41.0786 222.161 40.584 221.58 40.0354 221.268C39.4859 220.957 38.9161 220.953 38.326 221.259C37.8797 221.489 37.5914 221.806 37.4595 222.207C37.3276 222.608 37.3057 223.113 37.3927 223.719C37.4807 224.326 37.6252 225.045 37.829 225.876C38.0445 226.785 38.1739 227.576 38.2178 228.248C38.2618 228.921 38.1586 229.495 37.9101 229.971C37.6607 230.447 37.2245 230.846 36.5989 231.169C35.8406 231.562 35.1035 231.708 34.3883 231.61C33.6731 231.512 33.0137 231.208 32.4101 230.698C31.8074 230.187 31.2942 229.523 30.8724 228.707C30.5942 228.17 30.3922 227.64 30.2637 227.118C30.1352 226.596 30.0676 226.081 30.0608 225.574C30.054 225.067 30.1039 224.574 30.2096 224.094L31.7997 224.165Z" fill="white"/>
<path d="M35.3875 205.405L25.8618 209.162L34.8127 210.385L35.1939 211.351L29.4936 218.371L39.0192 214.615L39.6431 216.197L27.1646 221.117L26.506 219.448L32.8277 211.736L22.9368 210.396L22.2851 208.745L34.7645 203.824L35.3875 205.405Z" fill="white"/>
<path d="M19.8681 200.505L19.486 199.121L30.962 190.274L31.4438 192.023L28.0556 194.518L29.5882 200.08L33.7788 200.492L34.2606 202.241L19.8681 200.505ZM26.9152 195.357L21.5716 199.291L28.1782 199.941L26.9152 195.357Z" fill="white"/>
<path d="M30.6568 188.596L17.4529 190.96L16.441 185.307C16.337 184.724 16.3624 184.169 16.5171 183.642C16.6726 183.115 16.9195 182.636 17.2576 182.204C17.5966 181.773 17.999 181.413 18.4657 181.124C18.9323 180.837 19.426 180.646 19.9467 180.552C20.5546 180.444 21.1514 180.455 21.7381 180.587C22.3248 180.719 22.8472 180.958 23.3054 181.304C23.7645 181.651 24.1178 182.089 24.3664 182.621L28.8528 178.517L29.1918 180.414L24.9894 184.275L25.615 187.771L30.3575 186.922L30.6568 188.596ZM24.1271 188.038L23.4111 184.039C23.3291 183.581 23.1313 183.204 22.8151 182.908C22.5006 182.613 22.1151 182.407 21.6586 182.29C21.203 182.173 20.7329 182.158 20.2494 182.245C19.754 182.333 19.3186 182.527 18.9424 182.824C18.5671 183.122 18.2881 183.473 18.1038 183.876C17.9204 184.28 17.868 184.699 17.9457 185.133L18.6415 189.02L24.1271 188.038Z" fill="white"/>
<path d="M15.9177 167.985L16.3378 172.595L28.1917 171.514L28.3455 173.207L16.4926 174.288L16.9127 178.898L15.4079 179.035L14.4121 168.123L15.9177 167.985Z" fill="white"/>
<path d="M15.6117 138.958L28.9568 140.319L28.7843 142.01L22.7137 141.391L21.9638 148.74L28.0353 149.359L27.8628 151.051L14.5178 149.691L14.6902 147.999L20.4607 148.587L21.2097 141.238L15.4392 140.65L15.6117 138.958Z" fill="white"/>
<path d="M29.7514 127.982L31.2342 128.273L29.4783 137.209L16.3167 134.623L18.0396 125.854L19.5224 126.145L18.1275 133.245L22.3907 134.083L23.6038 127.91L24.9945 128.183L23.7814 134.356L28.3236 135.249L29.7514 127.982Z" fill="white"/>
<path d="M31.8014 126.094L18.8951 122.439L19.3584 120.804L30.8098 124.047L32.8489 116.848L34.3029 117.26L31.8014 126.094Z" fill="white"/>
<path d="M34.9031 115.603L22.3316 110.923L22.925 109.329L34.0797 113.482L36.6902 106.47L38.1062 106.998L34.9031 115.603Z" fill="white"/>
<path d="M41.065 100.856C40.6584 101.709 40.1182 102.4 39.447 102.931C38.7749 103.462 38.0259 103.84 37.1991 104.067C36.3724 104.293 35.527 104.368 34.6639 104.291C33.7999 104.214 32.9824 103.991 32.2089 103.622C31.4016 103.237 30.7008 102.724 30.1065 102.085C29.5113 101.445 29.0497 100.73 28.7226 99.9386C28.3954 99.1477 28.2297 98.3252 28.2255 97.4717C28.2213 96.6183 28.414 95.7823 28.8046 94.9639C29.2112 94.1114 29.7565 93.4224 30.4395 92.897C31.1226 92.372 31.8792 92.0005 32.7094 91.782C33.5387 91.5643 34.3824 91.492 35.2404 91.5664C36.0976 91.6408 36.9075 91.8597 37.6692 92.2232C38.4765 92.6083 39.1782 93.1181 39.7758 93.7517C40.3735 94.3857 40.8359 95.0988 41.1631 95.8896C41.4903 96.6809 41.6534 97.5018 41.6526 98.3522C41.6517 99.2031 41.4556 100.037 41.065 100.856ZM32.9495 102.071C33.5632 102.363 34.2048 102.547 34.8735 102.622C35.5422 102.697 36.1855 102.659 36.8027 102.506C37.4189 102.354 37.9803 102.085 38.4858 101.698C38.9913 101.311 39.3937 100.805 39.6922 100.18C40.0007 99.5319 40.141 98.8873 40.1123 98.2457C40.0836 97.6036 39.9272 96.9954 39.644 96.4205C39.3599 95.8453 38.9787 95.3283 38.4993 94.8697C38.0209 94.4111 37.4916 94.0433 36.9117 93.7665C36.298 93.4735 35.6597 93.2914 34.9961 93.2187C34.3325 93.1468 33.6883 93.1882 33.0627 93.3429C32.438 93.4985 31.8767 93.7682 31.3796 94.1515C30.8825 94.5353 30.4877 95.0341 30.1944 95.6483C29.885 96.2958 29.7421 96.9396 29.7649 97.5787C29.7886 98.2174 29.9416 98.8248 30.2257 99.3996C30.5097 99.9745 30.8867 100.493 31.3568 100.955C31.8276 101.417 32.3585 101.788 32.9495 102.071Z" fill="white"/>
<path d="M42.6924 76.5551C42.4624 76.5864 42.2105 76.6633 41.9358 76.7859C41.6619 76.9089 41.3838 77.0665 41.1014 77.2589C40.8199 77.4516 40.5434 77.682 40.2729 77.9491C40.0024 78.2171 39.7581 78.5197 39.5391 78.8583C38.9787 79.7257 38.7284 80.4713 38.7885 81.0952C38.8485 81.719 39.1638 82.2149 39.7327 82.583C40.1334 82.8421 40.5181 82.9406 40.8867 82.8789C41.2561 82.8176 41.656 82.6151 42.0871 82.2715C42.5191 81.9283 43.0322 81.4688 43.6282 80.894C44.3028 80.2206 44.9462 79.6766 45.5582 79.262C46.1694 78.8477 46.7772 78.6182 47.3817 78.5738C47.9861 78.5294 48.6252 78.7252 49.2998 79.1614C49.8383 79.5092 50.2382 79.9142 50.5003 80.3757C50.7623 80.8377 50.9027 81.3374 50.9221 81.8746C50.9407 82.4118 50.8503 82.9685 50.6507 83.5438C50.4495 84.1195 50.1621 84.6981 49.7859 85.2798C49.4165 85.8508 48.9947 86.3695 48.5212 86.8357C48.0478 87.3019 47.5372 87.703 46.9894 88.0391C46.4425 88.3751 45.8575 88.6422 45.2353 88.8392L44.4702 87.3776C44.7593 87.3247 45.0789 87.2195 45.4272 87.0627C45.7763 86.9058 46.1356 86.7034 46.5067 86.4553C46.877 86.2076 47.2363 85.9117 47.5863 85.5676C47.9362 85.224 48.2473 84.8402 48.5212 84.4171C49.0412 83.6135 49.2998 82.8958 49.2973 82.2643C49.2948 81.6328 49.0149 81.137 48.457 80.7765C48.0352 80.5034 47.6175 80.41 47.2033 80.4945C46.7899 80.5795 46.341 80.8111 45.8583 81.1881C45.3748 81.5656 44.8227 82.0487 44.2031 82.638C43.5209 83.2766 42.8987 83.7822 42.3365 84.1537C41.7752 84.5257 41.2257 84.7218 40.6889 84.7421C40.152 84.7624 39.5882 84.5819 38.9981 84.1998C38.2804 83.7361 37.7867 83.1697 37.517 82.5002C37.2465 81.8306 37.1831 81.1074 37.3268 80.3301C37.4697 79.5532 37.7909 78.7784 38.2905 78.0062C38.6185 77.4981 38.9778 77.0593 39.3667 76.6886C39.7564 76.3184 40.1698 76.0039 40.606 75.7461C41.0431 75.4882 41.4962 75.2866 41.9654 75.1399L42.6924 76.5551Z" fill="white"/>
<path d="M60.758 70.3386L52.7616 63.9425L56.1524 72.3159L55.5032 73.1271L46.5777 71.6735L54.5741 78.0696L53.5123 79.3972L43.0365 71.0187L44.1583 69.6171L53.9925 71.2656L50.2357 62.0189L51.3448 60.632L61.8198 69.0105L60.758 70.3386Z" fill="white"/>
<path d="M57.2624 54.4523L58.2718 53.4311L71.6617 58.9675L70.3868 60.2571L66.5345 58.5638L62.4775 62.6664L64.2097 66.5036L62.934 67.7932L57.2624 54.4523ZM65.2385 57.9936L59.1637 55.3235L61.8951 61.3747L65.2385 57.9936Z" fill="white"/>
<path d="M72.9898 57.8406L64.3475 47.5816L68.7401 43.8814C69.1932 43.5001 69.6869 43.2452 70.2203 43.1163C70.7546 42.9878 71.2931 42.9629 71.8358 43.0402C72.3794 43.118 72.8917 43.2871 73.3744 43.5474C73.8571 43.8078 74.2688 44.14 74.6103 44.5446C75.0077 45.0167 75.2959 45.5396 75.4743 46.1136C75.6535 46.688 75.7076 47.2599 75.6358 47.8301C75.5648 48.4007 75.361 48.9261 75.0254 49.4072L80.8213 51.2437L79.3478 52.4852L73.9028 50.7724L71.1866 53.0609L74.2899 56.7454L72.9898 57.8406ZM70.2127 51.9048L73.3195 49.288C73.6754 48.9879 73.9028 48.6273 74.0017 48.2067C74.1006 47.7861 74.0862 47.3491 73.9594 46.8955C73.8334 46.4424 73.612 46.0278 73.2949 45.6524C72.9703 45.2669 72.5857 44.9863 72.1402 44.8092C71.6955 44.6329 71.2517 44.5657 70.8104 44.6084C70.3683 44.6511 69.9794 44.8142 69.6421 45.0983L66.6224 47.642L70.2127 51.9048Z" fill="white"/>
<path d="M83.4513 34.7949L79.6691 37.4633L86.531 47.1889L85.1412 48.1691L78.2801 38.4435L74.4979 41.1119L73.6263 39.8768L82.5805 33.5602L83.4513 34.7949Z" fill="white"/>
<path d="M115.36 49.2279L119.156 57.2696L118.136 57.7506L116.409 54.0922L111.981 56.1828L113.708 59.8412L112.689 60.3222L108.893 52.2806L109.912 51.7996L111.553 55.2766L115.982 53.1864L114.34 49.709L115.36 49.2279Z" fill="white"/>
<path d="M127.733 52.921L128.079 53.861L122.414 55.9453L119.343 47.5997L124.903 45.5544L125.249 46.4948L120.747 48.1509L121.742 50.8544L125.656 49.4148L125.98 50.2961L122.066 51.7362L123.126 54.6159L127.733 52.921Z" fill="white"/>
<path d="M130.909 52.9767L128.516 44.4127L129.602 44.1092L131.725 51.7087L136.502 50.3738L136.772 51.3388L130.909 52.9767Z" fill="white"/>
<path d="M139.361 50.761L137.65 42.0351L138.756 41.8182L140.274 49.561L145.141 48.6066L145.334 49.5898L139.361 50.761Z" fill="white"/>
<path d="M151.293 48.8978C150.67 48.9654 150.092 48.902 149.56 48.708C149.026 48.5144 148.551 48.2236 148.135 47.8364C147.719 47.4488 147.383 46.9983 147.126 46.4847C146.868 45.9711 146.709 45.4322 146.647 44.8675C146.583 44.2783 146.628 43.7043 146.781 43.1459C146.935 42.5875 147.177 42.0782 147.51 41.6179C147.842 41.1576 148.248 40.7776 148.727 40.4775C149.207 40.1778 149.746 39.9952 150.343 39.9301C150.966 39.8625 151.544 39.9301 152.079 40.1321C152.613 40.3342 153.086 40.6313 153.498 41.0232C153.911 41.4154 154.245 41.866 154.502 42.3758C154.759 42.8851 154.918 43.4181 154.978 43.9744C155.043 44.5636 155 45.1372 154.851 45.6951C154.701 46.2531 154.46 46.7624 154.128 47.2223C153.796 47.6826 153.39 48.0609 152.91 48.3564C152.43 48.6522 151.891 48.8327 151.293 48.8978ZM147.78 44.7441C147.829 45.1925 147.948 45.6186 148.139 46.0219C148.33 46.4251 148.576 46.7742 148.877 47.0689C149.177 47.3639 149.526 47.5866 149.92 47.7367C150.314 47.8872 150.74 47.9375 151.196 47.8876C151.669 47.8364 152.081 47.6906 152.434 47.451C152.785 47.2109 153.074 46.9108 153.299 46.5502C153.524 46.1901 153.683 45.7949 153.775 45.365C153.867 44.9351 153.89 44.5082 153.844 44.0851C153.795 43.6366 153.676 43.2131 153.485 42.8137C153.294 42.4146 153.047 42.0655 152.742 41.7671C152.436 41.4687 152.088 41.2459 151.699 41.0992C151.309 40.9526 150.89 40.904 150.442 40.9526C149.969 41.0041 149.556 41.1474 149.204 41.3833C148.851 41.6191 148.563 41.9171 148.337 42.2773C148.111 42.6378 147.951 43.0313 147.854 43.4574C147.758 43.8835 147.734 44.3129 147.78 44.7441Z" fill="white"/>
<path d="M168.458 41.2248C168.36 41.106 168.229 40.9906 168.064 40.8786C167.899 40.7666 167.713 40.6643 167.507 40.5726C167.3 40.4804 167.073 40.4052 166.829 40.3456C166.583 40.2864 166.328 40.2539 166.06 40.2484C165.376 40.2344 164.868 40.3532 164.537 40.6043C164.206 40.8554 164.036 41.2058 164.026 41.6551C164.021 41.9712 164.098 42.2227 164.261 42.4091C164.425 42.596 164.678 42.7511 165.022 42.8745C165.366 42.9984 165.804 43.1277 166.336 43.2638C166.951 43.4096 167.482 43.583 167.929 43.7837C168.376 43.9845 168.717 44.2474 168.952 44.5725C169.188 44.8979 169.3 45.327 169.289 45.8595C169.28 46.2839 169.192 46.6504 169.023 46.9594C168.854 47.2679 168.62 47.5215 168.324 47.7194C168.028 47.9172 167.682 48.0601 167.288 48.1475C166.893 48.235 166.467 48.2739 166.008 48.2646C165.557 48.2553 165.118 48.1983 164.69 48.0934C164.261 47.9886 163.857 47.8407 163.478 47.6488C163.097 47.4573 162.743 47.2202 162.415 46.9378L162.973 45.9973C163.103 46.1423 163.274 46.2856 163.484 46.4276C163.694 46.5697 163.933 46.702 164.202 46.8245C164.471 46.9471 164.764 47.0469 165.079 47.1242C165.395 47.202 165.72 47.2438 166.054 47.251C166.688 47.2641 167.183 47.1601 167.538 46.9387C167.894 46.7176 168.076 46.3866 168.085 45.9466C168.092 45.6135 167.999 45.3451 167.807 45.1414C167.615 44.9377 167.328 44.7652 166.947 44.624C166.566 44.4828 166.101 44.34 165.553 44.1954C164.955 44.0331 164.453 43.8585 164.048 43.6709C163.643 43.4836 163.341 43.2423 163.142 42.9464C162.943 42.6509 162.849 42.2701 162.859 41.8039C162.87 41.2379 163.018 40.7619 163.301 40.3764C163.585 39.9905 163.971 39.7031 164.459 39.5133C164.947 39.3231 165.497 39.2348 166.106 39.247C166.507 39.2555 166.879 39.3049 167.224 39.3954C167.569 39.4863 167.89 39.6097 168.187 39.7661C168.484 39.9225 168.756 40.1076 169.002 40.3215L168.458 41.2248Z" fill="white"/>
<path d="M179.747 49.3006L180.529 42.5575L177.016 47.4078L176.332 47.3288L174.009 41.8017L173.227 48.5449L172.108 48.4151L173.132 39.5818L174.314 39.7187L176.847 45.8249L180.721 40.4614L181.891 40.5971L180.867 49.4304L179.747 49.3006Z" fill="white"/>
<path d="M188.872 41.959L189.802 42.1623L191.452 51.625L190.278 51.3684L189.859 48.6104L186.123 47.7938L184.588 50.1253L183.413 49.8683L188.872 41.959ZM189.718 47.6822L189.059 43.3331L186.639 47.0093L189.718 47.6822Z" fill="white"/>
<path d="M193.937 52.3321L196.59 43.845L200.225 44.9816C200.599 45.0987 200.918 45.2834 201.18 45.5362C201.442 45.7885 201.648 46.0806 201.798 46.4116C201.948 46.743 202.036 47.09 202.063 47.4526C202.089 47.8153 202.051 48.164 201.946 48.4988C201.824 48.8889 201.635 49.2368 201.378 49.5411C201.12 49.8459 200.82 50.0797 200.476 50.2432C200.131 50.4068 199.765 50.4804 199.376 50.4639L200.416 54.3581L199.196 53.9768L198.213 50.3231L195.966 49.6202L195.012 52.6686L193.937 52.3321ZM196.265 48.6641L198.835 49.4676C199.13 49.5597 199.412 49.5585 199.683 49.4638C199.952 49.3691 200.192 49.2055 200.4 48.9731C200.608 48.741 200.761 48.4692 200.859 48.1585C200.957 47.8398 200.978 47.5245 200.918 47.2126C200.858 46.9006 200.737 46.6293 200.556 46.3972C200.375 46.1656 200.144 46.0062 199.866 45.9191L197.367 45.1376L196.265 48.6641Z" fill="white"/>
<path d="M211.943 50.4546L209.102 49.2964L206.123 56.6026L205.079 56.1773L208.058 48.8708L205.216 47.7122L205.594 46.7844L212.321 49.5268L211.943 50.4546Z" fill="white"/>
<path d="M234.274 62.1846L229.263 69.5304L228.331 68.8951L230.611 65.5534L226.566 62.7937L224.286 66.1354L223.355 65.5001L228.366 58.1542L229.298 58.7895L227.13 61.966L231.176 64.7258L233.343 61.5493L234.274 62.1846Z" fill="white"/>
<path d="M237.388 74.7422L236.753 75.517L232.084 71.6904L237.721 64.8128L242.303 68.5684L241.667 69.3432L237.958 66.3024L236.132 68.5304L239.357 71.1739L238.762 71.9004L235.536 69.2565L233.591 71.6299L237.388 74.7422Z" fill="white"/>
<path d="M238.954 77.5099L245.117 71.0995L245.93 71.8806L240.462 77.5691L244.037 81.006L243.343 81.7283L238.954 77.5099Z" fill="white"/>
<path d="M245.161 83.6689L251.804 77.7572L252.553 78.5992L246.659 83.8447L249.957 87.5496L249.208 88.2157L245.161 83.6689Z" fill="white"/>
<path d="M252.814 92.9596C252.438 92.4583 252.197 91.9286 252.092 91.3707C251.988 90.8132 251.996 90.2565 252.118 89.7015C252.239 89.1461 252.455 88.627 252.766 88.1439C253.077 87.6603 253.459 87.2486 253.914 86.9084C254.388 86.5529 254.905 86.2989 255.464 86.1467C256.023 85.9941 256.585 85.9434 257.149 85.9949C257.715 86.0461 258.248 86.2016 258.751 86.4616C259.254 86.7215 259.686 87.0922 260.046 87.5733C260.421 88.0746 260.658 88.6067 260.756 89.1693C260.854 89.7323 260.84 90.2907 260.713 90.8453C260.585 91.3994 260.368 91.9172 260.06 92.3978C259.752 92.8784 259.375 93.2867 258.927 93.6219C258.453 93.9774 257.937 94.2327 257.381 94.3887C256.825 94.5446 256.264 94.5971 255.699 94.5455C255.134 94.4943 254.602 94.3375 254.103 94.075C253.603 93.8125 253.174 93.4406 252.814 92.9596ZM254.597 87.8205C254.236 88.0906 253.931 88.411 253.681 88.7805C253.432 89.1503 253.257 89.5396 253.156 89.9488C253.055 90.3579 253.041 90.7705 253.113 91.186C253.184 91.6019 253.357 91.9937 253.633 92.3615C253.918 92.7423 254.253 93.023 254.64 93.2035C255.025 93.3839 255.43 93.4795 255.855 93.49C256.28 93.5002 256.701 93.4355 257.117 93.2952C257.534 93.1553 257.913 92.9575 258.254 92.7021C258.614 92.4321 258.919 92.1133 259.165 91.746C259.412 91.3787 259.586 90.9877 259.687 90.5726C259.788 90.158 259.802 89.7455 259.73 89.3354C259.658 88.9254 259.487 88.5399 259.216 88.179C258.931 87.7981 258.597 87.5162 258.215 87.3332C257.833 87.1502 257.428 87.0534 257.004 87.0428C256.579 87.0326 256.159 87.0948 255.743 87.2288C255.327 87.3628 254.945 87.5602 254.597 87.8205Z" fill="white"/>
<path d="M268.163 103.847C268.216 103.702 268.248 103.531 268.261 103.332C268.274 103.133 268.268 102.921 268.242 102.696C268.215 102.471 268.166 102.238 268.093 101.997C268.019 101.756 267.917 101.519 267.786 101.286C267.45 100.689 267.09 100.312 266.706 100.155C266.321 99.9973 265.933 100.029 265.542 100.249C265.265 100.404 265.088 100.6 265.011 100.835C264.933 101.07 264.929 101.368 264.997 101.727C265.065 102.086 265.176 102.529 265.329 103.056C265.516 103.659 265.636 104.205 265.69 104.692C265.744 105.179 265.691 105.606 265.531 105.974C265.371 106.342 265.058 106.657 264.594 106.918C264.224 107.126 263.863 107.236 263.511 107.247C263.159 107.258 262.823 107.186 262.502 107.032C262.18 106.877 261.882 106.652 261.606 106.357C261.331 106.062 261.08 105.714 260.855 105.314C260.634 104.921 260.46 104.513 260.332 104.091C260.205 103.67 260.128 103.246 260.1 102.822C260.071 102.397 260.096 101.971 260.172 101.545L261.266 101.548C261.207 101.734 261.17 101.953 261.155 102.207C261.139 102.46 261.146 102.733 261.178 103.027C261.209 103.321 261.272 103.623 261.365 103.935C261.459 104.246 261.588 104.547 261.752 104.838C262.063 105.391 262.403 105.765 262.775 105.958C263.146 106.152 263.524 106.141 263.907 105.925C264.197 105.762 264.382 105.545 264.459 105.277C264.537 105.007 264.54 104.673 264.468 104.273C264.396 103.873 264.283 103.4 264.129 102.854C263.965 102.257 263.86 101.736 263.816 101.292C263.771 100.847 263.825 100.465 263.979 100.144C264.133 99.8223 264.413 99.5476 264.82 99.3189C265.313 99.0412 265.798 98.9266 266.274 98.9748C266.75 99.023 267.194 99.2094 267.606 99.5332C268.018 99.8574 268.373 100.285 268.671 100.816C268.868 101.166 269.014 101.512 269.112 101.855C269.209 102.198 269.265 102.537 269.282 102.873C269.298 103.208 269.277 103.536 269.218 103.857L268.163 103.847Z" fill="white"/>
<path d="M266.941 117.695L273.15 114.95L267.188 114.381L266.91 113.751L270.497 108.948L264.288 111.692L263.832 110.661L271.965 107.066L272.447 108.154L268.467 113.432L275.054 114.053L275.53 115.13L267.397 118.726L266.941 117.695Z" fill="white"/>
<path d="M277.885 121.82L278.181 122.724L270.859 128.942L270.485 127.799L272.651 126.041L271.462 122.406L268.674 122.264L268.3 121.122L277.885 121.82ZM273.38 125.449L276.795 122.677L272.399 122.453L273.38 125.449Z" fill="white"/>
<path d="M271.514 131.467L280.176 129.457L281.036 133.166C281.125 133.548 281.128 133.916 281.042 134.27C280.957 134.624 280.81 134.95 280.6 135.247C280.39 135.544 280.136 135.796 279.837 136.003C279.538 136.209 279.218 136.352 278.876 136.431C278.477 136.524 278.082 136.536 277.689 136.469C277.296 136.401 276.942 136.261 276.627 136.047C276.312 135.833 276.062 135.554 275.88 135.211L273.048 138.079L272.759 136.835L275.412 134.136L274.879 131.843L271.769 132.565L271.514 131.467ZM275.856 131.616L276.465 134.24C276.534 134.54 276.678 134.783 276.897 134.968C277.116 135.153 277.378 135.277 277.684 135.339C277.99 135.401 278.301 135.395 278.619 135.321C278.943 135.246 279.226 135.103 279.464 134.894C279.702 134.684 279.876 134.442 279.984 134.169C280.091 133.895 280.112 133.616 280.046 133.331L279.455 130.781L275.856 131.616Z" fill="white"/>
<path d="M282.253 146.009L281.811 142.973L274.003 144.109L273.841 142.994L281.648 141.857L281.207 138.821L282.198 138.677L283.244 145.865L282.253 146.009Z" fill="white"/>
<path d="M283.5 171.207L274.626 170.634L274.699 169.509L278.735 169.77L279.051 164.883L275.014 164.623L275.087 163.498L283.961 164.071L283.888 165.196L280.051 164.948L279.735 169.835L283.572 170.083L283.5 171.207Z" fill="white"/>
<path d="M274.278 180.273L273.289 180.121L274.205 174.154L282.994 175.504L282.095 181.36L281.104 181.207L281.833 176.466L278.985 176.029L278.352 180.151L277.424 180.009L278.057 175.886L275.024 175.42L274.278 180.273Z" fill="white"/>
<path d="M272.693 183.035L281.346 185.082L281.086 186.179L273.408 184.362L272.266 189.189L271.291 188.958L272.693 183.035Z" fill="white"/>
<path d="M270.544 191.504L279.01 194.227L278.665 195.3L271.153 192.884L269.635 197.605L268.68 197.298L270.544 191.504Z" fill="white"/>
<path d="M266.417 202.815C266.659 202.237 266.994 201.761 267.422 201.389C267.849 201.016 268.333 200.741 268.874 200.564C269.413 200.388 269.971 200.311 270.545 200.334C271.119 200.358 271.668 200.479 272.192 200.698C272.738 200.927 273.219 201.244 273.633 201.648C274.048 202.053 274.376 202.512 274.618 203.025C274.861 203.538 274.997 204.078 275.027 204.643C275.058 205.208 274.956 205.768 274.725 206.322C274.482 206.9 274.144 207.373 273.709 207.743C273.272 208.113 272.784 208.383 272.241 208.554C271.699 208.725 271.142 208.8 270.572 208.778C270.002 208.757 269.459 208.638 268.942 208.422C268.396 208.193 267.914 207.878 267.499 207.477C267.083 207.077 266.753 206.619 266.511 206.106C266.269 205.593 266.135 205.055 266.108 204.491C266.082 203.928 266.185 203.369 266.417 202.815ZM271.752 201.75C271.336 201.575 270.905 201.474 270.46 201.446C270.014 201.418 269.59 201.464 269.186 201.585C268.783 201.705 268.42 201.902 268.097 202.174C267.775 202.447 267.526 202.794 267.348 203.218C267.164 203.657 267.092 204.089 267.132 204.513C267.171 204.937 267.294 205.334 267.5 205.706C267.706 206.077 267.976 206.408 268.308 206.696C268.64 206.984 269.002 207.211 269.395 207.375C269.811 207.55 270.239 207.65 270.681 207.676C271.123 207.703 271.548 207.654 271.957 207.532C272.365 207.409 272.729 207.212 273.046 206.943C273.362 206.672 273.608 206.329 273.782 205.913C273.966 205.475 274.04 205.044 274.005 204.622C273.968 204.199 273.847 203.802 273.641 203.431C273.435 203.059 273.168 202.728 272.841 202.437C272.515 202.146 272.151 201.917 271.752 201.75Z" fill="white"/>
<path d="M264.792 221.571C264.944 221.543 265.109 221.484 265.286 221.395C265.464 221.305 265.644 221.192 265.825 221.057C266.006 220.92 266.181 220.759 266.352 220.574C266.523 220.388 266.676 220.18 266.81 219.95C267.155 219.358 267.298 218.857 267.24 218.445C267.181 218.034 266.957 217.715 266.569 217.489C266.296 217.33 266.038 217.276 265.795 217.328C265.553 217.38 265.295 217.526 265.019 217.767C264.743 218.007 264.418 218.327 264.041 218.726C263.614 219.193 263.205 219.573 262.813 219.865C262.42 220.159 262.025 220.329 261.626 220.377C261.227 220.425 260.797 220.314 260.337 220.046C259.97 219.832 259.693 219.576 259.506 219.278C259.318 218.981 259.21 218.654 259.181 218.299C259.152 217.944 259.194 217.572 259.309 217.185C259.425 216.798 259.598 216.406 259.829 216.009C260.057 215.62 260.32 215.264 260.619 214.94C260.919 214.617 261.244 214.336 261.597 214.097C261.949 213.857 262.328 213.663 262.734 213.513L263.285 214.458C263.096 214.502 262.887 214.581 262.661 214.696C262.435 214.81 262.203 214.955 261.966 215.131C261.727 215.306 261.498 215.513 261.277 215.752C261.056 215.99 260.862 216.254 260.693 216.542C260.374 217.09 260.224 217.573 260.244 217.991C260.266 218.409 260.466 218.729 260.846 218.951C261.134 219.119 261.414 219.168 261.685 219.1C261.956 219.031 262.246 218.864 262.555 218.599C262.863 218.334 263.214 217.998 263.607 217.589C264.039 217.145 264.436 216.791 264.797 216.528C265.157 216.265 265.515 216.118 265.87 216.088C266.225 216.058 266.603 216.161 267.007 216.396C267.495 216.681 267.839 217.041 268.039 217.476C268.238 217.911 268.302 218.389 268.231 218.908C268.16 219.426 267.97 219.949 267.663 220.476C267.461 220.822 267.237 221.124 266.99 221.381C266.744 221.638 266.48 221.859 266.198 222.043C265.918 222.227 265.624 222.375 265.317 222.486L264.792 221.571Z" fill="white"/>
<path d="M252.245 227.507L257.757 231.47L255.228 226.041L255.629 225.482L261.589 226.142L256.077 222.178L256.735 221.263L263.955 226.455L263.26 227.421L256.693 226.663L259.495 232.658L258.807 233.613L251.588 228.422L252.245 227.507Z" fill="white"/>
<path d="M254.228 239.047L253.598 239.761L244.525 236.606L245.321 235.704L247.935 236.679L250.463 233.809L249.172 231.335L249.966 230.433L254.228 239.047ZM248.814 237.007L252.936 238.543L250.899 234.642L248.814 237.007Z" fill="white"/>
<path d="M242.698 238.44L248.834 244.875L246.078 247.503C245.794 247.774 245.478 247.962 245.13 248.069C244.782 248.176 244.427 248.215 244.064 248.186C243.701 248.156 243.355 248.065 243.025 247.913C242.695 247.76 242.41 247.557 242.167 247.303C241.885 247.007 241.673 246.673 241.531 246.3C241.389 245.928 241.331 245.551 241.354 245.171C241.378 244.79 241.491 244.435 241.694 244.103L237.784 243.124L238.709 242.242L242.382 243.154L244.085 241.529L241.882 239.217L242.698 238.44ZM244.777 242.254L242.828 244.112C242.605 244.326 242.469 244.573 242.421 244.856C242.372 245.137 242.399 245.426 242.502 245.721C242.604 246.016 242.767 246.281 242.992 246.517C243.223 246.759 243.488 246.929 243.791 247.027C244.092 247.126 244.389 247.152 244.678 247.106C244.969 247.06 245.22 246.936 245.432 246.734L247.326 244.928L244.777 242.254Z" fill="white"/>
<path d="M235.636 255.091L238.025 253.165L233.071 247.023L233.948 246.316L238.902 252.457L241.29 250.531L241.919 251.31L236.265 255.871L235.636 255.091Z" fill="white"/>
<path d="M214.594 268.967L210.582 261.031L211.588 260.522L213.413 264.133L217.784 261.924L215.959 258.313L216.965 257.805L220.977 265.741L219.971 266.249L218.236 262.818L213.865 265.027L215.6 268.458L214.594 268.967Z" fill="white"/>
<path d="M202.107 265.618L201.736 264.688L207.343 262.452L210.637 270.711L205.134 272.906L204.763 271.975L209.219 270.198L208.152 267.523L204.278 269.067L203.931 268.195L207.804 266.65L206.668 263.8L202.107 265.618Z" fill="white"/>
<path d="M198.915 265.653L201.536 274.15L200.459 274.482L198.133 266.943L193.394 268.405L193.098 267.447L198.915 265.653Z" fill="white"/>
<path d="M190.513 268.097L192.456 276.775L191.356 277.021L189.632 269.321L184.792 270.404L184.573 269.427L190.513 268.097Z" fill="white"/>
<path d="M178.673 270.272C179.294 270.187 179.874 270.235 180.412 270.415C180.951 270.594 181.433 270.872 181.859 271.248C182.285 271.624 182.633 272.066 182.904 272.572C183.176 273.079 183.349 273.613 183.426 274.176C183.506 274.763 183.477 275.338 183.338 275.901C183.2 276.463 182.97 276.979 182.651 277.448C182.331 277.916 181.936 278.307 181.464 278.62C180.993 278.933 180.459 279.13 179.864 279.21C179.243 279.295 178.663 279.243 178.123 279.055C177.584 278.867 177.103 278.583 176.68 278.202C176.257 277.821 175.911 277.38 175.64 276.878C175.37 276.375 175.197 275.846 175.122 275.292C175.042 274.704 175.07 274.13 175.203 273.568C175.338 273.007 175.565 272.491 175.884 272.022C176.204 271.553 176.6 271.164 177.072 270.856C177.544 270.547 178.078 270.352 178.673 270.272ZM182.297 274.33C182.236 273.883 182.105 273.46 181.904 273.062C181.702 272.664 181.446 272.321 181.138 272.035C180.829 271.748 180.476 271.535 180.078 271.395C179.679 271.255 179.253 271.217 178.798 271.279C178.326 271.343 177.918 271.499 177.573 271.749C177.227 271.998 176.946 272.305 176.731 272.672C176.515 273.038 176.367 273.437 176.287 273.87C176.207 274.302 176.196 274.729 176.253 275.151C176.313 275.598 176.444 276.018 176.645 276.412C176.847 276.806 177.104 277.148 177.417 277.438C177.73 277.729 178.084 277.942 178.477 278.078C178.87 278.214 179.29 278.252 179.738 278.191C180.209 278.127 180.618 277.972 180.964 277.728C181.309 277.482 181.59 277.177 181.806 276.81C182.022 276.444 182.172 276.047 182.257 275.618C182.342 275.189 182.355 274.759 182.297 274.33Z" fill="white"/>
<path d="M161.771 278.422C161.873 278.537 162.008 278.647 162.178 278.753C162.347 278.859 162.536 278.954 162.746 279.038C162.956 279.122 163.184 279.19 163.432 279.24C163.679 279.29 163.936 279.313 164.203 279.309C164.888 279.298 165.391 279.16 165.712 278.897C166.033 278.634 166.191 278.277 166.184 277.828C166.178 277.512 166.091 277.264 165.921 277.083C165.751 276.903 165.491 276.757 165.143 276.646C164.795 276.536 164.353 276.422 163.817 276.306C163.196 276.183 162.659 276.029 162.205 275.845C161.752 275.661 161.402 275.41 161.154 275.094C160.906 274.778 160.778 274.353 160.77 273.821C160.763 273.396 160.839 273.026 160.996 272.711C161.154 272.397 161.377 272.135 161.666 271.927C161.955 271.718 162.295 271.562 162.686 271.46C163.076 271.358 163.501 271.303 163.96 271.296C164.411 271.289 164.852 271.33 165.284 271.419C165.715 271.508 166.125 271.641 166.512 271.818C166.899 271.996 167.262 272.219 167.6 272.49L167.077 273.45C166.941 273.31 166.765 273.173 166.551 273.039C166.335 272.905 166.091 272.781 165.818 272.669C165.545 272.556 165.249 272.467 164.93 272.402C164.612 272.336 164.286 272.306 163.952 272.311C163.318 272.321 162.827 272.443 162.48 272.678C162.133 272.912 161.963 273.249 161.97 273.689C161.976 274.022 162.078 274.287 162.277 274.483C162.477 274.68 162.77 274.842 163.156 274.969C163.542 275.096 164.012 275.222 164.565 275.346C165.169 275.486 165.677 275.642 166.088 275.815C166.5 275.987 166.811 276.217 167.02 276.506C167.23 276.793 167.338 277.17 167.345 277.637C167.355 278.203 167.224 278.684 166.956 279.08C166.686 279.475 166.311 279.777 165.83 279.985C165.349 280.193 164.804 280.301 164.195 280.311C163.794 280.318 163.419 280.282 163.072 280.204C162.724 280.126 162.398 280.015 162.096 279.869C161.792 279.724 161.514 279.549 161.26 279.344L161.771 278.422Z" fill="white"/>
<path d="M150.186 270.62L149.583 277.381L152.966 272.44L153.652 272.501L156.12 277.965L156.723 271.203L157.846 271.303L157.055 280.16L155.87 280.055L153.178 274.018L149.445 279.482L148.273 279.377L149.063 270.52L150.186 270.62Z" fill="white"/>
<path d="M141.254 278.2L140.319 278.022L138.418 268.606L139.598 268.832L140.09 271.577L143.847 272.294L145.319 269.923L146.5 270.148L141.254 278.2ZM140.255 272.501L141.031 276.831L143.352 273.092L140.255 272.501Z" fill="white"/>
<path d="M135.924 267.968L133.499 276.523L129.836 275.484C129.458 275.377 129.135 275.201 128.866 274.956C128.598 274.71 128.384 274.423 128.225 274.097C128.066 273.769 127.968 273.425 127.931 273.063C127.896 272.701 127.926 272.352 128.021 272.014C128.133 271.621 128.313 271.268 128.561 270.957C128.811 270.646 129.105 270.404 129.445 270.231C129.785 270.058 130.148 269.975 130.537 269.981L129.394 266.116L130.623 266.465L131.704 270.091L133.969 270.733L134.841 267.66L135.924 267.968ZM133.696 271.697L131.105 270.962C130.808 270.878 130.526 270.887 130.258 270.989C129.991 271.091 129.756 271.261 129.554 271.499C129.352 271.736 129.206 272.012 129.118 272.325C129.026 272.646 129.014 272.962 129.083 273.272C129.151 273.583 129.279 273.851 129.467 274.078C129.654 274.305 129.889 274.458 130.169 274.537L132.688 275.251L133.696 271.697Z" fill="white"/>
<path d="M117.992 270.333L120.863 271.415L123.645 264.031L124.7 264.428L121.918 271.812L124.789 272.894L124.437 273.832L117.638 271.271L117.992 270.333Z" fill="white"/>
<path d="M95.3195 259.18L100.136 251.704L101.083 252.315L98.892 255.716L103.009 258.368L105.2 254.967L106.147 255.578L101.331 263.053L100.383 262.442L102.466 259.21L98.3493 256.558L96.2671 259.79L95.3195 259.18Z" fill="white"/>
<path d="M91.9008 246.73L92.5154 245.938L97.2841 249.64L91.8315 256.664L87.1523 253.032L87.7661 252.24L91.5559 255.182L93.3219 252.906L90.0274 250.349L90.6031 249.607L93.8976 252.164L95.7794 249.74L91.9008 246.73Z" fill="white"/>
<path d="M90.2591 244.002L84.2687 250.574L83.4352 249.815L88.7518 243.983L85.0862 240.642L85.7608 239.902L90.2591 244.002Z" fill="white"/>
<path d="M83.8925 238.01L77.4085 244.096L76.6376 243.274L82.3903 237.874L78.9961 234.258L79.7274 233.572L83.8925 238.01Z" fill="white"/>
<path d="M75.9993 228.928C76.3882 229.419 76.6418 229.942 76.7618 230.497C76.881 231.052 76.8878 231.609 76.7813 232.167C76.6747 232.725 76.4719 233.25 76.1743 233.741C75.8759 234.233 75.5047 234.654 75.0592 235.007C74.5943 235.374 74.0845 235.642 73.53 235.809C72.9762 235.977 72.4157 236.042 71.8493 236.006C71.2829 235.969 70.7453 235.828 70.2355 235.581C69.7266 235.335 69.2853 234.976 68.9125 234.504C68.5236 234.013 68.2726 233.488 68.1601 232.928C68.0469 232.368 68.0469 231.809 68.1593 231.251C68.2717 230.694 68.4755 230.171 68.7696 229.682C69.0647 229.193 69.4316 228.775 69.8695 228.428C70.3344 228.061 70.8434 227.791 71.3945 227.621C71.9466 227.45 72.5062 227.383 73.0726 227.419C73.639 227.456 74.175 227.599 74.6805 227.847C75.1869 228.096 75.6265 228.457 75.9993 228.928ZM74.3525 234.113C74.7059 233.833 75.0026 233.505 75.2427 233.129C75.4828 232.753 75.6476 232.359 75.7364 231.947C75.826 231.535 75.8302 231.123 75.7474 230.709C75.6645 230.295 75.4811 229.908 75.1962 229.548C74.9003 229.175 74.5579 228.903 74.1674 228.733C73.7768 228.563 73.3693 228.478 72.9441 228.479C72.5197 228.48 72.1004 228.556 71.687 228.707C71.2745 228.858 70.9008 229.066 70.5669 229.33C70.2135 229.61 69.9185 229.936 69.6818 230.31C69.4451 230.684 69.2819 231.079 69.1915 231.497C69.101 231.914 69.0977 232.327 69.1805 232.735C69.2642 233.143 69.4459 233.523 69.7258 233.877C70.0208 234.25 70.3623 234.523 70.7487 234.696C71.1358 234.869 71.5425 234.955 71.9669 234.954C72.3921 234.953 72.8105 234.88 73.2231 234.735C73.6356 234.59 74.0118 234.382 74.3525 234.113Z" fill="white"/>
<path d="M60.3725 218.467C60.3235 218.613 60.2956 218.785 60.288 218.984C60.2812 219.183 60.2931 219.395 60.3252 219.619C60.3573 219.843 60.4131 220.075 60.4926 220.314C60.5729 220.554 60.6811 220.788 60.8189 221.017C61.1697 221.604 61.54 221.972 61.9289 222.119C62.3178 222.265 62.7049 222.224 63.0904 221.993C63.3618 221.831 63.5334 221.631 63.6044 221.393C63.6763 221.156 63.6729 220.859 63.5951 220.502C63.5173 220.144 63.3939 219.704 63.2265 219.182C63.0245 218.583 62.8892 218.041 62.8216 217.556C62.7548 217.071 62.7962 216.642 62.9467 216.27C63.0972 215.897 63.4015 215.574 63.858 215.301C64.2224 215.083 64.5808 214.964 64.9325 214.943C65.2833 214.923 65.6215 214.986 65.9469 215.131C66.2724 215.278 66.5767 215.494 66.8599 215.782C67.1432 216.07 67.4035 216.41 67.6394 216.804C67.8702 217.192 68.0553 217.594 68.1939 218.012C68.3326 218.43 68.4214 218.852 68.4611 219.276C68.5008 219.699 68.4881 220.125 68.423 220.554L67.3291 220.58C67.3824 220.393 67.4137 220.172 67.423 219.919C67.4314 219.665 67.4162 219.392 67.3773 219.099C67.3384 218.806 67.2683 218.506 67.166 218.197C67.0637 217.888 66.9267 217.591 66.756 217.304C66.4297 216.76 66.0788 216.395 65.7026 216.212C65.3264 216.028 64.9494 216.049 64.5715 216.276C64.2858 216.446 64.1074 216.667 64.0372 216.938C63.9662 217.209 63.9721 217.544 64.055 217.942C64.1378 218.34 64.2638 218.81 64.432 219.351C64.6121 219.944 64.7304 220.461 64.7871 220.904C64.8437 221.347 64.7998 221.732 64.6544 222.057C64.509 222.382 64.2368 222.664 63.836 222.904C63.3508 223.195 62.8689 223.322 62.3921 223.287C61.9145 223.251 61.4656 223.077 61.0455 222.764C60.6253 222.451 60.2593 222.033 59.9456 221.51C59.7402 221.166 59.5838 220.824 59.4781 220.484C59.3716 220.144 59.3057 219.806 59.2803 219.471C59.255 219.135 59.2676 218.807 59.3184 218.485L60.3725 218.467Z" fill="white"/>
<path d="M61.2137 204.57L55.0805 207.479L61.0548 207.889L61.3498 208.511L57.8931 213.409L64.0263 210.5L64.509 211.518L56.4745 215.329L55.9648 214.254L59.8019 208.871L53.2004 208.427L52.6957 207.363L60.7301 203.552L61.2137 204.57Z" fill="white"/>
<path d="M50.157 200.725L49.8375 199.828L56.9911 193.418L57.3951 194.55L55.2766 196.365L56.5624 199.968L59.353 200.035L59.7571 201.167L50.157 200.725ZM54.564 196.976L51.2239 199.839L55.6241 199.945L54.564 196.976Z" fill="white"/>
<path d="M56.2759 190.94L47.6716 193.182L46.7113 189.498C46.6124 189.118 46.6006 188.75 46.6758 188.394C46.751 188.038 46.8897 187.708 47.0909 187.406C47.2929 187.103 47.5406 186.844 47.834 186.63C48.1273 186.415 48.4435 186.264 48.7833 186.175C49.1789 186.072 49.5746 186.049 49.9685 186.105C50.3633 186.163 50.7209 186.294 51.0422 186.499C51.3634 186.704 51.6195 186.976 51.8106 187.314L54.564 184.371L54.8861 185.607L52.3077 188.376L52.9011 190.654L55.9918 189.849L56.2759 190.94ZM51.9315 190.907L51.2527 188.301C51.1749 188.002 51.0244 187.764 50.8004 187.584C50.5772 187.405 50.3117 187.289 50.004 187.235C49.6972 187.182 49.3861 187.196 49.0707 187.278C48.7478 187.362 48.4697 187.512 48.2364 187.728C48.0039 187.944 47.8373 188.191 47.7367 188.467C47.6361 188.743 47.6226 189.023 47.6962 189.306L48.3564 191.839L51.9315 190.907Z" fill="white"/>
<path d="M45.1431 176.638L45.6647 179.661L53.4405 178.32L53.6324 179.43L45.8566 180.772L46.3782 183.796L45.3917 183.966L44.1557 176.808L45.1431 176.638Z" fill="white"/>
<path d="M43.2385 151.541L52.1242 151.879L52.082 153.006L48.0394 152.852L47.8534 157.746L51.8951 157.899L51.8529 159.026L42.9671 158.688L43.0094 157.561L46.8516 157.708L47.0376 152.814L43.1954 152.668L43.2385 151.541Z" fill="white"/>
<path d="M52.2138 142.228L53.208 142.354L52.4514 148.343L43.6291 147.228L44.3713 141.351L45.3655 141.476L44.7644 146.235L47.6226 146.596L48.1451 142.459L49.0767 142.576L48.5542 146.714L51.5984 147.099L52.2138 142.228Z" fill="white"/>
<path d="M53.7254 139.431L45.0197 137.618L45.2496 136.515L52.9738 138.124L53.9857 133.268L54.9664 133.472L53.7254 139.431Z" fill="white"/>
<path d="M55.6511 130.879L47.1162 128.383L47.4332 127.301L55.0061 129.516L56.3984 124.755L57.3596 125.036L55.6511 130.879Z" fill="white"/>
<path d="M59.4697 119.478C59.2431 120.061 58.921 120.546 58.5034 120.93C58.0858 121.314 57.609 121.602 57.0739 121.793C56.5388 121.984 55.9842 122.076 55.4094 122.067C54.8345 122.06 54.2825 121.953 53.7533 121.748C53.2004 121.534 52.7118 121.23 52.2865 120.837C51.8613 120.444 51.5206 119.994 51.2653 119.487C51.0092 118.981 50.8587 118.445 50.8131 117.881C50.7674 117.317 50.8528 116.755 51.0709 116.195C51.2966 115.611 51.6229 115.128 52.0481 114.747C52.4734 114.366 52.9552 114.082 53.4929 113.897C54.0305 113.711 54.5843 113.621 55.1549 113.627C55.7264 113.634 56.2725 113.738 56.7941 113.94C57.3461 114.155 57.8364 114.457 58.2625 114.845C58.6894 115.235 59.0309 115.683 59.2862 116.19C59.5424 116.696 59.6912 117.231 59.7326 117.793C59.7749 118.355 59.6869 118.917 59.4697 119.478ZM54.165 120.685C54.586 120.848 55.0188 120.938 55.4651 120.954C55.9107 120.971 56.3342 120.913 56.7341 120.781C57.1339 120.65 57.4915 120.444 57.8068 120.163C58.1213 119.882 58.3623 119.528 58.5279 119.099C58.7004 118.656 58.7604 118.222 58.7097 117.799C58.6581 117.377 58.5246 116.982 58.3081 116.616C58.0926 116.25 57.8144 115.928 57.4746 115.648C57.1356 115.369 56.767 115.152 56.3697 114.998C55.9495 114.835 55.5184 114.747 55.0763 114.732C54.6341 114.717 54.2106 114.777 53.8048 114.911C53.3991 115.045 53.0415 115.251 52.7321 115.529C52.4226 115.808 52.1868 116.157 52.0236 116.578C51.8512 117.021 51.7895 117.454 51.836 117.875C51.8833 118.296 52.0152 118.69 52.2316 119.056C52.448 119.422 52.7228 119.746 53.0567 120.027C53.3906 120.309 53.7609 120.528 54.165 120.685Z" fill="white"/>
<path d="M60.5839 100.697C60.4334 100.729 60.2703 100.792 60.0944 100.886C59.9194 100.98 59.7427 101.098 59.5652 101.239C59.3885 101.38 59.2169 101.546 59.0512 101.735C58.8855 101.926 58.7376 102.137 58.6099 102.372C58.2811 102.973 58.1517 103.477 58.2211 103.887C58.2912 104.296 58.5229 104.609 58.9177 104.825C59.1949 104.977 59.4536 105.024 59.6946 104.965C59.9355 104.907 60.1908 104.754 60.4588 104.506C60.7276 104.258 61.0446 103.93 61.4115 103.52C61.8249 103.043 62.2239 102.652 62.6086 102.348C62.9932 102.045 63.3838 101.864 63.7811 101.806C64.1784 101.747 64.6104 101.846 65.0779 102.101C65.4507 102.306 65.7348 102.554 65.93 102.847C66.1253 103.14 66.2428 103.463 66.2809 103.817C66.3198 104.172 66.2868 104.544 66.182 104.934C66.0771 105.324 65.9148 105.72 65.6942 106.123C65.4778 106.519 65.2241 106.882 64.9333 107.213C64.6425 107.544 64.3238 107.834 63.9789 108.082C63.6332 108.331 63.2587 108.536 62.8571 108.696L62.2806 107.767C62.4699 107.718 62.6753 107.633 62.8985 107.512C63.1217 107.392 63.35 107.241 63.5824 107.059C63.8158 106.877 64.0389 106.664 64.2537 106.42C64.4684 106.176 64.6561 105.907 64.8167 105.614C65.121 105.058 65.258 104.57 65.2258 104.153C65.1937 103.736 64.9849 103.421 64.5986 103.21C64.3061 103.05 64.0254 103.008 63.7557 103.084C63.4869 103.16 63.2012 103.335 62.8994 103.607C62.5984 103.881 62.2569 104.227 61.8756 104.646C61.4555 105.101 61.0683 105.465 60.7149 105.738C60.3616 106.011 60.0073 106.167 59.6531 106.207C59.2998 106.246 58.9185 106.154 58.5093 105.93C58.0131 105.658 57.6589 105.307 57.4484 104.877C57.2371 104.448 57.1601 103.973 57.2176 103.452C57.2751 102.931 57.4501 102.403 57.7426 101.869C57.9353 101.517 58.1517 101.21 58.391 100.946C58.6311 100.682 58.8889 100.454 59.1654 100.263C59.4409 100.071 59.7309 99.9157 60.0344 99.7965L60.5839 100.697Z" fill="white"/>
<path d="M72.9754 94.4166L67.3604 90.6018L70.0335 95.9611L69.6463 96.5308L63.672 96.0304L69.287 99.8451L68.6538 100.778L61.2982 95.7802L61.9669 94.7961L68.5515 95.3782L65.5919 89.4606L66.2538 88.4871L73.6086 93.4841L72.9754 94.4166Z" fill="white"/>
<path d="M70.692 82.9275L71.3024 82.1971L80.4553 85.1103L79.6843 86.033L77.0459 85.1284L74.5934 88.064L75.9511 90.5029L75.1801 91.4256L70.692 82.9275ZM76.1582 84.8237L71.9973 83.3971L74.1369 87.2431L76.1582 84.8237Z" fill="white"/>
<path d="M82.2348 83.2285L75.9308 76.9571L78.6157 74.2578C78.893 73.9796 79.2033 73.7827 79.549 73.6664C79.8939 73.5506 80.2481 73.5024 80.6108 73.5223C80.9743 73.5417 81.3226 73.6237 81.6565 73.7675C81.9905 73.9112 82.2821 74.1069 82.5307 74.3541C82.8206 74.6424 83.0413 74.9713 83.1926 75.3399C83.3447 75.7084 83.4132 76.0834 83.3997 76.4638C83.3853 76.845 83.2822 77.2039 83.0878 77.5408L87.0221 78.4162L86.1218 79.322L82.4267 78.5079L80.7655 80.1771L83.0303 82.4296L82.2348 83.2285ZM80.0554 79.4704L81.9541 77.5615C82.1722 77.3425 82.3016 77.0915 82.3421 76.8078C82.3827 76.5242 82.3481 76.2364 82.2382 75.9443C82.1283 75.6526 81.9575 75.3918 81.7267 75.1619C81.49 74.9265 81.2195 74.7633 80.9151 74.6724C80.6108 74.582 80.3141 74.5638 80.025 74.6175C79.7358 74.6716 79.4882 74.8018 79.2819 75.0089L77.4356 76.8649L80.0554 79.4704Z" fill="white"/>
<path d="M88.887 66.3687L86.5496 68.3566L91.6624 74.3668L90.8043 75.0972L85.6915 69.087L83.354 71.0754L82.7048 70.3124L88.2378 65.6054L88.887 66.3687Z" fill="white"/>
</g>
<defs>
<filter id="filter0_d" x="0" y="0" width="327" height="327" filterUnits="userSpaceOnUse" color-interpolation-filters="sRGB">
<feFlood flood-opacity="0" result="BackgroundImageFix"/>
<feColorMatrix in="SourceAlpha" type="matrix" values="0 0 0 0 0 0 0 0 0 0 0 0 0 0 0 0 0 0 127 0"/>
<feOffset dy="4"/>
<feGaussianBlur stdDeviation="2"/>
<feColorMatrix type="matrix" values="0 0 0 0 0 0 0 0 0 0 0 0 0 0 0 0 0 0 0.25 0"/>
<feBlend mode="normal" in2="BackgroundImageFix" result="effect1_dropShadow"/>
<feBlend mode="normal" in="SourceGraphic" in2="effect1_dropShadow" result="shape"/>
</filter>
</defs>
</svg>
