<svg width="355" height="355" viewBox="0 0 355 355" fill="none" xmlns="http://www.w3.org/2000/svg">
<g filter="url(#filter0_d)">
<circle cx="177.503" cy="173.5" r="136.952" fill="#403E3D"/>
</g>
<path d="M147.711 66.7254C147.593 66.6561 147.432 66.5908 147.231 66.5307C147.028 66.4719 146.798 66.4287 146.538 66.4013C146.278 66.3738 146.006 66.3686 145.723 66.3869C145.438 66.4065 145.153 66.4588 144.871 66.545C144.251 66.7345 143.826 66.9881 143.595 67.3083C143.363 67.6297 143.309 67.993 143.433 68.3995C143.523 68.6988 143.68 68.9092 143.901 69.0294C144.121 69.1509 144.421 69.2163 144.801 69.2254C145.182 69.2359 145.652 69.228 146.214 69.2019C146.898 69.1575 147.505 69.1679 148.037 69.232C148.569 69.2986 149.012 69.4633 149.364 69.7338C149.717 70.0017 149.978 70.4186 150.15 70.9832C150.296 71.4602 150.331 71.898 150.259 72.294C150.186 72.6926 150.024 73.0481 149.771 73.3604C149.518 73.6727 149.199 73.9446 148.814 74.172C148.428 74.4007 147.997 74.5863 147.518 74.7326C147.049 74.8738 146.568 74.9679 146.074 75.011C145.579 75.0554 145.093 75.0463 144.615 74.9835C144.136 74.9221 143.679 74.8071 143.241 74.6398L143.531 73.1591C143.681 73.2389 143.885 73.316 144.144 73.3865C144.403 73.4584 144.694 73.512 145.02 73.5473C145.345 73.5852 145.691 73.5943 146.057 73.5734C146.423 73.5538 146.784 73.4898 147.138 73.3826C147.73 73.2023 148.154 72.9605 148.404 72.6599C148.655 72.358 148.723 72.013 148.604 71.6249C148.508 71.3073 148.329 71.0851 148.067 70.9558C147.807 70.8277 147.461 70.7584 147.031 70.744C146.602 70.7297 146.098 70.7388 145.516 70.7702C144.847 70.7911 144.272 70.7649 143.796 70.6931C143.321 70.6212 142.93 70.4591 142.627 70.2095C142.324 69.9599 142.099 69.5914 141.951 69.1052C141.763 68.4884 141.755 67.9199 141.926 67.3997C142.096 66.8796 142.409 66.4339 142.859 66.0602C143.312 65.6864 143.86 65.4028 144.507 65.2055C144.932 65.0761 145.349 64.999 145.758 64.9781C146.166 64.9546 146.562 64.9729 146.941 65.0303C147.322 65.0892 147.68 65.178 148.016 65.2983L147.711 66.7254Z" fill="#FCC214"/>
<path d="M160.345 71.6153L158.966 64.7307L157.168 70.5241L156.271 70.7031L152.368 66.0506L153.745 72.9353L152.223 73.2411L150.287 63.5819L151.921 63.2539L156.3 68.5193L158.315 61.9732L159.949 61.6465L161.882 71.3056L160.345 71.6153Z" fill="#FCC214"/>
<path d="M168.597 66.7778L166.636 62.6324L165.501 67.0771L168.597 66.7778ZM165.74 61.004L167.204 60.8629L171.965 70.2998L170.335 70.458L169.12 67.8847L165.198 68.265L164.493 71.0225L162.849 71.1806L165.74 61.004Z" fill="#FCC214"/>
<path d="M174.426 65.4967L177.146 65.4405C177.432 65.4339 177.685 65.3451 177.904 65.1752C178.122 65.0026 178.293 64.7766 178.417 64.4904C178.54 64.2055 178.599 63.897 178.592 63.5638C178.586 63.2227 178.505 62.9156 178.351 62.6464C178.198 62.3771 178.002 62.1602 177.762 61.9995C177.523 61.8374 177.265 61.759 176.986 61.7655L174.352 61.8191L174.426 65.4967ZM172.971 70.3282L172.769 60.4769L177.055 60.3894C177.5 60.3802 177.909 60.4652 178.283 60.6416C178.656 60.8193 178.982 61.0572 179.261 61.3565C179.54 61.657 179.759 61.9942 179.921 62.3706C180.081 62.7457 180.166 63.1338 180.174 63.5324C180.183 63.9663 180.112 64.3845 179.963 64.7857C179.814 65.1856 179.597 65.5332 179.312 65.826C179.026 66.1187 178.69 66.3331 178.305 66.4716L180.699 70.1687L178.95 70.204L176.743 66.8218L174.455 66.8689L174.525 70.2955L172.971 70.3282Z" fill="#FCC214"/>
<path d="M189.675 62.351L186.408 62.1171L185.806 70.5739L184.241 70.4641L184.844 62.006L181.564 61.772L181.662 60.4024L189.773 60.9801L189.675 62.351Z" fill="#FCC214"/>
<path d="M195.47 66.9138L197.996 67.3752C198.287 67.4274 198.556 67.3948 198.803 67.2745C199.052 67.1556 199.261 66.9713 199.433 66.7191C199.607 66.4695 199.724 66.1702 199.788 65.8252C199.852 65.471 199.836 65.143 199.74 64.8437C199.644 64.5431 199.495 64.2974 199.29 64.1066C199.084 63.9132 198.847 63.7917 198.573 63.742L196.13 63.2977L195.47 66.9138ZM193.081 71.3585L194.846 61.6667L198.915 62.4077C199.351 62.4874 199.735 62.6521 200.066 62.8991C200.397 63.1487 200.672 63.448 200.891 63.7982C201.109 64.1485 201.256 64.5235 201.334 64.9221C201.412 65.3221 201.415 65.718 201.344 66.1101C201.246 66.6459 201.032 67.1347 200.701 67.579C200.372 68.0221 199.959 68.3527 199.462 68.5736C198.966 68.7931 198.427 68.8506 197.844 68.7448L195.224 68.2664L194.61 71.6382L193.081 71.3585Z" fill="#FCC214"/>
<path d="M204.117 68.7152L206.742 69.4262C207.018 69.5007 207.286 69.4876 207.543 69.3843C207.802 69.2824 208.03 69.1112 208.23 68.8734C208.427 68.6342 208.571 68.3545 208.658 68.033C208.747 67.7037 208.756 67.3861 208.684 67.0843C208.614 66.7824 208.486 66.5197 208.301 66.2975C208.117 66.0753 207.891 65.9277 207.623 65.8558L205.079 65.1658L204.117 68.7152ZM201.362 72.943L203.938 63.4341L208.077 64.5541C208.505 64.6704 208.874 64.8665 209.182 65.1422C209.491 65.418 209.738 65.7382 209.921 66.1041C210.104 66.47 210.22 66.8568 210.268 67.262C210.317 67.6684 210.289 68.0644 210.185 68.446C210.071 68.8668 209.887 69.2484 209.631 69.5908C209.374 69.9332 209.069 70.2051 208.712 70.405C208.356 70.6063 207.973 70.7187 207.564 70.7409L208.822 74.9634L207.134 74.506L205.967 70.6403L203.757 70.0404L202.861 73.3481L201.362 72.943Z" fill="#FCC214"/>
<path d="M212.58 71.0584C212.418 71.491 212.331 71.9367 212.318 72.3967C212.303 72.8554 212.366 73.2906 212.503 73.7036C212.641 74.1152 212.859 74.4799 213.154 74.7974C213.45 75.115 213.823 75.3594 214.274 75.5267C214.742 75.7018 215.194 75.7619 215.629 75.707C216.065 75.6521 216.466 75.5084 216.834 75.2758C217.203 75.0431 217.527 74.7491 217.808 74.3949C218.088 74.0408 218.305 73.6591 218.456 73.2514C218.618 72.8188 218.707 72.3758 218.724 71.9223C218.74 71.4688 218.676 71.0362 218.535 70.6233C218.393 70.2103 218.175 69.8457 217.885 69.5281C217.592 69.2118 217.226 68.9714 216.783 68.8067C216.316 68.6303 215.865 68.5715 215.429 68.6264C214.994 68.6812 214.59 68.8211 214.219 69.0485C213.848 69.2759 213.521 69.5634 213.238 69.911C212.956 70.26 212.736 70.6429 212.58 71.0584ZM213.771 76.8348C213.103 76.5866 212.549 76.2311 212.11 75.7711C211.67 75.3084 211.338 74.7831 211.114 74.1924C210.891 73.599 210.778 72.9848 210.773 72.3457C210.77 71.708 210.879 71.0937 211.098 70.5043C211.328 69.8901 211.66 69.3438 212.094 68.8694C212.528 68.3937 213.026 68.0121 213.588 67.7246C214.151 67.4358 214.751 67.2633 215.388 67.211C216.024 67.1574 216.659 67.2489 217.292 67.4855C217.95 67.7311 218.501 68.0905 218.942 68.5597C219.383 69.0302 219.712 69.5647 219.93 70.1593C220.147 70.7539 220.258 71.3669 220.264 72.0007C220.269 72.6359 220.163 73.2436 219.946 73.8238C219.716 74.4394 219.387 74.9856 218.957 75.4613C218.528 75.937 218.031 76.3199 217.469 76.6088C216.908 76.8976 216.308 77.0662 215.673 77.1145C215.037 77.1655 214.404 77.0701 213.771 76.8348Z" fill="#FCC214"/>
<path d="M222.956 75.3743L225.269 76.4852C225.536 76.6145 225.805 76.6524 226.074 76.6041C226.345 76.5531 226.597 76.4303 226.83 76.2342C227.062 76.0382 227.254 75.7807 227.406 75.4645C227.563 75.1391 227.635 74.8189 227.62 74.5065C227.609 74.1916 227.528 73.9145 227.381 73.6754C227.235 73.4349 227.036 73.2558 226.787 73.1343L224.547 72.0601L222.956 75.3743ZM219.476 79.0296L223.742 70.1494L227.469 71.9385C227.869 72.1306 228.195 72.3907 228.449 72.7174C228.702 73.0442 228.888 73.4061 229.006 73.8008C229.125 74.1955 229.168 74.5967 229.138 75.0019C229.106 75.4083 229.004 75.7912 228.832 76.1493C228.597 76.642 228.261 77.0576 227.826 77.396C227.39 77.7371 226.904 77.9489 226.367 78.0286C225.831 78.1109 225.295 78.022 224.762 77.7646L222.36 76.6132L220.877 79.7027L219.476 79.0296Z" fill="#FCC214"/>
<path d="M233.588 84.9876L232.895 86.1729L227.059 82.7685L232.022 74.2594L237.751 77.5998L237.059 78.7877L232.673 76.2276L231.26 78.6505L235.059 80.8657L234.41 81.9804L230.609 79.764L229.093 82.366L233.588 84.9876Z" fill="#FCC214"/>
<path d="M238.092 83.8904L240.32 85.4482C240.556 85.6129 240.813 85.6913 241.09 85.6822C241.367 85.673 241.639 85.5894 241.908 85.4326C242.175 85.2757 242.405 85.0614 242.596 84.7883C242.792 84.5086 242.907 84.2133 242.942 83.9048C242.977 83.5964 242.947 83.305 242.848 83.0344C242.751 82.7626 242.588 82.547 242.36 82.3875L240.2 80.8768L238.092 83.8904ZM234.067 86.9342L239.714 78.8603L243.228 81.3185C243.592 81.572 243.872 81.8818 244.07 82.2451C244.266 82.6097 244.389 82.9939 244.438 83.4004C244.487 83.8068 244.464 84.2093 244.372 84.6079C244.28 85.0078 244.119 85.3685 243.892 85.6952C243.642 86.0507 243.339 86.3474 242.982 86.5839C242.626 86.8179 242.245 86.9708 241.843 87.0387C241.439 87.1067 241.042 87.0832 240.65 86.9642L240.4 91.3632L238.968 90.3621L239.181 86.3278L237.305 85.0157L235.34 87.8242L234.067 86.9342Z" fill="#FCC214"/>
<path d="M252.269 90.1936L249.749 88.1013L244.335 94.6253L243.129 93.6242L248.543 87.1003L246.013 85.0001L246.89 83.9429L253.146 89.1351L252.269 90.1936Z" fill="#FCC214"/>
<path d="M255.053 90.9307L253.568 96.3307L258.959 94.756L260.179 95.9504L253.123 97.8977L250.657 100.415L249.547 99.3274L252.033 96.7895L253.834 89.7349L255.053 90.9307Z" fill="#FCC214"/>
<path d="M269.594 111.432C269.623 111.297 269.634 111.124 269.625 110.914C269.617 110.704 269.584 110.471 269.527 110.217C269.469 109.962 269.385 109.703 269.277 109.44C269.167 109.176 269.027 108.925 268.855 108.684C268.477 108.157 268.099 107.837 267.722 107.72C267.343 107.604 266.982 107.671 266.637 107.918C266.382 108.099 266.233 108.315 266.19 108.562C266.146 108.81 266.18 109.116 266.293 109.478C266.406 109.842 266.565 110.285 266.77 110.809C267.03 111.442 267.216 112.021 267.324 112.547C267.434 113.07 267.419 113.543 267.277 113.962C267.136 114.383 266.825 114.765 266.346 115.108C265.94 115.398 265.538 115.573 265.138 115.632C264.738 115.691 264.349 115.652 263.972 115.512C263.593 115.372 263.235 115.158 262.895 114.866C262.556 114.574 262.241 114.226 261.951 113.82C261.664 113.421 261.423 112.995 261.223 112.54C261.021 112.085 260.874 111.623 260.78 111.15C260.685 110.677 260.648 110.206 260.665 109.74L262.16 109.537C262.132 109.706 262.126 109.924 262.141 110.19C262.157 110.458 262.2 110.752 262.269 111.073C262.339 111.391 262.442 111.722 262.579 112.063C262.714 112.403 262.89 112.725 263.106 113.025C263.467 113.53 263.831 113.851 264.197 113.992C264.564 114.135 264.912 114.086 265.241 113.851C265.512 113.658 265.665 113.417 265.703 113.128C265.739 112.84 265.696 112.489 265.572 112.078C265.446 111.667 265.277 111.19 265.061 110.652C264.826 110.023 264.666 109.472 264.581 108.999C264.496 108.523 264.524 108.103 264.664 107.735C264.803 107.368 265.079 107.037 265.492 106.74C266.016 106.365 266.552 106.173 267.1 106.169C267.647 106.164 268.17 106.316 268.668 106.624C269.167 106.932 269.613 107.361 270.006 107.91C270.266 108.271 270.471 108.641 270.624 109.021C270.777 109.401 270.886 109.78 270.952 110.159C271.019 110.538 271.05 110.907 271.044 111.263L269.594 111.432Z" fill="#FCC214"/>
<path d="M269.025 124.962L275.101 121.442L269.036 121.604L268.577 120.811L271.727 115.62L265.651 119.139L264.872 117.794L273.397 112.856L274.232 114.297L270.655 120.136L277.502 119.94L278.336 121.38L269.811 126.318L269.025 124.962Z" fill="#FCC214"/>
<path d="M276.261 131.224L279.557 128.036L274.983 128.389L276.261 131.224ZM280.811 126.664L281.416 128.004L274.008 135.546L273.335 134.053L275.382 132.075L273.762 128.483L270.923 128.703L270.244 127.196L280.811 126.664Z" fill="#FCC214"/>
<path d="M279.371 136.356L280.269 138.925C280.363 139.196 280.525 139.408 280.756 139.562C280.986 139.717 281.256 139.809 281.564 139.838C281.874 139.868 282.186 139.827 282.501 139.717C282.823 139.605 283.089 139.432 283.298 139.204C283.507 138.975 283.651 138.72 283.73 138.442C283.809 138.165 283.804 137.895 283.713 137.633L282.843 135.143L279.371 136.356ZM274.327 136.474L283.628 133.225L285.042 137.272C285.188 137.69 285.234 138.106 285.181 138.516C285.129 138.927 285.004 139.311 284.805 139.669C284.608 140.028 284.354 140.341 284.046 140.61C283.739 140.88 283.398 141.079 283.021 141.211C282.611 141.353 282.193 141.418 281.765 141.399C281.338 141.382 280.941 141.284 280.573 141.104C280.207 140.922 279.898 140.67 279.648 140.346L276.875 143.769L276.299 142.118L278.83 138.971L278.075 136.809L274.839 137.94L274.327 136.474Z" fill="#FCC214"/>
<path d="M287.188 149.781L286.37 146.61L278.16 148.729L277.768 147.211L285.978 145.092L285.155 141.907L286.485 141.564L288.518 149.439L287.188 149.781Z" fill="#FCC214"/>
<path d="M284.702 156.736L285.068 159.277C285.11 159.57 285.228 159.814 285.42 160.012C285.611 160.209 285.854 160.349 286.145 160.432C286.438 160.517 286.758 160.534 287.107 160.485C287.464 160.432 287.768 160.313 288.022 160.128C288.275 159.941 288.462 159.72 288.579 159.465C288.696 159.21 288.736 158.946 288.696 158.671L288.342 156.212L284.702 156.736ZM279.729 155.882L289.48 154.48L290.07 158.571C290.133 159.01 290.099 159.426 289.969 159.819C289.839 160.211 289.641 160.568 289.38 160.886C289.117 161.203 288.809 161.463 288.455 161.663C288.099 161.865 287.725 161.993 287.332 162.049C286.791 162.127 286.259 162.08 285.734 161.908C285.21 161.737 284.764 161.449 284.398 161.049C284.032 160.648 283.807 160.154 283.722 159.57L283.342 156.933L279.951 157.42L279.729 155.882Z" fill="#FCC214"/>
<path d="M285.744 165.527L285.905 168.241C285.922 168.529 286.022 168.779 286.201 168.99C286.38 169.201 286.614 169.364 286.904 169.476C287.193 169.589 287.504 169.635 287.835 169.615C288.177 169.595 288.48 169.503 288.744 169.339C289.008 169.175 289.216 168.969 289.367 168.724C289.52 168.479 289.588 168.218 289.571 167.941L289.414 165.309L285.744 165.527ZM280.859 164.261L290.694 163.675L290.948 167.957C290.975 168.4 290.907 168.813 290.743 169.192C290.581 169.572 290.355 169.908 290.066 170.198C289.777 170.489 289.449 170.721 289.08 170.896C288.71 171.071 288.327 171.17 287.93 171.194C287.496 171.22 287.075 171.166 286.67 171.033C286.263 170.9 285.908 170.696 285.605 170.423C285.3 170.148 285.073 169.821 284.92 169.441L281.318 171.977L281.214 170.232L284.509 167.894L284.374 165.608L280.952 165.812L280.859 164.261Z" fill="#FCC214"/>
<path d="M286.221 174.247C285.76 174.233 285.309 174.294 284.87 174.429C284.431 174.562 284.039 174.761 283.692 175.023C283.346 175.285 283.07 175.609 282.864 175.99C282.659 176.373 282.547 176.805 282.533 177.284C282.517 177.785 282.605 178.232 282.797 178.626C282.988 179.021 283.253 179.354 283.592 179.629C283.93 179.903 284.312 180.116 284.739 180.268C285.164 180.421 285.594 180.503 286.028 180.516C286.492 180.531 286.939 180.473 287.374 180.344C287.808 180.213 288.198 180.014 288.543 179.748C288.89 179.48 289.165 179.158 289.372 178.781C289.578 178.403 289.688 177.978 289.703 177.506C289.718 177.007 289.631 176.559 289.439 176.167C289.248 175.771 288.985 175.434 288.651 175.155C288.317 174.877 287.94 174.659 287.519 174.502C287.098 174.345 286.665 174.26 286.221 174.247ZM281.132 177.228C281.154 176.516 281.312 175.878 281.608 175.312C281.903 174.748 282.295 174.264 282.784 173.864C283.273 173.462 283.819 173.157 284.423 172.949C285.027 172.74 285.642 172.647 286.271 172.666C286.927 172.687 287.55 172.825 288.138 173.085C288.728 173.344 289.249 173.692 289.703 174.132C290.157 174.573 290.512 175.085 290.766 175.672C291.021 176.258 291.138 176.888 291.117 177.564C291.096 178.266 290.932 178.902 290.628 179.472C290.323 180.04 289.925 180.523 289.431 180.92C288.938 181.316 288.392 181.619 287.793 181.827C287.193 182.035 286.584 182.13 285.965 182.111C285.309 182.091 284.686 181.954 284.097 181.699C283.508 181.445 282.987 181.098 282.533 180.659C282.078 180.218 281.727 179.705 281.477 179.12C281.226 178.534 281.111 177.904 281.132 177.228Z" fill="#FCC214"/>
<path d="M285.465 185.463L285.157 188.01C285.121 188.304 285.171 188.571 285.304 188.813C285.439 189.052 285.636 189.249 285.898 189.407C286.158 189.564 286.462 189.665 286.811 189.707C287.169 189.75 287.495 189.715 287.787 189.601C288.081 189.487 288.318 189.322 288.498 189.106C288.677 188.891 288.784 188.646 288.817 188.368L289.115 185.904L285.465 185.463ZM280.884 183.345L290.665 184.525L290.17 188.63C290.116 189.072 289.976 189.464 289.748 189.809C289.52 190.154 289.238 190.446 288.901 190.686C288.565 190.923 288.199 191.095 287.806 191.195C287.411 191.297 287.016 191.325 286.622 191.276C286.079 191.211 285.577 191.028 285.116 190.725C284.653 190.422 284.298 190.029 284.05 189.549C283.8 189.065 283.711 188.53 283.782 187.944L284.101 185.299L280.697 184.888L280.884 183.345Z" fill="#FCC214"/>
<path d="M279.782 198.636L278.436 198.363L279.782 191.741L289.436 193.704L288.115 200.203L286.769 199.93L287.78 194.952L285.035 194.394L284.158 198.704L282.894 198.448L283.77 194.138L280.819 193.536L279.782 198.636Z" fill="#FCC214"/>
<path d="M282.269 202.547L281.507 205.158C281.427 205.434 281.436 205.701 281.534 205.961C281.632 206.221 281.797 206.452 282.032 206.655C282.267 206.858 282.544 207.007 282.865 207.1C283.193 207.197 283.509 207.211 283.812 207.145C284.115 207.079 284.379 206.956 284.607 206.776C284.831 206.597 284.984 206.374 285.062 206.108L285.799 203.577L282.269 202.547ZM278.095 199.711L287.552 202.469L286.353 206.585C286.229 207.01 286.026 207.376 285.745 207.679C285.464 207.984 285.139 208.223 284.769 208.399C284.399 208.576 284.011 208.684 283.604 208.726C283.198 208.765 282.803 208.73 282.422 208.617C282.003 208.497 281.626 208.305 281.289 208.044C280.95 207.781 280.685 207.47 280.49 207.109C280.297 206.749 280.192 206.366 280.176 205.955L275.932 207.132L276.42 205.454L280.31 204.36L280.95 202.163L277.659 201.204L278.095 199.711Z" fill="#FCC214"/>
<path d="M280.85 217.977L282.024 214.92L274.11 211.88L274.672 210.417L282.586 213.456L283.765 210.385L285.047 210.878L282.133 218.468L280.85 217.977Z" fill="#FCC214"/>
<path d="M281.02 220.9L275.426 221.217L278.64 225.822L277.896 227.358L273.8 221.294L270.627 219.759L271.304 218.36L274.502 219.907L281.762 219.363L281.02 220.9Z" fill="#FCC214"/>
<path d="M266.228 241.199C266.365 241.183 266.531 241.138 266.727 241.063C266.925 240.989 267.135 240.883 267.357 240.748C267.581 240.612 267.8 240.45 268.015 240.265C268.229 240.076 268.424 239.863 268.597 239.623C268.976 239.098 269.161 238.638 269.149 238.243C269.14 237.847 268.962 237.525 268.618 237.278C268.365 237.093 268.113 237.021 267.864 237.058C267.616 237.095 267.336 237.225 267.029 237.447C266.721 237.669 266.35 237.962 265.918 238.324C265.402 238.772 264.912 239.132 264.449 239.402C263.987 239.674 263.535 239.808 263.092 239.808C262.647 239.808 262.187 239.635 261.708 239.29C261.304 238.998 261.011 238.673 260.828 238.312C260.644 237.95 260.558 237.57 260.571 237.167C260.582 236.765 260.671 236.357 260.84 235.943C261.008 235.527 261.238 235.117 261.531 234.712C261.819 234.316 262.145 233.95 262.511 233.614C262.879 233.281 263.271 232.993 263.689 232.754C264.107 232.513 264.542 232.328 264.99 232.196L265.657 233.549C265.488 233.576 265.281 233.639 265.031 233.739C264.783 233.839 264.517 233.973 264.236 234.141C263.955 234.309 263.676 234.512 263.396 234.748C263.116 234.986 262.868 235.255 262.651 235.556C262.289 236.059 262.1 236.505 262.081 236.898C262.066 237.291 262.221 237.606 262.549 237.843C262.818 238.038 263.095 238.107 263.38 238.049C263.667 237.993 263.984 237.839 264.334 237.592C264.685 237.342 265.081 237.029 265.524 236.652C266.045 236.23 266.517 235.904 266.939 235.672C267.362 235.44 267.77 235.332 268.162 235.348C268.556 235.362 268.958 235.521 269.369 235.816C269.893 236.195 270.244 236.642 270.423 237.158C270.601 237.676 270.624 238.221 270.491 238.79C270.357 239.362 270.094 239.921 269.698 240.468C269.438 240.829 269.153 241.141 268.841 241.407C268.529 241.672 268.205 241.897 267.867 242.082C267.528 242.267 267.19 242.412 266.849 242.52L266.228 241.199Z" fill="#FCC214"/>
<path d="M253.219 244.971L258.491 249.608L256.405 243.913L257.01 243.224L262.936 244.556L257.664 239.919L258.691 238.752L266.088 245.258L264.989 246.508L258.312 244.98L260.681 251.405L259.581 252.656L252.184 246.149L253.219 244.971Z" fill="#FCC214"/>
<path d="M249.584 253.838L253.658 255.943L251.861 251.72L249.584 253.838ZM255.358 256.693L254.28 257.694L244.768 253.085L245.968 251.97L248.497 253.276L251.383 250.594L250.268 247.974L251.478 246.851L255.358 256.693Z" fill="#FCC214"/>
<path d="M245.715 258.43L243.57 260.103C243.344 260.278 243.194 260.501 243.122 260.768C243.049 261.036 243.049 261.321 243.12 261.624C243.19 261.924 243.329 262.208 243.534 262.469C243.744 262.74 243.991 262.936 244.276 263.061C244.561 263.187 244.847 263.24 245.135 263.227C245.424 263.214 245.677 263.121 245.897 262.952L247.976 261.33L245.715 258.43ZM243.989 253.688L250.046 261.458L246.664 264.094C246.315 264.367 245.937 264.545 245.531 264.626C245.126 264.707 244.721 264.711 244.318 264.639C243.915 264.566 243.536 264.427 243.184 264.222C242.829 264.017 242.53 263.755 242.286 263.443C242.019 263.099 241.824 262.724 241.704 262.314C241.584 261.902 241.55 261.494 241.604 261.089C241.657 260.684 241.797 260.31 242.024 259.969L237.893 258.44L239.272 257.365L243.065 258.755L244.87 257.348L242.763 254.644L243.989 253.688Z" fill="#FCC214"/>
<path d="M235.516 270.134L238.255 268.34L233.61 261.247L234.922 260.388L239.567 267.48L242.318 265.68L243.071 266.828L236.268 271.284L235.516 270.134Z" fill="#FCC214"/>
<path d="M228.141 270.011L225.853 271.174C225.59 271.309 225.395 271.497 225.271 271.744C225.147 271.989 225.092 272.263 225.106 272.566C225.121 272.871 225.207 273.179 225.367 273.493C225.53 273.814 225.742 274.065 225.999 274.246C226.257 274.426 226.526 274.531 226.804 274.559C227.084 274.588 227.348 274.541 227.595 274.416L229.809 273.289L228.141 270.011ZM227.35 265.027L231.816 273.808L228.132 275.683C227.735 275.884 227.331 275.986 226.917 275.989C226.504 275.992 226.104 275.921 225.718 275.775C225.333 275.628 224.988 275.419 224.683 275.149C224.38 274.877 224.137 274.565 223.956 274.21C223.709 273.724 223.583 273.204 223.577 272.653C223.571 272.1 223.699 271.585 223.96 271.11C224.222 270.635 224.616 270.264 225.144 269.994L227.519 268.787L225.965 265.733L227.35 265.027Z" fill="#FCC214"/>
<path d="M220.158 273.825L217.637 274.849C217.373 274.958 217.167 275.13 217.025 275.368C216.881 275.606 216.804 275.88 216.79 276.19C216.775 276.5 216.832 276.81 216.957 277.118C217.086 277.434 217.271 277.693 217.51 277.889C217.75 278.086 218.012 278.217 218.291 278.282C218.574 278.348 218.843 278.329 219.099 278.225L221.542 277.232L220.158 273.825ZM219.789 268.792L223.498 277.919L219.528 279.533C219.115 279.7 218.703 279.768 218.291 279.737C217.878 279.704 217.489 279.598 217.12 279.418C216.753 279.238 216.426 279.001 216.143 278.707C215.859 278.413 215.642 278.081 215.492 277.714C215.329 277.31 215.244 276.895 215.24 276.469C215.236 276.04 215.314 275.639 215.478 275.264C215.638 274.889 215.875 274.567 216.186 274.302L212.629 271.704L214.248 271.044L217.519 273.414L219.64 272.553L218.349 269.377L219.789 268.792Z" fill="#FCC214"/>
<path d="M212.032 277.08C211.898 276.637 211.698 276.229 211.432 275.856C211.165 275.481 210.854 275.174 210.496 274.929C210.139 274.686 209.747 274.526 209.321 274.453C208.894 274.378 208.451 274.412 207.993 274.551C207.516 274.696 207.123 274.921 206.811 275.228C206.5 275.536 206.267 275.893 206.115 276.302C205.965 276.71 205.885 277.14 205.876 277.591C205.867 278.044 205.926 278.478 206.051 278.895C206.185 279.337 206.382 279.744 206.643 280.114C206.904 280.484 207.215 280.79 207.577 281.034C207.939 281.276 208.331 281.436 208.753 281.51C209.175 281.586 209.61 281.556 210.06 281.417C210.537 281.274 210.93 281.047 211.242 280.74C211.553 280.433 211.789 280.076 211.945 279.673C212.102 279.266 212.189 278.839 212.203 278.391C212.217 277.942 212.16 277.504 212.032 277.08ZM207.603 273.206C208.281 273 208.934 272.946 209.562 273.045C210.189 273.146 210.768 273.363 211.302 273.699C211.837 274.035 212.298 274.456 212.686 274.961C213.075 275.467 213.358 276.02 213.54 276.624C213.729 277.251 213.795 277.886 213.738 278.526C213.681 279.168 213.516 279.772 213.244 280.343C212.974 280.913 212.602 281.412 212.13 281.841C211.657 282.271 211.099 282.582 210.454 282.776C209.785 282.98 209.132 283.029 208.499 282.92C207.864 282.814 207.283 282.59 206.752 282.248C206.22 281.906 205.761 281.485 205.374 280.985C204.988 280.483 204.705 279.935 204.526 279.343C204.338 278.713 204.269 278.079 204.322 277.442C204.375 276.801 204.537 276.196 204.809 275.626C205.079 275.055 205.452 274.559 205.926 274.134C206.399 273.709 206.958 273.401 207.603 273.206Z" fill="#FCC214"/>
<path d="M201.151 279.932L198.637 280.451C198.347 280.511 198.11 280.643 197.925 280.844C197.741 281.049 197.614 281.299 197.549 281.595C197.482 281.892 197.485 282.212 197.555 282.557C197.629 282.911 197.766 283.208 197.966 283.451C198.167 283.692 198.398 283.864 198.66 283.966C198.921 284.068 199.189 284.092 199.461 284.035L201.892 283.535L201.151 279.932ZM201.705 274.917L203.691 284.567L199.642 285.4C199.207 285.49 198.79 285.481 198.391 285.375C197.991 285.268 197.625 285.093 197.291 284.851C196.958 284.608 196.68 284.315 196.459 283.974C196.238 283.632 196.086 283.266 196.005 282.876C195.896 282.342 195.911 281.807 196.052 281.273C196.192 280.739 196.451 280.278 196.829 279.887C197.206 279.498 197.686 279.244 198.265 279.125L200.875 278.588L200.182 275.231L201.705 274.917Z" fill="#FCC214"/>
<path d="M186.887 278.723L186.719 277.36L193.426 276.532L194.633 286.31L188.051 287.123L187.882 285.761L192.923 285.136L192.579 282.355L188.214 282.894L188.056 281.614L192.421 281.074L192.052 278.086L186.887 278.723Z" fill="#FCC214"/>
<path d="M183.94 282.329L181.222 282.439C180.936 282.452 180.685 282.545 180.469 282.721C180.255 282.896 180.088 283.128 179.97 283.415C179.852 283.701 179.8 284.012 179.813 284.344C179.827 284.687 179.915 284.991 180.073 285.258C180.233 285.524 180.433 285.736 180.676 285.892C180.917 286.05 181.177 286.122 181.456 286.111L184.089 286.003L183.94 282.329ZM185.297 277.469L185.698 287.311L181.414 287.489C180.97 287.506 180.561 287.429 180.183 287.26C179.805 287.09 179.475 286.857 179.188 286.563C178.905 286.271 178.677 285.937 178.51 285.564C178.342 285.191 178.25 284.807 178.233 284.41C178.216 283.974 178.278 283.555 178.417 283.151C178.56 282.747 178.769 282.396 179.049 282.098C179.328 281.8 179.659 281.578 180.042 281.433L177.574 277.784L179.322 277.713L181.596 281.05L183.884 280.956L183.743 277.533L185.297 277.469Z" fill="#FCC214"/>
<path d="M168.86 285.919L172.132 286.051L172.474 277.58L174.04 277.644L173.699 286.115L176.984 286.248L176.93 287.62L168.805 287.292L168.86 285.919Z" fill="#FCC214"/>
<path d="M166.183 287.023L164.085 281.828L160.759 286.352L159.064 286.143L163.489 280.315L163.921 276.816L165.463 277.008L165.028 280.533L167.877 287.232L166.183 287.023Z" fill="#FCC214"/>
<path d="M142.166 279.53C142.225 279.654 142.322 279.798 142.455 279.96C142.588 280.122 142.757 280.286 142.956 280.455C143.157 280.623 143.379 280.778 143.625 280.921C143.871 281.066 144.136 281.182 144.418 281.268C145.038 281.46 145.533 281.485 145.904 281.35C146.275 281.213 146.523 280.941 146.648 280.536C146.74 280.237 146.729 279.974 146.614 279.752C146.499 279.527 146.286 279.306 145.977 279.085C145.667 278.864 145.273 278.607 144.792 278.316C144.201 277.968 143.703 277.62 143.298 277.269C142.893 276.916 142.62 276.532 142.479 276.112C142.338 275.691 142.353 275.2 142.527 274.637C142.673 274.16 142.888 273.777 143.17 273.488C143.454 273.199 143.787 272.995 144.171 272.876C144.557 272.76 144.972 272.713 145.419 272.74C145.865 272.768 146.327 272.854 146.804 273C147.274 273.146 147.726 273.336 148.158 273.578C148.594 273.819 148.991 274.097 149.353 274.417C149.715 274.736 150.03 275.088 150.298 275.47L149.23 276.536C149.15 276.385 149.024 276.208 148.85 276.004C148.675 275.8 148.463 275.593 148.213 275.382C147.965 275.169 147.683 274.967 147.368 274.779C147.054 274.59 146.72 274.442 146.367 274.332C145.773 274.151 145.288 274.113 144.911 274.224C144.534 274.333 144.286 274.58 144.166 274.967C144.069 275.285 144.093 275.571 144.236 275.822C144.383 276.076 144.629 276.326 144.977 276.58C145.325 276.831 145.749 277.107 146.248 277.405C146.815 277.763 147.276 278.105 147.63 278.431C147.985 278.757 148.217 279.109 148.328 279.486C148.439 279.863 148.421 280.294 148.272 280.779C148.081 281.396 147.77 281.873 147.338 282.207C146.906 282.543 146.398 282.738 145.814 282.794C145.231 282.852 144.615 282.781 143.97 282.581C143.546 282.45 143.158 282.279 142.807 282.07C142.455 281.861 142.139 281.626 141.855 281.364C141.573 281.103 141.326 280.829 141.114 280.541L142.166 279.53Z" fill="#FCC214"/>
<path d="M134.437 268.411L131.728 274.888L136.46 271.091L137.305 271.446L137.937 277.486L140.646 271.008L142.08 271.608L138.278 280.697L136.743 280.054L136.058 273.24L130.726 277.537L129.189 276.895L132.991 267.806L134.437 268.411Z" fill="#FCC214"/>
<path d="M124.91 267.811L124.214 272.344L127.642 269.295L124.91 267.811ZM124.046 274.195L122.752 273.493L124.089 263.008L125.528 263.79L125.095 266.602L128.558 268.483L130.686 266.59L132.137 267.38L124.046 274.195Z" fill="#FCC214"/>
<path d="M119.32 265.602L117.051 264.102C116.813 263.944 116.554 263.873 116.277 263.89C116 263.906 115.73 263.996 115.466 264.159C115.203 264.324 114.978 264.545 114.795 264.822C114.606 265.107 114.498 265.405 114.471 265.715C114.444 266.023 114.483 266.312 114.587 266.581C114.692 266.85 114.86 267.061 115.092 267.215L117.29 268.669L119.32 265.602ZM123.265 262.457L117.828 270.673L114.253 268.306C113.883 268.062 113.594 267.761 113.388 267.402C113.181 267.042 113.048 266.661 112.989 266.256C112.93 265.852 112.942 265.448 113.023 265.047C113.105 264.647 113.256 264.281 113.475 263.949C113.716 263.587 114.011 263.283 114.361 263.038C114.711 262.794 115.088 262.632 115.489 262.553C115.89 262.474 116.289 262.488 116.684 262.595L116.819 258.192L118.277 259.157L118.168 263.194L120.077 264.457L121.969 261.599L123.265 262.457Z" fill="#FCC214"/>
<path d="M104.98 259.665L107.553 261.691L112.797 255.03L114.03 255.999L108.785 262.66L111.369 264.695L110.518 265.773L104.13 260.745L104.98 259.665Z" fill="#FCC214"/>
<path d="M102.744 252.636L100.91 250.839C100.7 250.632 100.458 250.508 100.186 250.468C99.9143 250.429 99.636 250.464 99.3524 250.575C99.0688 250.687 98.8048 250.867 98.5578 251.118C98.3056 251.375 98.1357 251.655 98.0468 251.957C97.9579 252.259 97.9449 252.546 98.0063 252.821C98.0677 253.095 98.1984 253.33 98.3957 253.524L100.169 255.262L102.744 252.636ZM107.215 250.296L100.318 257.332L97.3646 254.436C97.0483 254.126 96.8223 253.775 96.6876 253.384C96.553 252.993 96.4929 252.591 96.5086 252.179C96.5243 251.766 96.6118 251.373 96.7713 250.999C96.9307 250.624 97.1503 250.296 97.4286 250.011C97.8116 249.621 98.2624 249.335 98.7839 249.154C99.3053 248.971 99.8333 248.929 100.368 249.025C100.902 249.121 101.381 249.376 101.803 249.791L103.706 251.655L106.105 249.208L107.215 250.296Z" fill="#FCC214"/>
<path d="M96.5822 246.287L94.8048 244.228C94.6179 244.011 94.3892 243.873 94.1174 243.813C93.8469 243.753 93.562 243.768 93.264 243.854C92.966 243.94 92.6903 244.092 92.4381 244.31C92.1793 244.533 91.995 244.79 91.8839 245.081C91.7742 245.371 91.7337 245.66 91.7611 245.947C91.7899 246.234 91.8944 246.483 92.0748 246.694L93.7972 248.689L96.5822 246.287ZM101.232 244.327L93.7724 250.763L90.9717 247.517C90.6816 247.181 90.4856 246.811 90.3837 246.411C90.283 246.01 90.2582 245.606 90.3105 245.2C90.364 244.795 90.4843 244.409 90.6725 244.046C90.8594 243.683 91.1037 243.372 91.4043 243.113C91.7337 242.828 92.1009 242.615 92.5034 242.475C92.9085 242.334 93.3137 242.28 93.7214 242.313C94.1292 242.347 94.5082 242.467 94.861 242.678L96.1836 238.476L97.3245 239.799L96.1261 243.656L97.6225 245.391L100.217 243.151L101.232 244.327Z" fill="#FCC214"/>
<path d="M90.8899 239.626C91.2663 239.355 91.5878 239.035 91.857 238.661C92.1249 238.289 92.3157 237.893 92.4321 237.475C92.5484 237.056 92.5732 236.633 92.5052 236.203C92.4373 235.774 92.2635 235.364 91.9838 234.972C91.6937 234.565 91.3526 234.264 90.9618 234.066C90.5698 233.869 90.1568 233.763 89.7203 233.75C89.2851 233.737 88.8525 233.798 88.4212 233.937C87.9913 234.074 87.5992 234.267 87.2451 234.521C86.8687 234.79 86.5472 235.108 86.2806 235.474C86.014 235.841 85.8232 236.236 85.7095 236.656C85.5971 237.081 85.5722 237.503 85.6376 237.928C85.7029 238.354 85.8728 238.758 86.146 239.143C86.4361 239.549 86.7772 239.852 87.1693 240.049C87.56 240.246 87.973 240.356 88.4082 240.374C88.8421 240.394 89.2746 240.338 89.7046 240.207C90.1333 240.077 90.5292 239.883 90.8899 239.626ZM93.1325 234.169C93.5468 234.748 93.8069 235.353 93.9154 235.979C94.0225 236.608 94.0042 237.231 93.8579 237.847C93.7115 238.463 93.4619 239.035 93.109 239.567C92.7549 240.097 92.321 240.546 91.81 240.913C91.2755 241.295 90.6952 241.56 90.0705 241.711C89.4445 241.862 88.8185 241.9 88.1912 241.825C87.5639 241.751 86.9706 241.559 86.4126 241.246C85.8545 240.935 85.3788 240.503 84.9868 239.955C84.5777 239.381 84.3216 238.777 84.2196 238.141C84.1164 237.503 84.1412 236.877 84.2941 236.262C84.4457 235.648 84.6966 235.076 85.0469 234.547C85.3971 234.019 85.8245 233.575 86.3289 233.215C86.8634 232.834 87.4411 232.563 88.0645 232.409C88.6865 232.255 89.3125 232.214 89.9385 232.289C90.5671 232.365 91.1578 232.558 91.712 232.873C92.2661 233.188 92.7392 233.619 93.1325 234.169Z" fill="#FCC214"/>
<path d="M84.6881 230.229L83.3891 228.013C83.2388 227.758 83.0389 227.575 82.7866 227.467C82.5344 227.357 82.2573 227.318 81.9555 227.352C81.6523 227.384 81.3491 227.489 81.0459 227.668C80.7348 227.848 80.497 228.074 80.3323 228.342C80.1677 228.61 80.0801 228.886 80.067 229.167C80.0553 229.447 80.1193 229.707 80.2591 229.946L81.5163 232.088L84.6881 230.229ZM89.6151 229.141L81.1164 234.124L79.0254 230.557C78.8007 230.174 78.6752 229.777 78.6464 229.363C78.6203 228.95 78.6674 228.547 78.7902 228.153C78.913 227.759 79.1012 227.404 79.3535 227.085C79.6057 226.765 79.9037 226.503 80.2461 226.302C80.7165 226.026 81.2275 225.868 81.779 225.829C82.3292 225.791 82.8494 225.888 83.3408 226.12C83.8308 226.353 84.2255 226.726 84.5248 227.235L85.8722 229.534L88.8296 227.8L89.6151 229.141Z" fill="#FCC214"/>
<path d="M81.2526 216.349L82.4889 215.752L85.4307 221.835L76.5609 226.123L73.674 220.152L74.9103 219.555L77.1216 224.126L79.6452 222.907L77.7306 218.946L78.8924 218.384L80.807 222.345L83.5174 221.033L81.2526 216.349Z" fill="#FCC214"/>
<path d="M76.9001 214.73L75.9225 212.191C75.8193 211.924 75.6507 211.716 75.4155 211.569C75.1802 211.421 74.9084 211.337 74.5987 211.318C74.2876 211.299 73.9779 211.348 73.6668 211.468C73.348 211.591 73.0866 211.77 72.8853 212.006C72.6841 212.243 72.5482 212.5 72.4776 212.781C72.407 213.061 72.4214 213.33 72.5207 213.589L73.4682 216.05L76.9001 214.73ZM81.9381 214.456L72.7429 217.993L71.2034 213.992C71.0439 213.577 70.9851 213.164 71.0243 212.753C71.0649 212.341 71.1772 211.953 71.3641 211.588C71.551 211.224 71.7941 210.902 72.0934 210.624C72.3926 210.345 72.7285 210.134 73.0984 209.991C73.5048 209.834 73.9217 209.76 74.349 209.764C74.7777 209.766 75.1776 209.854 75.5488 210.023C75.9212 210.191 76.2375 210.434 76.4975 210.751L79.1636 207.242L79.7909 208.874L77.3588 212.099L78.1821 214.236L81.38 213.005L81.9381 214.456Z" fill="#FCC214"/>
<path d="M68.6761 201.587L69.5936 204.731L77.7315 202.354L78.1719 203.858L70.034 206.236L70.9566 209.392L69.6367 209.777L67.3575 201.973L68.6761 201.587Z" fill="#FCC214"/>
<path d="M66.7699 199.362L71.029 195.721L65.6826 194.004L65.3415 192.331L72.2745 194.677L75.7299 193.974L76.0383 195.498L72.5568 196.204L67.1097 201.034L66.7699 199.362Z" fill="#FCC214"/>
<path d="M66.2395 174.228C66.1401 174.323 66.0356 174.461 65.9245 174.638C65.8134 174.817 65.7102 175.028 65.6148 175.271C65.5181 175.514 65.4423 175.777 65.3848 176.055C65.3286 176.333 65.3024 176.622 65.3103 176.917C65.3273 177.566 65.4606 178.043 65.7076 178.351C65.9559 178.66 66.2917 178.807 66.7152 178.797C67.0288 178.789 67.2732 178.693 67.4483 178.514C67.6248 178.333 67.7659 178.061 67.877 177.698C67.9868 177.333 68.1044 176.877 68.2285 176.328C68.3684 175.658 68.5396 175.076 68.7434 174.579C68.9473 174.083 69.2257 173.701 69.5772 173.433C69.9301 173.164 70.4019 173.023 70.9913 173.007C71.4892 172.994 71.9205 173.075 72.2851 173.252C72.6497 173.427 72.949 173.678 73.1829 174.006C73.4181 174.332 73.5933 174.711 73.7109 175.144C73.8285 175.575 73.8939 176.042 73.9069 176.54C73.92 177.031 73.8808 177.52 73.7919 178.009C73.703 178.496 73.5658 178.961 73.3776 179.407C73.1908 179.851 72.9581 180.262 72.6811 180.639L71.3311 179.966C71.4487 179.844 71.5754 179.667 71.7127 179.436C71.8499 179.206 71.9793 178.939 72.1008 178.635C72.2224 178.33 72.323 178 72.4014 177.641C72.4798 177.283 72.5138 176.919 72.5046 176.549C72.4877 175.929 72.3687 175.459 72.1439 175.136C71.9192 174.813 71.6042 174.657 71.1991 174.668C70.8671 174.677 70.6057 174.79 70.4123 175.008C70.2202 175.225 70.0595 175.539 69.9327 175.95C69.8046 176.361 69.6779 176.849 69.555 177.417C69.3969 178.069 69.2205 178.615 69.0231 179.054C68.8271 179.496 68.5683 179.829 68.2468 180.054C67.9253 180.28 67.5111 180.4 67.004 180.413C66.3584 180.43 65.8082 180.287 65.3521 179.985C64.8973 179.681 64.5484 179.263 64.3092 178.727C64.0687 178.193 63.9394 177.588 63.9224 176.911C63.9106 176.468 63.9485 176.047 64.0348 175.647C64.1223 175.247 64.2439 174.871 64.4007 174.519C64.5588 174.168 64.7392 173.846 64.9457 173.555L66.2395 174.228Z" fill="#FCC214"/>
<path d="M74.2892 163.342L67.2843 162.856L72.4007 166.12L72.3367 167.033L66.8191 169.571L73.8239 170.056L73.7168 171.607L63.8877 170.926L64.004 169.264L70.2366 166.428L64.4536 162.758L64.5699 161.097L74.3977 161.778L74.2892 163.342Z" fill="#FCC214"/>
<path d="M71.7941 154.116L67.2775 154.913L71.2674 157.18L71.7941 154.116ZM65.4714 155.349L65.7197 153.9L76.078 151.793L75.801 153.407L72.999 153.903L72.3325 157.784L74.8078 159.192L74.5281 160.819L65.4714 155.349Z" fill="#FCC214"/>
<path d="M72.087 148.116L72.7796 145.488C72.8528 145.211 72.8371 144.943 72.7326 144.686C72.628 144.428 72.4555 144.201 72.215 144.005C71.9759 143.809 71.6949 143.668 71.3734 143.582C71.0415 143.495 70.7252 143.489 70.4246 143.562C70.1227 143.635 69.8613 143.765 69.6405 143.95C69.4183 144.137 69.2733 144.364 69.2027 144.631L68.5309 147.181L72.087 148.116ZM76.333 150.844L66.8072 148.333L67.8984 144.188C68.0121 143.758 68.2055 143.388 68.4787 143.077C68.7518 142.767 69.0707 142.519 69.4353 142.332C69.7999 142.145 70.1855 142.028 70.5906 141.977C70.997 141.927 71.3917 141.951 71.7759 142.051C72.1967 142.162 72.5783 142.345 72.9234 142.599C73.2684 142.851 73.5415 143.157 73.7454 143.51C73.948 143.866 74.063 144.248 74.0891 144.656L78.3025 143.37L77.8568 145.061L73.9976 146.254L73.4147 148.468L76.729 149.341L76.333 150.844Z" fill="#FCC214"/>
<path d="M73.113 132.632L72.0178 135.717L80.0081 138.552L79.484 140.03L71.4938 137.195L70.3947 140.295L69.1009 139.835L71.8179 132.173L73.113 132.632Z" fill="#FCC214"/>
<path d="M79.066 128.25L80.1846 125.938C80.314 125.671 80.3532 125.403 80.3049 125.133C80.2552 124.864 80.1337 124.61 79.9376 124.379C79.7429 124.145 79.4868 123.951 79.1705 123.797C78.8451 123.64 78.5262 123.568 78.2113 123.582C77.8976 123.593 77.6205 123.672 77.3801 123.817C77.1396 123.963 76.9593 124.162 76.8377 124.411L75.7569 126.647L79.066 128.25ZM82.7108 131.739L73.8424 127.447L75.6445 123.725C75.838 123.325 76.098 123 76.4261 122.746C76.7541 122.495 77.1161 122.31 77.5108 122.194C77.9068 122.076 78.308 122.034 78.7144 122.067C79.1195 122.098 79.5011 122.201 79.8592 122.374C80.3506 122.612 80.7662 122.949 81.1047 123.385C81.4432 123.822 81.6523 124.308 81.732 124.845C81.8104 125.382 81.7215 125.917 81.4628 126.449L80.3036 128.847L83.3878 130.341L82.7108 131.739Z" fill="#FCC214"/>
<path d="M83.116 120.39L84.5026 118.049C84.6489 117.802 84.7077 117.541 84.6764 117.265C84.6476 116.989 84.5444 116.726 84.3667 116.469C84.1902 116.215 83.9589 116.001 83.6714 115.832C83.3773 115.656 83.0755 115.565 82.7644 115.552C82.4547 115.54 82.1685 115.592 81.9045 115.711C81.6405 115.829 81.4379 116.008 81.2968 116.247L79.9533 118.515L83.116 120.39ZM86.455 124.173L77.9799 119.152L80.165 115.463C80.3911 115.081 80.6773 114.778 81.0263 114.555C81.3739 114.331 81.7477 114.178 82.1502 114.1C82.5514 114.02 82.9539 114.011 83.359 114.074C83.7629 114.137 84.1366 114.269 84.4777 114.47C84.8528 114.692 85.1704 114.973 85.4331 115.31C85.6944 115.647 85.8748 116.016 85.9728 116.412C86.0708 116.809 86.0774 117.208 85.9898 117.608L90.394 117.524L89.5027 119.028L85.4657 119.12L84.2987 121.089L87.247 122.836L86.455 124.173Z" fill="#FCC214"/>
<path d="M87.612 112.887C87.9871 113.159 88.3948 113.361 88.834 113.496C89.2718 113.63 89.7083 113.687 90.1421 113.663C90.5747 113.641 90.9851 113.528 91.3706 113.327C91.7548 113.129 92.0894 112.833 92.3717 112.442C92.6644 112.037 92.8422 111.619 92.9049 111.184C92.9676 110.75 92.9362 110.324 92.8095 109.908C92.6827 109.492 92.4867 109.101 92.2188 108.736C91.9522 108.372 91.6424 108.06 91.2909 107.806C90.9158 107.535 90.512 107.331 90.0794 107.194C89.6468 107.059 89.2116 107.005 88.7765 107.031C88.34 107.058 87.9309 107.171 87.548 107.367C87.1664 107.564 86.8357 107.854 86.56 108.236C86.2672 108.641 86.0882 109.06 86.0255 109.494C85.9627 109.928 85.9915 110.355 86.1117 110.772C86.2307 111.19 86.4215 111.583 86.6815 111.948C86.9429 112.313 87.2526 112.625 87.612 112.887ZM93.4982 113.275C93.08 113.853 92.5912 114.293 92.0306 114.595C91.4686 114.897 90.874 115.075 90.2428 115.133C89.6129 115.192 88.9908 115.137 88.3739 114.971C87.7584 114.804 87.1951 114.537 86.6854 114.168C86.1535 113.783 85.7157 113.318 85.3733 112.773C85.0309 112.229 84.7957 111.648 84.6663 111.028C84.5382 110.41 84.533 109.787 84.6506 109.157C84.7683 108.53 85.0257 107.942 85.4217 107.395C85.8334 106.825 86.3247 106.392 86.8959 106.091C87.467 105.79 88.0694 105.614 88.6993 105.563C89.3319 105.512 89.9526 105.568 90.5656 105.732C91.1772 105.895 91.7352 106.159 92.2371 106.521C92.769 106.907 93.2068 107.369 93.5531 107.912C93.8981 108.453 94.1347 109.032 94.2627 109.65C94.3934 110.268 94.396 110.891 94.2745 111.517C94.153 112.142 93.8942 112.729 93.4982 113.275Z" fill="#FCC214"/>
<path d="M94.5508 104.006L96.2353 102.07C96.4301 101.847 96.5385 101.598 96.5621 101.325C96.5869 101.05 96.5346 100.776 96.4078 100.5C96.2798 100.223 96.0837 99.9707 95.8184 99.738C95.5453 99.5028 95.2565 99.3486 94.9494 99.278C94.6436 99.2075 94.356 99.2101 94.0855 99.2898C93.815 99.3656 93.5889 99.5093 93.4072 99.7184L91.7763 101.593L94.5508 104.006ZM97.1515 108.331L89.7192 101.863L92.4349 98.7435C92.7264 98.409 93.0635 98.1633 93.4451 98.0051C93.8281 97.847 94.2254 97.7647 94.6383 97.7555C95.05 97.7464 95.4486 97.8104 95.8315 97.9476C96.2144 98.0862 96.5568 98.2848 96.8561 98.5449C97.2678 98.9043 97.5801 99.3381 97.7931 99.8478C98.0048 100.358 98.0793 100.882 98.0153 101.421C97.95 101.96 97.7239 102.452 97.3357 102.898L95.5858 104.909L98.1721 107.16L97.1515 108.331Z" fill="#FCC214"/>
<path d="M106.612 96.3238L107.572 97.3066L102.746 102.035L95.8508 94.9987L100.588 90.3566L101.55 91.3381L97.9223 94.8915L99.8839 96.8936L103.026 93.8146L103.929 94.736L100.787 97.815L102.895 99.9661L106.612 96.3238Z" fill="#FCC214"/>
<path d="M106.775 91.661L108.869 89.9242C109.09 89.7399 109.232 89.5125 109.296 89.2433C109.36 88.9728 109.352 88.6879 109.271 88.3886C109.191 88.088 109.045 87.8123 108.832 87.5548C108.614 87.2921 108.36 87.1026 108.071 86.9863C107.784 86.8713 107.496 86.8243 107.208 86.8465C106.92 86.87 106.669 86.9693 106.456 87.1471L104.427 88.8303L106.775 91.661ZM108.646 96.3475L102.354 88.7663L105.652 86.0284C105.995 85.7448 106.367 85.5566 106.77 85.4612C107.172 85.3684 107.576 85.3501 107.981 85.4115C108.386 85.4716 108.769 85.5997 109.129 85.7931C109.488 85.9879 109.795 86.2375 110.049 86.5446C110.327 86.8791 110.532 87.2503 110.666 87.6554C110.798 88.0632 110.845 88.4696 110.803 88.8761C110.762 89.2825 110.634 89.6602 110.417 90.0078L114.594 91.4114L113.248 92.5262L109.415 91.2546L107.653 92.7183L109.842 95.3543L108.646 96.3475Z" fill="#FCC214"/>
<path d="M116.569 79.6755L113.887 81.5548L118.75 88.4982L117.465 89.3974L112.602 82.4526L109.908 84.3397L109.121 83.2145L115.781 78.5503L116.569 79.6755Z" fill="#FCC214"/>
<path d="M118.055 77.1603L122.871 80.0237L122.78 74.408L124.254 73.5481L124.263 80.8666L126.038 83.9116L124.694 84.6944L122.907 81.6246L116.581 78.0202L118.055 77.1603Z" fill="#FCC214"/>
<path d="M220.13 98.5097C220.103 98.4065 220.05 98.2823 219.973 98.1385C219.893 97.9948 219.791 97.8432 219.663 97.6851C219.535 97.5282 219.389 97.374 219.221 97.229C219.054 97.0826 218.868 96.9545 218.666 96.8474C218.22 96.6095 217.847 96.5154 217.542 96.5638C217.239 96.6134 217.009 96.7833 216.853 97.0761C216.738 97.2917 216.708 97.4929 216.763 97.6798C216.817 97.8693 216.946 98.0706 217.151 98.2849C217.355 98.4992 217.619 98.7541 217.943 99.0494C218.343 99.401 218.671 99.7408 218.93 100.07C219.186 100.399 219.339 100.734 219.383 101.076C219.43 101.418 219.344 101.791 219.129 102.198C218.946 102.539 218.725 102.8 218.466 102.979C218.207 103.157 217.922 103.264 217.611 103.298C217.299 103.329 216.975 103.303 216.636 103.217C216.299 103.131 215.959 102.995 215.616 102.812C215.28 102.632 214.962 102.419 214.667 102.17C214.37 101.922 214.106 101.65 213.879 101.352C213.649 101.054 213.459 100.739 213.312 100.406L214.287 99.7499C214.324 99.878 214.395 100.032 214.498 100.213C214.602 100.396 214.732 100.585 214.892 100.785C215.051 100.984 215.235 101.18 215.448 101.369C215.661 101.56 215.894 101.723 216.149 101.859C216.575 102.087 216.94 102.186 217.244 102.159C217.55 102.131 217.776 101.978 217.925 101.698C218.046 101.471 218.07 101.25 217.997 101.036C217.924 100.822 217.772 100.593 217.543 100.347C217.315 100.103 217.032 99.8309 216.695 99.5291C216.315 99.171 216.013 98.8403 215.791 98.5384C215.567 98.2379 215.442 97.9334 215.412 97.6289C215.383 97.3244 215.461 96.9976 215.648 96.6487C215.885 96.2057 216.193 95.8868 216.574 95.696C216.954 95.5039 217.371 95.4294 217.826 95.4725C218.28 95.5157 218.739 95.662 219.203 95.909C219.508 96.0724 219.779 96.2593 220.016 96.4723C220.255 96.684 220.462 96.9114 220.639 97.1532C220.817 97.3936 220.965 97.6406 221.084 97.8916L220.13 98.5097Z" fill="#FCC214"/>
<path d="M224.394 108.159L227.426 103.609L223.245 105.809L222.653 105.414L223.065 100.703L220.034 105.252L219.027 104.582L223.281 98.1975L224.359 98.9163L223.871 104.226L228.586 101.733L229.665 102.451L225.411 108.835L224.394 108.159Z" fill="#FCC214"/>
<path d="M231.601 110.038L232.805 106.676L229.732 108.499L231.601 110.038ZM233.207 105.287L234.09 106.014L231.516 113.832L230.532 113.022L231.279 110.936L228.91 108.985L227.005 110.115L226.011 109.299L233.207 105.287Z" fill="#FCC214"/>
<path d="M235.516 112.542L237.043 114.009C237.204 114.163 237.392 114.254 237.607 114.281C237.821 114.307 238.04 114.275 238.265 114.186C238.49 114.098 238.693 113.959 238.873 113.772C239.057 113.58 239.181 113.367 239.245 113.134C239.308 112.901 239.32 112.674 239.277 112.454C239.234 112.233 239.136 112.047 238.979 111.898L237.498 110.476L235.516 112.542ZM232.055 114.402L237.366 108.866L239.773 111.178C240.023 111.419 240.202 111.689 240.31 111.994C240.419 112.297 240.467 112.606 240.456 112.925C240.444 113.244 240.38 113.551 240.261 113.847C240.142 114.142 239.975 114.402 239.76 114.626C239.526 114.869 239.257 115.062 238.955 115.199C238.652 115.338 238.341 115.41 238.023 115.414C237.705 115.419 237.403 115.351 237.114 115.215L236.396 118.568L235.415 117.626L236.062 114.549L234.776 113.313L232.928 115.24L232.055 114.402Z" fill="#FCC214"/>
<path d="M245.644 119.207L243.974 117.28L238.986 121.604L238.186 120.681L243.174 116.357L241.496 114.423L242.305 113.721L246.453 118.507L245.644 119.207Z" fill="#FCC214"/>
<path d="M246.322 124.91L247.459 126.554C247.591 126.743 247.757 126.874 247.96 126.945C248.161 127.015 248.379 127.028 248.612 126.985C248.844 126.942 249.075 126.843 249.299 126.687C249.529 126.528 249.702 126.338 249.814 126.121C249.927 125.903 249.979 125.685 249.972 125.467C249.966 125.248 249.9 125.05 249.778 124.872L248.677 123.281L246.322 124.91ZM242.56 126.042L248.868 121.678L250.7 124.326C250.896 124.611 251.018 124.911 251.064 125.23C251.109 125.55 251.095 125.866 251.023 126.179C250.95 126.491 250.824 126.779 250.648 127.041C250.47 127.304 250.255 127.525 250 127.701C249.65 127.943 249.263 128.093 248.837 128.156C248.412 128.219 248.002 128.173 247.607 128.021C247.212 127.87 246.885 127.605 246.623 127.226L245.443 125.519L243.247 127.036L242.56 126.042Z" fill="#FCC214"/>
<path d="M250.092 130.663L251.145 132.5C251.256 132.693 251.412 132.833 251.61 132.918C251.809 133.004 252.029 133.035 252.269 133.014C252.51 132.991 252.742 132.916 252.968 132.787C253.198 132.655 253.377 132.485 253.505 132.28C253.632 132.073 253.705 131.859 253.728 131.636C253.747 131.412 253.704 131.206 253.597 131.019L252.575 129.239L250.092 130.663ZM246.247 131.474L252.902 127.656L254.563 130.552C254.735 130.852 254.831 131.163 254.849 131.484C254.866 131.806 254.825 132.118 254.725 132.421C254.625 132.723 254.475 133 254.279 133.25C254.082 133.499 253.849 133.702 253.581 133.856C253.286 134.025 252.975 134.133 252.646 134.18C252.316 134.229 251.999 134.209 251.692 134.124C251.384 134.038 251.111 133.889 250.875 133.677L249.242 136.693L248.564 135.512L250.051 132.741L249.164 131.195L246.85 132.523L246.247 131.474Z" fill="#FCC214"/>
<path d="M253.462 136.612C253.135 136.762 252.841 136.96 252.581 137.205C252.319 137.45 252.114 137.724 251.963 138.027C251.812 138.329 251.731 138.65 251.72 138.987C251.707 139.325 251.778 139.665 251.934 140.005C252.095 140.36 252.31 140.641 252.581 140.852C252.85 141.061 253.151 141.203 253.481 141.278C253.812 141.352 254.153 141.369 254.503 141.327C254.852 141.288 255.182 141.197 255.489 141.056C255.817 140.907 256.109 140.712 256.368 140.471C256.627 140.23 256.83 139.958 256.98 139.652C257.129 139.346 257.211 139.026 257.224 138.691C257.237 138.356 257.169 138.022 257.016 137.688C256.856 137.334 256.639 137.053 256.37 136.842C256.099 136.633 255.8 136.488 255.472 136.408C255.141 136.33 254.803 136.308 254.455 136.343C254.107 136.38 253.777 136.47 253.462 136.612ZM250.937 140.449C250.707 139.945 250.597 139.444 250.609 138.949C250.621 138.451 250.726 137.979 250.929 137.531C251.133 137.081 251.409 136.681 251.758 136.327C252.108 135.974 252.505 135.696 252.951 135.492C253.416 135.28 253.9 135.161 254.4 135.139C254.899 135.117 255.384 135.181 255.852 135.331C256.321 135.483 256.746 135.718 257.126 136.04C257.505 136.361 257.806 136.761 258.023 137.239C258.25 137.737 258.356 138.238 258.34 138.74C258.323 139.242 258.211 139.717 258.004 140.164C257.795 140.611 257.52 141.011 257.173 141.363C256.827 141.715 256.434 141.991 255.994 142.191C255.529 142.403 255.047 142.523 254.549 142.548C254.05 142.574 253.565 142.511 253.097 142.361C252.629 142.209 252.206 141.974 251.829 141.65C251.452 141.329 251.155 140.927 250.937 140.449Z" fill="#FCC214"/>
<path d="M256.798 144.702L257.461 146.588C257.536 146.806 257.663 146.975 257.838 147.096C258.015 147.218 258.221 147.288 258.458 147.309C258.693 147.329 258.941 147.293 259.199 147.203C259.464 147.109 259.68 146.972 259.844 146.793C260.01 146.612 260.12 146.416 260.17 146.203C260.222 145.99 260.212 145.781 260.141 145.577L259.499 143.753L256.798 144.702ZM252.87 144.799L260.107 142.257L261.175 145.295C261.288 145.622 261.326 145.945 261.286 146.264C261.245 146.584 261.149 146.884 260.996 147.167C260.843 147.45 260.647 147.695 260.406 147.901C260.166 148.108 259.899 148.262 259.607 148.365C259.207 148.505 258.792 148.549 258.365 148.497C257.939 148.445 257.555 148.293 257.215 148.042C256.875 147.791 256.628 147.449 256.477 147.014L255.788 145.056L253.271 145.941L252.87 144.799Z" fill="#FCC214"/>
<path d="M257.359 155.849L256.325 156.121L254.986 151.032L262.405 149.081L263.719 154.074L262.684 154.347L261.678 150.522L259.567 151.079L260.439 154.391L259.467 154.647L258.595 151.334L256.328 151.931L257.359 155.849Z" fill="#FCC214"/>
<path d="M260.443 157.726L260.813 159.81C260.852 160.03 260.949 160.214 261.107 160.362C261.265 160.51 261.461 160.614 261.695 160.674C261.929 160.736 262.173 160.745 262.428 160.699C262.691 160.653 262.917 160.554 263.107 160.404C263.295 160.253 263.439 160.076 263.533 159.873C263.629 159.669 263.658 159.46 263.62 159.248L263.263 157.227L260.443 157.726ZM256.551 157.185L264.106 155.849L264.688 159.136C264.748 159.476 264.732 159.801 264.641 160.111C264.548 160.419 264.404 160.699 264.207 160.95C264.011 161.2 263.777 161.41 263.507 161.579C263.236 161.747 262.948 161.857 262.644 161.912C262.311 161.971 261.98 161.967 261.653 161.9C261.328 161.833 261.035 161.708 260.775 161.524C260.515 161.338 260.31 161.107 260.158 160.826L257.599 163.11L257.363 161.771L259.701 159.667L259.39 157.912L256.762 158.377L256.551 157.185Z" fill="#FCC214"/>
<path d="M264.779 169.001L264.544 166.462L257.97 167.072L257.856 165.858L264.43 165.247L264.193 162.697L265.258 162.598L265.845 168.902L264.779 169.001Z" fill="#FCC214"/>
<path d="M265.906 170.94L262.114 173.097L265.95 175.197L265.963 176.526L261.007 173.713L258.263 173.742L258.25 172.532L261.017 172.503L265.893 169.611L265.906 170.94Z" fill="#FCC214"/>
<path d="M262.624 190.235C262.713 190.178 262.815 190.088 262.926 189.967C263.037 189.846 263.147 189.701 263.255 189.528C263.364 189.357 263.461 189.169 263.546 188.964C263.631 188.759 263.692 188.543 263.73 188.316C263.812 187.818 263.781 187.432 263.637 187.16C263.492 186.888 263.257 186.726 262.931 186.671C262.69 186.632 262.49 186.669 262.33 186.78C262.168 186.892 262.019 187.079 261.882 187.342C261.745 187.603 261.588 187.935 261.413 188.338C261.208 188.829 260.989 189.25 260.761 189.599C260.532 189.948 260.263 190.2 259.954 190.353C259.645 190.507 259.264 190.545 258.811 190.471C258.429 190.408 258.11 190.282 257.858 190.094C257.606 189.906 257.412 189.671 257.282 189.386C257.15 189.101 257.071 188.785 257.045 188.438C257.019 188.091 257.037 187.725 257.101 187.341C257.163 186.964 257.263 186.596 257.403 186.235C257.544 185.876 257.717 185.538 257.926 185.226C258.135 184.914 258.373 184.634 258.64 184.387L259.574 185.099C259.465 185.175 259.343 185.293 259.204 185.448C259.064 185.605 258.926 185.789 258.789 186.004C258.651 186.218 258.526 186.457 258.413 186.72C258.301 186.981 258.221 187.256 258.174 187.539C258.095 188.016 258.118 188.394 258.242 188.674C258.366 188.953 258.585 189.119 258.896 189.17C259.151 189.213 259.367 189.165 259.548 189.026C259.727 188.888 259.895 188.671 260.052 188.376C260.21 188.082 260.379 187.725 260.557 187.309C260.774 186.834 260.989 186.443 261.204 186.136C261.419 185.827 261.665 185.61 261.945 185.485C262.224 185.359 262.558 185.329 262.948 185.393C263.444 185.476 263.845 185.665 264.148 185.963C264.453 186.262 264.656 186.634 264.761 187.078C264.867 187.522 264.876 188.004 264.791 188.522C264.735 188.863 264.643 189.181 264.518 189.475C264.394 189.767 264.245 190.037 264.074 190.282C263.901 190.528 263.715 190.748 263.516 190.941L262.624 190.235Z" fill="#FCC214"/>
<path d="M254.861 197.371L260.143 198.779L256.715 195.529L256.9 194.839L261.493 193.715L256.21 192.309L256.521 191.139L263.935 193.112L263.6 194.366L258.416 195.612L262.293 199.273L261.96 200.526L254.547 198.55L254.861 197.371Z" fill="#FCC214"/>
<path d="M255.397 204.803L258.967 204.863L256.254 202.538L255.397 204.803ZM260.413 204.798L260.008 205.869L251.778 205.942L252.228 204.751L254.444 204.787L255.53 201.919L253.847 200.476L254.302 199.272L260.413 204.798Z" fill="#FCC214"/>
<path d="M254.283 209.342L253.364 211.25C253.266 211.451 253.239 211.658 253.281 211.869C253.322 212.081 253.42 212.281 253.575 212.466C253.729 212.653 253.922 212.802 254.156 212.915C254.395 213.031 254.637 213.083 254.878 213.072C255.119 213.06 255.339 213 255.535 212.89C255.731 212.781 255.876 212.63 255.97 212.435L256.863 210.586L254.283 209.342ZM251.442 206.629L258.351 209.961L256.901 212.968C256.752 213.279 256.548 213.533 256.294 213.73C256.039 213.928 255.758 214.07 255.451 214.158C255.145 214.246 254.833 214.279 254.516 214.258C254.198 214.237 253.9 214.159 253.62 214.026C253.316 213.878 253.051 213.682 252.824 213.436C252.6 213.192 252.435 212.919 252.332 212.618C252.23 212.316 252.198 212.006 252.239 211.692L248.828 212.048L249.419 210.822L252.545 210.484L253.32 208.876L250.916 207.719L251.442 206.629Z" fill="#FCC214"/>
<path d="M251.196 221.038L252.491 218.841L246.804 215.487L247.424 214.435L253.111 217.789L254.411 215.583L255.332 216.127L252.117 221.581L251.196 221.038Z" fill="#FCC214"/>
<path d="M245.998 223.499L244.8 225.1C244.662 225.284 244.592 225.483 244.589 225.697C244.585 225.912 244.643 226.122 244.757 226.328C244.872 226.536 245.039 226.722 245.258 226.886C245.483 227.054 245.717 227.156 245.959 227.194C246.201 227.23 246.424 227.212 246.629 227.136C246.835 227.06 247.002 226.936 247.131 226.762L248.29 225.215L245.998 223.499ZM243.729 220.289L249.872 224.887L247.943 227.464C247.736 227.74 247.488 227.95 247.2 228.097C246.912 228.239 246.608 228.328 246.288 228.359C245.969 228.388 245.656 228.362 245.35 228.278C245.044 228.192 244.768 228.057 244.52 227.872C244.179 227.617 243.912 227.298 243.719 226.914C243.524 226.531 243.437 226.128 243.456 225.706C243.475 225.283 243.622 224.888 243.898 224.518L245.141 222.857L243.004 221.258L243.729 220.289Z" fill="#FCC214"/>
<path d="M241.732 228.912L240.325 230.496C240.176 230.663 240.094 230.855 240.076 231.07C240.059 231.285 240.098 231.503 240.195 231.724C240.293 231.946 240.438 232.142 240.631 232.315C240.831 232.491 241.048 232.608 241.283 232.663C241.52 232.716 241.747 232.719 241.965 232.668C242.184 232.617 242.365 232.51 242.509 232.349L243.872 230.813L241.732 228.912ZM239.739 225.526L245.476 230.619L243.258 233.116C243.029 233.374 242.764 233.563 242.466 233.683C242.167 233.802 241.858 233.864 241.539 233.864C241.219 233.865 240.911 233.813 240.612 233.705C240.311 233.598 240.046 233.442 239.814 233.236C239.561 233.012 239.36 232.75 239.209 232.453C239.059 232.156 238.975 231.848 238.958 231.53C238.943 231.212 238.996 230.907 239.122 230.613L235.743 230.025L236.646 229.009L239.748 229.535L240.93 228.202L238.935 226.43L239.739 225.526Z" fill="#FCC214"/>
<path d="M237.193 233.977C236.946 233.715 236.665 233.499 236.348 233.332C236.033 233.163 235.708 233.057 235.373 233.01C235.038 232.964 234.708 232.99 234.384 233.087C234.06 233.185 233.762 233.362 233.489 233.618C233.205 233.884 233.008 234.178 232.896 234.501C232.783 234.824 232.747 235.155 232.782 235.492C232.817 235.829 232.91 236.157 233.062 236.475C233.212 236.794 233.403 237.076 233.635 237.321C233.881 237.584 234.161 237.799 234.47 237.967C234.781 238.134 235.106 238.24 235.443 238.283C235.781 238.328 236.111 238.302 236.432 238.208C236.752 238.112 237.048 237.94 237.315 237.687C237.598 237.422 237.796 237.127 237.907 236.804C238.02 236.481 238.062 236.152 238.03 235.815C238 235.477 237.911 235.149 237.766 234.831C237.621 234.513 237.429 234.228 237.193 233.977ZM232.749 232.815C233.153 232.435 233.592 232.171 234.065 232.022C234.54 231.874 235.021 231.823 235.511 231.873C236.002 231.92 236.47 232.053 236.917 232.27C237.364 232.489 237.755 232.776 238.09 233.133C238.441 233.505 238.707 233.925 238.889 234.391C239.071 234.859 239.165 235.338 239.173 235.83C239.18 236.322 239.093 236.8 238.91 237.264C238.728 237.727 238.445 238.138 238.062 238.498C237.663 238.873 237.224 239.133 236.743 239.279C236.262 239.426 235.776 239.471 235.286 239.418C234.796 239.364 234.328 239.231 233.885 239.015C233.441 238.8 233.052 238.517 232.722 238.166C232.372 237.793 232.104 237.375 231.919 236.91C231.735 236.446 231.64 235.968 231.632 235.475C231.624 234.983 231.713 234.506 231.897 234.046C232.081 233.586 232.366 233.176 232.749 232.815Z" fill="#FCC214"/>
<path d="M230.6 239.735L229.028 240.969C228.846 241.111 228.727 241.285 228.669 241.491C228.61 241.697 228.61 241.915 228.667 242.145C228.724 242.375 228.836 242.598 229.005 242.813C229.178 243.035 229.377 243.194 229.602 243.294C229.825 243.392 230.047 243.431 230.264 243.411C230.483 243.392 230.676 243.314 230.846 243.181L232.367 241.988L230.6 239.735ZM229.245 236.047L233.98 242.082L231.447 244.07C231.175 244.283 230.881 244.421 230.566 244.487C230.25 244.551 229.934 244.556 229.617 244.502C229.3 244.449 229.006 244.342 228.733 244.181C228.46 244.02 228.227 243.818 228.036 243.573C227.773 243.239 227.598 242.861 227.511 242.44C227.423 242.019 227.444 241.606 227.572 241.205C227.7 240.801 227.946 240.458 228.308 240.174L229.94 238.893L228.292 236.794L229.245 236.047Z" fill="#FCC214"/>
<path d="M220.218 243.86L219.628 242.968L224.016 240.063L228.25 246.46L223.944 249.311L223.354 248.419L226.651 246.236L225.446 244.415L222.59 246.306L222.035 245.468L224.89 243.577L223.597 241.622L220.218 243.86Z" fill="#FCC214"/>
<path d="M219.434 247.382L217.577 248.4C217.381 248.508 217.239 248.66 217.15 248.857C217.061 249.053 217.024 249.271 217.041 249.513C217.06 249.755 217.13 249.989 217.255 250.216C217.383 250.45 217.549 250.632 217.752 250.763C217.955 250.893 218.168 250.972 218.393 250.997C218.615 251.023 218.821 250.983 219.011 250.879L220.811 249.891L219.434 247.382ZM218.697 243.523L222.387 250.248L219.459 251.853C219.157 252.019 218.844 252.109 218.522 252.12C218.201 252.134 217.888 252.086 217.588 251.979C217.288 251.873 217.014 251.719 216.767 251.518C216.521 251.315 216.324 251.08 216.175 250.808C216.012 250.512 215.91 250.198 215.868 249.867C215.826 249.537 215.851 249.219 215.944 248.915C216.035 248.61 216.188 248.341 216.405 248.107L213.42 246.417L214.615 245.762L217.356 247.301L218.919 246.443L217.636 244.105L218.697 243.523Z" fill="#FCC214"/>
<path d="M210.158 255.097L212.486 254.061L209.803 248.028L210.918 247.532L213.602 253.563L215.943 252.523L216.377 253.499L210.593 256.075L210.158 255.097Z" fill="#FCC214"/>
<path d="M208.641 256.8L205.387 253.893L204.621 258.2L203.365 258.636L204.45 253.041L203.547 250.451L204.69 250.051L205.599 252.665L209.897 256.362L208.641 256.8Z" fill="#FCC214"/>
<path d="M189.32 259.832C189.404 259.899 189.52 259.966 189.669 260.034C189.819 260.1 189.993 260.158 190.19 260.206C190.388 260.253 190.598 260.286 190.818 260.302C191.04 260.316 191.265 260.305 191.492 260.269C191.99 260.188 192.346 260.036 192.556 259.813C192.769 259.589 192.849 259.315 192.795 258.989C192.757 258.748 192.658 258.57 192.501 258.452C192.343 258.336 192.118 258.255 191.827 258.208C191.534 258.16 191.169 258.118 190.733 258.079C190.202 258.041 189.734 257.969 189.329 257.864C188.925 257.758 188.603 257.583 188.358 257.34C188.115 257.096 187.956 256.747 187.883 256.292C187.821 255.909 187.838 255.569 187.936 255.269C188.034 254.969 188.196 254.713 188.424 254.498C188.652 254.282 188.927 254.107 189.247 253.971C189.568 253.836 189.921 253.736 190.305 253.674C190.682 253.614 191.063 253.592 191.449 253.61C191.836 253.629 192.21 253.686 192.572 253.784C192.935 253.883 193.276 254.019 193.596 254.193L193.217 255.305C193.11 255.228 192.961 255.148 192.769 255.066C192.577 254.984 192.357 254.912 192.11 254.849C191.862 254.788 191.597 254.745 191.312 254.721C191.028 254.698 190.742 254.709 190.458 254.755C189.981 254.834 189.631 254.975 189.405 255.181C189.179 255.389 189.091 255.648 189.141 255.959C189.183 256.214 189.298 256.406 189.486 256.531C189.674 256.657 189.934 256.747 190.264 256.803C190.594 256.859 190.985 256.905 191.436 256.942C191.955 256.996 192.395 257.076 192.755 257.181C193.115 257.287 193.399 257.451 193.607 257.676C193.814 257.901 193.95 258.208 194.013 258.597C194.093 259.094 194.041 259.534 193.854 259.917C193.668 260.3 193.381 260.613 192.992 260.853C192.606 261.093 192.152 261.257 191.633 261.34C191.291 261.395 190.962 261.411 190.644 261.385C190.326 261.36 190.023 261.305 189.736 261.22C189.448 261.137 189.182 261.029 188.935 260.901L189.32 259.832Z" fill="#FCC214"/>
<path d="M180.08 254.746L180.43 260.203L182.418 255.917L183.129 255.872L185.659 259.868L185.309 254.412L186.518 254.335L187.008 261.989L185.714 262.073L182.879 257.556L180.646 262.397L179.352 262.481L178.861 254.825L180.08 254.746Z" fill="#FCC214"/>
<path d="M173.196 257.627L174.281 261.029L175.617 257.715L173.196 257.627ZM174.804 262.378L173.66 262.336L170.96 254.561L172.234 254.607L172.907 256.719L175.973 256.83L176.802 254.774L178.087 254.823L174.804 262.378Z" fill="#FCC214"/>
<path d="M168.537 258.025L166.437 257.765C166.215 257.738 166.009 257.777 165.823 257.885C165.636 257.993 165.478 258.149 165.351 258.355C165.224 258.56 165.144 258.791 165.113 259.049C165.08 259.313 165.108 259.558 165.195 259.783C165.284 260.008 165.411 260.196 165.577 260.346C165.744 260.498 165.934 260.588 166.148 260.614L168.185 260.866L168.537 258.025ZM170.198 254.464L169.256 262.077L165.941 261.666C165.599 261.624 165.293 261.513 165.025 261.336C164.757 261.157 164.533 260.936 164.351 260.674C164.168 260.413 164.037 260.128 163.955 259.821C163.874 259.513 163.852 259.204 163.89 258.897C163.932 258.561 164.032 258.247 164.192 257.955C164.351 257.663 164.558 257.419 164.81 257.226C165.063 257.032 165.346 256.904 165.658 256.84L164.226 253.724L165.577 253.892L166.899 256.745L168.669 256.964L168.997 254.314L170.198 254.464Z" fill="#FCC214"/>
<path d="M156.478 258.853L158.974 259.375L160.323 252.912L161.517 253.161L160.17 259.623L162.676 260.147L162.458 261.193L156.258 259.901L156.478 258.853Z" fill="#FCC214"/>
<path d="M152.485 254.726L150.584 254.107C150.366 254.035 150.154 254.033 149.951 254.099C149.748 254.166 149.566 254.287 149.407 254.461C149.247 254.636 149.126 254.855 149.041 255.115C148.953 255.383 148.931 255.636 148.974 255.878C149.016 256.12 149.106 256.325 149.245 256.495C149.382 256.663 149.553 256.782 149.758 256.85L151.598 257.449L152.485 254.726ZM154.794 251.546L152.418 258.841L149.357 257.843C149.027 257.736 148.748 257.569 148.519 257.343C148.289 257.117 148.109 256.857 147.977 256.564C147.845 256.273 147.771 255.967 147.752 255.65C147.735 255.333 147.773 255.028 147.869 254.733C148.001 254.329 148.218 253.974 148.518 253.667C148.819 253.359 149.173 253.146 149.578 253.029C149.984 252.911 150.407 252.923 150.844 253.067L152.817 253.71L153.642 251.172L154.794 251.546Z" fill="#FCC214"/>
<path d="M145.99 252.429L144.037 251.606C143.832 251.519 143.624 251.502 143.414 251.555C143.205 251.607 143.011 251.714 142.832 251.877C142.655 252.041 142.515 252.242 142.414 252.481C142.311 252.726 142.27 252.969 142.294 253.209C142.317 253.45 142.389 253.666 142.507 253.857C142.627 254.048 142.785 254.185 142.984 254.27L144.875 255.067L145.99 252.429ZM148.558 249.456L145.575 256.523L142.499 255.226C142.18 255.091 141.916 254.901 141.706 254.657C141.497 254.411 141.341 254.138 141.238 253.838C141.135 253.536 141.085 253.226 141.09 252.907C141.097 252.588 141.16 252.286 141.278 252.002C141.41 251.689 141.593 251.415 141.826 251.177C142.06 250.939 142.324 250.761 142.619 250.645C142.916 250.526 143.223 250.48 143.541 250.505L143.013 247.115L144.267 247.644L144.763 250.751L146.404 251.443L147.443 248.985L148.558 249.456Z" fill="#FCC214"/>
<path d="M139.719 249.743C139.889 249.427 140.004 249.091 140.061 248.739C140.12 248.385 140.117 248.044 140.055 247.711C139.992 247.379 139.862 247.074 139.666 246.799C139.472 246.523 139.209 246.296 138.878 246.119C138.536 245.935 138.194 245.842 137.852 245.838C137.511 245.836 137.186 245.904 136.878 246.046C136.568 246.186 136.288 246.379 136.035 246.624C135.781 246.868 135.575 247.139 135.414 247.436C135.244 247.755 135.129 248.087 135.069 248.435C135.01 248.784 135.013 249.124 135.079 249.458C135.146 249.791 135.274 250.096 135.467 250.37C135.658 250.645 135.917 250.87 136.241 251.042C136.584 251.226 136.925 251.319 137.267 251.323C137.608 251.326 137.935 251.259 138.245 251.124C138.554 250.987 138.837 250.799 139.091 250.56C139.346 250.321 139.557 250.049 139.719 249.743ZM139.404 245.163C139.893 245.424 140.283 245.756 140.575 246.157C140.866 246.558 141.067 246.999 141.177 247.48C141.288 247.959 141.312 248.447 141.248 248.939C141.184 249.432 141.036 249.893 140.805 250.326C140.563 250.777 140.249 251.162 139.866 251.484C139.481 251.805 139.057 252.047 138.593 252.212C138.13 252.375 137.649 252.444 137.151 252.42C136.654 252.395 136.174 252.258 135.711 252.008C135.228 251.75 134.84 251.416 134.55 251.007C134.259 250.598 134.06 250.152 133.954 249.67C133.85 249.189 133.827 248.703 133.889 248.213C133.951 247.724 134.097 247.267 134.324 246.841C134.566 246.39 134.878 246.003 135.258 245.681C135.64 245.357 136.062 245.114 136.526 244.949C136.99 244.786 137.47 244.718 137.965 244.747C138.461 244.774 138.94 244.914 139.404 245.163Z" fill="#FCC214"/>
<path d="M132.162 245.327L130.491 244.228C130.299 244.101 130.095 244.043 129.882 244.053C129.668 244.064 129.462 244.132 129.262 244.258C129.062 244.386 128.887 244.563 128.735 244.791C128.581 245.027 128.493 245.266 128.47 245.51C128.447 245.753 128.48 245.976 128.568 246.177C128.657 246.377 128.79 246.536 128.971 246.655L130.585 247.719L132.162 245.327ZM135.227 242.87L131.009 249.278L128.319 247.506C128.031 247.316 127.806 247.081 127.644 246.804C127.483 246.524 127.377 246.226 127.327 245.909C127.278 245.593 127.286 245.278 127.352 244.968C127.419 244.657 127.537 244.373 127.706 244.115C127.94 243.759 128.244 243.474 128.615 243.257C128.986 243.04 129.383 242.929 129.805 242.923C130.227 242.916 130.631 243.039 131.017 243.292L132.748 244.435L134.217 242.204L135.227 242.87Z" fill="#FCC214"/>
<path d="M124.974 236.808L125.631 235.965L129.78 239.202L125.062 245.25L120.99 242.073L121.648 241.23L124.766 243.662L126.108 241.941L123.408 239.834L124.025 239.043L126.726 241.149L128.169 239.3L124.974 236.808Z" fill="#FCC214"/>
<path d="M121.366 237.17L119.808 235.734C119.643 235.584 119.454 235.496 119.239 235.475C119.024 235.453 118.805 235.49 118.582 235.582C118.358 235.675 118.158 235.818 117.983 236.007C117.803 236.204 117.683 236.42 117.624 236.654C117.565 236.888 117.559 237.115 117.606 237.335C117.653 237.554 117.756 237.737 117.915 237.885L119.425 239.276L121.366 237.17ZM124.788 235.241L119.59 240.882L117.134 238.619C116.88 238.386 116.696 238.118 116.581 237.816C116.467 237.515 116.412 237.205 116.418 236.887C116.423 236.568 116.482 236.259 116.594 235.961C116.707 235.663 116.869 235.401 117.078 235.173C117.308 234.925 117.573 234.728 117.872 234.583C118.172 234.437 118.481 234.36 118.799 234.35C119.118 234.339 119.422 234.4 119.712 234.53L120.362 231.162L121.364 232.085L120.779 235.176L122.09 236.383L123.898 234.42L124.788 235.241Z" fill="#FCC214"/>
<path d="M111.085 230.844L112.814 232.718L117.667 228.243L118.494 229.139L113.642 233.615L115.378 235.499L114.592 236.223L110.299 231.569L111.085 230.844Z" fill="#FCC214"/>
<path d="M109.004 229.978L110.708 225.963L106.386 226.622L105.568 225.573L111.214 224.801L113.378 223.113L114.122 224.067L111.94 225.768L109.822 231.026L109.004 229.978Z" fill="#FCC214"/>
<path d="M99.9061 212.628C99.8695 212.729 99.8434 212.861 99.829 213.024C99.8133 213.186 99.8146 213.369 99.8316 213.572C99.8486 213.776 99.8865 213.984 99.9427 214.198C99.9989 214.412 100.081 214.621 100.188 214.825C100.425 215.271 100.682 215.558 100.962 215.688C101.242 215.817 101.528 215.805 101.819 215.65C102.035 215.536 102.174 215.386 102.232 215.199C102.292 215.012 102.298 214.773 102.249 214.481C102.2 214.189 102.124 213.831 102.021 213.405C101.886 212.888 101.804 212.423 101.774 212.006C101.745 211.589 101.806 211.227 101.959 210.919C102.113 210.609 102.393 210.346 102.798 210.132C103.142 209.951 103.471 209.858 103.785 209.855C104.1 209.851 104.397 209.923 104.672 210.069C104.949 210.217 105.204 210.42 105.435 210.681C105.666 210.942 105.873 211.244 106.055 211.588C106.233 211.925 106.376 212.279 106.482 212.651C106.589 213.023 106.655 213.395 106.678 213.77C106.701 214.146 106.681 214.512 106.618 214.871L105.445 214.87C105.483 214.743 105.51 214.576 105.527 214.366C105.543 214.159 105.54 213.927 105.519 213.674C105.5 213.419 105.455 213.154 105.386 212.877C105.317 212.6 105.215 212.334 105.08 212.079C104.854 211.653 104.607 211.365 104.339 211.218C104.071 211.07 103.798 211.07 103.518 211.217C103.29 211.338 103.146 211.51 103.087 211.728C103.028 211.947 103.026 212.221 103.078 212.551C103.131 212.882 103.212 213.266 103.324 213.705C103.439 214.215 103.504 214.657 103.52 215.032C103.534 215.407 103.47 215.728 103.322 215.997C103.177 216.265 102.929 216.493 102.58 216.678C102.136 216.912 101.702 217.004 101.28 216.95C100.856 216.898 100.469 216.725 100.116 216.434C99.7636 216.144 99.4644 215.767 99.2187 215.302C99.0579 214.996 98.9377 214.689 98.8593 214.38C98.7822 214.071 98.7364 213.767 98.7247 213.467C98.7129 213.168 98.7273 212.881 98.7704 212.606L99.9061 212.628Z" fill="#FCC214"/>
<path d="M101.772 202.251L96.7146 204.325L101.41 204.841L101.681 205.5L98.7023 209.175L103.761 207.099L104.22 208.219L97.1223 211.13L96.6309 209.93L100.005 205.802L94.7033 205.232L94.2119 204.032L101.31 201.12L101.772 202.251Z" fill="#FCC214"/>
<path d="M96.8558 196.674L93.9768 198.788L97.5433 198.996L96.8558 196.674ZM92.8659 199.714L92.5405 198.616L99.0488 193.578L99.4108 194.8L97.6243 196.111L98.4947 199.052L100.71 199.183L101.073 200.415L92.8659 199.714Z" fill="#FCC214"/>
<path d="M94.9942 192.381L94.5721 190.305C94.5276 190.087 94.4244 189.907 94.2623 189.762C94.1016 189.619 93.9029 189.52 93.6664 189.465C93.4312 189.41 93.1868 189.407 92.9332 189.46C92.6719 189.512 92.4484 189.618 92.2628 189.772C92.0785 189.928 91.94 190.108 91.8498 190.314C91.7597 190.52 91.7361 190.729 91.7793 190.94L92.1883 192.953L94.9942 192.381ZM98.8991 192.821L91.382 194.351L90.7155 191.079C90.6475 190.74 90.654 190.416 90.7377 190.105C90.8213 189.794 90.9585 189.511 91.1494 189.255C91.3389 189 91.5676 188.783 91.8328 188.608C92.0995 188.434 92.3844 188.315 92.6875 188.252C93.0182 188.184 93.3488 188.18 93.6769 188.238C94.0049 188.297 94.3002 188.414 94.5642 188.592C94.8295 188.77 95.0399 188.997 95.1994 189.274L97.6981 186.923L97.97 188.257L95.6868 190.42L96.0423 192.168L98.6574 191.636L98.8991 192.821Z" fill="#FCC214"/>
<path d="M90.3681 181.215L90.67 183.747L97.2253 182.968L97.369 184.181L90.8137 184.96L91.1156 187.503L90.0544 187.628L89.3056 181.342L90.3681 181.215Z" fill="#FCC214"/>
<path d="M93.0068 176.115L92.9872 174.116C92.9846 173.884 92.9206 173.684 92.7925 173.513C92.6644 173.341 92.4919 173.207 92.275 173.112C92.058 173.018 91.8123 172.971 91.5392 172.973C91.2582 172.977 91.0099 173.037 90.7956 173.154C90.5799 173.271 90.414 173.422 90.2964 173.607C90.18 173.792 90.1225 173.993 90.1251 174.21L90.1448 176.143L93.0068 176.115ZM96.7576 177.287L89.0862 177.365L89.0548 174.144C89.0509 173.798 89.1202 173.48 89.2613 173.192C89.4024 172.902 89.5906 172.647 89.8259 172.428C90.0611 172.21 90.3264 172.043 90.6205 171.924C90.9145 171.806 91.2164 171.745 91.5261 171.742C91.9509 171.738 92.3573 171.829 92.7441 172.017C93.1323 172.204 93.4459 172.47 93.6877 172.818C93.9282 173.164 94.0523 173.568 94.0562 174.029L94.0772 176.103L96.7458 176.077L96.7576 177.287Z" fill="#FCC214"/>
<path d="M93.1105 169.226L93.266 167.113C93.283 166.891 93.232 166.689 93.1157 166.506C92.9994 166.325 92.8347 166.176 92.623 166.058C92.4113 165.942 92.176 165.874 91.9173 165.856C91.652 165.836 91.4089 165.875 91.188 165.975C90.9685 166.074 90.7868 166.211 90.6431 166.385C90.5006 166.557 90.4209 166.752 90.4052 166.968L90.2549 169.016L93.1105 169.226ZM96.7501 170.707L89.0983 170.143L89.344 166.814C89.3702 166.469 89.4656 166.159 89.6302 165.882C89.7949 165.605 90.004 165.369 90.2562 165.175C90.5085 164.98 90.7868 164.835 91.09 164.738C91.3932 164.64 91.699 164.604 92.0074 164.627C92.3459 164.651 92.6648 164.736 92.9641 164.881C93.2647 165.026 93.5169 165.22 93.7234 165.462C93.9299 165.705 94.0723 165.981 94.1507 166.291L97.1918 164.706L97.0925 166.062L94.3076 167.527L94.1769 169.304L96.839 169.501L96.7501 170.707Z" fill="#FCC214"/>
<path d="M93.645 162.424C94.0004 162.482 94.3533 162.484 94.7075 162.425C95.0603 162.367 95.3831 162.255 95.6772 162.088C95.9712 161.923 96.2182 161.702 96.4182 161.429C96.6168 161.155 96.7462 160.833 96.8089 160.465C96.873 160.08 96.8507 159.728 96.7449 159.402C96.6377 159.078 96.4678 158.792 96.2352 158.545C96.0026 158.299 95.7307 158.094 95.4171 157.932C95.1048 157.771 94.782 157.661 94.4474 157.606C94.0919 157.548 93.7404 157.545 93.3914 157.6C93.0425 157.655 92.721 157.767 92.427 157.937C92.1316 158.108 91.8846 158.328 91.6873 158.598C91.4886 158.868 91.3592 159.184 91.2978 159.546C91.2351 159.93 91.2547 160.284 91.3619 160.608C91.469 160.932 91.6363 161.22 91.865 161.47C92.0937 161.719 92.3616 161.927 92.67 162.092C92.9798 162.256 93.3039 162.367 93.645 162.424ZM97.8832 160.654C97.7917 161.202 97.6022 161.677 97.3173 162.083C97.0298 162.488 96.6769 162.82 96.2574 163.078C95.8379 163.337 95.3857 163.515 94.8983 163.613C94.4108 163.711 93.9259 163.719 93.4424 163.639C92.9379 163.554 92.4727 163.382 92.044 163.12C91.6167 162.859 91.2508 162.536 90.9463 162.149C90.6418 161.762 90.4222 161.33 90.2863 160.85C90.1504 160.372 90.1269 159.873 90.2118 159.355C90.3033 158.815 90.4954 158.341 90.7894 157.933C91.0835 157.525 91.4416 157.195 91.8637 156.94C92.2858 156.686 92.7393 156.509 93.2228 156.411C93.7064 156.313 94.186 156.304 94.6617 156.383C95.1662 156.467 95.634 156.637 96.0614 156.896C96.49 157.153 96.856 157.474 97.1605 157.861C97.4637 158.248 97.6832 158.681 97.8152 159.159C97.9472 159.637 97.9694 160.135 97.8832 160.654Z" fill="#FCC214"/>
<path d="M95.4035 153.835L95.908 151.901C95.9655 151.677 95.9563 151.467 95.8766 151.267C95.7982 151.068 95.6675 150.894 95.4819 150.747C95.2976 150.598 95.0742 150.488 94.8076 150.42C94.537 150.348 94.2809 150.342 94.043 150.398C93.8052 150.455 93.6052 150.559 93.4445 150.706C93.2824 150.854 93.1753 151.032 93.1204 151.241L92.6329 153.112L95.4035 153.835ZM98.7151 155.949L91.2921 154.014L92.1049 150.898C92.1912 150.564 92.3415 150.275 92.5532 150.032C92.7662 149.79 93.0132 149.594 93.2981 149.444C93.583 149.295 93.8823 149.203 94.1973 149.167C94.5122 149.129 94.8206 149.148 95.1199 149.227C95.5303 149.335 95.8988 149.529 96.2242 149.811C96.5483 150.093 96.781 150.433 96.9234 150.83C97.0659 151.229 97.0776 151.651 96.9626 152.097L96.4385 154.105L99.0209 154.779L98.7151 155.949Z" fill="#FCC214"/>
<path d="M101.154 144.302L102.165 144.653L100.434 149.623L93.1889 147.1L94.8878 142.222L95.8967 142.574L94.5977 146.309L96.6586 147.026L97.7852 143.792L98.734 144.123L97.6074 147.357L99.8226 148.128L101.154 144.302Z" fill="#FCC214"/>
<path d="M99.6494 141.013L100.509 139.077C100.6 138.874 100.62 138.666 100.573 138.454C100.524 138.245 100.42 138.048 100.26 137.866C100.1 137.686 99.903 137.542 99.6651 137.438C99.422 137.329 99.1789 137.285 98.9372 137.303C98.698 137.323 98.4811 137.389 98.2863 137.506C98.0942 137.619 97.9531 137.776 97.8655 137.974L97.0331 139.85L99.6494 141.013ZM102.574 143.636L95.5641 140.522L96.9193 137.47C97.0592 137.154 97.2539 136.894 97.5022 136.689C97.7518 136.485 98.0276 136.333 98.3308 136.235C98.634 136.139 98.945 136.094 99.2626 136.106C99.5815 136.118 99.8833 136.186 100.166 136.311C100.475 136.448 100.746 136.637 100.98 136.874C101.212 137.112 101.385 137.379 101.497 137.677C101.61 137.976 101.65 138.283 101.619 138.601L105.018 138.137L104.465 139.381L101.351 139.818L100.627 141.447L103.066 142.531L102.574 143.636Z" fill="#FCC214"/>
<path d="M102.357 129.249L101.131 131.485L106.921 134.656L106.335 135.728L100.546 132.556L99.3147 134.801L98.3764 134.288L101.419 128.735L102.357 129.249Z" fill="#FCC214"/>
<path d="M102.533 126.974L106.882 127.314L104.884 123.425L105.617 122.316L108.143 127.425L110.433 128.941L109.764 129.949L107.458 128.421L101.8 128.081L102.533 126.974Z" fill="#FCC214"/>
<path d="M116.077 112.843C115.97 112.84 115.837 112.859 115.677 112.895C115.518 112.933 115.345 112.992 115.16 113.073C114.973 113.154 114.787 113.256 114.602 113.379C114.417 113.5 114.245 113.645 114.085 113.811C113.739 114.179 113.55 114.514 113.517 114.82C113.483 115.126 113.586 115.393 113.825 115.62C114.003 115.789 114.189 115.871 114.385 115.868C114.581 115.866 114.808 115.795 115.068 115.655C115.329 115.514 115.646 115.329 116.016 115.095C116.461 114.802 116.876 114.576 117.261 114.415C117.647 114.254 118.01 114.197 118.351 114.244C118.692 114.29 119.031 114.471 119.363 114.788C119.643 115.054 119.836 115.336 119.94 115.634C120.043 115.932 120.071 116.234 120.02 116.544C119.969 116.852 119.857 117.158 119.684 117.461C119.51 117.763 119.289 118.056 119.023 118.337C118.76 118.615 118.47 118.862 118.152 119.083C117.835 119.303 117.503 119.483 117.155 119.624C116.808 119.767 116.453 119.865 116.094 119.92L115.722 118.806C115.854 118.804 116.02 118.776 116.223 118.724C116.425 118.673 116.643 118.597 116.877 118.496C117.112 118.397 117.349 118.269 117.589 118.115C117.83 117.962 118.049 117.779 118.246 117.57C118.578 117.221 118.772 116.896 118.825 116.594C118.88 116.292 118.793 116.033 118.564 115.816C118.377 115.638 118.169 115.556 117.945 115.57C117.718 115.583 117.457 115.668 117.16 115.824C116.865 115.979 116.527 116.179 116.146 116.424C115.701 116.697 115.303 116.899 114.953 117.034C114.603 117.169 114.277 117.209 113.976 117.157C113.675 117.103 113.381 116.941 113.095 116.669C112.73 116.323 112.507 115.941 112.422 115.523C112.338 115.106 112.377 114.684 112.539 114.257C112.701 113.831 112.963 113.426 113.326 113.044C113.563 112.795 113.816 112.583 114.083 112.41C114.352 112.238 114.625 112.098 114.906 111.991C115.186 111.884 115.461 111.808 115.736 111.759L116.077 112.843Z" fill="#FCC214"/>
<path d="M126.506 111.282L122.917 107.157L123.936 111.77L123.398 112.238L118.964 110.598L122.552 114.723L121.64 115.516L116.603 109.73L117.582 108.878L122.576 110.75L121.413 105.544L122.39 104.694L127.427 110.479L126.506 111.282Z" fill="#FCC214"/>
<path d="M130.211 104.827L127.287 102.78L128.234 106.224L130.211 104.827ZM126.052 102.025L126.986 101.364L133.85 105.907L132.808 106.643L130.993 105.372L128.489 107.143L129.077 109.281L128.028 110.024L126.052 102.025Z" fill="#FCC214"/>
<path d="M133.676 101.685L135.505 100.619C135.698 100.506 135.837 100.351 135.92 100.151C136.005 99.9524 136.035 99.7328 136.012 99.4923C135.988 99.2519 135.911 99.0193 135.781 98.7958C135.646 98.5658 135.475 98.3867 135.27 98.2613C135.063 98.1358 134.847 98.0639 134.624 98.0443C134.399 98.0247 134.194 98.0692 134.008 98.1776L132.234 99.2127L133.676 101.685ZM134.513 105.525L130.65 98.8977L133.534 97.2158C133.832 97.0419 134.143 96.9453 134.465 96.923C134.786 96.9034 135.098 96.9426 135.402 97.0407C135.705 97.1387 135.982 97.285 136.234 97.4811C136.485 97.6771 136.689 97.9071 136.844 98.175C137.016 98.4665 137.125 98.7775 137.176 99.1068C137.226 99.4375 137.209 99.755 137.125 100.062C137.042 100.369 136.895 100.642 136.685 100.882L139.712 102.494L138.537 103.179L135.754 101.711L134.215 102.609L135.558 104.916L134.513 105.525Z" fill="#FCC214"/>
<path d="M142.768 93.724L140.465 94.8205L143.305 100.781L142.202 101.307L139.363 95.3459L137.051 96.4463L136.591 95.4805L142.308 92.7583L142.768 93.724Z" fill="#FCC214"/>
<path d="M148.459 94.5889L150.347 93.9316C150.564 93.8571 150.734 93.7303 150.857 93.5552C150.978 93.3801 151.05 93.1736 151.07 92.9384C151.091 92.7018 151.057 92.4548 150.967 92.1961C150.875 91.9295 150.738 91.7138 150.559 91.5478C150.379 91.3819 150.184 91.2734 149.971 91.2211C149.758 91.1689 149.549 91.1793 149.346 91.2486L147.519 91.885L148.459 94.5889ZM148.544 98.5174L146.024 91.2721L149.065 90.2135C149.392 90.1011 149.715 90.0645 150.035 90.1064C150.354 90.1482 150.654 90.2449 150.937 90.3991C151.219 90.552 151.463 90.7493 151.668 90.9911C151.875 91.2329 152.029 91.4995 152.13 91.7909C152.27 92.1921 152.313 92.6064 152.259 93.0325C152.206 93.4598 152.053 93.8427 151.8 94.1825C151.548 94.521 151.204 94.7667 150.769 94.917L148.81 95.5992L149.687 98.1201L148.544 98.5174Z" fill="#FCC214"/>
<path d="M155.015 92.4926L157.069 91.9659C157.284 91.9123 157.461 91.7986 157.595 91.6313C157.731 91.4627 157.82 91.2602 157.863 91.0223C157.906 90.7845 157.896 90.5388 157.832 90.2879C157.766 90.0291 157.65 89.8122 157.485 89.6344C157.322 89.4567 157.135 89.3286 156.925 89.2489C156.714 89.1679 156.504 89.1548 156.295 89.2097L154.307 89.7181L155.015 92.4926ZM154.771 96.4132L152.87 88.9823L156.103 88.1537C156.439 88.0688 156.763 88.0596 157.078 88.1276C157.393 88.1969 157.683 88.3184 157.947 88.4961C158.212 88.6739 158.439 88.8908 158.626 89.1483C158.815 89.4044 158.948 89.6828 159.025 89.9821C159.109 90.3114 159.13 90.6407 159.088 90.9701C159.046 91.3007 158.943 91.6026 158.779 91.8744C158.615 92.1476 158.399 92.3697 158.13 92.5422L160.601 94.9207L159.282 95.2592L157.008 93.0859L155.282 93.5276L155.943 96.1139L154.771 96.4132Z" fill="#FCC214"/>
<path d="M161.623 90.8364C161.68 91.1918 161.793 91.5277 161.96 91.844C162.127 92.1602 162.336 92.4308 162.587 92.6568C162.838 92.8829 163.126 93.0463 163.449 93.1482C163.771 93.2502 164.118 93.2711 164.488 93.211C164.872 93.1496 165.2 93.0175 165.474 92.8124C165.747 92.6085 165.964 92.3563 166.124 92.057C166.285 91.759 166.392 91.4349 166.445 91.0873C166.499 90.7397 166.499 90.3986 166.445 90.064C166.388 89.7085 166.278 89.374 166.115 89.0603C165.951 88.748 165.742 88.4788 165.487 88.2527C165.233 88.0279 164.945 87.8645 164.626 87.7613C164.307 87.6594 163.966 87.6371 163.604 87.6959C163.22 87.7574 162.891 87.8907 162.617 88.0945C162.343 88.2984 162.125 88.5493 161.961 88.8447C161.797 89.1414 161.686 89.4615 161.627 89.8065C161.569 90.1516 161.568 90.494 161.623 90.8364ZM164.65 94.2904C164.102 94.378 163.59 94.3519 163.115 94.2081C162.64 94.0657 162.214 93.837 161.835 93.522C161.456 93.207 161.142 92.8346 160.894 92.4033C160.647 91.972 160.485 91.5146 160.406 91.0311C160.325 90.5253 160.341 90.03 160.452 89.5413C160.563 89.0525 160.754 88.6029 161.023 88.1912C161.294 87.7796 161.633 87.4333 162.045 87.1523C162.455 86.8713 162.921 86.6883 163.439 86.606C163.981 86.5184 164.49 86.5511 164.97 86.7001C165.451 86.8491 165.879 87.083 166.254 87.4019C166.63 87.7221 166.942 88.0945 167.188 88.5219C167.436 88.9492 167.597 89.4014 167.674 89.8784C167.755 90.3829 167.742 90.8795 167.633 91.367C167.525 91.8544 167.337 92.3053 167.067 92.7157C166.798 93.1273 166.457 93.4723 166.045 93.7494C165.634 94.0265 165.168 94.2081 164.65 94.2904Z" fill="#FCC214"/>
<path d="M170.332 89.7671L172.327 89.6285C172.557 89.6129 172.753 89.5358 172.917 89.3985C173.081 89.26 173.204 89.081 173.286 88.8588C173.367 88.6353 173.398 88.3883 173.38 88.1152C173.361 87.8342 173.286 87.5911 173.157 87.3833C173.026 87.1755 172.865 87.0187 172.673 86.9128C172.482 86.807 172.278 86.7612 172.064 86.7756L170.134 86.9102L170.332 89.7671ZM169.384 93.5792L168.853 85.9262L172.065 85.704C172.41 85.6805 172.731 85.7314 173.029 85.8543C173.327 85.9784 173.591 86.1509 173.822 86.3731C174.054 86.5953 174.239 86.8501 174.373 87.1363C174.509 87.4238 174.588 87.7218 174.609 88.0302C174.639 88.4537 174.572 88.864 174.407 89.2626C174.244 89.6599 173.996 89.9892 173.664 90.2506C173.332 90.512 172.936 90.6584 172.476 90.691L170.406 90.8335L170.59 93.4956L169.384 93.5792Z" fill="#FCC214"/>
<path d="M181.204 92.1779L181.192 93.2469L175.93 93.1933L176.009 85.5232L181.172 85.5755L181.162 86.6446L177.208 86.6054L177.185 88.7878L180.61 88.8218L180.6 89.8268L177.174 89.7915L177.151 92.1374L181.204 92.1779Z" fill="#FCC214"/>
<path d="M183.862 89.7001L185.97 89.8961C186.194 89.9157 186.396 89.8699 186.581 89.7562C186.765 89.6438 186.916 89.4818 187.037 89.274C187.158 89.0636 187.23 88.831 187.254 88.5722C187.28 88.3069 187.244 88.0625 187.149 87.8404C187.054 87.6182 186.92 87.4339 186.75 87.2875C186.579 87.1412 186.386 87.0588 186.17 87.0392L184.127 86.8484L183.862 89.7001ZM182.311 93.3109L183.021 85.6723L186.344 85.9807C186.689 86.0133 186.997 86.114 187.272 86.2839C187.545 86.4538 187.776 86.6668 187.967 86.9229C188.157 87.1791 188.296 87.4601 188.388 87.7646C188.478 88.0704 188.509 88.3775 188.481 88.6859C188.449 89.0231 188.359 89.3406 188.209 89.6373C188.057 89.934 187.859 90.1836 187.613 90.3848C187.366 90.5861 187.088 90.7233 186.777 90.7952L188.303 93.8677L186.948 93.7409L185.538 90.9298L183.763 90.7651L183.516 93.422L182.311 93.3109Z" fill="#FCC214"/>
<path d="M195.853 88.493L193.341 88.0513L192.196 94.5517L190.993 94.34L192.139 87.8383L189.616 87.3939L189.803 86.3406L196.038 87.4397L195.853 88.493Z" fill="#FCC214"/>
<path d="M198.056 87.9267L199.131 92.1558L202.172 89.0128L203.457 89.3499L199.433 93.3856L198.734 96.0398L197.563 95.7301L198.269 93.0562L196.771 87.5896L198.056 87.9267Z" fill="#FCC214"/>
<path d="M176.984 54.964C111.347 55.2502 58.1788 108.883 58.465 174.522C58.7512 240.16 112.384 293.327 178.022 293.041C243.66 292.754 296.828 239.121 296.54 173.483C296.254 107.844 242.621 54.6778 176.984 54.964ZM178.029 294.398C111.642 294.689 57.3973 240.914 57.1071 174.529C56.817 108.141 110.591 53.895 176.978 53.6061C243.365 53.316 297.609 107.091 297.899 173.478C298.188 239.864 244.414 294.108 178.029 294.398Z" fill="#FCC214"/>
<path d="M177.081 77.2639C123.739 77.4965 80.5311 121.084 80.7637 174.425C80.9977 227.767 124.583 270.973 177.925 270.741C231.268 270.508 274.474 226.922 274.242 173.581C274.009 120.239 230.424 77.0313 177.081 77.2639ZM177.931 272.099C123.84 272.335 79.6424 228.521 79.4059 174.432C79.1706 120.34 122.984 76.1426 177.075 75.9061C231.166 75.6695 275.363 119.484 275.6 173.576C275.836 227.665 232.022 271.862 177.931 272.099Z" fill="#FCC214"/>
<path d="M190.836 198.753C190.356 199.782 189.77 200.818 189.091 201.832C187.347 204.447 185.033 206.487 184.281 207.132C184.281 207.132 179.68 211.069 174.701 212.547C174.062 212.737 173.423 212.885 173.423 212.885C172.958 212.993 172.567 213.068 172.306 213.113L193.271 213.02L193.164 188.49C193.065 189.566 192.967 190.642 192.869 191.717C192.557 194.157 191.881 196.516 190.836 198.753Z" fill="#FCC214"/>
<path d="M220.545 169.033C218.228 171.509 214.694 172.775 210.041 172.795L193.096 172.869L192.98 146.281L209.925 146.207C214.576 146.188 218.119 147.455 220.458 149.978C222.804 152.509 224.001 155.728 224.018 159.545C224.034 163.361 222.866 166.554 220.545 169.033ZM187.549 159.243L179.867 159.277V159.283L179.558 159.284L179.598 168.237L179.779 168.318C179.822 168.338 179.863 168.36 179.907 168.38C182.002 169.318 183.85 170.387 185.413 171.574C187.917 173.473 189.842 175.825 191.136 178.564C191.714 179.792 192.172 181.193 192.495 182.724C192.571 183.077 192.636 183.439 192.694 183.806H193.143L210.088 183.732C218.631 183.695 225.414 181.439 230.247 177.029C235.089 172.609 237.528 166.672 237.496 159.381C237.464 152.162 234.974 146.264 230.094 141.852C225.222 137.447 218.421 135.232 209.878 135.269C198.393 135.32 186.91 135.369 175.426 135.419L180.32 137.812L180.396 137.85L180.495 137.911C183.11 139.477 185.268 141.505 186.91 143.939C187.517 144.84 188.056 145.804 188.508 146.801C188.853 147.727 189.197 148.654 189.542 149.579C190.134 151.593 190.057 156.892 190.143 159.232" fill="#FCC214"/>
<path d="M189.879 183.254C189.583 181.852 189.167 180.582 188.648 179.483C187.48 177.006 185.734 174.879 183.462 173.154C181.578 171.721 179.24 170.463 176.512 169.409C175.97 169.206 175.493 169.029 175.04 168.876C171.761 167.755 167.881 166.641 163.513 165.565C158.873 164.442 155.165 163.489 152.499 162.733C149.949 162.011 148.033 161.283 146.806 160.572C145.735 159.957 145.087 159.314 144.879 158.669C144.622 157.87 144.489 156.786 144.482 155.452C144.477 154.067 144.815 152.828 145.487 151.77C146.181 150.679 147.147 149.763 148.362 149.046C149.631 148.301 151.129 147.728 152.812 147.348C154.536 146.96 156.389 146.759 158.318 146.751C164.586 146.723 168.763 148.132 170.931 151.032C172.533 153.174 172.669 156.155 172.669 156.156C172.717 156.573 172.736 156.92 172.742 157.155L187.901 157.089L187.878 155.989C187.779 153.252 187.306 150.733 186.467 148.501C186.331 148.145 186.177 147.766 185.978 147.334C185.612 146.526 185.143 145.649 184.538 144.747C182.856 142.245 180.85 140.628 179.347 139.639L178.669 139.228L178.614 139.196H178.611C175.769 137.485 172.238 136.247 168.114 135.522C164.945 134.963 161.375 134.684 157.5 134.701C153.274 134.72 149.372 135.286 145.905 136.383C142.415 137.488 139.409 139.028 136.972 140.961C134.503 142.911 132.58 145.264 131.254 147.944C129.926 150.631 129.261 153.618 129.275 156.824C129.291 160.3 129.805 163.244 130.811 165.576C131.832 167.947 133.452 169.991 135.627 171.649C137.748 173.269 140.435 174.633 143.621 175.705C146.706 176.749 150.491 177.82 154.872 178.899C159.272 179.972 162.879 180.924 165.6 181.74C168.27 182.541 170.362 183.351 171.822 184.147C173.151 184.872 174.053 185.677 174.502 186.537C174.969 187.437 175.209 188.618 175.216 190.048C175.23 193.235 174.024 195.743 171.537 197.712C169.007 199.719 165.111 200.744 159.963 200.768C148.71 200.816 143.157 196.798 142.99 188.479C142.975 187.9 142.949 188.621 142.944 187.431L127.664 187.498C128.597 203.059 138.714 212.385 157.508 212.995C158.495 213.026 159.331 213.04 160.131 213.037C164.73 213.016 168.95 212.373 172.669 211.124C176.404 209.87 179.627 208.137 182.256 205.98C183.998 204.54 185.504 202.885 186.728 201.052C187.354 200.12 187.895 199.161 188.344 198.203C189.734 195.222 190.433 192.014 190.419 188.669C190.41 186.728 190.228 184.908 189.879 183.254Z" fill="#FCC214"/>
<circle cx="177.503" cy="173.5" r="136.452" stroke="#FCC200"/>
<circle cx="176.5" cy="173.5" r="151" stroke="#FCC200"/>
<defs>
<filter id="filter0_d" x="0.55127" y="0.54834" width="353.904" height="353.904" filterUnits="userSpaceOnUse" color-interpolation-filters="sRGB">
<feFlood flood-opacity="0" result="BackgroundImageFix"/>
<feColorMatrix in="SourceAlpha" type="matrix" values="0 0 0 0 0 0 0 0 0 0 0 0 0 0 0 0 0 0 127 0"/>
<feMorphology radius="13" operator="dilate" in="SourceAlpha" result="effect1_dropShadow"/>
<feOffset dy="4"/>
<feGaussianBlur stdDeviation="13.5"/>
<feColorMatrix type="matrix" values="0 0 0 0 0 0 0 0 0 0 0 0 0 0 0 0 0 0 0.15 0"/>
<feBlend mode="normal" in2="BackgroundImageFix" result="effect1_dropShadow"/>
<feBlend mode="normal" in="SourceGraphic" in2="effect1_dropShadow" result="shape"/>
</filter>
</defs>
</svg>
