<svg width="252" height="252" viewBox="0 0 252 252" fill="none" xmlns="http://www.w3.org/2000/svg">
<path d="M162.76 239.808L167.665 238.146L166.464 234.594L160.773 236.521L160.267 235.02L167.829 232.458L171.624 243.685L164.115 246.229L163.609 244.729L169.245 242.82L168.171 239.646L163.267 241.307L162.76 239.808ZM172.924 233.512C173.126 233.96 173.457 234.248 173.918 234.384C174.381 234.516 175.085 234.505 176.031 234.349C177.381 234.119 178.497 234.121 179.382 234.349C180.267 234.576 180.901 235.114 181.282 235.959C181.676 236.83 181.641 237.71 181.176 238.6C180.715 239.489 179.912 240.191 178.778 240.705C177.591 241.242 176.497 241.353 175.488 241.038C174.482 240.724 173.787 240.115 173.409 239.207L173.403 239.158L175.13 238.377C175.38 238.927 175.771 239.294 176.3 239.466C176.832 239.639 177.446 239.569 178.141 239.255C178.799 238.957 179.236 238.585 179.46 238.138C179.686 237.692 179.695 237.242 179.492 236.79C179.306 236.379 178.961 236.126 178.456 236.027C177.948 235.929 177.2 235.959 176.206 236.118C174.905 236.332 173.829 236.303 172.978 236.027C172.13 235.75 171.514 235.187 171.128 234.337C170.722 233.438 170.759 232.562 171.237 231.706C171.714 230.848 172.541 230.155 173.711 229.625C174.837 229.115 175.961 228.966 177.078 229.182C178.199 229.398 178.981 230.031 179.428 231.079L179.432 231.129L177.698 231.915C177.401 231.259 176.952 230.871 176.353 230.752C175.752 230.633 175.089 230.738 174.363 231.067C173.695 231.37 173.239 231.738 172.988 232.174C172.738 232.608 172.719 233.056 172.924 233.512ZM190.152 227.074L194.373 224.071L192.201 221.013L187.304 224.499L186.388 223.209L192.894 218.576L199.755 228.235L193.297 232.834L192.38 231.543L197.229 228.091L195.289 225.36L191.068 228.365L190.152 227.074ZM198.133 218.442C198.436 218.829 198.827 219.03 199.306 219.053C199.786 219.071 200.468 218.892 201.349 218.512C202.604 217.967 203.688 217.701 204.601 217.709C205.516 217.719 206.26 218.091 206.833 218.821C207.422 219.572 207.597 220.434 207.36 221.41C207.124 222.383 206.513 223.257 205.533 224.027C204.509 224.832 203.472 225.201 202.419 225.138C201.368 225.074 200.547 224.648 199.961 223.857L199.945 223.811L201.436 222.638C201.809 223.114 202.276 223.376 202.831 223.417C203.389 223.459 203.969 223.243 204.567 222.772C205.135 222.324 205.472 221.858 205.584 221.372C205.696 220.884 205.598 220.445 205.291 220.055C205.014 219.7 204.618 219.538 204.103 219.562C203.589 219.589 202.869 219.797 201.941 220.188C200.728 220.707 199.678 220.937 198.786 220.872C197.894 220.806 197.161 220.407 196.585 219.673C195.977 218.898 195.803 218.038 196.063 217.092C196.322 216.145 196.959 215.274 197.969 214.479C198.939 213.717 199.995 213.302 201.132 213.245C202.272 213.187 203.183 213.615 203.867 214.525L203.883 214.573L202.386 215.75C201.942 215.184 201.413 214.915 200.803 214.942C200.191 214.972 199.572 215.232 198.946 215.725C198.369 216.178 198.013 216.645 197.875 217.129C197.736 217.609 197.823 218.049 198.133 218.442ZM213.159 207.919L216.549 204L213.717 201.544L209.784 206.09L208.588 205.053L213.816 199.012L222.763 206.772L217.575 212.769L216.379 211.732L220.275 207.23L217.745 205.037L214.355 208.955L213.159 207.919ZM218.977 197.534C219.378 197.819 219.81 197.9 220.275 197.786C220.741 197.667 221.343 197.303 222.082 196.69C223.133 195.812 224.096 195.249 224.976 195C225.856 194.749 226.674 194.896 227.429 195.434C228.207 195.988 228.618 196.766 228.666 197.767C228.713 198.769 228.374 199.779 227.652 200.795C226.898 201.857 226.009 202.506 224.979 202.741C223.953 202.978 223.046 202.802 222.261 202.21L222.233 202.169L223.331 200.623C223.824 200.975 224.345 201.093 224.888 200.975C225.436 200.856 225.93 200.487 226.373 199.864C226.791 199.274 226.983 198.732 226.951 198.233C226.921 197.735 226.704 197.342 226.298 197.054C225.933 196.793 225.507 196.748 225.021 196.917C224.534 197.088 223.904 197.491 223.123 198.13C222.108 198.971 221.163 199.488 220.29 199.678C219.416 199.867 218.6 199.693 217.841 199.151C217.037 198.58 216.629 197.804 216.61 196.823C216.592 195.842 216.956 194.826 217.701 193.779C218.417 192.77 219.313 192.076 220.388 191.699C221.464 191.319 222.458 191.472 223.372 192.152L223.4 192.194L222.298 193.747C221.711 193.33 221.128 193.221 220.549 193.42C219.971 193.621 219.452 194.046 218.99 194.696C218.566 195.294 218.356 195.843 218.358 196.346C218.361 196.846 218.57 197.243 218.977 197.534ZM230.731 183.672L233.09 179.058L229.756 177.348L227.016 182.701L225.609 181.98L229.248 174.865L239.787 180.267L236.173 187.33L234.765 186.609L237.477 181.307L234.499 179.78L232.138 184.393L230.731 183.672ZM233.807 172.146C234.264 172.325 234.703 172.302 235.128 172.079C235.551 171.851 236.049 171.352 236.619 170.579C237.427 169.474 238.228 168.697 239.022 168.243C239.815 167.789 240.646 167.735 241.508 168.074C242.396 168.425 242.982 169.08 243.269 170.042C243.555 171.003 243.468 172.064 243.011 173.225C242.534 174.437 241.826 175.281 240.883 175.757C239.943 176.234 239.021 176.281 238.117 175.896L238.079 175.863L238.775 174.098C239.337 174.32 239.872 174.31 240.372 174.065C240.874 173.819 241.265 173.339 241.544 172.628C241.811 171.957 241.865 171.385 241.716 170.907C241.566 170.43 241.261 170.101 240.799 169.919C240.381 169.753 239.958 169.813 239.526 170.094C239.094 170.377 238.578 170.92 237.974 171.727C237.19 172.789 236.398 173.517 235.596 173.913C234.794 174.305 233.96 174.333 233.093 173.99C232.176 173.627 231.593 172.974 231.339 172.026C231.086 171.078 231.196 170.004 231.667 168.807C232.121 167.657 232.823 166.767 233.775 166.142C234.73 165.515 235.732 165.424 236.781 165.866L236.819 165.899L236.121 167.672C235.452 167.407 234.86 167.443 234.347 167.774C233.833 168.108 233.431 168.647 233.139 169.389C232.87 170.071 232.798 170.654 232.922 171.142C233.044 171.627 233.342 171.961 233.807 172.146ZM241.741 155.796L242.906 150.744L239.256 149.901L237.905 155.761L236.363 155.406L238.159 147.617L249.694 150.282L247.911 158.014L246.37 157.658L247.709 151.853L244.447 151.101L243.283 156.152L241.741 155.796ZM245.472 126.023L245.341 120.84L241.596 120.935L241.747 126.947L240.167 126.988L239.964 118.997L251.799 118.698L252 126.63L250.419 126.67L250.268 120.716L246.923 120.8L247.053 125.982L245.472 126.023ZM242.631 114.417C243.118 114.356 243.491 114.123 243.757 113.723C244.019 113.32 244.215 112.642 244.344 111.691C244.522 110.332 244.85 109.265 245.327 108.485C245.804 107.704 246.505 107.256 247.425 107.14C248.373 107.019 249.201 107.311 249.914 108.016C250.628 108.72 251.062 109.693 251.218 110.93C251.382 112.222 251.168 113.303 250.571 114.175C249.976 115.045 249.19 115.531 248.211 115.628L248.164 115.618L247.923 113.736C248.525 113.66 248.989 113.392 249.308 112.937C249.63 112.479 249.742 111.872 249.646 111.113C249.557 110.397 249.33 109.868 248.97 109.522C248.609 109.175 248.183 109.034 247.69 109.097C247.243 109.154 246.901 109.41 246.658 109.864C246.415 110.321 246.225 111.045 246.084 112.043C245.906 113.352 245.563 114.372 245.048 115.105C244.535 115.836 243.817 116.261 242.891 116.378C241.914 116.503 241.088 116.21 240.411 115.502C239.732 114.792 239.313 113.799 239.151 112.523C238.995 111.295 239.182 110.177 239.719 109.17C240.254 108.162 241.088 107.599 242.219 107.479L242.269 107.49L242.508 109.381C241.796 109.472 241.293 109.788 241.004 110.326C240.714 110.867 240.62 111.532 240.72 112.321C240.813 113.05 241.03 113.596 241.373 113.964C241.713 114.33 242.135 114.481 242.631 114.417ZM241.733 96.254L240.32 91.2664L236.714 92.2911L238.356 98.0764L236.835 98.5099L234.654 90.8207L246.043 87.5836L248.207 95.2171L246.687 95.6492L245.06 89.9197L241.84 90.8343L243.255 95.8218L241.733 96.254ZM236.083 85.734C236.539 85.5532 236.845 85.2366 237.002 84.7826C237.157 84.3274 237.18 83.6221 237.07 82.668C236.909 81.3077 236.964 80.1933 237.234 79.3195C237.505 78.4443 238.073 77.8382 238.937 77.4971C239.825 77.1464 240.699 77.2253 241.565 77.7322C242.428 78.2391 243.089 79.0748 243.545 80.2354C244.023 81.4477 244.08 82.5471 243.717 83.5392C243.355 84.5299 242.713 85.1958 241.79 85.5301L241.74 85.5315L241.045 83.7675C241.607 83.5446 241.991 83.1722 242.189 82.6517C242.389 82.1285 242.348 81.5115 242.068 80.8008C241.804 80.1281 241.454 79.6728 241.019 79.4255C240.585 79.1781 240.137 79.1469 239.675 79.329C239.257 79.4948 238.988 79.8277 238.863 80.3278C238.741 80.8293 238.736 81.5781 238.844 82.5811C238.994 83.8925 238.912 84.9661 238.595 85.8033C238.277 86.639 237.685 87.2275 236.818 87.57C235.901 87.9328 235.028 87.8526 234.198 87.3321C233.367 86.813 232.714 85.9528 232.243 84.7568C231.789 83.6058 231.696 82.4751 231.967 81.3675C232.237 80.2585 232.908 79.507 233.975 79.1115L234.025 79.1102L234.724 80.8837C234.055 81.1473 233.647 81.5781 233.497 82.1707C233.351 82.7659 233.423 83.4332 233.714 84.1752C233.983 84.8574 234.329 85.333 234.752 85.6049C235.172 85.8753 235.618 85.9174 236.083 85.734ZM230.678 68.4053L228.096 63.9125L224.849 65.7811L227.843 70.9956L226.472 71.7852L222.492 64.8556L232.756 58.948L236.706 65.826L235.335 66.6155L232.369 61.4527L229.467 63.1229L232.049 67.6171L230.678 68.4053ZM222.573 59.6289C222.975 59.3435 223.194 58.963 223.239 58.4846C223.279 58.0049 223.134 57.3159 222.797 56.4162C222.313 55.1347 222.1 54.038 222.153 53.1247C222.206 52.2115 222.611 51.4858 223.368 50.9476C224.145 50.3931 225.013 50.2599 225.975 50.544C226.935 50.8267 227.777 51.479 228.499 52.4955C229.254 53.5569 229.573 54.6115 229.459 55.662C229.345 56.7111 228.882 57.5116 228.064 58.0592L228.017 58.0728L226.919 56.5263C227.412 56.1757 227.695 55.7204 227.762 55.1687C227.83 54.6115 227.642 54.023 227.201 53.4006C226.782 52.8108 226.334 52.4534 225.853 52.3175C225.373 52.1829 224.93 52.259 224.524 52.5471C224.158 52.8081 223.977 53.1967 223.976 53.7118C223.978 54.2282 224.152 54.9567 224.498 55.9039C224.959 57.1406 225.136 58.2033 225.029 59.0921C224.921 59.9795 224.487 60.693 223.729 61.2352C222.925 61.806 222.059 61.9378 221.128 61.6348C220.195 61.329 219.357 60.6509 218.612 59.6031C217.897 58.5961 217.534 57.5197 217.532 56.3809C217.528 55.238 217.999 54.3478 218.939 53.7077L218.987 53.6941L220.091 55.2475C219.505 55.6633 219.211 56.1798 219.209 56.7913C219.209 57.4056 219.44 58.0361 219.902 58.6858C220.325 59.2837 220.775 59.6615 221.251 59.8232C221.724 59.9863 222.166 59.9197 222.573 59.6289ZM213.004 43.9148L209.256 40.3379L206.672 43.0518L211.02 47.2022L209.928 48.3478L204.149 42.833L212.319 34.255L218.056 39.7304L216.964 40.876L212.658 36.7664L210.348 39.1922L214.096 42.7691L213.004 43.9148ZM203.028 37.7055C203.35 37.3331 203.473 36.9118 203.404 36.4348C203.331 35.9605 203.025 35.3245 202.486 34.5295C201.714 33.4002 201.247 32.385 201.083 31.4853C200.917 30.5843 201.141 29.7825 201.748 29.0813C202.374 28.3597 203.186 28.024 204.187 28.0715C205.188 28.1205 206.16 28.5553 207.101 29.3707C208.085 30.2242 208.644 31.1728 208.78 32.2219C208.918 33.267 208.656 34.1544 207.992 34.8801L207.949 34.9046L206.517 33.6611C206.913 33.2045 207.082 32.6962 207.016 32.1431C206.951 31.5859 206.629 31.0573 206.053 30.5571C205.507 30.0856 204.987 29.8423 204.487 29.8246C203.988 29.8083 203.576 29.9877 203.251 30.3628C202.956 30.7026 202.872 31.1225 202.993 31.624C203.118 32.1254 203.458 32.7927 204.018 33.6298C204.757 34.7239 205.182 35.7132 205.287 36.602C205.393 37.4908 205.14 38.2858 204.529 38.9925C203.885 39.7372 203.074 40.0715 202.097 39.9954C201.119 39.9193 200.145 39.46 199.173 38.6174C198.24 37.8088 197.633 36.8493 197.362 35.7431C197.088 34.6341 197.335 33.657 198.099 32.8117L198.142 32.7873L199.581 34.0348C199.11 34.5784 198.946 35.1506 199.09 35.7444C199.234 36.341 199.607 36.8996 200.208 37.4215C200.762 37.9012 201.289 38.1635 201.79 38.2083C202.287 38.2532 202.701 38.0833 203.028 37.7055ZM189.867 24.9051L185.379 22.3216L183.511 25.5723L188.72 28.5703L187.931 29.9429L181.009 25.9596L186.91 15.6842L193.782 19.6389L192.993 21.0129L187.835 18.0435L186.166 20.9476L190.656 23.5325L189.867 24.9051ZM178.581 21.1461C178.783 20.6976 178.78 20.2586 178.579 19.8224C178.373 19.3875 177.899 18.8657 177.155 18.2582C176.092 17.3952 175.358 16.5554 174.943 15.74C174.529 14.9246 174.514 14.0929 174.896 13.2462C175.289 12.3751 175.973 11.822 176.946 11.5828C177.918 11.3436 178.973 11.4822 180.109 11.9959C181.294 12.5327 182.102 13.2815 182.531 14.2478C182.96 15.2113 182.963 16.1354 182.532 17.0201L182.498 17.0568L180.772 16.2754C181.02 15.7237 181.036 15.1868 180.817 14.6772C180.595 14.1608 180.138 13.7477 179.441 13.4324C178.784 13.1348 178.216 13.0519 177.734 13.1769C177.249 13.3033 176.906 13.5927 176.701 14.0453C176.516 14.4557 176.554 14.8811 176.813 15.3282C177.075 15.7726 177.592 16.3148 178.368 16.9576C179.387 17.7948 180.077 18.6224 180.43 19.4446C180.784 20.2654 180.769 21.1012 180.385 21.9506C179.979 22.8503 179.297 23.4007 178.34 23.6072C177.382 23.8138 176.315 23.6521 175.145 23.1221C174.02 22.6124 173.166 21.8663 172.59 20.8838C172.01 19.8985 171.97 18.8915 172.461 17.8641L172.495 17.8274L174.23 18.6129C173.934 19.2693 173.939 19.8632 174.246 20.3918C174.554 20.9218 175.072 21.3513 175.796 21.6788C176.464 21.9818 177.043 22.0824 177.535 21.9818C178.026 21.8826 178.374 21.6013 178.581 21.1461ZM162.732 12.2174L157.751 10.8013L156.728 14.4109L162.507 16.0525L162.075 17.576L154.394 15.3934L157.628 3.9914L165.253 6.15899L164.821 7.68243L159.096 6.05572L158.183 9.27926L163.165 10.6954L162.732 12.2174ZM150.846 11.3912C150.931 10.9073 150.822 10.4806 150.52 10.1069C150.213 9.73726 149.625 9.34722 148.756 8.94088C147.514 8.36602 146.595 7.73272 145.994 7.0437C145.392 6.3547 145.175 5.55153 145.338 4.63828C145.505 3.69648 146.032 2.99254 146.917 2.52096C147.801 2.05074 148.858 1.92571 150.084 2.14451C151.365 2.37419 152.332 2.90148 152.984 3.73319C153.637 4.56081 153.866 5.45639 153.666 6.41992L153.642 6.46343L151.775 6.13046C151.881 5.53386 151.766 5.01065 151.428 4.56896C151.087 4.12457 150.541 3.83511 149.789 3.70057C149.079 3.57418 148.508 3.63262 148.071 3.87316C147.632 4.11371 147.37 4.47927 147.283 4.96852C147.205 5.41156 147.346 5.81518 147.707 6.18346C148.069 6.55174 148.703 6.94993 149.613 7.38345C150.806 7.94336 151.678 8.57666 152.222 9.28607C152.766 9.99547 152.956 10.8081 152.792 11.7282C152.62 12.6985 152.093 13.4011 151.216 13.836C150.336 14.2709 149.264 14.3769 147.999 14.1499C146.784 13.9325 145.773 13.4188 144.973 12.6075C144.171 11.7948 143.884 10.8299 144.108 9.71279L144.133 9.6693L146.007 10.0036C145.881 10.7117 146.032 11.2865 146.459 11.7241C146.888 12.1617 147.494 12.4512 148.277 12.5911C148.999 12.7203 149.584 12.6754 150.038 12.458C150.487 12.2419 150.757 11.8831 150.846 11.3912ZM133.266 6.6958L128.09 6.56535L127.995 10.3148L134.002 10.4657L133.961 12.0489L125.98 11.8478L126.279 0L134.203 0.199778L134.162 1.78303L128.215 1.63217L128.13 4.9821L133.307 5.11257L133.266 6.6958ZM121.544 8.83759C121.506 8.34698 121.293 7.9624 120.907 7.677C120.518 7.39434 119.851 7.16466 118.909 6.98798C117.562 6.742 116.514 6.35877 115.761 5.84236C115.006 5.32593 114.595 4.60158 114.524 3.67747C114.452 2.72344 114.785 1.90939 115.525 1.23261C116.263 0.554479 117.255 0.169875 118.498 0.0747558C119.795 -0.0231007 120.862 0.245979 121.703 0.887428C122.54 1.52616 122.987 2.33614 123.033 3.31868L123.021 3.36762L121.13 3.51031C121.085 2.90691 120.842 2.42991 120.403 2.08744C119.964 1.74089 119.362 1.5982 118.602 1.65664C117.881 1.71099 117.344 1.91076 116.98 2.25323C116.616 2.5957 116.453 3.01564 116.491 3.51031C116.525 3.95878 116.763 4.31483 117.204 4.5812C117.646 4.84621 118.36 5.07315 119.349 5.26613C120.645 5.50939 121.646 5.90486 122.35 6.45526C123.055 7.00565 123.442 7.7463 123.512 8.67724C123.587 9.65978 123.253 10.4711 122.512 11.1126C121.771 11.754 120.758 12.1237 119.476 12.2215C118.245 12.3153 117.137 12.0707 116.161 11.4849C115.181 10.8992 114.663 10.0362 114.602 8.89875L114.614 8.84983L116.513 8.70577C116.567 9.42195 116.858 9.9411 117.379 10.2577C117.904 10.5744 118.563 10.7035 119.355 10.6424C120.087 10.5866 120.642 10.3964 121.027 10.0729C121.409 9.75084 121.58 9.33635 121.544 8.83759ZM103.345 8.6351L98.2992 9.80112L99.1423 13.4555L104.996 12.1033L105.351 13.6457L97.573 15.4437L94.9096 3.89489L102.632 2.11054L102.988 3.65437L97.1915 4.99433L97.9436 8.25867L102.989 7.09264L103.345 8.6351ZM92.5312 13.6349C92.3737 13.1687 92.0724 12.848 91.6271 12.6672C91.1805 12.4906 90.4787 12.4322 89.5216 12.496C88.156 12.5911 87.0469 12.4811 86.1876 12.1671C85.3283 11.8532 84.7514 11.2552 84.4541 10.376C84.1486 9.47089 84.2694 8.59842 84.8179 7.75991C85.3663 6.92005 86.2324 6.30033 87.4121 5.9008C88.646 5.48357 89.7456 5.47949 90.7176 5.894C91.6882 6.30305 92.3208 6.97848 92.6099 7.91891L92.6086 7.96783L90.814 8.57666C90.6198 8.00317 90.2655 7.6009 89.7565 7.37802C89.2447 7.15242 88.627 7.16194 87.9035 7.40655C87.2206 7.63895 86.7482 7.96512 86.4808 8.38775C86.2134 8.80906 86.1591 9.25616 86.3179 9.72637C86.4618 10.1531 86.7808 10.4385 87.275 10.588C87.7691 10.7348 88.5157 10.7769 89.5216 10.7185C90.837 10.6328 91.904 10.7674 92.724 11.1262C93.5425 11.4849 94.1005 12.106 94.3991 12.9907C94.7154 13.9243 94.5933 14.7927 94.0326 15.5986C93.4733 16.4045 92.5828 17.0133 91.3665 17.4265C90.1963 17.8219 89.0641 17.86 87.9727 17.5338C86.8786 17.2104 86.1618 16.5024 85.8211 15.4152V15.3649L87.6238 14.7547C87.8546 15.4355 88.2646 15.8663 88.8483 16.043C89.4347 16.221 90.104 16.1816 90.8588 15.9261C91.5538 15.6897 92.0452 15.369 92.3371 14.9585C92.6276 14.5535 92.6914 14.1092 92.5312 13.6349ZM74.8945 18.0013L70.2858 20.3646L71.9935 23.7024L77.3407 20.9599L78.0616 22.3705L70.955 26.0126L65.5589 15.4641L72.6139 11.8478L73.3347 13.2571L68.0391 15.9723L69.5649 18.9553L74.1723 16.592L74.8945 18.0013ZM65.6743 25.5587C65.4083 25.1442 65.039 24.9064 64.5639 24.8385C64.0874 24.7746 63.3924 24.8888 62.4788 25.1809C61.1769 25.6036 60.0733 25.764 59.1637 25.6675C58.2556 25.571 57.5497 25.1293 57.0501 24.3479C56.5343 23.5433 56.4433 22.6681 56.7718 21.7209C57.1017 20.7737 57.7927 19.9637 58.842 19.2897C59.9375 18.5871 61.0045 18.318 62.0471 18.4838C63.0883 18.6482 63.8648 19.1497 64.3711 19.9923L64.3833 20.0412L62.7869 21.0659C62.4611 20.5549 62.0213 20.2505 61.4729 20.1567C60.9217 20.0616 60.3244 20.2206 59.6823 20.6337C59.0741 21.0238 58.6954 21.4546 58.5366 21.9288C58.3791 22.4031 58.4348 22.8489 58.7022 23.2675C58.9452 23.6466 59.3226 23.8464 59.8371 23.8722C60.3529 23.8953 61.0887 23.7567 62.0498 23.4564C63.3068 23.0555 64.3739 22.9277 65.2562 23.0786C66.1372 23.2294 66.8282 23.6956 67.3318 24.4824C67.8626 25.3128 67.9536 26.1852 67.6047 27.1012C67.2558 28.0185 66.5391 28.8244 65.4571 29.5189C64.4173 30.1861 63.3272 30.496 62.1896 30.4444C61.0507 30.3941 60.1846 29.8804 59.5914 28.9087L59.5791 28.8598L61.1823 27.831C61.5706 28.4358 62.0715 28.7551 62.681 28.7864C63.2933 28.8163 63.934 28.6165 64.6033 28.1857C65.2209 27.7902 65.62 27.3594 65.8046 26.8906C65.9893 26.4271 65.9445 25.98 65.6743 25.5587ZM49.7128 34.1626L45.7991 37.5574L48.2508 40.3922L52.793 36.4539L53.8288 37.6511L47.7933 42.8846L40.0419 33.9261L46.034 28.7307L47.0684 29.9279L42.571 33.8269L44.7633 36.3601L48.677 32.9653L49.7128 34.1626ZM42.6402 43.783C42.2845 43.4446 41.8691 43.3005 41.3913 43.3481C40.9148 43.3983 40.2646 43.6742 39.446 44.1743C38.2826 44.8933 37.2468 45.3105 36.3414 45.4328C35.4359 45.5551 34.6459 45.2928 33.9752 44.6527C33.2843 43.9922 32.9883 43.1646 33.0847 42.1657C33.1811 41.1682 33.6603 40.2169 34.5196 39.3132C35.4183 38.3714 36.3916 37.8563 37.4437 37.7707C38.493 37.6824 39.3659 37.9868 40.0582 38.6853L40.0799 38.7288L38.7727 40.1028C38.3355 39.6842 37.836 39.4926 37.2808 39.5306C36.7228 39.57 36.1798 39.8663 35.6531 40.4194C35.1549 40.9413 34.8889 41.4509 34.8481 41.9497C34.806 42.4471 34.9662 42.8683 35.326 43.2108C35.6504 43.522 36.0658 43.6253 36.5708 43.5288C37.0771 43.4296 37.76 43.1198 38.622 42.5993C39.7474 41.913 40.756 41.5352 41.6479 41.4726C42.5384 41.4101 43.3217 41.7009 43.9963 42.3451C44.709 43.0246 45.0036 43.8509 44.8814 44.8253C44.7593 45.7983 44.2543 46.7524 43.3665 47.6833C42.5153 48.5775 41.5298 49.1374 40.4112 49.3562C39.2926 49.5777 38.3288 49.2842 37.5224 48.4797L37.5007 48.4362L38.8148 47.0568C39.3347 47.5528 39.8967 47.7431 40.4967 47.6289C41.0981 47.5134 41.6723 47.1669 42.2221 46.5893C42.7284 46.0593 43.0135 45.5456 43.0827 45.0468C43.152 44.5521 43.0026 44.1295 42.6402 43.783ZM29.3122 56.0452L26.3108 60.269L29.3652 62.4434L32.8458 57.5415L34.1354 58.4588L29.509 64.9725L19.8613 58.1041L24.4537 51.638L25.7433 52.5553L22.2953 57.4096L25.0225 59.3517L28.0239 55.1265L29.3122 56.0452ZM24.8202 67.1401C24.3953 66.8941 23.9569 66.8534 23.5048 67.0124C23.0528 67.1754 22.4867 67.5967 21.8106 68.2776C20.8495 69.2533 19.9441 69.9057 19.0929 70.2386C18.2418 70.5729 17.4137 70.5064 16.61 70.0429C15.782 69.5673 15.2973 68.8334 15.1534 67.84C15.0109 66.8479 15.2512 65.8096 15.8716 64.7279C16.5204 63.5985 17.3444 62.8674 18.3463 62.5344C19.3441 62.2001 20.2644 62.2857 21.102 62.8008L21.1346 62.8389L20.1898 64.4833C19.6658 64.1816 19.135 64.1136 18.6056 64.2835C18.0721 64.4534 17.616 64.8706 17.2345 65.5324C16.8748 66.1589 16.7377 66.7174 16.8164 67.2108C16.8938 67.7041 17.149 68.0751 17.5793 68.3224C17.9689 68.5467 18.3965 68.5494 18.8649 68.3347C19.3332 68.1172 19.921 67.6552 20.6364 66.9444C21.5677 66.0094 22.4568 65.4033 23.308 65.1315C24.1591 64.8583 24.9872 64.9535 25.7963 65.4196C26.6502 65.9102 27.1321 66.6427 27.2447 67.6171C27.356 68.5929 27.0927 69.6393 26.4519 70.7537C25.8356 71.8259 25.0116 72.6046 23.9786 73.083C22.9428 73.5641 21.9382 73.507 20.9636 72.9186L20.931 72.8805L21.8799 71.228C22.503 71.5868 23.0948 71.6384 23.6501 71.3843C24.2066 71.1288 24.6831 70.6558 25.0809 69.9641C25.446 69.3281 25.6022 68.7614 25.5506 68.2613C25.5003 67.7639 25.2533 67.3888 24.8202 67.1401ZM14.7367 82.5172L13.0765 87.4273L16.625 88.6286L18.5513 82.9317L20.05 83.44L17.4897 91.0109L6.27536 87.2125L8.8166 79.6959L10.3139 80.2042L8.408 85.8454L11.5778 86.919L13.238 82.0089L14.7367 82.5172ZM13.3575 94.2087C12.8837 94.0741 12.4493 94.1421 12.0488 94.4057C11.6497 94.6735 11.2031 95.2198 10.713 96.0447C10.0166 97.2243 9.29716 98.0764 8.5519 98.6078C7.80662 99.1378 6.9867 99.2737 6.0948 99.0209C5.17713 98.76 4.5296 98.1661 4.1495 97.2379C3.7694 96.3097 3.7504 95.2442 4.09113 94.0442C4.4468 92.7912 5.06718 91.8821 5.95906 91.314C6.84686 90.7473 7.76046 90.6073 8.69715 90.9036L8.73787 90.9321L8.22066 92.7573C7.63829 92.5915 7.1075 92.6553 6.6351 92.9475C6.15862 93.2424 5.81653 93.7575 5.60883 94.4927C5.41062 95.1885 5.41199 95.7634 5.60883 96.2227C5.80294 96.6821 6.14097 96.981 6.6188 97.117C7.0505 97.2393 7.46589 97.1373 7.86907 96.8166C8.26953 96.4918 8.72836 95.8993 9.25101 95.0377C9.92569 93.9043 10.6424 93.0997 11.4026 92.6282C12.1615 92.1566 12.9882 92.0479 13.8855 92.3034C14.8331 92.5724 15.4792 93.165 15.824 94.0837C16.1688 95.0023 16.1661 96.0814 15.8159 97.3194C15.4779 98.5086 14.867 99.4639 13.9806 100.179C13.0928 100.898 12.1045 101.087 11.0171 100.752L10.975 100.724L11.495 98.8891C12.1873 99.0861 12.7724 98.9924 13.2502 98.6118C13.7281 98.2272 14.0756 97.6537 14.2928 96.8873C14.4937 96.1806 14.5073 95.5921 14.3362 95.1206C14.1665 94.6504 13.8367 94.3459 13.3575 94.2087ZM7.44959 111.634L7.05729 116.803L10.7931 117.087L11.2493 111.09L12.8267 111.21L12.2212 119.179L0.416359 118.281L1.01775 110.369L2.5938 110.49L2.14311 116.428L5.47987 116.682L5.87219 111.514L7.44959 111.634ZM9.01751 123.308C8.52609 123.295 8.12292 123.468 7.79984 123.824C7.48083 124.183 7.18352 124.823 6.91339 125.744C6.53329 127.06 6.0473 128.065 5.45679 128.764C4.86763 129.464 4.10743 129.801 3.18025 129.776C2.22592 129.752 1.45079 129.338 0.852117 128.534C0.253465 127.73 -0.0288855 126.702 0.00233033 125.455C0.0349133 124.153 0.410932 123.117 1.13312 122.347C1.8526 121.575 2.7024 121.213 3.68389 121.266L3.73004 121.284L3.68252 123.18C3.07842 123.165 2.57887 123.358 2.19471 123.76C1.80645 124.164 1.60283 124.748 1.58381 125.512C1.56617 126.235 1.71007 126.791 2.0128 127.188C2.31688 127.584 2.71734 127.79 3.21284 127.802C3.66353 127.813 4.03955 127.612 4.35042 127.198C4.65856 126.785 4.95587 126.098 5.24636 125.133C5.61969 123.866 6.11382 122.909 6.73283 122.263C7.3505 121.617 8.12428 121.306 9.05688 121.329C10.0411 121.355 10.8135 121.768 11.3769 122.572C11.9389 123.376 12.2036 124.422 12.1724 125.708C12.1411 126.943 11.7868 128.021 11.1054 128.935C10.4239 129.851 9.513 130.281 8.37679 130.228L8.33061 130.21L8.37813 128.305C9.09626 128.322 9.64062 128.086 10.0085 127.598C10.3764 127.107 10.5705 126.465 10.5909 125.668C10.6085 124.934 10.4768 124.361 10.1931 123.946C9.91212 123.533 9.51709 123.32 9.01751 123.308ZM7.58264 141.666L8.49216 146.771L12.1819 146.11L11.1257 140.19L12.6828 139.912L14.0851 147.779L2.43225 149.864L1.03811 142.052L2.59517 141.774L3.6418 147.638L6.93647 147.048L6.02557 141.945L7.58264 141.666ZM11.9986 152.579C11.5194 152.689 11.1705 152.958 10.9479 153.384C10.7266 153.81 10.6004 154.505 10.5678 155.464C10.5271 156.834 10.3058 157.928 9.90941 158.752C9.513 159.577 8.86004 160.093 7.95731 160.301C7.02605 160.516 6.17219 160.308 5.39163 159.679C4.61241 159.049 4.08298 158.125 3.80198 156.91C3.51012 155.641 3.61601 154.543 4.12371 153.616C4.62735 152.691 5.36041 152.128 6.32423 151.934L6.37309 151.939L6.79936 153.789C6.2102 153.925 5.77581 154.236 5.50294 154.721C5.22736 155.209 5.17713 155.826 5.34819 156.571C5.50972 157.274 5.78937 157.777 6.18169 158.086C6.57536 158.394 7.01383 158.492 7.49711 158.381C7.93423 158.279 8.25053 157.989 8.44736 157.514C8.64286 157.035 8.7596 156.295 8.80032 155.288C8.84647 153.968 9.08675 152.919 9.52386 152.137C9.96235 151.359 10.6343 150.864 11.5438 150.653C12.5036 150.432 13.3547 150.64 14.0987 151.277C14.8439 151.916 15.3611 152.862 15.6503 154.116C15.9286 155.32 15.8539 156.452 15.4209 157.507C14.9905 158.564 14.2154 159.208 13.1022 159.441L13.052 159.435L12.623 157.578C13.3235 157.416 13.7919 157.052 14.0267 156.486C14.2602 155.92 14.2887 155.248 14.1095 154.471C13.9439 153.757 13.6724 153.236 13.295 152.904C12.9203 152.574 12.4846 152.466 11.9986 152.579ZM15.1982 170.685L17.3309 175.409L20.745 173.864L18.2689 168.383L19.7106 167.731L22.9998 175.014L12.2131 179.896L8.94693 172.667L10.3886 172.014L12.8403 177.442L15.8892 176.061L13.7566 171.337L15.1982 170.685ZM22.1663 180.337C21.7401 180.581 21.4848 180.94 21.3953 181.412C21.3084 181.885 21.3871 182.586 21.6355 183.514C21.9939 184.835 22.1011 185.947 21.9613 186.85C21.8215 187.756 21.3464 188.439 20.5427 188.901C19.7147 189.378 18.8377 189.428 17.9078 189.052C16.9793 188.677 16.2041 187.947 15.5824 186.865C14.9335 185.736 14.7177 184.656 14.9335 183.621C15.1467 182.589 15.6842 181.837 16.5503 181.37L16.5992 181.361L17.544 183.006C17.02 183.309 16.6942 183.733 16.5734 184.276C16.4526 184.824 16.5829 185.429 16.963 186.091C17.3227 186.717 17.7354 187.117 18.201 187.298C18.6667 187.478 19.1146 187.444 19.545 187.197C19.9346 186.973 20.1518 186.604 20.202 186.091C20.2495 185.577 20.1477 184.835 19.8938 183.859C19.5545 182.583 19.4785 181.508 19.6712 180.634C19.864 179.761 20.3635 179.093 21.1726 178.627C22.0265 178.135 22.9021 178.088 23.7994 178.48C24.6967 178.873 25.4664 179.629 26.1071 180.743C26.7235 181.815 26.98 182.92 26.8728 184.055C26.7682 185.194 26.2144 186.035 25.2153 186.58L25.1664 186.589L24.2175 184.937C24.8406 184.578 25.1827 184.093 25.2424 183.486C25.3021 182.874 25.1338 182.224 24.7361 181.533C24.3709 180.897 23.9596 180.477 23.5021 180.27C23.0473 180.064 22.5993 180.087 22.1663 180.337ZM29.8104 196.831L33.0087 200.907L35.9545 198.589L32.2431 193.86L33.4865 192.882L38.4197 199.167L29.1113 206.489L24.2134 200.25L25.4569 199.272L29.133 203.955L31.7652 201.885L28.5656 197.809L29.8104 196.831ZM38.9654 204.455C38.6098 204.795 38.4469 205.204 38.4699 205.683C38.4985 206.163 38.7428 206.825 39.203 207.668C39.8655 208.866 40.232 209.921 40.3107 210.833C40.3894 211.745 40.0908 212.521 39.4188 213.162C38.7292 213.821 37.8876 214.078 36.8966 213.934C35.9056 213.791 34.9784 213.265 34.1191 212.363C33.2205 211.42 32.7535 210.422 32.7182 209.366C32.6815 208.312 33.025 207.454 33.7553 206.795L33.8001 206.775L35.1087 208.149C34.6703 208.566 34.4544 209.057 34.4667 209.612C34.4789 210.172 34.749 210.729 35.2757 211.283C35.7739 211.806 36.2694 212.095 36.7636 212.16C37.259 212.226 37.6867 212.086 38.045 211.743C38.3708 211.432 38.4944 211.023 38.4224 210.512C38.3464 210.001 38.0708 209.305 37.593 208.418C36.9604 207.259 36.6319 206.233 36.6129 205.338C36.5925 204.444 36.9197 203.676 37.5944 203.031C38.307 202.351 39.146 202.096 40.1112 202.264C41.0764 202.433 42.0035 202.983 42.89 203.914C43.7425 204.81 44.2543 205.821 44.4199 206.949C44.5869 208.079 44.2488 209.028 43.4086 209.796L43.3624 209.816L42.0483 208.437C42.5683 207.941 42.7854 207.388 42.6999 206.783C42.613 206.175 42.2954 205.584 41.7456 205.007C41.2393 204.477 40.741 204.165 40.2469 204.073C39.7555 203.981 39.3265 204.11 38.9654 204.455ZM50.4201 218.525L54.4912 221.728L56.8058 218.779L52.083 215.062L53.0604 213.817L59.3375 218.756L52.0219 228.074L45.791 223.171L46.7684 221.926L51.4463 225.606L53.5138 222.973L49.4426 219.77L50.4201 218.525ZM61.1905 223.662C60.9258 224.076 60.8647 224.511 61.0005 224.972C61.1416 225.431 61.5353 226.017 62.1815 226.726C63.1087 227.735 63.7155 228.671 64.0073 229.538C64.2992 230.405 64.1919 231.231 63.6924 232.013C63.1779 232.817 62.4218 233.266 61.424 233.362C60.4262 233.457 59.4027 233.167 58.3533 232.494C57.2578 231.791 56.5682 230.932 56.2845 229.914C55.998 228.899 56.1297 227.983 56.6822 227.171L56.7216 227.139L58.318 228.164C57.9909 228.674 57.8986 229.201 58.0411 229.739C58.1863 230.28 58.58 230.757 59.2221 231.169C59.8289 231.559 60.3801 231.725 60.8755 231.67C61.3724 231.615 61.7552 231.378 62.0226 230.96C62.2656 230.582 62.2887 230.154 62.0973 229.675C61.9032 229.197 61.4688 228.585 60.7955 227.837C59.9077 226.861 59.3456 225.942 59.1135 225.078C58.8827 224.213 59.0185 223.39 59.5221 222.603C60.0529 221.773 60.8077 221.327 61.7851 221.262C62.7625 221.196 63.7942 221.51 64.8761 222.205C65.916 222.872 66.6531 223.734 67.0807 224.791C67.511 225.848 67.4051 226.851 66.7712 227.797L66.7318 227.827L65.1286 226.8C65.5169 226.194 65.5969 225.605 65.3703 225.037C65.1422 224.468 64.6928 223.969 64.0223 223.538C63.4046 223.143 62.848 222.959 62.3457 222.986C61.8462 223.013 61.4606 223.24 61.1905 223.662ZM75.7497 234.449L80.4684 236.584L82.0119 233.168L76.5384 230.689L77.19 229.246L84.4649 232.54L79.586 243.339L72.3641 240.069L73.0157 238.627L78.4376 241.081L79.8168 238.028L75.0981 235.893L75.7497 234.449ZM87.4867 236.754C87.3293 237.22 87.374 237.658 87.6184 238.073C87.8655 238.484 88.3881 238.957 89.1863 239.489C90.3293 240.243 91.1438 241.007 91.6366 241.777C92.1294 242.548 92.2244 243.375 91.9271 244.255C91.6217 245.16 90.9959 245.778 90.051 246.112C89.1062 246.445 88.0419 246.411 86.8623 246.012C85.6297 245.593 84.7527 244.927 84.2314 244.009C83.7101 243.091 83.6165 242.173 83.9572 241.25L83.9884 241.21L85.7831 241.818C85.5889 242.391 85.6256 242.926 85.8957 243.413C86.1659 243.904 86.6627 244.271 87.3849 244.516C88.0691 244.748 88.642 244.775 89.1117 244.603C89.58 244.43 89.8936 244.108 90.0524 243.636C90.1963 243.21 90.1162 242.79 89.8148 242.371C89.5108 241.954 88.9433 241.466 88.1085 240.902C87.0116 240.169 86.2446 239.414 85.8116 238.631C85.3799 237.848 85.312 237.015 85.6106 236.132C85.9269 235.197 86.5514 234.581 87.484 234.281C88.418 233.982 89.4931 234.039 90.7108 234.451C91.881 234.848 92.8041 235.505 93.4733 236.428C94.1466 237.351 94.2865 238.348 93.8982 239.419L93.867 239.459L92.0642 238.847C92.2936 238.166 92.2298 237.575 91.8728 237.079C91.5144 236.582 90.9592 236.207 90.2044 235.951C89.5094 235.716 88.9243 235.673 88.4438 235.821C87.9659 235.967 87.6469 236.281 87.4867 236.754ZM104.515 243.776L109.652 244.431L110.123 240.71L104.164 239.951L104.363 238.381L112.283 239.388L110.79 251.146L102.928 250.145L103.128 248.574L109.029 249.325L109.453 246.001L104.316 245.347L104.515 243.776ZM116.233 242.858C116.195 243.347 116.347 243.76 116.685 244.101C117.027 244.439 117.652 244.768 118.557 245.085C119.85 245.532 120.828 246.069 121.496 246.694C122.164 247.318 122.461 248.097 122.391 249.021C122.319 249.973 121.866 250.729 121.032 251.286C120.2 251.843 119.161 252.074 117.918 251.979C116.621 251.881 115.607 251.452 114.874 250.692C114.141 249.934 113.824 249.065 113.925 248.087L113.946 248.041L115.835 248.185C115.789 248.79 115.958 249.298 116.339 249.703C116.722 250.111 117.295 250.344 118.055 250.401C118.774 250.456 119.338 250.34 119.749 250.056C120.161 249.774 120.384 249.384 120.421 248.887C120.456 248.439 120.275 248.052 119.878 247.721C119.482 247.393 118.81 247.06 117.862 246.72C116.617 246.284 115.688 245.741 115.075 245.09C114.462 244.439 114.19 243.649 114.261 242.718C114.335 241.735 114.789 240.984 115.618 240.462C116.448 239.94 117.505 239.728 118.787 239.826C120.018 239.919 121.075 240.327 121.952 241.054C122.832 241.783 123.215 242.715 123.104 243.848L123.083 243.895L121.185 243.749C121.24 243.033 121.031 242.476 120.564 242.083C120.093 241.69 119.46 241.465 118.667 241.403C117.936 241.349 117.357 241.452 116.928 241.715C116.502 241.974 116.27 242.359 116.233 242.858ZM134.196 245.277L139.36 244.884L139.076 241.144L133.084 241.601L132.964 240.021L140.925 239.415L141.824 251.232L133.92 251.834L133.801 250.255L139.733 249.803L139.479 246.463L134.317 246.856L134.196 245.277ZM145.603 241.644C145.688 242.128 145.94 242.489 146.352 242.735C146.768 242.976 147.453 243.139 148.409 243.219C149.773 243.328 150.854 243.604 151.657 244.041C152.46 244.479 152.942 245.157 153.104 246.072C153.273 247.012 153.022 247.856 152.355 248.603C151.689 249.352 150.74 249.836 149.512 250.055C148.232 250.285 147.142 250.123 146.244 249.57C145.345 249.019 144.82 248.257 144.674 247.284L144.682 247.235L146.549 246.902C146.655 247.497 146.944 247.948 147.415 248.245C147.888 248.545 148.5 248.627 149.25 248.492C149.962 248.366 150.478 248.113 150.805 247.735C151.132 247.357 151.251 246.924 151.165 246.436C151.086 245.991 150.813 245.663 150.347 245.441C149.88 245.222 149.147 245.069 148.144 244.976C146.831 244.865 145.796 244.573 145.038 244.096C144.283 243.619 143.823 242.921 143.659 242.001C143.487 241.031 143.736 240.191 144.41 239.478C145.083 238.766 146.054 238.295 147.319 238.068C148.534 237.852 149.66 237.983 150.691 238.468C151.724 238.952 152.328 239.759 152.503 240.884L152.495 240.933L150.62 241.269C150.495 240.561 150.155 240.074 149.602 239.811C149.048 239.548 148.38 239.487 147.597 239.627C146.875 239.756 146.341 240.002 145.991 240.364C145.644 240.723 145.515 241.151 145.603 241.644ZM171.537 169.261V164.707H195.097L192.824 169.261H185.261V187.633H180.633V169.261H171.537ZM157.028 164.707H169.621L167.387 169.261H159.387L158.171 170.477V187.633H153.622V168.122L157.028 164.707ZM129.153 183H145.113V178.486H129.153V183ZM124.526 177.335L127.898 173.932H145.113V169.261H126.8L124.605 164.707H146.256L149.662 168.122V184.257L146.256 187.633H127.97L124.526 184.184V177.335ZM89.7049 164.707H100.018L103.469 168.122L106.919 164.707H117.232L120.604 168.122V187.633H116.055V170.398L114.997 169.379H108.018L105.782 171.577V187.633H101.233V171.577L99.0051 169.379H91.9339L90.8805 170.398V187.633H86.3328V168.122L89.7049 164.707ZM155.906 102.1L160.043 97.9038L160.086 97.859H160.149H186.795H187.038L186.929 98.0764L184.144 103.67L184.102 103.753H184.009H161.752V109.095H182.613H182.674L182.718 109.14L186.901 113.319L186.946 113.364V113.425V121.936V121.999L186.901 122.042L182.717 126.182L182.672 126.225H182.613H160.245H160.184L160.139 126.182L155.908 121.938L155.864 121.894V121.832V102.205V102.144L155.906 102.1ZM155.906 68.529L160.043 64.3324L160.086 64.2876H160.149H186.795H187.038L186.929 64.505L184.144 70.0986L184.102 70.1816H184.009H161.752V75.5238H182.613H182.674L182.718 75.5686L186.901 79.7475L186.946 79.7924V79.8536V88.365V88.4275L186.901 88.4723L182.717 92.6105L182.672 92.654H182.613H160.245H160.184L160.139 92.6105L155.908 88.3663L155.864 88.3229V88.2603V68.6336V68.5725L155.906 68.529ZM181.058 81.4178H161.752V86.76H181.058V81.4178ZM181.058 114.989H161.752V120.331H181.058V114.989ZM56.6917 110.48L69.1048 97.9092H132.177V81.1487H65.0621L56.8356 64.3881H136.676L148.919 76.6694V102.389L136.676 114.671H73.4338V131.72H186.925L195.273 148.48H69.3681L56.6917 135.766V110.48ZM76.6864 183.079L77.7846 181.928V179.513L76.7638 178.446H60.5688L57.1967 175.031V168.122L60.562 164.707H82.3717L80.1032 169.261H62.9213L61.8245 170.398V172.834L62.8439 173.892H78.9277L82.3323 177.309V184.257L78.9277 187.633H57.1967L59.4705 183.079H76.6864ZM241.849 143.845C242.336 143.907 242.755 143.776 243.112 143.455C243.467 143.13 243.826 142.523 244.189 141.634C244.699 140.363 245.286 139.412 245.941 138.776C246.6 138.14 247.39 137.882 248.309 137.998C249.256 138.119 249.985 138.61 250.5 139.472C251.014 140.332 251.192 141.382 251.035 142.62C250.871 143.913 250.393 144.905 249.596 145.599C248.803 146.292 247.921 146.567 246.95 146.415L246.905 146.393L247.144 144.511C247.744 144.587 248.26 144.446 248.684 144.084C249.11 143.721 249.371 143.161 249.467 142.403C249.559 141.687 249.471 141.119 249.209 140.693C248.947 140.268 248.57 140.023 248.077 139.961C247.632 139.904 247.235 140.067 246.885 140.445C246.537 140.827 246.172 141.48 245.785 142.411C245.286 143.633 244.698 144.535 244.018 145.116C243.338 145.696 242.535 145.927 241.611 145.809C240.634 145.685 239.906 145.194 239.428 144.338C238.949 143.482 238.791 142.414 238.953 141.138C239.109 139.912 239.571 138.875 240.34 138.035C241.11 137.193 242.059 136.857 243.184 137.025L243.229 137.047L242.99 138.937C242.276 138.848 241.71 139.029 241.296 139.476C240.881 139.927 240.623 140.547 240.522 141.337C240.43 142.066 240.505 142.649 240.744 143.091C240.982 143.531 241.353 143.782 241.849 143.845Z" fill="#403E3D"/>
</svg>
