<svg width="128" height="147" viewBox="0 0 128 147" fill="none" xmlns="http://www.w3.org/2000/svg">
<path d="M128 0H0V147H128V0Z" fill="#FCC214"/>
<path d="M75.5805 70.7515C75.3155 69.4837 74.9425 68.3338 74.4741 67.3377C73.4196 65.0963 71.8379 63.1653 69.7758 61.5975C68.0651 60.2959 65.9399 59.1502 63.46 58.1872C62.9671 58.0004 62.5331 57.8395 62.1201 57.6983C59.1389 56.6735 55.6087 55.6515 51.6347 54.661C47.4117 53.6277 44.0386 52.7525 41.6126 52.0578C39.2933 51.3954 37.5509 50.7309 36.4347 50.0833C35.463 49.5221 34.8754 48.939 34.6882 48.3553C34.4575 47.6318 34.3397 46.6526 34.3397 45.4459C34.3397 44.1941 34.6532 43.0759 35.2688 42.1227C35.9054 41.14 36.7895 40.316 37.8994 39.6719C39.0584 39.0032 40.4242 38.4925 41.9597 38.1554C43.5309 37.8112 45.2193 37.637 46.977 37.637C52.6864 37.637 56.4851 38.9273 58.4483 41.5565C59.8996 43.4987 60.0118 46.1932 60.0118 46.1932C60.0539 46.5705 60.0686 46.8844 60.0749 47.0966H73.8824L73.8656 46.1026C73.7877 43.6294 73.3656 41.3507 72.6105 39.3291C72.4892 39.0074 72.349 38.6646 72.1695 38.272H72.1716C71.8407 37.5414 71.4165 36.747 70.8675 35.9294C69.346 33.6619 67.5252 32.1931 66.1601 31.2933L65.5438 30.9189L65.494 30.8894H65.4919C62.9096 29.3329 59.6984 28.1998 55.9445 27.5276C53.0594 27.0099 49.8096 26.7451 46.2794 26.7451C42.4302 26.7451 38.8733 27.241 35.7112 28.2181C32.528 29.2029 29.7831 30.5839 27.5556 32.3203C25.2993 34.0736 23.5381 36.1914 22.3195 38.6091C21.0995 41.0325 20.4818 43.7298 20.4818 46.6266C20.4818 49.7679 20.9389 52.4301 21.8455 54.5423C22.7654 56.6882 24.2343 58.5426 26.208 60.0501C28.134 61.5216 30.5761 62.7656 33.4738 63.7469C36.2805 64.7015 39.7245 65.6849 43.7097 66.6775C47.7139 67.6637 50.9959 68.5396 53.4702 69.287C55.8997 70.0224 57.8025 70.7628 59.1291 71.487C60.3364 72.1473 61.1554 72.8785 61.5606 73.6582C61.982 74.4723 62.1973 75.5407 62.1973 76.8325C62.1973 79.7131 61.0888 81.9756 58.8157 83.7451C56.5026 85.5482 52.9493 86.4614 48.2608 86.4614C38.0095 86.4614 32.9683 82.8066 32.8491 75.2885C32.8372 74.7652 32.8113 75.4157 32.8113 74.341H19.9595H18.8923C19.6797 88.4085 28.8576 96.8756 45.9751 97.5014C46.8746 97.5344 47.6361 97.5499 48.3653 97.5499C52.5538 97.5499 56.3996 96.9851 59.7938 95.8704C63.2006 94.7528 66.1432 93.199 68.546 91.2589C70.1397 89.9651 71.5168 88.4752 72.64 86.8238C73.2128 85.983 73.7113 85.119 74.1236 84.2543C75.4017 81.5661 76.051 78.6714 76.051 75.6461C76.051 73.8928 75.8925 72.247 75.5805 70.7515Z" fill="white"/>
<path d="M26.6172 115.033V115.033C25.9827 114.527 25.06 114.122 23.8744 113.831C22.8591 113.587 22.1468 113.31 21.7569 113.007C21.4134 112.74 21.2528 112.435 21.2528 112.048C21.2528 111.634 21.4288 111.308 21.8067 111.02C22.2085 110.716 22.7918 110.56 23.5406 110.56C24.2894 110.56 24.8826 110.746 25.3033 111.113C25.7156 111.471 25.9147 111.917 25.9147 112.478V112.878H27.5448C27.5427 112.734 27.5406 112.59 27.5385 112.446C27.5602 111.494 27.1872 110.676 26.4314 110.019C25.6931 109.377 24.7213 109.052 23.5406 109.052C22.416 109.052 21.4751 109.324 20.7438 109.859C19.9754 110.423 19.5855 111.167 19.5855 112.07C19.5855 112.951 19.9389 113.663 20.6358 114.186C21.2704 114.661 22.2001 115.048 23.3983 115.337C24.4009 115.588 25.1021 115.874 25.4842 116.184C25.8221 116.458 25.9792 116.788 25.9792 117.221C25.9792 117.669 25.7899 118.006 25.3839 118.285C24.9408 118.588 24.3378 118.74 23.5918 118.74C22.8423 118.74 22.186 118.57 21.6413 118.234C21.1441 117.927 20.9128 117.48 20.9128 116.83V116.429H19.296L19.2967 116.862C19.2686 117.977 19.7138 118.838 20.619 119.424C21.4653 119.971 22.4658 120.249 23.5918 120.249C24.7347 120.249 25.698 119.984 26.451 119.462C27.2496 118.909 27.6542 118.152 27.6542 117.212C27.6542 116.315 27.305 115.582 26.6172 115.033Z" fill="#3C3C3B"/>
<path d="M37.3953 111.661C36.6864 111.661 36.0722 111.836 35.5723 112.18C35.2947 112.368 35.0493 112.601 34.841 112.875C34.6566 112.579 34.428 112.335 34.1574 112.149C33.6883 111.826 33.1057 111.661 32.4263 111.661C31.7785 111.661 31.2084 111.801 30.7296 112.076C30.5858 112.159 30.4673 112.25 30.3559 112.354V111.8H28.6738V120.109H30.3559V114.481C30.4793 114.081 30.6854 113.759 30.9679 113.524C31.2505 113.288 31.6537 113.169 32.1655 113.169C32.6514 113.169 33.0167 113.316 33.2838 113.62C33.5607 113.935 33.701 114.502 33.701 115.307V120.109H35.383V115.195C35.383 115.165 35.3816 115.115 35.3788 115.045L35.3767 114.997C35.3767 114.983 35.3753 114.97 35.3746 114.958C35.4517 114.421 35.6452 113.978 35.9509 113.642C36.2398 113.323 36.6506 113.169 37.2066 113.169C37.6967 113.169 38.0627 113.313 38.3264 113.608C38.5935 113.907 38.7344 114.495 38.7344 115.307V120.109H40.4087V115.329C40.4087 114.122 40.1486 113.205 39.634 112.601C39.1025 111.977 38.3488 111.661 37.3953 111.661Z" fill="#3C3C3B"/>
<path d="M46.6206 116.458V117.53C46.4411 117.857 46.1606 118.135 45.7855 118.354C45.3733 118.596 44.8881 118.718 44.3412 118.718C43.9296 118.718 43.6113 118.622 43.3975 118.434C43.1906 118.252 43.0946 118.031 43.0946 117.737C43.0946 117.392 43.2635 117.118 43.626 116.869C44.025 116.596 44.5817 116.458 45.2814 116.458H46.6206ZM47.3505 112.381C46.7538 111.903 45.9678 111.661 45.0136 111.661C44.0558 111.661 43.2509 111.913 42.6192 112.409C41.9517 112.935 41.6313 113.552 41.6671 114.237V114.664L43.2832 114.678V114.274C43.2832 113.981 43.4213 113.745 43.7172 113.528C44.0411 113.289 44.4653 113.169 44.9778 113.169C45.5219 113.169 45.9412 113.29 46.2237 113.529C46.4944 113.761 46.6206 114.066 46.6206 114.489V115.02H45.2961C44.1589 115.02 43.2327 115.253 42.5435 115.712C41.8031 116.206 41.428 116.878 41.428 117.71C41.428 118.475 41.6846 119.099 42.1901 119.564C42.6865 120.022 43.3764 120.254 44.2402 120.254C44.907 120.254 45.5191 120.107 46.0597 119.817C46.2728 119.702 46.4712 119.573 46.6528 119.433V120.109H48.2886L48.2879 114.503C48.2879 113.594 47.9731 112.879 47.3505 112.381Z" fill="#3C3C3B"/>
<path d="M53.3521 111.691C53.2322 111.671 53.106 111.661 52.9679 111.661C52.3607 111.661 51.8265 111.816 51.3798 112.119C51.2775 112.189 51.1863 112.255 51.1001 112.328V111.8H49.4258V120.109H51.1001V114.583C51.1653 114.354 51.3217 113.944 51.7052 113.618C52.2948 113.116 53.1769 113.018 53.9965 113.338V111.844L53.6536 111.752C53.5737 111.729 53.4734 111.709 53.3521 111.691Z" fill="#3C3C3B"/>
<path d="M59.3525 118.654C59.1891 118.68 59.0461 118.699 58.9227 118.71C58.8014 118.72 58.6766 118.725 58.549 118.725C58.3555 118.725 58.2153 118.67 58.108 118.55C58.0281 118.461 57.932 118.253 57.932 117.772V113.279H59.6533V111.799H57.932V109.877H56.2507V111.799H54.8982V113.279H56.2507V117.772C56.2507 118.593 56.4407 119.216 56.8151 119.624C57.1993 120.042 57.7315 120.254 58.3969 120.254C58.6261 120.254 58.8568 120.236 59.0819 120.2C59.3203 120.163 59.5299 120.107 59.7031 120.035L60.0102 119.907L59.7325 118.594L59.3525 118.654Z" fill="#3C3C3B"/>
<path d="M67.1917 115.216H72.2616V113.708H67.1917V110.712H72.9635V109.204H65.5244V120.11H72.9999V118.601H67.1917V115.216Z" fill="#3C3C3B"/>
<path d="M79.8778 116.023C79.373 115.645 78.6171 115.344 77.6285 115.133C76.6491 114.927 76.2964 114.725 76.1723 114.623C75.9928 114.474 75.9094 114.299 75.9094 114.073C75.9094 113.843 76.0131 113.65 76.2368 113.467C76.4766 113.269 76.8685 113.169 77.4007 113.169C77.916 113.169 78.3241 113.291 78.6122 113.532C78.8871 113.764 79.0147 114.009 79.0147 114.302V114.703H80.6385C80.6785 114.465 80.7346 113.929 80.4836 113.336C80.262 112.814 79.9171 112.513 79.753 112.38C79.1661 111.902 78.3746 111.661 77.4007 111.661C76.4815 111.661 75.7243 111.889 75.1514 112.34C74.5471 112.813 74.2414 113.408 74.2414 114.108C74.2414 114.823 74.5225 115.388 75.0771 115.785C75.5749 116.141 76.3027 116.414 77.3011 116.622C78.1909 116.811 78.5807 117.026 78.7511 117.176C78.9656 117.363 79.0659 117.561 79.0659 117.795C79.0659 118.041 78.946 118.241 78.688 118.43C78.3991 118.639 77.9812 118.746 77.4442 118.746C76.9393 118.746 76.5004 118.641 76.1372 118.434C75.828 118.257 75.6724 117.986 75.6464 117.58L75.6233 117.205H74.0324C73.9939 117.439 73.9574 117.868 74.1201 118.356C74.3304 118.986 74.7462 119.349 74.9516 119.513C75.5658 120.005 76.4051 120.254 77.4442 120.254C78.3963 120.254 79.1816 120.032 79.7775 119.594C80.4113 119.129 80.7332 118.509 80.7332 117.751C80.7332 117.027 80.4457 116.446 79.8778 116.023Z" fill="#3C3C3B"/>
<path d="M85.529 118.654H85.5283C85.3656 118.68 85.2219 118.699 85.0978 118.71C84.9772 118.72 84.8531 118.725 84.7248 118.725C84.532 118.725 84.3917 118.67 84.2845 118.55C84.2045 118.461 84.1085 118.254 84.1085 117.772V113.279H85.8298V111.799H84.1085V109.877H82.4272V111.799H81.074V113.279H82.4272V117.772C82.4272 118.594 82.6172 119.218 82.9916 119.624C83.3751 120.042 83.9073 120.254 84.5733 120.254C84.8026 120.254 85.0333 120.236 85.2576 120.2C85.4953 120.163 85.705 120.108 85.8789 120.035L86.186 119.907V118.594L85.529 118.654Z" fill="#3C3C3B"/>
<path d="M92.0527 117.53C91.8732 117.857 91.5928 118.135 91.2177 118.354C90.8047 118.596 90.3195 118.718 89.7733 118.718C89.3604 118.718 89.0427 118.622 88.8282 118.434C88.6228 118.253 88.5267 118.032 88.5267 117.737C88.5267 117.392 88.6957 117.118 89.0582 116.87C89.4578 116.596 90.0145 116.458 90.7136 116.458H92.0527V117.53ZM92.7826 112.381C92.1859 111.903 91.4 111.661 90.4457 111.661C89.4887 111.661 88.6831 111.913 88.0506 112.41C87.3839 112.935 87.0634 113.553 87.1076 114.291L87.2226 114.664L88.7153 114.678V114.274C88.7153 113.981 88.8534 113.745 89.1486 113.528C89.4732 113.289 89.8974 113.169 90.4093 113.169C90.954 113.169 91.3733 113.29 91.6559 113.529C91.9265 113.761 92.0527 114.066 92.0527 114.489V115.02H90.7283C89.5903 115.02 88.6634 115.253 87.9756 115.712C87.2352 116.205 86.8601 116.878 86.8601 117.71C86.8601 118.475 87.1167 119.099 87.6222 119.564C88.1187 120.022 88.8086 120.254 89.6724 120.254C90.3391 120.254 90.9512 120.107 91.4904 119.817C91.726 119.692 91.9426 119.548 92.1383 119.39C92.1614 119.513 92.1887 119.647 92.2217 119.796L92.2925 120.109H93.72V118.195V114.503C93.72 113.594 93.4052 112.879 92.7826 112.381Z" fill="#3C3C3B"/>
<path d="M99.018 118.654C98.8546 118.68 98.7109 118.699 98.5889 118.71C98.4662 118.72 98.3421 118.725 98.2138 118.725C98.021 118.725 97.8808 118.67 97.7735 118.55C97.6936 118.461 97.5975 118.253 97.5975 117.772V113.279H99.3188V111.799H97.5975V109.877H95.9162V111.799H94.563V113.279H95.9162V117.772C95.9162 118.594 96.1062 119.218 96.4806 119.624C96.8641 120.042 97.3963 120.254 98.0624 120.254C98.2916 120.254 98.5223 120.236 98.7467 120.2C98.9844 120.163 99.194 120.108 99.3679 120.035L99.675 119.907L99.3973 118.594L99.018 118.654Z" fill="#3C3C3B"/>
<path d="M101.973 114.867C102.076 114.429 102.274 114.051 102.561 113.742C102.918 113.356 103.349 113.169 103.876 113.169C104.448 113.169 104.883 113.341 105.205 113.694C105.499 114.017 105.66 114.403 105.695 114.867H101.973ZM107.369 115.267C107.369 114.196 107.055 113.32 106.435 112.661C105.809 111.998 104.948 111.661 103.876 111.661C102.845 111.661 101.957 112.063 101.237 112.855C100.528 113.634 100.167 114.624 100.167 115.794V116.176C100.167 117.338 100.531 118.317 101.249 119.085C101.974 119.861 102.894 120.255 103.985 120.255C104.654 120.255 105.245 120.157 105.742 119.965C106.244 119.768 106.667 119.499 107.001 119.162L107.224 118.934L106.41 117.68L106.058 118.031C105.83 118.258 105.549 118.435 105.223 118.557C104.89 118.683 104.475 118.746 103.985 118.746C103.344 118.746 102.844 118.515 102.452 118.041C102.084 117.594 101.88 117.034 101.847 116.375H107.369V115.267Z" fill="#3C3C3B"/>
<path d="M106.663 27.791H66.7378C68.8756 28.8095 70.3585 30.0325 71.2734 30.9084C72.6119 32.1903 73.4315 33.4034 73.8193 33.9808C74.4264 34.8863 74.9607 35.8479 75.3996 36.8214C75.6156 37.2956 75.7845 37.7093 75.9346 38.1062C76.1407 38.6583 76.3209 39.2287 76.485 39.811H106.663V27.791Z" fill="white"/>
<path d="M100.317 58.3784C91.6247 58.3925 79.9003 58.4079 70.9089 58.4206C72.4206 59.3632 74.7918 61.0919 76.4865 63.686C77.114 64.6462 77.5746 65.612 77.6868 65.8509C78.2723 67.0956 78.7315 68.5046 79.0526 70.0401C79.101 70.2733 79.1206 70.5304 79.162 70.7693C84.9737 70.7784 94.7132 70.7854 100.317 70.7945V58.3784Z" fill="white"/>
<path d="M106.665 86.7109H76.827C76.447 87.4155 76.0396 88.1151 75.579 88.7915C74.8365 89.8831 73.9888 90.9079 73.0626 91.8738C72.9371 92.0115 72.8354 92.1519 72.7022 92.2882C72.5199 92.4744 72.3313 92.6261 72.1455 92.7982C72.1378 92.8059 72.1294 92.8136 72.121 92.8207C71.79 93.1276 71.4605 93.4255 71.1246 93.691C71.009 93.7879 70.9017 93.8919 70.7839 93.9874C69.1937 95.2714 67.3883 96.3813 65.4265 97.3478H106.665V86.7109Z" fill="white"/>
<path d="M72.1466 92.7983C72.1379 92.8064 72.1291 92.8137 72.1211 92.8217C72.1291 92.8137 72.1379 92.8064 72.1466 92.7983Z" fill="#3C3C3B"/>
</svg>
