<svg width="51" height="50" viewBox="0 0 51 50" fill="none" xmlns="http://www.w3.org/2000/svg">
<path d="M38.933 32.6669C39.1888 32.6669 39.3962 32.4626 39.3962 32.2107C39.3962 31.9588 39.1888 31.7546 38.933 31.7546H38.4697C38.4697 31.5026 38.2623 31.2984 38.0065 31.2984C37.7506 31.2984 37.5432 31.5026 37.5432 31.7546H30.1308C30.1308 31.5026 29.9234 31.2984 29.6676 31.2984C29.4117 31.2984 29.2043 31.5026 29.2043 31.7546H28.7411C28.4852 31.7546 28.2778 31.9588 28.2778 32.2107C28.2778 32.4627 28.4852 32.6669 28.7411 32.6669H29.2043V34.0353H28.7411C28.4852 34.0353 28.2778 34.2395 28.2778 34.4915C28.2778 34.7434 28.4852 34.9476 28.7411 34.9476H29.2043V35.4037H28.7411C28.4852 35.4037 28.2778 35.608 28.2778 35.8599C28.2778 36.1118 28.4852 36.316 28.7411 36.316H29.2043V37.6845H21.3286V33.9105C22.0139 34.2907 22.7871 34.4908 23.5737 34.4914C26.2046 34.4541 28.3086 32.3275 28.2777 29.7369C28.292 27.9359 27.2705 26.2817 25.6399 25.4654C26.1767 24.7458 26.4643 23.8752 26.4604 22.9824C26.4765 21.0118 25.0726 19.3062 23.1113 18.9135C23.6076 17.8359 23.5223 16.5851 22.8841 15.5826C22.246 14.5801 21.14 13.9592 19.9388 13.9292C19.925 13.9292 19.9118 13.9311 19.8981 13.9313C19.6515 12.3614 18.27 11.2091 16.6568 11.2276C15.0436 11.2461 13.6898 12.4299 13.4804 14.0049C12.3073 14.2264 11.4974 15.2898 11.6103 16.4607C11.7232 17.6316 12.7218 18.526 13.9163 18.526H16.6167C16.6585 18.6572 16.7081 18.7859 16.7652 18.9113C14.804 19.3054 13.4008 21.0117 13.4173 22.9824C13.4133 23.8753 13.701 24.7458 14.2377 25.4654C12.6071 26.2818 11.5857 27.9359 11.5999 29.737C11.569 32.3275 13.673 34.4542 16.3039 34.4915C17.0905 34.4909 17.8637 34.2909 18.549 33.9106V37.6846H12.0633C11.8074 37.6846 11.6 37.8888 11.6 38.1407C11.6 38.3926 11.8074 38.5968 12.0633 38.5968H38.933C39.1888 38.5968 39.3962 38.3926 39.3962 38.1407C39.3962 37.8888 39.1888 37.6846 38.933 37.6846H38.4697V36.3161H38.933C39.1888 36.3161 39.3962 36.1119 39.3962 35.8599C39.3962 35.608 39.1888 35.4038 38.933 35.4038H38.4697V34.9477H38.933C39.1888 34.9477 39.3962 34.7435 39.3962 34.4915C39.3962 34.2396 39.1888 34.0354 38.933 34.0354H38.4697V32.6669H38.933V32.6669ZM16.4464 17.456C16.4464 17.509 16.4525 17.561 16.4549 17.6137H13.9163C13.1488 17.6137 12.5265 17.001 12.5265 16.2452C12.5265 15.4894 13.1488 14.8767 13.9163 14.8767C14.0392 14.8768 14.157 14.8287 14.244 14.7432C14.3308 14.6576 14.3796 14.5416 14.3796 14.4206C14.3772 13.2301 15.3068 12.2389 16.5122 12.1466C17.7176 12.0543 18.7916 12.8921 18.9762 14.0687C17.4652 14.5231 16.4366 15.9004 16.4464 17.456ZM20.4021 37.6846H19.4756V33.24C19.6416 33.0878 19.7964 32.9241 19.9388 32.7502C20.0812 32.9241 20.2361 33.0878 20.4021 33.24V37.6846H20.4021ZM20.4584 31.8881L23.5093 28.8839C23.6874 28.7054 23.6861 28.4188 23.5064 28.2418C23.3267 28.0648 23.0356 28.0636 22.8542 28.239L20.4021 30.6533V26.0134L22.5827 23.8663C22.7617 23.6878 22.7608 23.4006 22.5807 23.2232C22.4006 23.0459 22.1089 23.045 21.9276 23.2212L20.4021 24.7233V22.6314C20.4021 22.3795 20.1946 22.1753 19.9388 22.1753C19.683 22.1753 19.4756 22.3795 19.4756 22.6314V24.7233L17.95 23.2212C17.7688 23.045 17.4771 23.0459 17.297 23.2232C17.1169 23.4006 17.116 23.6878 17.2949 23.8663L19.4755 26.0134V30.6534L17.0234 28.239C16.8422 28.0628 16.5505 28.0637 16.3704 28.241C16.1903 28.4183 16.1894 28.7056 16.3683 28.884L19.4192 31.8881C18.741 32.9373 17.567 33.5746 16.3038 33.5792C14.1845 33.5425 12.4949 31.824 12.5264 29.7371C12.5067 28.0867 13.5662 26.6107 15.1527 26.078C15.306 26.0282 15.422 25.9034 15.4587 25.7485C15.4954 25.5937 15.4474 25.4312 15.3323 25.3198C14.6955 24.7042 14.3389 23.8611 14.3438 22.9824C14.3135 21.2418 15.7115 19.8014 17.4788 19.7524C17.6701 19.769 17.8529 19.6715 17.9432 19.5046C18.0222 19.3513 18.0067 19.1673 17.9032 19.0289C17.5598 18.5741 17.3739 18.0227 17.3729 17.4559C17.3504 16.0371 18.4979 14.8678 19.9388 14.8415C21.3797 14.8678 22.5272 16.0371 22.5046 17.4559C22.5036 18.0227 22.3177 18.5741 21.9744 19.0289C21.8729 19.1685 21.8602 19.3524 21.9416 19.5042C22.0234 19.6582 22.1855 19.7545 22.3621 19.7541C24.1422 19.7857 25.5607 21.2296 25.5337 22.9824C25.5386 23.8611 25.182 24.7042 24.5452 25.3198C24.43 25.4312 24.3822 25.5937 24.4189 25.7485C24.4556 25.9034 24.5715 26.0282 24.7249 26.078C26.5042 26.6906 27.5888 28.4633 27.3072 30.2984C27.0255 32.1336 25.4574 33.5116 23.5737 33.5792C22.3106 33.5746 21.1366 32.9373 20.4584 31.8881ZM37.5431 37.6846H30.1308V36.3161H37.5431V37.6846ZM37.5431 35.4038H30.1308V34.9477H37.5431V35.4038ZM37.5431 34.0353H30.1308V32.6669H37.5431V34.0353Z" fill="black"/>
<path d="M31.5208 22.6308H37.0801C38.2746 22.6307 39.2732 21.7363 39.3861 20.5654C39.499 19.3945 38.6891 18.3311 37.516 18.1097C37.304 16.5205 35.9283 15.3323 34.3005 15.3323C32.6726 15.3323 31.2969 16.5205 31.0849 18.1097C29.9118 18.3311 29.102 19.3945 29.2148 20.5654C29.3277 21.7363 30.3263 22.6307 31.5208 22.6308ZM31.5208 18.9815C31.6437 18.9815 31.7616 18.9335 31.8485 18.8479C31.9353 18.7624 31.9841 18.6463 31.9841 18.5253C31.9841 17.2657 33.0212 16.2445 34.3005 16.2445C35.5798 16.2445 36.6169 17.2656 36.6169 18.5253C36.6168 18.6463 36.6656 18.7623 36.7526 18.8479C36.8394 18.9334 36.9573 18.9815 37.0802 18.9815C37.8477 18.9815 38.47 19.5942 38.47 20.35C38.47 21.1057 37.8478 21.7184 37.0802 21.7184H31.5209C30.7534 21.7184 30.1311 21.1058 30.1311 20.35C30.1311 19.5942 30.7532 18.9815 31.5208 18.9815Z" fill="black"/>
</svg>
