<svg width="29" height="32" viewBox="0 0 29 32" fill="none" xmlns="http://www.w3.org/2000/svg">
<path d="M27.9161 24.4347L22.1977 20.3316C21.4721 19.8151 20.4993 19.9851 19.9628 20.7222L18.2971 23.0265C18.0831 23.3302 17.694 23.4183 17.3843 23.2332L17.0674 23.0452C16.0171 22.4292 14.7101 21.6623 12.077 18.8282C9.44378 15.994 8.72958 14.5868 8.15706 13.4588L7.98333 13.1179C7.80893 12.7847 7.88926 12.3643 8.17163 12.1321L10.3119 10.3405C10.9966 9.76316 11.1548 8.71686 10.6753 7.93584L6.86185 1.78326C6.37043 0.987931 5.38451 0.749179 4.62375 1.24123L2.23255 2.7867C1.48122 3.26195 0.929995 4.03163 0.694466 4.93446C-0.1666 8.31011 0.481173 14.136 8.45747 22.719C14.8025 29.5453 19.526 31.381 22.7726 31.381C23.5198 31.3844 24.2641 31.2799 24.9854 31.07C25.8247 30.8169 26.5401 30.2238 26.9816 29.4151L28.4194 26.8439C28.8774 26.0252 28.6556 24.9637 27.9161 24.4347ZM27.6082 26.3241L26.1736 28.8969C25.8567 29.4806 25.3421 29.9097 24.7377 30.0944C21.8413 30.95 16.7812 30.2413 9.12362 22.0023C1.46604 13.7632 0.807458 8.31925 1.60265 5.20248C1.77456 4.5514 2.1739 3.99702 2.71701 3.65546L5.10821 2.112C5.43831 1.8983 5.86622 2.00188 6.07946 2.34701L8.15099 5.69328L9.88968 8.49906C10.0979 8.83783 10.0295 9.29189 9.73244 9.54257L7.59172 11.3342C6.94025 11.8702 6.75421 12.84 7.15531 13.6097L7.32529 13.942C7.927 15.1293 8.67507 16.6064 11.4062 19.5444C14.1373 22.4824 15.5097 23.2874 16.6127 23.9347L16.922 24.1181C17.6373 24.5496 18.5387 24.3495 19.0369 23.6485L20.7021 21.3452C20.9351 21.0258 21.357 20.9523 21.6719 21.1761L27.3898 25.2791C27.7108 25.5084 27.8071 25.969 27.6082 26.3241Z" fill="white"/>
<path d="M16.4139 6.05348C20.8321 6.05877 24.4125 9.91115 24.4175 14.6649C24.4175 14.9446 24.6283 15.1714 24.8883 15.1714C25.1483 15.1714 25.3591 14.9446 25.3591 14.6649C25.3536 9.35185 21.3519 5.04624 16.4139 5.04042C16.1539 5.04042 15.9431 5.26718 15.9431 5.54695C15.9431 5.82672 16.1539 6.05348 16.4139 6.05348Z" fill="white"/>
<path d="M16.4139 9.09279C19.2727 9.09641 21.5893 11.589 21.5927 14.6649C21.5927 14.9446 21.8035 15.1714 22.0635 15.1714C22.3235 15.1714 22.5343 14.9446 22.5343 14.6649C22.5303 11.0297 19.7925 8.08388 16.4139 8.07973C16.1539 8.07973 15.9431 8.30649 15.9431 8.58626C15.9431 8.86603 16.1539 9.09279 16.4139 9.09279Z" fill="white"/>
<path d="M16.4139 12.1321C17.7133 12.1338 18.7663 13.2667 18.7679 14.6649C18.7679 14.9446 18.9787 15.1714 19.2387 15.1714C19.4987 15.1714 19.7095 14.9446 19.7095 14.6649C19.7074 12.7075 18.2331 11.1212 16.4139 11.119C16.1539 11.119 15.9431 11.3458 15.9431 11.6256C15.9431 11.9053 16.1539 12.1321 16.4139 12.1321Z" fill="white"/>
</svg>
