<svg width="51" height="51" viewBox="0 0 51 51" fill="none" xmlns="http://www.w3.org/2000/svg">
<path d="M41.892 21.6264H34.4499V20.1521C34.4496 19.9368 34.3362 19.7383 34.1532 19.6328L26.1816 15.0369V12.6971H27.7585V13.5864C27.7585 13.9161 28.019 14.1833 28.3404 14.1833H33.0942C33.4155 14.1832 33.6759 13.9158 33.6758 13.5862C33.6758 13.5171 33.6641 13.4486 33.6411 13.3835L33.164 11.9928L33.647 10.6319C33.7562 10.3219 33.5998 9.97974 33.2976 9.86768C33.2343 9.84418 33.1674 9.83217 33.1 9.83209H30.9355V8.96662C30.9355 8.637 30.6749 8.36974 30.3536 8.36974H26.1816V7.64155C26.1816 7.31193 25.9211 7.04468 25.5998 7.04468C25.2784 7.04468 25.0179 7.31193 25.0179 7.64155V15.0369L17.0464 19.6268C16.8634 19.7323 16.75 19.9308 16.7496 20.1461V21.6204H9.30757C8.98624 21.6204 8.72571 21.8877 8.72571 22.2173V37.8316C8.72571 38.1612 8.98624 38.4285 9.30757 38.4285H41.892C42.2133 38.4285 42.4738 38.1612 42.4738 37.8316V22.2233C42.4738 21.8936 42.2133 21.6264 41.892 21.6264ZM30.9355 12.1002L30.9122 12.0763V11.0497H32.2388L32.0003 11.8137C31.9526 11.9467 31.9526 12.0926 32.0003 12.2256L32.2738 12.9896H28.9222V12.6971H30.3536C30.6749 12.6971 30.9355 12.4298 30.9355 12.1002ZM26.1816 9.5635H29.7717V11.5033H26.1816V9.5635ZM16.7496 37.2347H9.88944V22.8201H16.7496V37.2347ZM25.0179 37.2347H21.9631V30.4184H25.0179V37.2347ZM29.2364 37.2347H26.1816V30.4184H29.2364V37.2347ZM33.3095 37.2347H30.4002V29.8215C30.4002 29.4919 30.1396 29.2246 29.8183 29.2246H21.3813C21.0599 29.2246 20.7994 29.4919 20.7994 29.8215V37.2347H17.8901V20.5222L25.5998 16.0695L33.2862 20.4983L33.3095 22.2173V37.2347ZM41.3101 37.2347H34.4499V22.8201H41.3101V37.2347Z" fill="black"/>
<path d="M25.5998 17.8959C24.2523 17.8992 23.1618 19.0206 23.1618 20.4028C23.165 21.784 24.2591 22.901 25.6056 22.8977C26.9521 22.8944 28.041 21.7721 28.0378 20.3908C28.0346 19.012 26.944 17.8959 25.5998 17.8959ZM25.5998 21.704C24.896 21.7007 24.3281 21.1128 24.3313 20.3908C24.3345 19.6736 24.9005 19.0929 25.5998 19.0896C26.3045 19.0929 26.8741 19.6799 26.8741 20.4028H26.8799C26.8767 21.1247 26.3035 21.7073 25.5998 21.704Z" fill="black"/>
<path d="M12.4555 24.1333H11.2917V26.5208H12.4555V24.1333Z" fill="black"/>
<path d="M15.3241 24.1333H14.1603V26.5208H15.3241V24.1333Z" fill="black"/>
<path d="M21.9864 24.1333H19.6589V25.327H21.9864V24.1333Z" fill="black"/>
<path d="M26.7635 24.1333H24.436V25.327H26.7635V24.1333Z" fill="black"/>
<path d="M31.5406 24.1333H29.2132V25.327H31.5406V24.1333Z" fill="black"/>
<path d="M21.9864 26.9147H19.6589V28.1085H21.9864V26.9147Z" fill="black"/>
<path d="M26.7635 26.9147H24.436V28.1085H26.7635V26.9147Z" fill="black"/>
<path d="M31.5406 26.9147H29.2132V28.1085H31.5406V26.9147Z" fill="black"/>
<path d="M12.4555 28.8307H11.2917V31.2182H12.4555V28.8307Z" fill="black"/>
<path d="M15.3241 28.8307H14.1603V31.2182H15.3241V28.8307Z" fill="black"/>
<path d="M12.4555 33.5341H11.2917V35.9216H12.4555V33.5341Z" fill="black"/>
<path d="M15.3241 33.5341H14.1603V35.9216H15.3241V33.5341Z" fill="black"/>
<path d="M37.0392 24.1333H35.8755V26.5208H37.0392V24.1333Z" fill="black"/>
<path d="M39.9078 24.1333H38.7441V26.5208H39.9078V24.1333Z" fill="black"/>
<path d="M37.0392 28.8307H35.8755V31.2182H37.0392V28.8307Z" fill="black"/>
<path d="M39.9078 28.8307H38.7441V31.2182H39.9078V28.8307Z" fill="black"/>
<path d="M37.0392 33.5341H35.8755V35.9216H37.0392V33.5341Z" fill="black"/>
<path d="M39.9078 33.5341H38.7441V35.9216H39.9078V33.5341Z" fill="black"/>
</svg>
