<svg width="51" height="50" viewBox="0 0 51 50" fill="none" xmlns="http://www.w3.org/2000/svg">
<path d="M31.7197 16.2335C31.7143 7.791 24.8465 0.992333 16.3315 1.00001C7.88551 1.00763 1.01352 7.83266 1.00002 16.2267C0.986476 24.6379 7.8937 31.4628 16.4053 31.4483C24.8856 31.4339 31.7251 24.6388 31.7197 16.2335ZM16.3747 28.137C9.74939 28.1355 4.38269 22.8112 4.37891 16.236C4.37511 9.65028 9.72396 4.34379 16.3645 4.34531C22.999 4.34682 28.374 9.66351 28.3763 16.2269C28.3785 22.7793 22.9782 28.1385 16.3747 28.137Z" stroke="#FCC21D" stroke-miterlimit="10"/>
<path d="M49.4422 45.8436C50.1089 46.5047 50.1972 47.5691 49.6028 48.2949C49.5416 48.3696 49.4732 48.4428 49.3967 48.5133C49.3632 48.5443 49.3294 48.5737 49.2952 48.6016C48.5658 49.1972 47.4874 49.1085 46.8193 48.4459L28.4085 30.188C28.8555 29.877 29.3692 29.4693 29.8913 28.9437C30.3653 28.4666 30.7399 27.9993 31.032 27.5862L49.4422 45.8436Z" stroke="#FCC21D" stroke-miterlimit="10"/>
</svg>
