<svg width="32" height="27" viewBox="0 0 32 27" fill="none" xmlns="http://www.w3.org/2000/svg">
<path d="M10.187 18.0414H10.1884C10.1896 18.0414 10.1908 18.0411 10.192 18.0411H26.5972C27.0011 18.0411 27.3562 17.781 27.4672 17.404L31.0865 5.1044C31.1645 4.83924 31.1099 4.55417 30.939 4.33408C30.7679 4.11399 30.5005 3.98449 30.2166 3.98449H8.10021L7.45339 1.1583C7.36125 0.75632 6.99413 0.470337 6.56999 0.470337H1.14093C0.641143 0.470337 0.236084 0.863621 0.236084 1.34888C0.236084 1.83413 0.641143 2.22742 1.14093 2.22742H5.84423C5.95875 2.72823 8.93955 15.7521 9.11109 16.5014C8.14946 16.9073 7.47483 17.8382 7.47483 18.9197C7.47483 20.3729 8.6926 21.5553 10.1894 21.5553H26.5972C27.097 21.5553 27.502 21.162 27.502 20.6767C27.502 20.1915 27.097 19.7982 26.5972 19.7982H10.1894C9.69052 19.7982 9.28452 19.404 9.28452 18.9197C9.28452 18.436 9.6891 18.0425 10.187 18.0414ZM29.0169 5.74157L25.9145 16.284H10.9151L8.5022 5.74157H29.0169Z" fill="black"/>
<path d="M9.28467 24.1909C9.28467 25.6442 10.5024 26.8265 11.9992 26.8265C13.496 26.8265 14.7137 25.6442 14.7137 24.1909C14.7137 22.7377 13.496 21.5553 11.9992 21.5553C10.5024 21.5553 9.28467 22.7377 9.28467 24.1909ZM11.9992 23.3124C12.498 23.3124 12.904 23.7066 12.904 24.1909C12.904 24.6753 12.498 25.0695 11.9992 25.0695C11.5004 25.0695 11.0944 24.6753 11.0944 24.1909C11.0944 23.7066 11.5004 23.3124 11.9992 23.3124Z" fill="black"/>
<path d="M22.073 24.1909C22.073 25.6442 23.2908 26.8265 24.7875 26.8265C26.2843 26.8265 27.5021 25.6442 27.5021 24.1909C27.5021 22.7377 26.2843 21.5553 24.7875 21.5553C23.2908 21.5553 22.073 22.7377 22.073 24.1909ZM24.7875 23.3124C25.2864 23.3124 25.6924 23.7066 25.6924 24.1909C25.6924 24.6753 25.2864 25.0695 24.7875 25.0695C24.2887 25.0695 23.8827 24.6753 23.8827 24.1909C23.8827 23.7066 24.2887 23.3124 24.7875 23.3124Z" fill="black"/>
</svg>
