<svg width="83" height="83" viewBox="0 0 83 83" fill="none" xmlns="http://www.w3.org/2000/svg">
<circle cx="41.5" cy="41.5" r="40.5" stroke="#FCC21D" stroke-width="2"/>
<path d="M49.2917 38.6457C48.9397 38.6457 48.5878 38.5114 48.3193 38.2428C46.632 36.5547 44.3877 35.625 42.0001 35.625C39.6124 35.625 37.3681 36.5547 35.6808 38.2428C35.144 38.7799 34.2733 38.78 33.7363 38.2432C33.1992 37.7063 33.199 36.8357 33.7358 36.2987C35.9426 34.0909 38.8775 32.875 42.0001 32.875C45.1226 32.875 48.0575 34.0908 50.2643 36.2987C50.8012 36.8358 50.8009 37.7063 50.2639 38.2432C49.9953 38.5115 49.6434 38.6457 49.2917 38.6457Z" fill="#FCC21D"/>
<path d="M45.8895 42.048C45.5376 42.048 45.1858 41.9137 44.9173 41.6453C44.1385 40.8664 43.1025 40.4375 42.0001 40.4375C40.8977 40.4375 39.8617 40.8664 39.0829 41.6453C38.5459 42.1822 37.6753 42.1822 37.1384 41.6453C36.6013 41.1083 36.6013 40.2377 37.1384 39.7008C38.4365 38.4025 40.1632 37.6875 42.0001 37.6875C43.837 37.6875 45.5637 38.4025 46.8618 39.7008C47.3988 40.2377 47.3988 41.1083 46.8618 41.6453C46.5933 41.9137 46.2414 42.048 45.8895 42.048H45.8895Z" fill="#FCC21D"/>
<path d="M42 48C40.8628 48 39.9375 47.0747 39.9375 45.9375C39.9375 44.8003 40.8628 43.875 42 43.875C43.1372 43.875 44.0625 44.8003 44.0625 45.9375C44.0625 47.0747 43.1372 48 42 48Z" fill="#FCC21D"/>
<path d="M63.4381 30.3912L42.8131 15.2662C42.3291 14.9113 41.6709 14.9113 41.1869 15.2662L20.5619 30.3912C19.9496 30.8403 19.8172 31.7008 20.2663 32.3131C20.7155 32.9255 21.576 33.058 22.1882 32.6088L22.7501 32.1967V55.0469C22.7501 57.2266 24.5235 59 26.7032 59H57.2968C59.4765 59 61.2499 57.2266 61.2499 55.0469V32.1968L61.8118 32.6089C62.0569 32.7886 62.3416 32.8752 62.6238 32.8752C63.0469 32.8752 63.4643 32.6805 63.7337 32.3132C64.1828 31.7008 64.0504 30.8403 63.4381 30.3912ZM58.4999 55.047C58.4999 55.7104 57.9602 56.2501 57.2968 56.2501H26.7032C26.0398 56.2501 25.5001 55.7104 25.5001 55.047V30.1801L42 18.0801L58.4999 30.1801V55.047Z" fill="#FCC21D"/>
</svg>
