<svg width="83" height="83" viewBox="0 0 83 83" fill="none" xmlns="http://www.w3.org/2000/svg">
<path d="M63 23.8727C63.0024 23.3431 62.7916 22.8347 62.4149 22.4622L60.5378 20.585C60.167 20.2102 59.6617 19.9996 59.1344 20H59.128C58.604 20.0003 58.1021 20.2111 57.735 20.585L49.22 29.0999H32.45V21.95C32.45 20.873 31.5769 20 30.5 20H29.2C26.3295 20.0032 24.0032 22.3294 24 25.2V53.9629C24.1627 56.8116 26.5354 59.0294 29.3885 58.9997H61.05C62.127 58.9997 63 58.1267 63 57.0498V31.0499C63 29.973 62.127 29.0999 61.05 29.0999H58.58L62.415 25.265C62.7882 24.8977 62.9988 24.3963 63 23.8727ZM47.257 36.2499C47.1194 36.2687 46.9812 36.2203 46.8852 36.1199C46.7885 36.0238 46.7407 35.8889 46.7552 35.7533L47.0016 33.5433C47.0119 33.4971 47.0249 33.4515 47.0406 33.4069L49.6009 35.9672C49.5587 35.9763 49.5203 35.9971 49.4761 36.0023L47.257 36.2499ZM50.6623 35.1884L47.8179 32.3434L54.9029 25.2585L57.746 28.1009L50.6623 35.1884ZM55.8195 24.3387L56.7834 23.3754L59.6252 26.2178L58.6619 27.1817L55.8195 24.3387ZM25.3 25.2C25.3022 23.047 27.047 21.3021 29.2 21.3H30.5C30.859 21.3 31.15 21.591 31.15 21.95V47.9498C31.15 48.3087 30.859 48.5997 30.5 48.5997H29.2C27.7067 48.5993 26.2856 49.242 25.3 50.3638V25.2ZM61.05 30.3999C61.409 30.3999 61.7 30.6909 61.7 31.05V57.0498C61.7 57.4087 61.409 57.6998 61.05 57.6998H29.3885C27.2427 57.7358 25.4451 56.084 25.3 53.9428V53.7997C25.3022 51.6468 27.047 49.902 29.2 49.8998H30.5C31.5769 49.8998 32.45 49.0268 32.45 47.9498V30.3999H47.9199L46.4438 31.8761C46.0317 32.2821 45.7725 32.818 45.71 33.3931L45.4636 35.6076C45.4433 35.8236 45.4639 36.0414 45.5241 36.2498H34.4C34.041 36.2498 33.75 36.5408 33.75 36.8999C33.75 37.2588 34.041 37.5498 34.4 37.5498H36.35V55.0997C36.35 55.4587 36.641 55.7498 37.0001 55.7498C37.3591 55.7498 37.6501 55.4588 37.6501 55.0997V45.9998H44.8V51.1998H40.25C39.8911 51.1998 39.6001 51.4908 39.6001 51.8497C39.6001 52.2087 39.8911 52.4998 40.25 52.4998H53.25C53.968 52.4998 54.55 51.9177 54.55 51.1998V41.4499C54.55 41.0909 54.259 40.7998 53.9 40.7998C53.5411 40.7998 53.25 41.0908 53.25 41.4499V44.6998H37.65V37.5499H47.2102C47.2736 37.55 47.337 37.5466 47.4 37.5395L49.6211 37.2867C50.1848 37.2227 50.711 36.9722 51.1161 36.5749L57.2833 30.4L61.05 30.3999ZM53.25 45.9998V51.1998H46.1V45.9998H53.25ZM61.4985 24.3432L60.5443 25.2981L57.7025 22.4563L58.6573 21.5015C58.7823 21.3733 58.9535 21.3006 59.1325 21.3C59.3148 21.3004 59.4892 21.374 59.6167 21.5041L61.4966 23.38C61.6273 23.5087 61.7006 23.6847 61.7 23.8681C61.6995 24.0472 61.6268 24.2184 61.4985 24.3432Z" fill="#FCC217" stroke="#FCC217" stroke-width="0.5" stroke-miterlimit="10"/>
<circle cx="41.5" cy="41.5" r="40.5" stroke="#FCC21D" stroke-width="2"/>
</svg>
