<svg width="51" height="50" viewBox="0 0 51 50" fill="none" xmlns="http://www.w3.org/2000/svg">
<path d="M40.5436 20.6018C40.4352 20.4955 40.2848 20.4343 40.1314 20.4343H38.0905V17.0033C38.0905 16.6876 37.8294 16.4315 37.5074 16.4315H35.3498V14.716C35.3498 14.4002 35.0887 14.1442 34.7667 14.1442H16.7483C16.4262 14.1442 16.1652 14.4002 16.1652 14.716V16.4315H14.0659C13.7439 16.4315 13.4828 16.6876 13.4828 17.0033V20.4343H11.4419C11.1198 20.4343 10.8588 20.6904 10.8588 21.0061V35.8737C10.8588 36.1895 11.1198 36.4456 11.4419 36.4456H40.1314C40.2848 36.4456 40.4352 36.3844 40.5436 36.278C40.6521 36.1716 40.7145 36.0241 40.7145 35.8737V33.0146C40.7145 32.6995 40.4527 32.4427 40.1314 32.4427C39.8101 32.4427 39.5483 32.6995 39.5483 33.0146V35.3019H36.3411V21.578H39.5483V33.1084C39.5483 33.4234 39.8101 33.6802 40.1314 33.6802C40.4527 33.6802 40.7145 33.4234 40.7145 33.1084V21.0061C40.7145 20.8557 40.6521 20.7082 40.5436 20.6018ZM12.025 35.3019V21.578H15.2322V35.3019H12.025ZM24.0956 35.3019H16.3984V29.9267C16.3984 27.8456 18.1249 26.1526 20.247 26.1526C21.2745 26.1526 22.241 26.5452 22.9682 27.2578C23.6952 27.9713 24.0956 28.9191 24.0956 29.9267V35.3019ZM25.2618 35.3019V29.9267C25.2618 28.6138 24.7402 27.3788 23.7929 26.4492C22.8451 25.5204 21.5858 25.0089 20.247 25.0089C18.7025 25.0089 17.319 25.697 16.3984 26.7772V23.8653H35.1749V26.7733C35.0794 26.6616 34.9785 26.5535 34.8722 26.4492C33.9244 25.5204 32.6651 25.0089 31.3263 25.0089C28.5611 25.0089 26.3115 27.215 26.3115 29.9267V35.3019L25.2618 35.3019ZM27.4777 35.3019V29.9267C27.4777 27.8456 29.2041 26.1526 31.3263 26.1526C32.3537 26.1526 33.3203 26.5452 34.0475 27.2578C34.7745 27.9713 35.1749 28.9191 35.1749 29.9267V35.3019H27.4777ZM35.758 20.4343C35.6046 20.4343 35.4542 20.4954 35.3457 20.6018C35.2373 20.7083 35.1749 20.8557 35.1749 21.0061V22.7216H16.3984V21.0061C16.3984 20.6904 16.1373 20.4343 15.8153 20.4343H14.649V17.5751H16.7483C17.0703 17.5751 17.3314 17.3191 17.3314 17.0033V15.2878H34.1836V17.0033C34.1836 17.3191 34.4447 17.5751 34.7667 17.5751H36.9242V20.4343H35.758Z" fill="black"/>
<path d="M25.845 16.4315C24.3981 16.4315 23.2209 17.5859 23.2209 19.0048C23.2209 20.4236 24.3981 21.578 25.845 21.578C27.2919 21.578 28.469 20.4236 28.469 19.0048C28.469 17.5859 27.2919 16.4315 25.845 16.4315ZM25.845 20.4343C25.0412 20.4343 24.3872 19.793 24.3872 19.0048C24.3872 18.2165 25.0412 17.5752 25.845 17.5752C26.6488 17.5752 27.3028 18.2165 27.3028 19.0048C27.3028 19.793 26.6488 20.4343 25.845 20.4343Z" fill="black"/>
</svg>
