<svg width="33" height="37" viewBox="0 0 33 37" fill="none" xmlns="http://www.w3.org/2000/svg">
<path d="M26.1702 18.1715H28.7281C29.3064 18.1715 29.7769 17.6968 29.7769 17.1133V14.5324C29.7769 13.9489 29.3064 13.4742 28.7281 13.4742H26.1702C25.5919 13.4742 25.1214 13.9489 25.1214 14.5324V17.1133C25.1214 17.6968 25.5919 18.1715 26.1702 18.1715ZM26.1958 14.5582H28.7026V17.0875H26.1958V14.5582ZM26.1702 25.0367H28.7281C29.3064 25.0367 29.7769 24.562 29.7769 23.9785V21.3976C29.7769 20.8142 29.3064 20.3394 28.7281 20.3394H26.1702C25.5919 20.3394 25.1214 20.8142 25.1214 21.3976V23.9785C25.1214 24.562 25.5919 25.0367 26.1702 25.0367ZM26.1958 21.4234H28.7026V23.9527H26.1958V21.4234ZM18.8707 18.1715H21.4286C22.0069 18.1715 22.4774 17.6968 22.4774 17.1133V14.5324C22.4774 13.9489 22.0069 13.4742 21.4286 13.4742H18.8707C18.2924 13.4742 17.8219 13.9489 17.8219 14.5324V17.1133C17.8219 17.6968 18.2924 18.1715 18.8707 18.1715ZM18.8963 14.5582H21.4031V17.0875H18.8963V14.5582ZM6.82965 26.8828H4.27172C3.69344 26.8828 3.22295 27.3575 3.22295 27.941V30.5219C3.22295 31.1054 3.69344 31.5801 4.27172 31.5801H6.82965C7.40793 31.5801 7.87842 31.1054 7.87842 30.5219V27.941C7.87842 27.3575 7.40793 26.8828 6.82965 26.8828ZM6.80408 30.4961H4.29729V27.9668H6.80408V30.4961ZM6.82965 13.4742H4.27172C3.69344 13.4742 3.22295 13.9489 3.22295 14.5324V17.1133C3.22295 17.6968 3.69344 18.1715 4.27172 18.1715H6.82965C7.40793 18.1715 7.87842 17.6968 7.87842 17.1133V14.5324C7.87842 13.9489 7.40793 13.4742 6.82965 13.4742ZM6.80408 17.0875H4.29729V14.5582H6.80408V17.0875ZM18.8707 24.8758H21.4286C22.0069 24.8758 22.4774 24.4011 22.4774 23.8176V21.2367C22.4774 20.6532 22.0069 20.1785 21.4286 20.1785H18.8707C18.2924 20.1785 17.8219 20.6532 17.8219 21.2367V23.8176C17.8219 24.4011 18.2924 24.8758 18.8707 24.8758ZM18.8963 21.2625H21.4031V23.7918H18.8963V21.2625ZM30.3104 2.47683H28.0138V1.64816C28.0138 0.73935 27.281 0 26.3803 0H26.1336C25.233 0 24.5002 0.73935 24.5002 1.64816V2.47683H8.49968V1.64816C8.49968 0.73935 7.76691 0 6.86618 0H6.61951C5.71878 0 4.98601 0.73935 4.98601 1.64816V2.47683H2.68943C1.20648 2.47683 0 3.69415 0 5.19041V34.29C0 35.7843 1.20484 37 2.68585 37H30.3141C31.7952 37 33 35.7843 33 34.29V5.19041C32.9999 3.69415 31.7934 2.47683 30.3104 2.47683L30.3104 2.47683ZM25.5745 1.64816C25.5745 1.33706 25.8253 1.08398 26.1337 1.08398H26.3804C26.6887 1.08398 26.9395 1.33706 26.9395 1.64816V2.47683H25.5745V1.64816ZM6.06043 1.64816C6.06043 1.33706 6.31125 1.08398 6.61958 1.08398H6.86625C7.17459 1.08398 7.42541 1.33706 7.42541 1.64816V2.47683H6.0605V1.64816H6.06043ZM31.9256 34.29C31.9256 35.1866 31.2027 35.916 30.3141 35.916H2.68578C1.79716 35.916 1.07427 35.1866 1.07427 34.29V34.2866C1.52435 34.6288 2.08379 34.832 2.68943 34.832H24.4687C25.187 34.832 25.8624 34.5498 26.3704 34.0372L31.9256 28.4321V34.29ZM25.8223 33.0573C25.8644 32.8819 25.8873 32.699 25.8873 32.5107V28.8928C25.8873 28.2106 26.4374 27.6555 27.1136 27.6555H30.6993C30.8858 27.6555 31.0671 27.6324 31.2409 27.5899L25.8223 33.0573ZM31.9256 10.2223H9.03685C8.74019 10.2223 8.49968 10.4649 8.49968 10.7643C8.49968 11.0636 8.74019 11.3062 9.03685 11.3062H31.9256V25.3343C31.9256 26.0166 31.3755 26.5716 30.6993 26.5716H27.1136C25.845 26.5716 24.813 27.613 24.813 28.8929V32.5108C24.813 33.193 24.2628 33.7481 23.5867 33.7481H2.68943C1.79888 33.7481 1.07434 33.0171 1.07434 32.1185V11.3062H6.88817C7.18483 11.3062 7.42534 11.0636 7.42534 10.7643C7.42534 10.4649 7.18483 10.2223 6.88817 10.2223H1.07427V5.19041C1.07427 4.29186 1.7988 3.56082 2.68936 3.56082H4.98601V5.15442C4.98601 6.06323 5.71878 6.80258 6.61951 6.80258C6.91617 6.80258 7.15668 6.55991 7.15668 6.26059C7.15668 5.96126 6.91617 5.7186 6.61951 5.7186C6.31118 5.7186 6.06035 5.46552 6.06035 5.15442V3.56082H24.5002V5.15442C24.5002 6.06323 25.233 6.80258 26.1337 6.80258C26.4303 6.80258 26.6709 6.55991 26.6709 6.26059C26.6709 5.96126 26.4303 5.7186 26.1337 5.7186C25.8253 5.7186 25.5745 5.46552 25.5745 5.15442V3.56082H30.3105C31.2011 3.56082 31.9256 4.29185 31.9256 5.19041L31.9256 10.2223ZM6.82965 20.1785H4.27172C3.69344 20.1785 3.22295 20.6532 3.22295 21.2367V23.8176C3.22295 24.4011 3.69344 24.8758 4.27172 24.8758H6.82965C7.40794 24.8758 7.87843 24.4011 7.87843 23.8176V21.2367C7.87843 20.6532 7.40794 20.1785 6.82965 20.1785ZM6.80408 23.7918H4.29729V21.2625H6.80408V23.7918ZM11.5712 18.1715H14.1291C14.7074 18.1715 15.1779 17.6968 15.1779 17.1133V14.5324C15.1779 13.9489 14.7074 13.4742 14.1291 13.4742H11.5712C10.9929 13.4742 10.5224 13.9489 10.5224 14.5324V17.1133C10.5224 17.6968 10.9929 18.1715 11.5712 18.1715ZM11.5968 14.5582H14.1036V17.0875H11.5968V14.5582ZM18.8956 30.4961C18.8823 30.2087 18.6472 29.9799 18.359 29.9799C18.0624 29.9799 17.8219 30.2226 17.8219 30.5219C17.8219 31.1054 18.2924 31.5801 18.8706 31.5801H21.4286C22.0069 31.5801 22.4773 31.1054 22.4773 30.5219V27.941C22.4773 27.3575 22.0069 26.8828 21.4286 26.8828H18.8706C18.2924 26.8828 17.8219 27.3575 17.8219 27.941V30.2713C17.8219 30.5707 18.0624 30.8133 18.359 30.8133C18.6557 30.8133 18.8962 30.5707 18.8962 30.2713V27.9668H21.403V30.4961H18.8956ZM11.5712 24.8758H14.1291C14.7074 24.8758 15.1779 24.4011 15.1779 23.8176V21.2367C15.1779 20.6532 14.7074 20.1785 14.1291 20.1785H11.5712C10.9929 20.1785 10.5224 20.6532 10.5224 21.2367V23.8176C10.5224 24.4011 10.9929 24.8758 11.5712 24.8758ZM11.5968 21.2625H14.1036V23.7918H11.5968V21.2625ZM11.5712 31.5801H14.1291C14.7074 31.5801 15.1779 31.1054 15.1779 30.5219V27.941C15.1779 27.3575 14.7074 26.8828 14.1291 26.8828H11.5712C10.9929 26.8828 10.5224 27.3575 10.5224 27.941V30.5219C10.5224 31.1054 10.9929 31.5801 11.5712 31.5801ZM11.5968 27.9668H14.1036V30.4961H11.5968V27.9668Z" fill="#FCC21D"/>
</svg>
