<svg width="22" height="18" viewBox="0 0 22 18" fill="none" xmlns="http://www.w3.org/2000/svg">
<path d="M22 2.1376C21.1345 2.51264 20.2688 2.74685 19.4037 2.84092C20.3808 2.2503 21.0418 1.4159 21.3862 0.337796C20.4923 0.872073 19.5386 1.2376 18.5244 1.43457C17.6308 0.478323 16.5329 0 15.2297 0C13.9828 0 12.9197 0.442908 12.0398 1.32891C11.1606 2.21488 10.7209 3.2859 10.7209 4.54212C10.7209 4.87957 10.758 5.22658 10.8325 5.5828C8.98984 5.48906 7.26125 5.02266 5.64649 4.18359C4.03182 3.34441 2.66147 2.22641 1.53546 0.829566C1.12597 1.53254 0.921161 2.29675 0.921161 3.12174C0.921161 3.89988 1.1026 4.62186 1.46574 5.28751C1.82863 5.95305 2.31732 6.49205 2.93156 6.90462C2.20555 6.87645 1.52621 6.68421 0.893489 6.32794V6.38418C0.893489 7.48116 1.23549 8.44426 1.91943 9.27422C2.60344 10.1041 3.46666 10.6264 4.50888 10.8422C4.11798 10.9452 3.72238 10.9967 3.32227 10.9967C3.06167 10.9967 2.77779 10.9733 2.47075 10.9268C2.75922 11.836 3.28971 12.5834 4.06204 13.1697C4.83451 13.7556 5.70931 14.0576 6.68651 14.0768C5.04866 15.3704 3.18278 16.0172 1.08886 16.0172C0.68862 16.0172 0.325779 15.9988 0 15.9611C2.09397 17.3203 4.4019 18 6.92394 18C8.52461 18 10.0276 17.7448 11.4324 17.2337C12.838 16.7229 14.0383 16.0385 15.0342 15.1804C16.0298 14.3227 16.8884 13.3359 17.6096 12.2203C18.3308 11.1046 18.868 9.93986 19.222 8.72581C19.5755 7.5115 19.7523 6.29533 19.7523 5.07635C19.7523 4.81381 19.7477 4.61703 19.7383 4.48572C20.6227 3.83914 21.3764 3.05617 22 2.1376Z" fill="#FCC21D"/>
</svg>
