<svg width="21" height="12" viewBox="0 0 21 12" fill="none" xmlns="http://www.w3.org/2000/svg">
<path d="M20.6257 10.3053C20.6015 10.2531 20.5789 10.2098 20.5579 10.1751C20.2109 9.55017 19.5478 8.78308 18.569 7.87364L18.5483 7.85281L18.538 7.8426L18.5275 7.83213H18.517C18.0727 7.40865 17.7914 7.12391 17.6736 6.97813C17.4581 6.70043 17.4098 6.41933 17.5276 6.13452C17.6108 5.91933 17.9235 5.46488 18.4648 4.77056C18.7495 4.40258 18.975 4.10767 19.1416 3.88548C20.3427 2.28871 20.8634 1.26835 20.7036 0.82401L20.6416 0.720173C20.5999 0.657659 20.4923 0.60047 20.3189 0.548314C20.1452 0.496268 19.9231 0.487661 19.6523 0.522346L16.6534 0.543062C16.6048 0.525847 16.5354 0.527452 16.4451 0.548314C16.3548 0.569176 16.3096 0.579644 16.3096 0.579644L16.2574 0.605722L16.216 0.637052C16.1813 0.657768 16.1431 0.694205 16.1014 0.746287C16.0599 0.798188 16.0253 0.859096 15.9975 0.928504C15.671 1.7685 15.2998 2.54949 14.8832 3.27143C14.6263 3.70191 14.3904 4.07499 14.175 4.39088C13.9598 4.70666 13.7793 4.93931 13.6336 5.08845C13.4877 5.23773 13.3561 5.35733 13.2378 5.44767C13.1198 5.53805 13.0297 5.57623 12.9672 5.56226C12.9047 5.5483 12.8458 5.53444 12.79 5.52058C12.6929 5.45806 12.6148 5.37305 12.5559 5.26545C12.4967 5.15786 12.4569 5.02244 12.4361 4.85929C12.4153 4.69604 12.4031 4.55562 12.3996 4.43756C12.3963 4.31965 12.3978 4.15286 12.4049 3.93767C12.4121 3.72237 12.4153 3.5767 12.4153 3.50033C12.4153 3.23649 12.4205 2.95014 12.4308 2.64122C12.4413 2.33229 12.4498 2.08753 12.4569 1.90721C12.464 1.7267 12.4673 1.53574 12.4673 1.33441C12.4673 1.13308 12.455 0.975188 12.4308 0.860592C12.4069 0.746141 12.3702 0.635046 12.3218 0.527342C12.2731 0.419749 12.2018 0.336518 12.1083 0.277433C12.0146 0.21842 11.8981 0.171589 11.7595 0.136795C11.3915 0.0535279 10.9229 0.00848438 10.3535 0.00148165C9.06238 -0.0123779 8.23274 0.0709981 7.8648 0.251501C7.71902 0.327765 7.5871 0.431967 7.46915 0.563778C7.34416 0.716562 7.32673 0.799938 7.41696 0.813652C7.83355 0.876057 8.12846 1.02534 8.30204 1.26135L8.36459 1.38642C8.41324 1.47665 8.46182 1.6364 8.51044 1.86545C8.55899 2.09449 8.59032 2.34787 8.6041 2.62542C8.63875 3.13228 8.63875 3.56616 8.6041 3.92709C8.56934 4.28817 8.53652 4.56926 8.50519 4.77059C8.47386 4.97192 8.42703 5.13506 8.36459 5.25998C8.30204 5.38494 8.26042 5.46131 8.23956 5.48903C8.21873 5.51675 8.20137 5.53422 8.18759 5.54107C8.09735 5.57565 8.00351 5.59327 7.90638 5.59327C7.80911 5.59327 7.69116 5.54461 7.55234 5.44738C7.41357 5.35014 7.26954 5.21658 7.12025 5.04647C6.97097 4.87633 6.80262 4.63856 6.61511 4.33314C6.42775 4.02772 6.23335 3.66675 6.03202 3.25024L5.86545 2.94817C5.76132 2.75384 5.61908 2.47089 5.43858 2.09956C5.25797 1.72809 5.09833 1.36876 4.95955 1.02165C4.90407 0.875874 4.82073 0.764888 4.70968 0.688515L4.65756 0.657185C4.62291 0.629466 4.56729 0.600032 4.49099 0.568666C4.41458 0.537336 4.33485 0.514869 4.25147 0.501045L1.39826 0.521762C1.1067 0.521762 0.908873 0.587814 0.804707 0.719735L0.763019 0.782139C0.742194 0.816898 0.731689 0.872409 0.731689 0.948819C0.731689 1.02519 0.752515 1.11893 0.794203 1.22991C1.21072 2.20884 1.66367 3.15293 2.15306 4.06233C2.64245 4.97174 3.06772 5.70429 3.42861 6.25933C3.78958 6.81477 4.15752 7.33899 4.53242 7.83173C4.90732 8.32466 5.15548 8.64055 5.2769 8.77932C5.39846 8.91836 5.49394 9.0223 5.56335 9.09171L5.82373 9.34158C5.99034 9.50823 6.23499 9.7078 6.55781 9.94032C6.8807 10.173 7.23817 10.402 7.6304 10.6278C8.02269 10.8533 8.47908 11.0372 8.99979 11.1795C9.52044 11.3219 10.0272 11.3791 10.5201 11.3515H11.7177C11.9605 11.3305 12.1445 11.2542 12.2696 11.1224L12.311 11.0702C12.3389 11.0287 12.365 10.9644 12.389 10.8777C12.4134 10.791 12.4255 10.6954 12.4255 10.5914C12.4184 10.2929 12.4411 10.0239 12.4931 9.78447C12.545 9.54506 12.6041 9.36456 12.6703 9.243C12.7364 9.12155 12.811 9.01906 12.8941 8.93597C12.9773 8.85271 13.0366 8.80227 13.0714 8.7849C13.106 8.76743 13.1336 8.75558 13.1544 8.74847C13.321 8.69296 13.5171 8.74672 13.7429 8.91C13.9686 9.07315 14.1803 9.27458 14.3782 9.51399C14.5761 9.75361 14.8138 10.0225 15.0914 10.3209C15.3693 10.6195 15.6122 10.8414 15.8203 10.9874L16.0285 11.1124C16.1676 11.1957 16.3481 11.2721 16.5703 11.3415C16.7921 11.4109 16.9864 11.4283 17.1532 11.3936L19.8189 11.352C20.0826 11.352 20.2877 11.3083 20.4332 11.2217C20.5791 11.1349 20.6657 11.0393 20.6936 10.9354C20.7215 10.8313 20.723 10.7132 20.6989 10.5811C20.6742 10.4494 20.6499 10.3573 20.6257 10.3053Z" fill="white"/>
</svg>
