<svg width="22" height="16" viewBox="0 0 22 16" fill="none" xmlns="http://www.w3.org/2000/svg">
<path d="M21.1425 1.37349C20.3484 0.397936 18.8821 0 16.0821 0H5.91772C3.05353 0 1.5625 0.423604 0.771349 1.46222C0 2.47488 0 3.96696 0 6.03203V9.96804C0 13.9687 0.9152 16 5.91772 16H16.0821C18.5103 16 19.8559 15.6489 20.7264 14.7879C21.6192 13.9051 22 12.4636 22 9.96804V6.03203C22 3.85424 21.9404 2.35337 21.1425 1.37349ZM14.1241 8.54344L9.50847 11.0363C9.40529 11.092 9.29244 11.1197 9.17974 11.1197C9.05214 11.1197 8.92483 11.0842 8.81207 11.0136C8.59973 10.8807 8.47007 10.6428 8.47007 10.3863V5.41657C8.47007 5.16047 8.59937 4.92286 8.81129 4.78982C9.02326 4.65679 9.28691 4.64769 9.50684 4.76576L14.1225 7.24255C14.3573 7.36856 14.5047 7.61908 14.5051 7.89241C14.5054 8.16597 14.3586 8.41685 14.1241 8.54344Z" fill="#FCC21D"/>
</svg>
