<svg width="20" height="14" viewBox="0 0 20 14" fill="none" xmlns="http://www.w3.org/2000/svg">
<path d="M19.2204 1.20181C18.4985 0.348194 17.1656 0 14.6201 0H5.37975C2.77594 0 1.42045 0.370654 0.701226 1.27944C0 2.16552 0 3.47109 0 5.27802V8.72204C0 12.2226 0.832 14 5.37975 14H14.6201C16.8276 14 18.0508 13.6928 18.8422 12.9395C19.6538 12.1669 20 10.9057 20 8.72204V5.27802C20 3.37246 19.9458 2.0592 19.2204 1.20181ZM12.8401 7.47551L8.64406 9.65675C8.55026 9.70553 8.44767 9.72972 8.34522 9.72972C8.22922 9.72972 8.11348 9.69866 8.01097 9.63692C7.81794 9.52059 7.70006 9.31248 7.70006 9.088V4.7395C7.70006 4.51541 7.81761 4.3075 8.01026 4.19109C8.20297 4.07469 8.44264 4.06673 8.64258 4.17004L12.8386 6.33723C13.0521 6.44749 13.1861 6.6667 13.1864 6.90586C13.1867 7.14523 13.0533 7.36475 12.8401 7.47551Z" fill="white"/>
</svg>
