<svg width="354" height="347" viewBox="0 0 354 347" fill="none" xmlns="http://www.w3.org/2000/svg">
<path d="M176.426 346.01C242.984 346.01 296.941 315.208 296.941 277.213C296.941 239.217 242.984 208.416 176.426 208.416C109.867 208.416 55.911 239.217 55.911 277.213C55.911 315.208 109.867 346.01 176.426 346.01Z" fill="url(#paint0_radial)"/>
<path d="M199.337 110.932C199.337 110.932 199.254 110.769 199.133 110.525C205 105.236 225.481 85.231 225.481 63.7079C225.481 46.0427 212.984 24.5177 197.567 15.6298C190.407 11.5011 183.896 10.8646 178.955 13.095C179.065 13.0237 179.181 12.9636 179.292 12.8957L178.947 13.0565C178.848 13.1014 178.749 13.1476 178.65 13.195L178.639 13.1999L178.64 13.2004C173.116 15.8597 169.653 22.2279 169.653 31.5218C169.653 56.6369 197.561 111.884 197.567 111.895V111.896L197.567 111.896L197.568 111.895L205.288 108.041C205.288 108.041 233.202 84.9708 233.202 59.8531C233.202 37.0884 218.646 18.0419 205.288 11.7751C201.795 10.1362 194.734 6.82381 186.547 8.98934C182.321 10.1072 179.277 12.2925 177.482 13.8308" stroke="#FCC214" stroke-miterlimit="10"/>
<path d="M79.6001 207.426C79.831 207.426 80.0545 207.443 80.2844 207.445L80.2713 209.85C80.0414 209.848 79.8179 209.831 79.587 209.831C62.3338 209.863 48.2552 217.979 48.2011 227.926C48.201 227.954 48.2077 227.98 48.2079 228.007L44.0361 228.015C44.036 227.988 44.0293 227.961 44.0294 227.934C44.0906 216.662 60.0492 207.462 79.6001 207.426Z" fill="#FCC214"/>
<path d="M79.5478 217.047C79.7821 217.046 79.9998 217.081 80.232 217.086L80.2189 219.491C79.9873 219.485 79.769 219.451 79.5347 219.452C71.4846 219.466 64.9133 223.255 64.888 227.896C64.8878 227.924 64.9015 227.949 64.9018 227.977L60.7301 227.985C60.73 227.957 60.7161 227.932 60.7163 227.904C60.7487 221.935 69.1959 217.066 79.5478 217.047Z" fill="#FCC214"/>
<path d="M79.574 212.236C79.8049 212.236 80.0286 212.252 80.2583 212.255L80.2452 214.66C80.0159 214.656 79.7919 214.641 79.5609 214.641C66.9113 214.664 56.5842 220.618 56.5446 227.911C56.5445 227.938 56.5512 227.965 56.5513 227.992L52.3796 227.999C52.3795 227.972 52.3728 227.946 52.3729 227.918C52.4198 219.298 64.6226 212.263 79.574 212.236Z" fill="#FCC214"/>
<path d="M4.98745 91.5043L1.43196 89.743C0.94163 89.5004 0.347234 89.701 0.103279 90.1901C-0.139707 90.6797 0.060684 91.2737 0.551013 91.5169L8.58263 95.4958C8.72397 95.5659 8.8745 95.5987 9.02213 95.5987C9.3871 95.5987 9.73802 95.3972 9.91131 95.0487C10.1543 94.5591 9.95391 93.965 9.46358 93.7219L7.11527 92.5585L23.6 82.9813C25.5785 80.1977 28.9646 78.4831 31.6372 76.4742C31.7168 76.4144 31.7944 76.393 31.8694 76.3872C32.6184 75.8664 33.5458 75.2803 33.7583 74.7891L4.98745 91.5043Z" fill="#FCC214"/>
<path d="M152.751 176.654L150.403 175.491L184.799 155.508C184.994 154.545 186.333 153.57 186.887 153.04C187.502 152.452 187.943 151.777 188.426 151.11L148.275 174.437L144.72 172.676C144.229 172.433 143.635 172.633 143.391 173.123C143.148 173.612 143.349 174.206 143.839 174.449L151.87 178.428C152.012 178.498 152.162 178.531 152.31 178.531C152.675 178.531 153.026 178.33 153.199 177.981C153.442 177.492 153.242 176.898 152.751 176.654Z" fill="#FCC214"/>
<path d="M242.13 119.909C242.975 119.961 243.821 120.015 244.659 119.876C244.92 119.833 245.113 119.976 245.21 120.163C245.332 120.175 245.454 120.187 245.576 120.197L261.644 110.862L268.953 115.114C269.421 114.839 269.983 114.785 270.538 114.775C271.122 114.765 271.707 114.767 272.292 114.765L224.175 86.7759C223.837 87.3443 223.466 87.8917 223.088 88.4353L259.674 109.716L242.13 119.909Z" fill="#FCC214"/>
<path d="M314.077 139.07C314.201 139.818 314.228 140.579 314.095 141.372L331.129 151.28L331.076 151.311C330.976 151.369 330.898 151.448 330.827 151.532L219.767 216.056L216.211 214.294C215.722 214.052 215.127 214.252 214.883 214.741C214.64 215.231 214.84 215.825 215.331 216.068L223.362 220.047C223.504 220.117 223.654 220.15 223.802 220.15C224.167 220.15 224.518 219.949 224.691 219.6C224.934 219.11 224.733 218.516 224.243 218.273L221.895 217.11L333.164 152.464L354 164.583V162.292L314.077 139.07Z" fill="#FCC214"/>
<path d="M175.805 60.9323C175.616 60.1374 175.518 59.3252 175.544 58.4891L159.378 49.0859C160.112 50.0353 160.553 51.0898 160.825 52.2193L175.805 60.9323Z" fill="#FCC214"/>
<path d="M80.9553 135.34L78.6075 134.177L180.797 74.8063C180.501 74.2208 180.271 73.5772 180.086 72.9292L76.4796 133.123L72.9237 131.361C72.4343 131.119 71.8384 131.319 71.595 131.808C71.352 132.298 71.5524 132.892 72.0427 133.135L80.0743 137.114C80.2157 137.184 80.3662 137.217 80.5138 137.217C80.8788 137.217 81.2297 137.015 81.403 136.667C81.646 136.177 81.4456 135.583 80.9553 135.34Z" fill="#FCC214"/>
<path d="M96.0256 38.6133C96.6851 38.6248 97.3362 38.5513 97.9966 38.5051C98.7544 38.4521 99.5122 38.5065 100.27 38.4379L117.991 28.1421C118.132 28.1295 118.272 28.0947 118.402 28.0189L118.812 27.781L130.286 34.455C131.457 34.1909 135.547 35.8161 136.688 35.8878L74.9472 0L73.3425 1.3569L116.742 26.5773L96.0256 38.6133Z" fill="#FCC214"/>
<path d="M144.177 77.1479C144.177 81.2 147.043 82.8321 150.58 80.7934C154.116 78.7546 156.983 73.8169 156.983 69.7648C156.983 65.7127 154.116 64.0806 150.58 66.1193C147.043 68.1581 144.177 73.0957 144.177 77.1479ZM148.404 74.5919C148.402 74.6323 148.401 74.6725 148.401 74.7124C148.401 74.7523 148.402 74.7914 148.404 74.8299C148.413 75.0501 148.305 75.3234 148.134 75.5348L146.148 77.9941C145.85 78.3627 145.466 78.4097 145.376 78.0818C145.252 77.635 145.186 77.1283 145.186 76.5658C145.186 76.0033 145.252 75.4205 145.375 74.8318C145.466 74.3996 145.85 74.0034 146.148 74.0287L148.134 74.1976C148.305 74.2121 148.413 74.3608 148.404 74.5919ZM146.752 71.3121C147.417 70.1604 148.256 69.1076 149.197 68.2801C149.533 67.9848 149.862 68.084 149.862 68.4822V71.1034C149.862 71.3322 149.756 71.6089 149.579 71.8164C149.518 71.8875 149.459 71.9607 149.402 72.0359C149.236 72.2534 149.023 72.3748 148.853 72.3603L146.867 72.1915C146.569 72.1661 146.509 71.7316 146.752 71.3121ZM151.962 66.6859C152.903 66.4287 153.743 66.5133 154.408 66.8981C154.65 67.0382 154.59 67.5418 154.292 67.9107L152.307 70.3691C152.136 70.5801 151.923 70.7044 151.758 70.6776C151.701 70.6683 151.642 70.6632 151.581 70.6621C151.404 70.6589 151.297 70.5051 151.297 70.2763V67.655C151.297 67.2569 151.627 66.7778 151.962 66.6859ZM155.784 68.8309C155.907 69.2777 155.973 69.7844 155.973 70.3468C155.973 70.9094 155.907 71.4921 155.784 72.0809C155.694 72.5131 155.309 72.9093 155.012 72.884L153.025 72.7151C152.854 72.7006 152.746 72.5519 152.756 72.3206C152.758 72.2804 152.758 72.2402 152.758 72.2003C152.758 72.1604 152.758 72.1213 152.756 72.0828C152.746 71.8626 152.854 71.5893 153.025 71.378L155.012 68.9186C155.309 68.55 155.694 68.503 155.784 68.8309ZM154.408 75.6006C153.743 76.7522 152.903 77.8051 151.962 78.6324C151.627 78.9278 151.297 78.8285 151.297 78.4305V75.8092C151.297 75.5804 151.404 75.3037 151.581 75.0962C151.642 75.0252 151.701 74.952 151.758 74.8767C151.923 74.6593 152.136 74.5379 152.307 74.5523L154.292 74.7212C154.59 74.7466 154.65 75.1811 154.408 75.6006ZM149.197 80.2267C148.256 80.484 147.417 80.3994 146.752 80.0146C146.509 79.8745 146.569 79.3709 146.867 79.002L148.853 76.5435C149.023 76.3325 149.236 76.2083 149.402 76.235C149.459 76.2442 149.518 76.2495 149.579 76.2506C149.756 76.2537 149.862 76.4076 149.862 76.6363V79.2577C149.862 79.6557 149.533 80.1349 149.197 80.2267Z" fill="#FCC214"/>
<path d="M74.2329 115.847C74.2329 120.094 77.2372 121.804 80.9431 119.668C84.649 117.531 87.6534 112.357 87.6534 108.11C87.6534 103.864 84.649 102.153 80.9431 104.29C77.2372 106.426 74.2329 111.601 74.2329 115.847ZM78.6626 113.169C78.6609 113.211 78.66 113.253 78.66 113.295C78.66 113.337 78.6609 113.378 78.6626 113.418C78.6726 113.649 78.5594 113.935 78.3804 114.157L76.2988 116.734C75.9868 117.12 75.5839 117.17 75.4892 116.826C75.3601 116.358 75.291 115.827 75.291 115.237C75.291 114.648 75.3601 114.037 75.4892 113.42C75.5839 112.967 75.9868 112.552 76.2988 112.579L78.3804 112.756C78.5594 112.771 78.6726 112.927 78.6626 113.169ZM76.9314 109.732C77.6283 108.525 78.5084 107.421 79.4942 106.554C79.8461 106.245 80.1913 106.349 80.1913 106.766V109.513C80.1913 109.753 80.0797 110.043 79.894 110.26C79.8304 110.335 79.7685 110.411 79.7087 110.49C79.5353 110.718 79.3119 110.845 79.1334 110.83L77.0525 110.653C76.7403 110.627 76.6774 110.171 76.9314 109.732ZM82.3921 104.884C83.3779 104.614 84.2579 104.703 84.9549 105.106C85.2088 105.253 85.146 105.781 84.8337 106.167L82.7528 108.744C82.5742 108.965 82.351 109.095 82.1776 109.067C82.1177 109.057 82.0559 109.052 81.9923 109.051C81.8065 109.047 81.6949 108.886 81.6949 108.646V105.899C81.6949 105.482 82.0402 104.98 82.3921 104.884ZM86.3971 107.131C86.5261 107.6 86.5953 108.131 86.5953 108.72C86.5953 109.31 86.5261 109.92 86.3971 110.537C86.3024 110.99 85.8995 111.406 85.5874 111.379L83.5058 111.202C83.3268 111.187 83.2136 111.031 83.2236 110.789C83.2254 110.746 83.2262 110.704 83.2262 110.662C83.2262 110.621 83.2254 110.58 83.2236 110.539C83.2136 110.309 83.3268 110.022 83.5058 109.801L85.5874 107.223C85.8995 106.837 86.3024 106.788 86.3971 107.131ZM84.9549 114.226C84.2579 115.433 83.3779 116.536 82.3921 117.403C82.0402 117.713 81.6949 117.609 81.6949 117.191V114.444C81.6949 114.205 81.8065 113.915 81.9923 113.697C82.0559 113.623 82.1177 113.546 82.1776 113.467C82.351 113.239 82.5742 113.112 82.7528 113.127L84.8337 113.304C85.146 113.331 85.2088 113.786 84.9549 114.226ZM79.4942 119.074C78.5084 119.343 77.6284 119.255 76.9314 118.852C76.6775 118.705 76.7403 118.177 77.0525 117.79L79.1334 115.214C79.312 114.993 79.5353 114.863 79.7087 114.891C79.7685 114.9 79.8304 114.906 79.894 114.907C80.0797 114.91 80.1913 115.072 80.1913 115.311V118.058C80.1913 118.476 79.8461 118.978 79.4942 119.074Z" fill="#FCC214"/>
<path d="M79.8976 101.6C81.4271 100.718 82.9199 100.271 84.3346 100.271C87.6479 100.271 89.8877 102.644 90.2648 107.812L140.853 81.0151C140.775 79.0841 140.732 78.5333 140.732 77.9537C140.732 72.1558 144.694 65.3296 149.752 62.4134C151.281 61.5315 152.774 61.0846 154.189 61.0846C157.808 61.0846 160.152 63.9118 160.179 68.2923C162.035 65.9618 164.753 61.9864 164.753 58.689C164.753 51.8048 158.049 41.6972 142.768 37.3462C128.693 33.3384 122.762 33.1862 113.204 35.2202C103.647 37.2542 102.863 38.6623 98.3195 39.1317C93.7757 39.6011 91.7388 34.7508 69.4898 47.424C47.2407 60.0971 37.683 71.9879 32.6692 75.7429C27.6554 79.4979 24.5216 80.9843 22.7982 83.6441C21.0747 86.3039 19.2728 99.6029 21.7797 103.514C24.2866 107.426 49.9827 120.099 56.5634 120.725C62.6054 121.299 69.7651 117.326 70.8977 116.672C71.1015 110.978 74.975 104.438 79.8976 101.6Z" stroke="#FCC214" stroke-miterlimit="10"/>
<path d="M89.8585 38.7216C89.8585 38.7216 102.922 38.3559 110.913 39.1382C118.904 39.9205 127.531 43.0611 131.888 47.3147C135.546 50.8856 138.9 55.0904 135.61 54.621C132.32 54.1516 116.338 51.4919 115.085 51.1789C113.831 50.866 109.879 47.4899 103.286 43.7304C97.1704 40.2435 89.8585 38.7216 89.8585 38.7216Z" fill="#403E3D"/>
<path d="M134.423 53.5686C134.316 53.5686 134.195 53.5588 134.06 53.5391C130.776 53.0705 115.962 50.5799 114.743 50.2753C114.289 50.1618 113.026 49.2923 111.564 48.2849C109.521 46.8784 106.723 44.9522 103.115 42.8948C100.047 41.1458 96.7185 39.891 94.1178 39.0654C94.8447 39.0595 95.63 39.0562 96.4549 39.0562C100.466 39.0562 104.991 38.9781 109.203 39.3903C117.438 40.1968 125.704 43.4067 129.772 47.3785C133.37 50.8903 134.641 52.9773 134.637 53.5489C134.597 53.5588 134.529 53.5686 134.423 53.5686Z" stroke="#FCC214" stroke-miterlimit="10"/>
<path d="M44.5393 109.11C43.5955 109.11 42.6399 108.881 41.7556 108.406L28.3675 101.211C26.7419 100.337 25.6127 98.7268 25.3457 96.9047L24.6469 92.1247L25.5073 91.999L26.2062 96.7791C26.4341 98.3311 27.3965 99.7014 28.779 100.447L42.1671 107.642C44.3318 108.801 46.9914 108.233 48.4896 106.287L49.2973 105.237L49.9877 105.767L49.1799 106.816C48.0339 108.307 46.3061 109.11 44.5393 109.11Z" fill="#FCC214"/>
<path d="M46.4161 101.227L44.8693 103.42C44.8693 103.42 51.8957 106.635 56.5963 107.574C61.2968 108.513 65.1209 104.862 65.1209 104.158C65.1209 103.576 62.8808 103.496 58.1806 102.856C55.8505 102.538 51.827 101.415 48.9065 100.423C47.9879 100.11 46.9747 100.435 46.4161 101.227Z" fill="#FCC214"/>
<path d="M21.1112 89.7269L27.5958 93.1898L27.2278 89.5141C27.163 88.8674 26.821 88.2803 26.29 87.9044L22.1916 85.0029C21.7847 86.1878 21.4043 87.8561 21.1112 89.7269Z" fill="#FCC214"/>
<path d="M32.733 94.2295V100.331L40.4889 104.673V98.9232L32.733 94.2295Z" fill="#FCC214"/>
<path d="M28.3094 91.2896L29.8264 92.5318C34.132 96.0573 38.998 98.8385 44.2229 100.76L28.3094 91.2896Z" fill="#FCC214"/>
<path d="M22.9932 104.903C27.9147 109.035 44.5284 117.321 53.013 120.013L51.6285 117.248C50.9969 115.986 49.9455 114.983 48.6547 114.41L46.2748 113.354C40.6171 110.843 35.1197 107.987 29.8139 104.801L26.5183 102.822C25.6246 102.285 24.4652 102.562 23.9106 103.444L22.9932 104.903Z" fill="#FCC214"/>
<path d="M136.08 61.349C136.08 61.349 130.431 56.9693 118.062 56.4988C101.61 55.873 81.5544 72.8676 80.6143 76.9948C79.6742 81.122 85.6662 80.6054 97.8494 77.7771C112.421 74.3943 136.08 61.349 136.08 61.349Z" stroke="#FCC214" stroke-miterlimit="10"/>
<path d="M156.116 53.4749C156.116 53.4749 164.126 56.5578 163.5 53.2722C162.873 49.9866 159.509 47.0347 159.509 47.0347C159.509 47.0347 160.21 52.4109 156.116 53.4749Z" fill="#FCC214"/>
<path d="M136.88 61.6097C136.88 61.6097 133.573 59.6279 131.85 59.6279C130.126 59.6279 130.44 66.6686 132.32 66.8251C134.2 66.9815 133.573 63.6959 134.513 62.9136C135.453 62.1313 136.88 61.6097 136.88 61.6097Z" fill="#FCC214"/>
<path d="M48.2082 63.5733C44.3754 64.1856 34.9083 73.2176 34.5917 77.3284C34.275 81.4391 51.5332 92.0322 61.9831 90.1349C72.4331 88.2377 76.233 77.4865 75.5997 75.273C74.9663 73.0596 56.1249 62.3084 48.2082 63.5733Z" stroke="#FCC214" stroke-miterlimit="10"/>
<path d="M293.439 158.152C293.439 162.204 296.306 163.837 299.842 161.798C303.379 159.759 306.245 154.821 306.245 150.769C306.245 146.717 303.379 145.085 299.842 147.124C296.306 149.162 293.439 154.1 293.439 158.152ZM297.666 155.596C297.665 155.637 297.664 155.677 297.664 155.717C297.664 155.757 297.665 155.796 297.666 155.834C297.676 156.054 297.568 156.328 297.397 156.539L295.411 158.998C295.113 159.367 294.728 159.414 294.638 159.086C294.515 158.639 294.449 158.133 294.449 157.57C294.449 157.008 294.515 156.425 294.638 155.836C294.728 155.404 295.113 155.008 295.411 155.033L297.397 155.202C297.568 155.217 297.676 155.365 297.666 155.596ZM296.014 152.316C296.679 151.165 297.519 150.112 298.46 149.285C298.796 148.989 299.125 149.088 299.125 149.487V152.108C299.125 152.337 299.018 152.613 298.841 152.821C298.781 152.892 298.722 152.965 298.664 153.04C298.499 153.258 298.286 153.379 298.115 153.365L296.13 153.196C295.832 153.171 295.772 152.736 296.014 152.316ZM301.225 147.69C302.166 147.433 303.005 147.518 303.671 147.902C303.913 148.043 303.853 148.546 303.555 148.915L301.569 151.373C301.399 151.585 301.186 151.709 301.02 151.682C300.963 151.673 300.904 151.668 300.844 151.667C300.666 151.663 300.56 151.51 300.56 151.281V148.659C300.56 148.261 300.889 147.782 301.225 147.69ZM305.047 149.835C305.17 150.282 305.236 150.789 305.236 151.351C305.236 151.914 305.17 152.497 305.047 153.085C304.956 153.517 304.572 153.914 304.274 153.888L302.288 153.72C302.117 153.705 302.009 153.556 302.019 153.325C302.02 153.285 302.021 153.245 302.021 153.205C302.021 153.165 302.02 153.126 302.019 153.087C302.009 152.867 302.117 152.594 302.288 152.382L304.274 149.923C304.572 149.554 304.956 149.507 305.047 149.835ZM303.67 156.605C303.005 157.757 302.166 158.809 301.225 159.637C300.889 159.932 300.56 159.833 300.56 159.435V156.814C300.56 156.585 300.666 156.308 300.844 156.101C300.904 156.03 300.963 155.956 301.02 155.881C301.186 155.664 301.399 155.542 301.569 155.557L303.555 155.726C303.853 155.751 303.913 156.186 303.67 156.605ZM298.46 161.231C297.519 161.488 296.679 161.404 296.014 161.019C295.772 160.879 295.832 160.375 296.13 160.006L298.115 157.548C298.286 157.337 298.499 157.213 298.664 157.239C298.722 157.249 298.781 157.254 298.841 157.255C299.018 157.258 299.125 157.412 299.125 157.641V160.262C299.125 160.66 298.796 161.139 298.46 161.231Z" fill="#FCC214"/>
<path d="M223.496 196.852C223.496 201.098 226.5 202.809 230.206 200.672C233.912 198.535 236.916 193.361 236.916 189.115C236.916 184.868 233.912 183.158 230.206 185.294C226.5 187.431 223.496 192.605 223.496 196.852ZM227.925 194.173C227.924 194.216 227.923 194.258 227.923 194.299C227.923 194.341 227.924 194.382 227.925 194.423C227.935 194.653 227.822 194.94 227.643 195.161L225.561 197.738C225.249 198.125 224.847 198.174 224.752 197.83C224.623 197.362 224.554 196.831 224.554 196.242C224.554 195.652 224.623 195.042 224.752 194.425C224.847 193.972 225.249 193.556 225.561 193.583L227.643 193.76C227.822 193.775 227.935 193.931 227.925 194.173ZM226.194 190.736C226.891 189.529 227.771 188.426 228.757 187.559C229.109 187.249 229.454 187.353 229.454 187.77V190.517C229.454 190.757 229.342 191.047 229.157 191.265C229.093 191.339 229.031 191.416 228.971 191.495C228.798 191.723 228.575 191.85 228.396 191.835L226.315 191.658C226.003 191.631 225.94 191.176 226.194 190.736ZM231.655 185.888C232.641 185.618 233.521 185.707 234.218 186.11C234.471 186.257 234.409 186.785 234.096 187.172L232.016 189.748C231.837 189.969 231.614 190.099 231.44 190.071C231.38 190.062 231.319 190.056 231.255 190.055C231.069 190.052 230.958 189.89 230.958 189.651V186.904C230.958 186.486 231.303 185.984 231.655 185.888ZM235.66 188.136C235.789 188.604 235.858 189.135 235.858 189.725C235.858 190.314 235.789 190.925 235.66 191.542C235.565 191.995 235.162 192.41 234.85 192.383L232.768 192.206C232.589 192.191 232.476 192.035 232.486 191.793C232.488 191.751 232.489 191.709 232.489 191.667C232.489 191.625 232.488 191.584 232.486 191.544C232.476 191.313 232.589 191.027 232.768 190.805L234.85 188.228C235.162 187.842 235.565 187.792 235.66 188.136ZM234.218 195.23C233.521 196.437 232.641 197.54 231.655 198.407C231.303 198.717 230.958 198.613 230.958 198.196V195.449C230.958 195.209 231.069 194.919 231.255 194.702C231.319 194.627 231.38 194.55 231.44 194.472C231.614 194.244 231.837 194.117 232.016 194.132L234.096 194.309C234.409 194.335 234.471 194.791 234.218 195.23ZM228.757 200.078C227.771 200.348 226.891 200.259 226.194 199.856C225.94 199.709 226.003 199.181 226.315 198.795L228.396 196.218C228.575 195.997 228.798 195.867 228.971 195.895C229.031 195.905 229.093 195.91 229.157 195.911C229.342 195.915 229.454 196.076 229.454 196.316V199.063C229.454 199.48 229.109 199.982 228.757 200.078Z" fill="#FCC214"/>
<path d="M229.16 182.605C230.69 181.723 232.183 181.276 233.597 181.276C236.911 181.276 239.15 183.648 239.527 188.816L290.116 162.02C290.037 160.088 289.995 159.538 289.995 158.958C289.995 153.16 293.957 146.334 299.014 143.418C300.544 142.536 302.036 142.089 303.451 142.089C307.071 142.089 309.415 144.916 309.441 149.297C311.298 146.966 314.016 142.991 314.016 139.693C314.016 132.809 307.312 122.702 292.031 118.351C277.956 114.343 272.025 114.191 262.467 116.225C252.909 118.259 252.126 119.667 247.582 120.136C243.038 120.605 241.001 115.755 218.752 128.428C196.503 141.102 186.946 152.992 181.932 156.747C176.918 160.502 173.784 161.989 172.061 164.648C170.337 167.308 168.535 180.607 171.042 184.519C173.549 188.43 199.245 201.103 205.826 201.729C211.868 202.304 219.028 198.331 220.16 197.676C220.364 191.983 224.238 185.443 229.16 182.605Z" stroke="#FCC214" stroke-miterlimit="10"/>
<path d="M283.685 134.573C283.578 134.573 283.457 134.563 283.323 134.543C280.039 134.075 265.225 131.584 264.005 131.28C263.552 131.166 262.289 130.297 260.826 129.289C258.783 127.883 255.985 125.957 252.377 123.899C249.31 122.15 245.981 120.895 243.38 120.07C244.107 120.064 244.893 120.061 245.717 120.061C249.728 120.061 254.253 119.982 258.465 120.395C266.7 121.201 274.967 124.411 279.035 128.383C282.633 131.895 283.903 133.982 283.899 134.553C283.859 134.563 283.791 134.573 283.685 134.573Z" stroke="#FCC214" stroke-miterlimit="10"/>
<path d="M193.802 190.115C192.858 190.115 191.902 189.886 191.018 189.41L177.63 182.215C176.004 181.341 174.875 179.731 174.608 177.909L173.909 173.129L174.77 173.003L175.469 177.783C175.697 179.336 176.659 180.706 178.042 181.451L191.43 188.646C193.594 189.806 196.254 189.237 197.752 187.291L198.56 186.242L199.25 186.771L198.442 187.821C197.296 189.312 195.569 190.115 193.802 190.115Z" fill="#FCC214"/>
<path d="M195.679 182.231L194.132 184.425C194.132 184.425 201.158 187.64 205.859 188.578C210.559 189.517 214.384 185.866 214.384 185.162C214.384 184.581 212.143 184.5 207.443 183.86C205.113 183.543 201.09 182.42 198.169 181.427C197.25 181.115 196.237 181.439 195.679 182.231Z" fill="#FCC214"/>
<path d="M170.374 170.731L176.859 174.194L176.49 170.518C176.426 169.871 176.084 169.284 175.553 168.908L171.454 166.007C171.047 167.192 170.667 168.86 170.374 170.731Z" fill="#FCC214"/>
<path d="M181.996 175.234V181.336L189.751 185.678V179.928L181.996 175.234Z" fill="#FCC214"/>
<path d="M177.572 172.294L179.089 173.536C183.395 177.062 188.261 179.843 193.485 181.764L177.572 172.294Z" fill="#FCC214"/>
<path d="M172.256 185.907C177.177 190.04 193.791 198.326 202.276 201.017L200.891 198.252C200.259 196.991 199.208 195.988 197.917 195.415L195.537 194.358C189.88 191.848 184.382 188.991 179.076 185.805L175.781 183.826C174.887 183.29 173.728 183.566 173.173 184.448L172.256 185.907Z" fill="#FCC214"/>
<path d="M285.343 142.353C285.343 142.353 279.693 137.974 267.324 137.503C250.872 136.877 230.817 153.872 229.877 157.999C228.937 162.126 234.929 161.61 247.112 158.782C261.684 155.399 285.343 142.353 285.343 142.353Z" stroke="#FCC214" stroke-miterlimit="10"/>
<path d="M305.379 134.479C305.379 134.479 313.389 137.562 312.762 134.277C312.136 130.991 308.772 128.039 308.772 128.039C308.772 128.039 309.473 133.415 305.379 134.479Z" fill="#FCC214"/>
<path d="M286.142 142.614C286.142 142.614 282.836 140.632 281.112 140.632C279.389 140.632 279.702 147.673 281.582 147.83C283.462 147.986 282.836 144.7 283.776 143.918C284.716 143.136 286.142 142.614 286.142 142.614Z" fill="#FCC214"/>
<path d="M197.471 144.578C193.638 145.19 184.171 154.222 183.854 158.333C183.538 162.444 200.796 173.037 211.246 171.139C221.696 169.242 225.496 158.491 224.862 156.277C224.229 154.064 205.387 143.313 197.471 144.578Z" stroke="#FCC214" stroke-miterlimit="10"/>
<path d="M141.104 125.331L148.393 129.533L28.6508 199.936L39.5483 206.14L159.254 135.795L168.222 140.965L178.579 119.36L141.104 125.331Z" fill="#FCC214"/>
<path d="M197.708 122.391C207.267 122.391 215.016 118.446 215.016 113.579C215.016 108.712 207.267 104.766 197.708 104.766C188.15 104.766 180.401 108.712 180.401 113.579C180.401 118.446 188.15 122.391 197.708 122.391Z" fill="#FCC214"/>
<path d="M179.292 12.8957L182.061 11.6055C181.082 11.9301 180.16 12.3672 179.292 12.8957Z" fill="#383838"/>
<g opacity="0.7">
<path opacity="0.7" d="M176.119 322.122C176.118 322.122 176.118 322.122 176.117 322.122C155.688 322.122 136.491 317.541 122.064 309.224C107.465 300.807 99.4249 289.536 99.4249 277.489C99.4249 265.337 107.585 253.94 122.402 245.397C137.048 236.954 156.464 232.304 177.074 232.304C197.502 232.304 216.699 236.885 231.127 245.203C245.727 253.62 253.768 264.891 253.768 276.937C253.767 289.09 245.607 300.486 230.79 309.028C216.144 317.472 196.727 322.122 176.119 322.122ZM177.074 234.283C156.806 234.283 137.742 238.84 123.393 247.112C109.216 255.286 101.408 266.074 101.408 277.489C101.408 288.8 109.096 299.46 123.056 307.509C137.187 315.656 156.031 320.142 176.117 320.142C196.384 320.143 215.448 315.587 229.798 307.313C243.977 299.14 251.784 288.352 251.785 276.937C251.785 265.627 244.097 254.967 230.136 246.918C216.004 238.771 197.16 234.283 177.074 234.283Z" fill="#FCC214"/>
</g>
<g opacity="0.5">
<path opacity="0.5" d="M175.985 334.379C175.984 334.379 175.983 334.379 175.981 334.379C149.829 334.379 125.261 328.519 106.804 317.879C88.2194 307.164 77.984 292.847 77.984 277.568C77.984 262.153 88.3724 247.674 107.237 236.798C125.973 225.996 150.824 220.047 177.211 220.047C203.363 220.047 227.931 225.907 246.387 236.549C264.972 247.263 275.207 261.579 275.207 276.859C275.207 292.274 264.819 306.753 245.954 317.628C227.218 328.43 202.369 334.379 175.985 334.379ZM177.211 221.532C151.08 221.532 126.494 227.411 107.981 238.084C89.596 248.683 79.471 262.706 79.471 277.568C79.471 292.295 89.4421 306.155 107.548 316.593C125.782 327.105 150.085 332.894 175.982 332.894C202.11 332.895 226.696 327.017 245.211 316.343C263.595 305.743 273.721 291.721 273.721 276.859C273.721 262.132 263.749 248.273 245.644 237.834C227.41 227.322 203.106 221.532 177.211 221.532Z" fill="#FCC214"/>
</g>
<g opacity="0.3">
<path opacity="0.3" d="M175.846 347C175.844 347 175.844 347 175.842 347C143.795 346.999 113.698 339.822 91.0956 326.791C68.4059 313.711 55.911 296.258 55.911 277.648C55.911 258.873 68.5957 241.221 91.628 227.942C114.574 214.712 145.018 207.426 177.351 207.426C209.396 207.426 239.492 214.603 262.096 227.635C284.786 240.715 297.281 258.168 297.281 276.778C297.282 295.553 284.597 313.207 261.564 326.485C238.617 339.714 208.175 347 175.846 347ZM177.351 208.416C145.19 208.416 114.922 215.655 92.1236 228.799C69.4107 241.893 56.9023 259.241 56.9023 277.648C56.9023 295.889 69.221 313.037 91.5912 325.935C114.046 338.88 143.966 346.009 175.842 346.01C208.001 346.011 238.269 338.772 261.069 325.628C283.782 312.533 296.29 295.185 296.289 276.778C296.289 258.537 283.97 241.388 261.6 228.491C239.145 215.545 209.225 208.416 177.351 208.416Z" fill="#FCC214"/>
</g>
<path d="M119.433 260.239C116.102 258.319 113.402 259.856 113.402 263.673C113.402 267.489 116.102 272.14 119.433 274.06C122.763 275.98 125.464 274.443 125.464 270.627C125.464 266.81 122.763 262.159 119.433 260.239ZM121.736 267.848L123.607 267.689C123.887 267.665 124.249 268.038 124.334 268.445C124.451 269 124.513 269.549 124.513 270.078C124.513 270.608 124.451 271.085 124.334 271.506C124.249 271.815 123.887 271.771 123.607 271.424L121.736 269.107C121.575 268.908 121.473 268.651 121.482 268.443C121.484 268.407 121.485 268.37 121.485 268.333C121.485 268.295 121.484 268.257 121.482 268.219C121.473 268.002 121.575 267.861 121.736 267.848ZM122.93 265.958L121.059 266.117C120.899 266.131 120.698 266.017 120.542 265.812C120.488 265.741 120.433 265.672 120.376 265.605C120.209 265.41 120.108 265.149 120.108 264.934V262.465C120.108 262.09 120.419 261.996 120.735 262.274C121.621 263.054 122.412 264.045 123.038 265.13C123.267 265.525 123.21 265.934 122.93 265.958ZM118.757 261.686V264.155C118.757 264.37 118.657 264.515 118.49 264.518C118.433 264.519 118.377 264.524 118.323 264.533C118.167 264.558 117.967 264.441 117.806 264.242L115.936 261.926C115.655 261.579 115.599 261.105 115.827 260.973C116.453 260.61 117.244 260.531 118.13 260.773C118.447 260.859 118.757 261.311 118.757 261.686ZM115.259 262.876L117.129 265.192C117.29 265.391 117.392 265.649 117.383 265.856C117.382 265.892 117.381 265.929 117.381 265.967C117.381 266.004 117.382 266.042 117.383 266.08C117.392 266.298 117.29 266.438 117.129 266.452L115.259 266.611C114.978 266.634 114.616 266.261 114.531 265.854C114.415 265.3 114.353 264.751 114.353 264.221C114.353 263.691 114.415 263.214 114.531 262.793C114.616 262.484 114.978 262.529 115.259 262.876ZM115.936 268.341L117.806 268.182C117.967 268.168 118.167 268.283 118.323 268.488C118.377 268.558 118.433 268.627 118.49 268.694C118.657 268.89 118.757 269.15 118.757 269.366V271.835C118.757 272.21 118.447 272.303 118.13 272.025C117.244 271.246 116.453 270.254 115.827 269.169C115.599 268.774 115.655 268.365 115.936 268.341ZM120.108 272.614V270.145C120.108 269.929 120.209 269.784 120.376 269.781C120.433 269.78 120.488 269.776 120.542 269.767C120.698 269.742 120.899 269.859 121.059 270.057L122.93 272.373C123.21 272.72 123.267 273.195 123.038 273.327C122.412 273.689 121.621 273.769 120.735 273.527C120.419 273.44 120.108 272.989 120.108 272.614Z" fill="#FCC214"/>
<path d="M185.226 297.148C181.895 295.228 179.195 296.765 179.195 300.582C179.195 304.399 181.895 309.049 185.226 310.969C188.557 312.89 191.257 311.352 191.257 307.536C191.257 303.719 188.557 299.069 185.226 297.148ZM187.529 304.757L189.4 304.598C189.681 304.574 190.043 304.947 190.128 305.354C190.244 305.909 190.306 306.458 190.306 306.988C190.306 307.517 190.244 307.995 190.128 308.415C190.043 308.724 189.681 308.68 189.4 308.333L187.529 306.016C187.368 305.817 187.267 305.56 187.276 305.353C187.277 305.316 187.278 305.28 187.278 305.242C187.278 305.204 187.277 305.166 187.276 305.128C187.267 304.911 187.368 304.771 187.529 304.757ZM188.723 302.868L186.852 303.027C186.692 303.04 186.491 302.926 186.335 302.721C186.282 302.65 186.226 302.581 186.169 302.514C186.002 302.319 185.902 302.058 185.902 301.843V299.374C185.902 298.999 186.212 298.905 186.528 299.184C187.414 299.963 188.205 300.955 188.832 302.039C189.06 302.434 189.003 302.844 188.723 302.868ZM184.55 298.595V301.064C184.55 301.279 184.45 301.424 184.283 301.427C184.226 301.428 184.17 301.433 184.116 301.442C183.961 301.467 183.76 301.35 183.599 301.151L181.729 298.836C181.449 298.488 181.392 298.014 181.62 297.882C182.247 297.519 183.038 297.44 183.924 297.682C184.24 297.769 184.55 298.22 184.55 298.595ZM181.052 299.785L182.923 302.101C183.084 302.3 183.185 302.558 183.176 302.765C183.175 302.801 183.174 302.838 183.174 302.876C183.174 302.913 183.175 302.951 183.176 302.989C183.185 303.207 183.084 303.347 182.923 303.361L181.052 303.52C180.771 303.544 180.409 303.17 180.324 302.763C180.208 302.209 180.146 301.66 180.146 301.13C180.146 300.6 180.208 300.123 180.324 299.702C180.409 299.393 180.771 299.438 181.052 299.785ZM181.729 305.25L183.599 305.091C183.76 305.077 183.961 305.192 184.116 305.397C184.17 305.467 184.226 305.536 184.283 305.603C184.45 305.799 184.55 306.059 184.55 306.275V308.744C184.55 309.119 184.24 309.212 183.924 308.934C183.038 308.155 182.247 307.163 181.62 306.079C181.392 305.683 181.449 305.274 181.729 305.25ZM185.902 309.523V307.054C185.902 306.839 186.002 306.694 186.169 306.691C186.226 306.69 186.282 306.685 186.335 306.676C186.491 306.651 186.692 306.768 186.852 306.967L188.723 309.282C189.003 309.63 189.06 310.104 188.832 310.236C188.205 310.598 187.414 310.678 186.528 310.436C186.212 310.349 185.902 309.898 185.902 309.523Z" fill="#FCC214"/>
<path d="M186.006 293.658C184.565 292.827 183.159 292.406 181.827 292.406C178.706 292.406 176.597 294.641 176.241 299.508L128.594 274.269C128.668 272.451 128.708 271.932 128.708 271.386C128.708 265.925 124.976 259.496 120.213 256.749C118.772 255.918 117.366 255.498 116.034 255.498C112.624 255.498 110.417 258.16 110.392 262.286C108.644 260.091 106.083 256.347 106.083 253.241C106.083 246.757 112.397 237.237 126.79 233.139C140.047 229.364 145.633 229.221 154.635 231.137C163.637 233.052 164.375 234.379 168.655 234.821C172.935 235.263 174.853 230.695 195.809 242.631C216.764 254.567 225.766 265.767 230.489 269.304C235.211 272.84 238.163 274.24 239.786 276.746C241.409 279.251 243.106 291.777 240.745 295.461C238.384 299.145 214.182 311.081 207.984 311.671C202.293 312.212 195.549 308.47 194.483 307.853C194.291 302.491 190.642 296.331 186.006 293.658Z" fill="#FCC214"/>
<path d="M215.853 257.841C219.463 258.418 228.38 266.925 228.678 270.797C228.976 274.669 212.721 284.646 202.879 282.859C193.037 281.072 189.458 270.946 190.054 268.861C190.651 266.776 208.397 256.65 215.853 257.841Z" fill="#403E3D"/>
<path d="M205.316 282.307C213.12 282.307 223.259 276.745 226.811 272.916C228.018 271.613 228.037 270.99 228.029 270.878C227.759 267.392 219.032 259.109 215.808 258.594C215.449 258.536 215.048 258.508 214.615 258.508C206.82 258.508 191.586 267.35 190.652 269.154C190.522 269.622 190.894 272.034 192.695 274.926C194.09 277.166 197.276 281.078 202.946 282.107C203.676 282.24 204.474 282.307 205.316 282.307Z" fill="#403E3D"/>
<path d="M176.624 234.434C176.624 234.434 164.32 234.09 156.794 234.827C149.267 235.564 141.142 238.522 137.038 242.528C133.592 245.891 130.433 249.852 133.532 249.41C136.631 248.967 151.684 246.462 152.865 246.168C154.045 245.873 157.767 242.693 163.977 239.152C169.737 235.868 176.624 234.434 176.624 234.434Z" fill="#403E3D"/>
<path d="M134.65 248.418C134.751 248.418 134.865 248.409 134.992 248.391C138.085 247.949 152.038 245.603 153.186 245.317C153.613 245.21 154.803 244.391 156.181 243.442C158.105 242.117 160.74 240.303 164.139 238.365C167.028 236.718 170.163 235.536 172.612 234.758C171.928 234.753 171.188 234.75 170.411 234.75C166.633 234.75 162.371 234.676 158.405 235.064C150.648 235.824 142.862 238.847 139.031 242.588C135.642 245.896 134.445 247.862 134.449 248.4C134.487 248.409 134.551 248.418 134.65 248.418Z" fill="#403E3D"/>
<path d="M217.541 293.306L218.998 295.372C218.998 295.372 212.38 298.4 207.953 299.284C203.525 300.168 199.924 296.73 199.924 296.067C199.924 295.519 202.033 295.443 206.46 294.84C208.655 294.541 212.445 293.484 215.195 292.549C216.061 292.255 217.015 292.56 217.541 293.306Z" fill="#403E3D"/>
<path d="M241.375 282.475L235.267 285.736L235.614 282.274C235.675 281.665 235.997 281.112 236.497 280.758L240.357 278.025C240.741 279.141 241.099 280.713 241.375 282.475Z" fill="#403E3D"/>
<path d="M230.429 286.716V292.463L223.124 296.552V291.137L230.429 286.716Z" fill="#403E3D"/>
<path d="M234.595 283.946L233.166 285.116C229.111 288.437 224.528 291.056 219.607 292.866L234.595 283.946Z" fill="#403E3D"/>
<path d="M219.308 300.569C217.692 300.569 216.115 299.835 215.067 298.472L214.306 297.483L214.699 297.182L215.46 298.171C216.919 300.065 219.506 300.623 221.619 299.489L234.229 292.713C235.578 291.989 236.514 290.653 236.735 289.14L237.395 284.637L238.058 283.946L237.225 289.211C236.982 290.879 235.949 292.35 234.463 293.148L221.853 299.924C221.044 300.359 220.171 300.569 219.308 300.569Z" fill="#403E3D"/>
<path d="M239.602 296.768C234.967 300.661 219.319 308.465 211.328 311L212.632 308.396C213.227 307.208 214.217 306.263 215.433 305.723L217.674 304.728C223.003 302.363 228.181 299.673 233.178 296.672L236.282 294.809C237.124 294.303 238.216 294.563 238.738 295.394L239.602 296.768Z" fill="#403E3D"/>
<path d="M133.09 255.746C133.09 255.746 138.411 251.621 150.061 251.178C165.556 250.588 184.446 266.595 185.331 270.482C186.216 274.37 180.573 273.883 169.098 271.219C155.373 268.033 133.09 255.746 133.09 255.746Z" fill="#403E3D"/>
<path d="M158.405 264.735C158.073 265.317 157.777 265.86 157.495 266.386C148.11 262.608 138.48 257.598 134.911 255.693C137.1 254.516 142.044 252.43 150.017 252.127C150.285 252.116 150.554 252.111 150.823 252.111C155.45 252.111 160.33 253.56 164.892 255.658C163.515 257.143 161.033 260.116 158.405 264.735Z" fill="#403E3D"/>
<path d="M162.604 263.469C164.225 260.282 165.746 257.845 166.634 256.497C172.64 259.524 177.932 263.54 181.133 266.631C180.787 268.244 180.193 270.194 179.181 272.199C176.831 271.93 173.631 271.316 169.234 270.295C166.773 269.724 164.02 268.848 161.166 267.801C161.471 266.308 161.927 264.801 162.604 263.469Z" fill="#403E3D"/>
<path d="M132.336 255.992C132.336 255.992 135.451 254.125 137.074 254.125C138.697 254.125 138.402 260.757 136.631 260.904C134.86 261.052 135.451 257.957 134.565 257.22C133.68 256.483 132.336 255.992 132.336 255.992Z" fill="#403E3D"/>
<path d="M191.257 267.97C188.406 270.828 184.071 275.275 181.017 279.601C176.849 285.506 174.558 289.892 172.635 294.551L133.961 274.482C133.961 274.482 129.923 265.448 132.651 256.051" stroke="#403E3D" stroke-width="0.5" stroke-miterlimit="10"/>
<path d="M111.344 241.274C111.344 241.274 110.786 245.416 113.402 247.43C116.018 249.444 132.843 256.202 132.843 256.202" stroke="#403E3D" stroke-width="0.5" stroke-miterlimit="10"/>
<path d="M189.241 37.0215L198.68 42.4632C201.865 44.2991 204.254 46.353 205.847 48.6241C207.439 50.895 208.236 53.3371 208.236 55.95V59.1318C208.236 61.7451 207.439 63.2686 205.847 63.7034C204.254 64.138 201.865 63.4364 198.68 61.6005L195.65 59.8537V72.9963L189.241 69.3013V37.0215ZM198.68 56.989C199.729 57.5937 200.516 57.8169 201.04 57.6579C201.564 57.4991 201.827 56.8663 201.827 55.7596V51.932C201.827 50.8254 201.564 49.8901 201.04 49.1268C200.516 48.3635 199.729 47.6794 198.68 47.0746L195.65 45.3279V55.2423L198.68 56.989Z" fill="#FCC214"/>
<defs>
<radialGradient id="paint0_radial" cx="0" cy="0" r="1" gradientUnits="userSpaceOnUse" gradientTransform="translate(176.426 277.213) scale(120.515 68.7969)">
<stop stop-color="#FCC214" stop-opacity="0.5"/>
<stop offset="1" stop-color="white" stop-opacity="0"/>
</radialGradient>
</defs>
</svg>
