<svg width="73" height="14" viewBox="0 0 73 14" fill="none" xmlns="http://www.w3.org/2000/svg">
<g clip-path="url(#clip0)">
<path d="M61.8619 13.46V13.1635H62.5511V13.771C62.4189 13.8597 62.3024 13.9203 62.2009 13.9523C62.0999 13.9844 61.9794 14.0002 61.8406 14.0002C61.6688 14.0002 61.5291 13.9712 61.4215 13.9137C61.3133 13.8562 61.2297 13.7701 61.1701 13.6563C61.1109 13.5421 61.0815 13.4112 61.0815 13.2637C61.0815 13.1082 61.114 12.9729 61.1785 12.8578C61.2435 12.7428 61.3387 12.6558 61.4642 12.5961C61.562 12.5499 61.6937 12.5271 61.8588 12.5271C62.0185 12.5271 62.1378 12.5412 62.2165 12.5697C62.2957 12.5983 62.3615 12.6426 62.4136 12.7023C62.4656 12.7625 62.5048 12.8385 62.531 12.9303L62.1013 13.0058C62.0835 12.9523 62.0532 12.911 62.011 12.8824C61.9687 12.8543 61.9149 12.8398 61.849 12.8398C61.7511 12.8398 61.6733 12.8736 61.6154 12.9404C61.5571 13.0076 61.5282 13.1135 61.5282 13.2588C61.5282 13.413 61.5576 13.5232 61.6163 13.5891C61.675 13.6554 61.7569 13.6884 61.8619 13.6884C61.9117 13.6884 61.9593 13.6814 62.0047 13.6669C62.0497 13.6528 62.1017 13.6282 62.1604 13.5939V13.46H61.8619Z" fill="#FDCA11"/>
<path d="M64.2776 13.1283H64.4658C64.4863 13.1283 64.5254 13.1218 64.5837 13.1086C64.6135 13.1029 64.6375 13.0879 64.6562 13.0638C64.6749 13.0401 64.6842 13.0124 64.6842 12.9812C64.6842 12.9355 64.6696 12.9 64.6398 12.8754C64.6104 12.8508 64.5548 12.8385 64.4734 12.8385H64.2776V13.1283ZM63.8296 13.9756V12.5508H64.573C64.7109 12.5508 64.8159 12.5626 64.8889 12.5859C64.9619 12.6092 65.0206 12.6522 65.0651 12.7155C65.1096 12.7787 65.1323 12.8556 65.1323 12.9465C65.1323 13.0256 65.1149 13.0937 65.0807 13.1512C65.0468 13.2083 64.9997 13.2548 64.9401 13.2904C64.9018 13.3133 64.8498 13.3321 64.7835 13.3466C64.8364 13.3642 64.8751 13.3818 64.8996 13.3993C64.916 13.4112 64.9396 13.4362 64.9708 13.4745C65.0019 13.5127 65.0228 13.5421 65.033 13.5627L65.2493 13.9756H64.7452L64.5072 13.5403C64.4769 13.4837 64.4498 13.4472 64.4262 13.4305C64.3942 13.4086 64.3577 13.3976 64.3168 13.3976H64.2776V13.9756H63.8296Z" fill="#FDCA11"/>
<path d="M66.7554 13.266C66.7554 13.4101 66.7825 13.5133 66.8368 13.5761C66.8906 13.6389 66.9645 13.6705 67.0574 13.6705C67.1535 13.6705 67.2274 13.6398 67.2803 13.5778C67.3324 13.5164 67.3591 13.4061 67.3591 13.2467C67.3591 13.1127 67.3315 13.0148 67.2768 12.9528C67.2216 12.8909 67.1478 12.8597 67.0539 12.8597C66.964 12.8597 66.8915 12.8914 66.8372 12.9542C66.7829 13.017 66.7554 13.1211 66.7554 13.266ZM66.3096 13.2642C66.3096 13.0315 66.3754 12.8505 66.5067 12.7209C66.6375 12.5914 66.8203 12.5264 67.0548 12.5264C67.295 12.5264 67.4801 12.5901 67.61 12.7174C67.7399 12.8448 67.8049 13.0231 67.8049 13.2524C67.8049 13.4189 67.7764 13.5554 67.7199 13.6622C67.663 13.7689 67.5811 13.8519 67.4734 13.9108C67.3662 13.9701 67.2323 13.9999 67.0726 13.9999C66.9097 13.9999 66.7749 13.974 66.6686 13.9231C66.5618 13.8721 66.4755 13.7909 66.4092 13.6802C66.3425 13.5695 66.3096 13.4307 66.3096 13.2642Z" fill="#FDCA11"/>
<path d="M69.9923 12.5508H70.4372V13.3993C70.4372 13.4837 70.4238 13.5632 70.3976 13.6378C70.3709 13.7129 70.3291 13.7784 70.2726 13.8342C70.2156 13.8904 70.156 13.9295 70.0937 13.9523C70.0069 13.9839 69.9033 13.9997 69.7818 13.9997C69.7115 13.9997 69.6346 13.9949 69.5518 13.9853C69.4686 13.9756 69.3992 13.9563 69.3436 13.9273C69.288 13.8987 69.2368 13.8574 69.1905 13.8043C69.1443 13.7516 69.1122 13.6967 69.0953 13.6405C69.0682 13.55 69.054 13.4696 69.054 13.3993V12.5508H69.4993V13.4195C69.4993 13.4973 69.5211 13.5583 69.5647 13.6018C69.6083 13.6453 69.6688 13.6673 69.7462 13.6673C69.8228 13.6673 69.8833 13.6457 69.9269 13.6027C69.9705 13.5597 69.9923 13.4986 69.9923 13.4195V12.5508Z" fill="#FDCA11"/>
<path d="M72.1865 13.1582H72.2955C72.3819 13.1582 72.4419 13.1433 72.4771 13.1139C72.5118 13.0844 72.5291 13.0467 72.5291 13.0005C72.5291 12.9562 72.514 12.918 72.4837 12.8872C72.4535 12.856 72.397 12.8402 72.3133 12.8402H72.1865V13.1582ZM71.7385 12.5508H72.4797C72.6412 12.5508 72.7623 12.5886 72.8428 12.6645C72.9229 12.7401 72.9633 12.8481 72.9633 12.9878C72.9633 13.1319 72.9193 13.2443 72.8317 13.3251C72.7445 13.4064 72.6105 13.4468 72.4308 13.4468H72.1865V13.9756H71.7385V12.5508Z" fill="#FDCA11"/>
<path d="M7.50493 0.197021V8.91455L1.59751 0.197021H0.0710449V11.2999H1.49785V2.57493L7.40527 11.2999H8.93218V0.197021H7.50493Z" fill="black"/>
<path d="M12.5149 5.91534C12.5149 7.25319 12.8793 8.3073 13.6081 9.07724C14.3368 9.84719 15.2511 10.2324 16.3509 10.2324C17.4707 10.2324 18.3926 9.84367 19.1164 9.06582C19.8403 8.28841 20.202 7.18511 20.202 5.75634C20.202 4.85244 20.0476 4.06361 19.7379 3.38942C19.4283 2.71522 18.9758 2.19256 18.3801 1.82142C17.7844 1.45029 17.1152 1.26494 16.374 1.26494C15.3201 1.26494 14.4138 1.62202 13.6543 2.33662C12.8944 3.05122 12.5149 4.24413 12.5149 5.91534ZM10.9805 5.8925C10.9805 4.04956 11.4819 2.60674 12.4842 1.56404C13.4866 0.521348 14.7804 0 16.366 0C17.4044 0 18.3405 0.245082 19.1742 0.734806C20.0075 1.22453 20.6433 1.90751 21.0807 2.7833C21.518 3.65953 21.7364 4.65304 21.7364 5.76381C21.7364 6.88996 21.5064 7.89707 21.046 8.7856C20.5859 9.67457 19.9337 10.347 19.0897 10.8042C18.2457 11.261 17.3355 11.4894 16.3585 11.4894C15.2996 11.4894 14.3533 11.2373 13.52 10.7322C12.6862 10.2275 12.0545 9.53798 11.6251 8.66438C11.1954 7.79122 10.9805 6.86712 10.9805 5.8925Z" fill="black"/>
<path d="M26.8691 11.3001L22.5112 0.196777H24.1227L27.0457 8.26295C27.2806 8.90947 27.4777 9.51515 27.6361 10.0809C27.81 9.47474 28.012 8.86906 28.2425 8.26295L31.2803 0.196777H32.7996L28.396 11.3001H26.8691Z" fill="black"/>
<path d="M34.1648 0.197021V11.2999H42.5579V9.99018H35.653V6.21074H41.875V4.90759H35.653V1.5072H42.2972V0.197021H34.1648Z" fill="black"/>
<path d="M44.5527 0.197021V11.2999H51.5804V9.99018H46.0409V0.197021H44.5527Z" fill="black"/>
<path d="M53.3831 0.197021V11.2999H61.7762V9.99018H54.8713V6.21074H61.0932V4.90759H54.8713V1.5072H61.5154V0.197021H53.3831Z" fill="black"/>
<path d="M72.6935 0.197266H71.0745L68.8113 3.14308C68.8082 3.14747 68.8046 3.15098 68.8015 3.15537L69.6019 4.29206L72.6935 0.197266ZM68.7428 5.4305L68.7441 5.42831L68.7397 5.4305L67.9224 4.40757L67.922 4.40845C67.9211 4.4067 67.9197 4.4045 67.9188 4.40318C67.7395 4.08563 67.4383 3.6328 67.0166 3.04513L64.9758 0.197266H63.2029L67.0393 5.51395L62.6895 11.3006H64.4766L67.3 7.42981C67.4076 7.27828 67.5869 7.00113 67.8374 6.59706C68.0056 6.86498 68.1698 7.11226 68.3281 7.33933L71.1591 11.3006H73.0001L68.7428 5.4305Z" fill="black"/>
<path d="M0 12.7341V13.895H7.39518L6.70157 12.7341H0Z" fill="#FDCA11"/>
<path d="M8.35498 12.7341L9.14513 13.895H60.2173L60.2089 12.7341H8.35498Z" fill="#FDCA11"/>
</g>
<defs>
<clipPath id="clip0">
<rect width="73" height="14" fill="white"/>
</clipPath>
</defs>
</svg>
