<svg width="48" height="51" viewBox="0 0 48 51" fill="none" xmlns="http://www.w3.org/2000/svg">
<path d="M47.7262 13.8016L34.7489 0.300621C34.5641 0.108574 34.3092 0 34.043 0H14.7012C12.5366 0 10.7755 1.76249 10.7755 3.92879V17.6539H2.93704C1.31754 17.6539 0 18.9726 0 20.5936V35.3103C-9.94897e-08 36.9313 1.31754 38.25 2.93704 38.25H10.7755V47.0781C10.7755 49.2406 12.5366 51 14.7012 51H44.0743C46.2389 51 48 49.2416 48 47.0803V14.4817C48 14.2281 47.9018 13.9844 47.7262 13.8016ZM34.2857 2.64772L44.939 13.7308H34.2857V2.64772ZM2.93704 36.2885C2.3978 36.2885 1.95925 35.8497 1.95925 35.3103V20.5936C1.95925 20.0543 2.3979 19.6154 2.93704 19.6154H29.3896C29.9288 19.6154 30.3673 20.0543 30.3673 20.5936V35.3103C30.3673 35.8497 29.9287 36.2885 29.3896 36.2885H2.93704ZM46.0407 47.0803C46.0407 48.16 45.1586 49.0385 44.0742 49.0385H14.7012C13.6169 49.0385 12.7347 48.1591 12.7347 47.0782V38.25H29.3896C31.009 38.25 32.3266 36.9313 32.3266 35.3103V20.5936C32.3266 18.9726 31.009 17.6539 29.3896 17.6539H12.7347V3.92879C12.7347 2.84395 13.6169 1.96151 14.7012 1.96151H32.3265V14.7115C32.3265 15.2532 32.7651 15.6923 33.3061 15.6923H46.0407V47.0803Z" fill="#ffffff"/>
<path d="M11.7111 24.8917C11.3859 24.4684 10.9822 24.1935 10.5 24.0671C10.1862 23.9828 9.5128 23.9407 8.4796 23.9407H5.75319V32.3653H7.45217V29.1874H8.55999C9.32915 29.1874 9.91654 29.1472 10.3222 29.0667C10.6206 29.0015 10.9143 28.8684 11.2032 28.6672C11.4922 28.4661 11.7303 28.1893 11.9179 27.8369C12.1054 27.4845 12.1991 27.0496 12.1991 26.5324C12.199 25.8619 12.0364 25.3151 11.7111 24.8917ZM10.2561 27.2105C10.1279 27.3983 9.95096 27.5362 9.72511 27.6243C9.49927 27.7125 9.05167 27.7565 8.382 27.7565H7.45217V25.3659H8.27296C8.88522 25.3659 9.29273 25.385 9.49549 25.4234C9.77098 25.4732 9.99871 25.5977 10.1785 25.7969C10.3584 25.9961 10.4483 26.249 10.4483 26.5554C10.4484 26.8044 10.3842 27.0228 10.2561 27.2105Z" fill="#ffffff"/>
<path d="M20.3667 26.2422C20.1831 25.704 19.9152 25.249 19.5632 24.8774C19.2112 24.5058 18.7882 24.2472 18.2947 24.1015C17.9274 23.9943 17.3935 23.9407 16.6933 23.9407H13.588V32.3653H16.7851C17.4127 32.3653 17.9139 32.306 18.2889 32.1871C18.7902 32.0263 19.1882 31.8021 19.4828 31.5148C19.8731 31.1355 20.1734 30.6394 20.384 30.0264C20.5562 29.5245 20.6422 28.9268 20.6422 28.2334C20.6422 27.4442 20.5504 26.7805 20.3667 26.2422ZM18.7136 29.7018C18.5988 30.0792 18.4506 30.3502 18.2688 30.5149C18.087 30.6796 17.8584 30.7965 17.5829 30.8654C17.3725 30.9191 17.03 30.9459 16.5555 30.9459H15.287V25.3659H16.0504C16.7429 25.3659 17.2079 25.3927 17.4451 25.4464C17.7627 25.5153 18.0249 25.6475 18.2315 25.8429C18.4381 26.0383 18.5988 26.3103 18.7136 26.6589C18.8284 27.0075 18.8858 27.5075 18.8858 28.1588C18.8858 28.8101 18.8284 29.3244 18.7136 29.7018Z" fill="#ffffff"/>
<path d="M27.8629 25.3659V23.9407H22.0944V32.3653H23.7934V28.7852H27.3061V27.36H23.7934V25.3659H27.8629Z" fill="#ffffff"/>
</svg>
